<?xml version="1.0" encoding="UTF-8" standalone="no"?>
<!-- Created with Inkscape (http://www.inkscape.org/) -->

<!-- 
 
 SLACKWARE LINUX GRAPHICS PROJECT: 

 Slackware Linux Graphics Project aims to provide a set of visual components related to GNU/Linux Slackware in both vector and 
 raster graphics formats for its users. 
 
 LEGAL DISCLAIMER: 

 Graphics in this project are all free artwork; you can use them, redistribute them and/or modify them under the *related* terms 
 explained in Slackware Linux Propaganda Graphics FAQ section on Slackware Linux home page. 

 You should have received a copy of the Slackware Linux Propaganda Graphics FAQ text 
 along with this artwork package. If not, see "http://www.slackware.com/". 

 This artwork package is distributed in the hope that it will be useful, but WITHOUT ANY WARRANTY. 

 Slackware Linux Graphics Project does not officially represent neither Linux nor Slackware Linux in any way. 
 Linux is a registered trademark of Linus Torvalds. Slackware Linux is a registered trademark of Slackware Linux, Inc. 
 and Patrick Volkerding. 
 
 DOWNLOAD INFORMATION: 

 You can download more recent versions of the Slackware Linux Graphics from the project's blog 
 at "http://www.slackware-linux-graphics.blogspot.com/". 

 OPINIONS AND SUGGESTIONS: 
 
 Please contact with the project for your opinions and suggestions related to Slackware Linux Graphics. 
 
 CONTACT INFORMATION: 
 
 Maintainer: Ismail Demiral 
 E-Mail: slackware.linux.graphics@gmail.com 
 Blog: http://www.slackware-linux-graphics.blogspot.com/ 
 
 -->

<svg
   xmlns:dc="http://purl.org/dc/elements/1.1/"
   xmlns:cc="http://creativecommons.org/ns#"
   xmlns:rdf="http://www.w3.org/1999/02/22-rdf-syntax-ns#"
   xmlns:svg="http://www.w3.org/2000/svg"
   xmlns="http://www.w3.org/2000/svg"
   xmlns:sodipodi="http://sodipodi.sourceforge.net/DTD/sodipodi-0.dtd"
   xmlns:inkscape="http://www.inkscape.org/namespaces/inkscape"
   width="512"
   height="127.99962"
   id="svg5709"
   version="1.1"
   inkscape:version="0.48.3.1 r9886"
   sodipodi:docname="Slackware.Linux.Traditional.Logo.with.Because.It.Works_FreeMono.svg">
  <defs
     id="defs5711" />
  <sodipodi:namedview
     id="base"
     pagecolor="#ffffff"
     bordercolor="#666666"
     borderopacity="1.0"
     inkscape:pageopacity="0.0"
     inkscape:pageshadow="2"
     inkscape:zoom="0.7"
     inkscape:cx="98.217599"
     inkscape:cy="-41.523835"
     inkscape:document-units="px"
     inkscape:current-layer="layer1"
     showgrid="false"
     inkscape:window-width="1366"
     inkscape:window-height="721"
     inkscape:window-x="-2"
     inkscape:window-y="-3"
     inkscape:window-maximized="1"
     fit-margin-top="0"
     fit-margin-left="0"
     fit-margin-right="0"
     fit-margin-bottom="0" />
  <metadata
     id="metadata5714">
    <rdf:RDF>
      <cc:Work
         rdf:about="">
        <dc:format>image/svg+xml</dc:format>
        <dc:type
           rdf:resource="http://purl.org/dc/dcmitype/StillImage" />
        <dc:title></dc:title>
      </cc:Work>
    </rdf:RDF>
  </metadata>
  <g
     inkscape:label="Layer 1"
     inkscape:groupmode="layer"
     id="layer1"
     transform="translate(-826.5712,-222.29099)">
    <g
       id="g5885"
       transform="translate(14416.367,8986.8828)"
       inkscape:export-filename="Slackware.Linux.Traditional.Logo.with.Because.It.Works_FreeMono_512x128.png"
       inkscape:export-xdpi="90"
       inkscape:export-ydpi="90">
      <g
         style="fill:#000000"
         id="g5807"
         transform="translate(1569.9512,883.47734)">
        <g
           style="font-size:20.49142647px;font-style:normal;font-weight:normal;line-height:125%;letter-spacing:0px;word-spacing:0px;fill:#000000;fill-opacity:1;stroke:none;font-family:Sans"
           id="text5809">
          <path
             d="m -14842.161,-9571.8282 c 0,-0.7131 0.209,-1.1926 0.627,-1.4385 0.418,-0.2705 1.032,-0.4057 1.844,-0.4057 l 6.565,0 0,19.2906 4.5,0 c 1.623,0 2.435,0.6147 2.435,1.8442 0,1.2295 -0.812,1.8442 -2.435,1.8442 l -12.688,0 c -1.623,0 -2.434,-0.6147 -2.434,-1.8442 0,-0.7131 0.209,-1.1926 0.627,-1.4385 0.418,-0.2705 1.02,-0.4057 1.807,-0.4057 l 4.5,0 0,-15.6022 -2.877,0 c -1.648,0 -2.471,-0.6147 -2.471,-1.8442"
             style="font-size:36.88457108px;font-variant:normal;font-weight:bold;font-stretch:normal;text-align:center;text-anchor:middle;fill:#000000;font-family:FreeMono;-inkscape-font-specification:FreeMono"
             id="path3014" />
          <path
             d="m -14784.392,-9554.3818 c 1.623,0 2.434,0.6147 2.434,1.8442 0,1.2295 -0.811,1.8442 -2.434,1.8442 l -12.688,0 c -1.623,0 -2.435,-0.6147 -2.435,-1.8442 0,-0.7131 0.209,-1.1926 0.627,-1.4385 0.418,-0.2705 1.021,-0.4057 1.808,-0.4057 l 4.5,0 0,-8.7417 -2.877,0 c -1.648,10e-5 -2.472,-0.6147 -2.472,-1.8442 0,-0.7377 0.209,-1.2295 0.627,-1.4754 0.443,-0.2459 1.058,-0.3688 1.845,-0.3688 l 6.565,0 0,12.4301 4.5,0 m -5.016,-19.2906 0,3.8728 -4.353,0 0,-3.8728 4.353,0"
             style="font-size:36.88457108px;font-variant:normal;font-weight:bold;font-stretch:normal;text-align:center;text-anchor:middle;fill:#000000;font-family:FreeMono;-inkscape-font-specification:FreeMono"
             id="path3016" />
          <path
             d="m -14754.286,-9550.6934 c -1.623,0 -2.435,-0.6147 -2.435,-1.8442 0,-1.2295 0.812,-1.8442 2.435,-1.8442 l 0.221,0 0,-8.7417 c -1.5,-0.049 -2.25,-0.6639 -2.25,-1.8442 0,-1.2295 0.824,-1.8442 2.471,-1.8442 l 3.468,0 0,1.7704 c 0.885,-0.836 1.696,-1.4139 2.434,-1.7335 0.738,-0.3443 1.611,-0.5164 2.619,-0.5164 1.918,0 3.491,0.541 4.721,1.6229 1.229,1.082 1.844,2.6065 1.844,4.5737 l 0,6.713 c 1.5,0 2.25,0.6147 2.25,1.8442 0,1.2295 -0.811,1.8442 -2.434,1.8442 l -3.283,0 c -1.647,0 -2.471,-0.6147 -2.471,-1.8442 0,-1.2295 0.75,-1.8442 2.25,-1.8442 l 0,-6.5655 c 0,-1.7704 -1.107,-2.6556 -3.32,-2.6557 -0.86,10e-5 -1.635,0.1845 -2.324,0.5533 -0.664,0.3689 -1.426,1.0205 -2.286,1.9549 l 0,6.713 0.221,0 c 1.623,0 2.434,0.6147 2.434,1.8442 0,1.2295 -0.811,1.8442 -2.434,1.8442 l -4.131,0"
             style="font-size:36.88457108px;font-variant:normal;font-weight:bold;font-stretch:normal;text-align:center;text-anchor:middle;fill:#000000;font-family:FreeMono;-inkscape-font-specification:FreeMono"
             id="path3018" />
          <path
             d="m -14699.873,-9563.1235 c -0.738,10e-5 -1.267,-0.1844 -1.586,-0.5532 -0.32,-0.3935 -0.48,-0.8238 -0.48,-1.291 0,-1.2295 0.812,-1.8442 2.434,-1.8442 l 4.98,0 0,12.4301 c 1.5,0 2.25,0.6147 2.25,1.8442 0,1.2295 -0.812,1.8442 -2.435,1.8442 l -3.504,0 0,-1.7704 c -0.909,0.8606 -1.733,1.4508 -2.471,1.7704 -0.713,0.3197 -1.574,0.4795 -2.582,0.4795 -1.942,0 -3.528,-0.5409 -4.758,-1.6229 -1.205,-1.1065 -1.807,-2.6434 -1.807,-4.6106 l 0,-6.6761 -0.996,0 c -0.615,10e-5 -1.107,-0.1721 -1.475,-0.5163 -0.369,-0.3443 -0.554,-0.7869 -0.554,-1.3279 0,-0.7131 0.209,-1.1926 0.627,-1.4385 0.418,-0.2705 1.021,-0.4057 1.808,-0.4057 l 4.278,0 0,10.2539 c 0,1.7705 1.082,2.6557 3.246,2.6557 0.934,0 1.709,-0.1598 2.324,-0.4795 0.615,-0.3443 1.401,-1.0205 2.36,-2.0287 l 0,-6.713 -1.291,0 -0.368,0"
             style="font-size:36.88457108px;font-variant:normal;font-weight:bold;font-stretch:normal;text-align:center;text-anchor:middle;fill:#000000;font-family:FreeMono;-inkscape-font-specification:FreeMono"
             id="path3020" />
          <path
             d="m -14661.8,-9566.8119 c 1.622,0 2.434,0.6024 2.434,1.8073 0,0.7131 -0.32,1.2787 -0.959,1.6967 l 2.25,1.8074 2.25,-1.8443 c -0.639,-0.4426 -0.959,-0.9712 -0.959,-1.586 0,-1.2541 0.811,-1.8811 2.434,-1.8811 l 3.357,0 c 1.647,0 2.471,0.6147 2.471,1.8442 0,1.1066 -0.652,1.7213 -1.955,1.8442 l -4.869,4.0573 5.607,4.6844 c 1.328,0.074 1.992,0.6885 1.992,1.8442 0,1.2295 -0.812,1.8442 -2.435,1.8442 l -4.131,0 c -1.647,0 -2.471,-0.627 -2.471,-1.8811 0,-0.9344 0.492,-1.5368 1.475,-1.8073 l -2.766,-2.25 -2.693,2.25 c 0.935,0.3934 1.402,0.9959 1.402,1.8073 0,1.2541 -0.812,1.8811 -2.434,1.8811 l -4.095,0 c -1.623,0 -2.434,-0.6147 -2.434,-1.8442 0,-1.1557 0.664,-1.7704 1.992,-1.8442 l 5.348,-4.7212 -4.721,-4.0205 c -1.279,-0.1229 -1.918,-0.7376 -1.918,-1.8442 0,-1.2295 0.811,-1.8442 2.434,-1.8442 l 3.394,0"
             style="font-size:36.88457108px;font-variant:normal;font-weight:bold;font-stretch:normal;text-align:center;text-anchor:middle;fill:#000000;font-family:FreeMono;-inkscape-font-specification:FreeMono"
             id="path3022" />
        </g>
        <g
           style="font-size:25.39759445px;font-style:normal;font-weight:normal;line-height:125%;letter-spacing:0px;word-spacing:0px;fill:#000000;fill-opacity:1;stroke:none;font-family:Sans"
           id="text5813">
          <path
             d="m -15090.355,-9622.8341 c 0,1.9506 -0.335,3.4439 -1.005,4.4801 -0.61,1.0363 -1.799,1.5544 -3.566,1.5544 -1.097,0 -2.012,-0.3353 -2.743,-1.0058 -0.732,-0.6704 -1.341,-1.3714 -1.829,-2.1029 -0.427,-0.7924 -1.463,-1.5238 -3.109,-2.1943 -1.584,-0.6705 -3.748,-1.0058 -6.491,-1.0058 -2.316,0 -4.419,0.3353 -6.309,1.0058 -1.829,0.6095 -2.743,1.341 -2.743,2.1943 0,1.2191 1.341,2.103 4.023,2.6515 2.682,0.4877 6.035,1.0363 10.058,1.6458 4.023,0.6095 7.101,1.5239 9.234,2.7429 2.012,1.0972 3.566,2.5601 4.663,4.3887 1.158,1.8287 1.737,3.8097 1.737,5.9431 0,3.7182 -1.92,6.7964 -5.76,9.2345 -3.84,2.4382 -8.716,3.6573 -14.629,3.6573 -5.303,0 -9.813,-0.8839 -13.532,-2.6515 -0.914,0.7314 -1.889,1.0971 -2.925,1.0971 -3.109,0 -4.663,-2.0114 -4.663,-6.0344 l 0,-3.0173 c 0,-4.0839 1.554,-6.1258 4.663,-6.1259 2.316,1e-4 3.87,1.341 4.663,4.023 2.621,2.3772 6.43,3.5659 11.428,3.5658 2.926,1e-4 5.425,-0.3961 7.498,-1.1886 2.133,-0.7924 3.2,-1.7067 3.2,-2.7429 0,-2.3772 -3.84,-3.962 -11.52,-4.7544 -6.401,-0.6705 -11.033,-1.981 -13.898,-3.9316 -2.865,-1.9505 -4.297,-4.7239 -4.297,-8.3202 0,-3.6573 1.767,-6.644 5.303,-8.9603 3.535,-2.3772 8.046,-3.5658 13.532,-3.5658 4.449,0 8.381,0.7924 11.794,2.3772 0.671,-1.5848 1.646,-2.3772 2.926,-2.3772 2.865,0 4.297,2.0115 4.297,6.0344 l 0,3.383"
             style="font-size:91.43135071px;font-variant:normal;font-weight:bold;font-stretch:normal;text-align:center;text-anchor:middle;fill:#000000;font-family:FreeMono;-inkscape-font-specification:FreeMono"
             id="path3025" />
          <path
             d="m -15072.196,-9643.4976 c 0,-1.7676 0.519,-2.9562 1.555,-3.5658 1.036,-0.6704 2.56,-1.0057 4.571,-1.0058 l 16.275,0 0,47.8186 11.155,0 c 4.023,10e-5 6.034,1.5239 6.034,4.5716 0,3.0477 -2.011,4.5716 -6.034,4.5716 l -31.453,0 c -4.023,0 -6.034,-1.5239 -6.034,-4.5716 0,-1.7677 0.518,-2.9563 1.554,-3.5658 1.036,-0.6705 2.53,-1.0057 4.48,-1.0058 l 11.155,0 0,-38.6754 -7.132,0 c -4.084,0 -6.126,-1.5238 -6.126,-4.5716"
             style="font-size:91.43135071px;font-variant:normal;font-weight:bold;font-stretch:normal;text-align:center;text-anchor:middle;fill:#000000;font-family:FreeMono;-inkscape-font-specification:FreeMono"
             id="path3027" />
          <path
             d="m -15023.133,-9601.9878 c 0,-4.1448 2.042,-7.7411 6.126,-10.7889 4.084,-3.1086 9.418,-4.6629 16.001,-4.663 2.743,1e-4 5.912,0.3048 9.509,0.9144 l 0,-2.103 c 0,-2.9867 -2.835,-4.4801 -8.504,-4.4801 -2.499,0 -5.333,0.3658 -8.503,1.0972 -3.169,0.6705 -5.089,1.0058 -5.76,1.0057 -1.28,10e-5 -2.347,-0.4266 -3.2,-1.28 -0.853,-0.9143 -1.28,-2.0419 -1.28,-3.383 0,-1.9505 0.914,-3.2305 2.743,-3.8401 5.181,-1.8286 10.423,-2.7429 15.726,-2.7429 5.608,0 9.997,1.1886 13.166,3.5658 3.231,2.3772 4.846,5.6992 4.846,9.966 l 0,18.4691 1.463,0 c 4.023,10e-5 6.034,1.5239 6.035,4.5716 -0,3.0477 -2.012,4.5716 -6.035,4.5716 l -10.697,0 0,-2.1029 c -4.572,2.3772 -9.631,3.5658 -15.178,3.5658 -4.511,0 -8.381,-1.1886 -11.612,-3.5658 -3.23,-2.4382 -4.846,-5.364 -4.846,-8.7775 m 31.727,-1.4629 0,-4.5715 c -3.84,-0.6705 -7.223,-1.0057 -10.149,-1.0058 -3.109,1e-4 -5.882,0.6705 -8.32,2.0115 -2.377,1.341 -3.566,2.8954 -3.566,4.663 0,1.0363 0.671,1.8896 2.012,2.5601 1.341,0.6705 2.986,1.0058 4.937,1.0057 4.998,1e-4 10.027,-1.5543 15.086,-4.663"
             style="font-size:91.43135071px;font-variant:normal;font-weight:bold;font-stretch:normal;text-align:center;text-anchor:middle;fill:#000000;font-family:FreeMono;-inkscape-font-specification:FreeMono"
             id="path3029" />
          <path
             d="m -14922.777,-9619.1768 c 0,4.023 -1.524,6.0344 -4.571,6.0344 -1.646,0 -2.804,-0.4571 -3.475,-1.3714 -0.609,-0.9143 -1.097,-2.042 -1.463,-3.383 -0.365,-1.341 -0.975,-2.3162 -1.828,-2.9258 -2.499,-1.5238 -5.73,-2.2858 -9.692,-2.2858 -4.328,0 -7.802,1.2191 -10.423,3.6573 -2.56,2.3772 -3.84,5.5163 -3.84,9.4174 0,7.4974 5.364,11.2461 16.092,11.246 3.23,1e-4 5.912,-0.2742 8.046,-0.8228 2.133,-0.5486 3.565,-1.1277 4.297,-1.7372 0.792,-0.6096 1.554,-1.1886 2.286,-1.7372 0.792,-0.5486 1.554,-0.8229 2.285,-0.8229 1.219,0 2.286,0.4572 3.201,1.3715 0.914,0.9143 1.371,2.0115 1.371,3.2915 0,2.621 -2.042,4.8763 -6.126,6.7659 -4.023,1.8896 -9.356,2.8344 -16,2.8344 -3.78,0 -7.163,-0.4267 -10.149,-1.2801 -2.926,-0.8533 -5.273,-1.9505 -7.04,-3.2915 -1.768,-1.4019 -3.231,-3.0172 -4.389,-4.8458 -1.158,-1.8287 -1.951,-3.6268 -2.377,-5.3945 -0.427,-1.8286 -0.64,-3.6877 -0.64,-5.5773 0,-6.5221 2.163,-11.8556 6.491,-16.0005 4.389,-4.1448 10.027,-6.2173 16.915,-6.2173 5.242,0 9.631,0.9143 13.166,2.7429 0.549,-1.8286 1.707,-2.7429 3.475,-2.7429 2.925,0 4.388,2.0115 4.388,6.0344 l 0,7.0403"
             style="font-size:91.43135071px;font-variant:normal;font-weight:bold;font-stretch:normal;text-align:center;text-anchor:middle;fill:#000000;font-family:FreeMono;-inkscape-font-specification:FreeMono"
             id="path3031" />
          <path
             d="m -14871.245,-9600.2506 c 4.084,10e-5 6.126,1.5239 6.126,4.5716 0,3.0477 -2.042,4.5716 -6.126,4.5716 l -10.789,0 c -4.023,0 -6.035,-1.5239 -6.035,-4.5716 0,-1.2191 0.488,-2.3467 1.463,-3.3829 l -9.417,-8.3203 -1.646,1.28 0,14.9948 -10.606,0 c -4.023,0 -6.034,-1.5239 -6.034,-4.5716 0,-1.7677 0.518,-2.9563 1.554,-3.5658 1.036,-0.6705 2.53,-1.0057 4.48,-1.0058 l 1.463,0 0,-38.6754 -1.463,0 c -1.95,0 -3.444,-0.3047 -4.48,-0.9143 -1.036,-0.6705 -1.554,-1.8896 -1.554,-3.6573 0,-3.0476 2.011,-4.5715 6.034,-4.5716 l 10.606,0 0,30.721 7.223,-5.7602 c -0.975,-1.1581 -1.463,-2.2857 -1.463,-3.383 0,-3.0476 2.042,-4.5715 6.126,-4.5715 l 10.241,0 c 2.011,0 3.504,0.3353 4.48,1.0057 1.036,0.6706 1.554,1.8592 1.554,3.5658 0,3.0478 -2.012,4.5716 -6.034,4.5716 l -2.561,0 -10.788,8.7774 14.629,12.8918 3.017,0"
             style="font-size:91.43135071px;font-variant:normal;font-weight:bold;font-stretch:normal;text-align:center;text-anchor:middle;fill:#000000;font-family:FreeMono;-inkscape-font-specification:FreeMono"
             id="path3033" />
          <path
             d="m -14822.182,-9622.0112 c -4.023,0 -6.035,-1.4934 -6.035,-4.4802 0,-3.0476 2.012,-4.5715 6.035,-4.5715 l 8.503,0 c 4.023,0 6.034,1.5239 6.034,4.5715 0,2.804 -1.585,4.2973 -4.754,4.4802 l -7.68,30.9038 -8.412,0 -6.492,-16.5491 -6.217,16.5491 -8.595,0 -7.771,-30.9038 c -1.585,-0.1219 -2.804,-0.5486 -3.657,-1.2801 -0.854,-0.7923 -1.28,-1.859 -1.28,-3.2001 0,-3.0476 2.011,-4.5715 6.034,-4.5715 l 8.412,0 c 1.95,0 3.444,0.3353 4.48,1.0057 1.036,0.6096 1.554,1.7982 1.554,3.5658 0,2.9868 -1.95,4.4802 -5.851,4.4802 l 3.565,13.989 5.486,-14.4462 8.046,0 5.578,14.4462 3.657,-13.989 -0.64,0"
             style="font-size:91.43135071px;font-variant:normal;font-weight:bold;font-stretch:normal;text-align:center;text-anchor:middle;fill:#000000;font-family:FreeMono;-inkscape-font-specification:FreeMono"
             id="path3035" />
          <path
             d="m -14803.84,-9601.9878 c 0,-4.1448 2.042,-7.7411 6.126,-10.7889 4.084,-3.1086 9.417,-4.6629 16,-4.663 2.743,1e-4 5.913,0.3048 9.509,0.9144 l 0,-2.103 c 0,-2.9867 -2.834,-4.4801 -8.503,-4.4801 -2.499,0 -5.334,0.3658 -8.503,1.0972 -3.17,0.6705 -5.09,1.0058 -5.76,1.0057 -1.28,10e-5 -2.347,-0.4266 -3.201,-1.28 -0.853,-0.9143 -1.28,-2.0419 -1.28,-3.383 0,-1.9505 0.915,-3.2305 2.743,-3.8401 5.181,-1.8286 10.424,-2.7429 15.727,-2.7429 5.607,0 9.996,1.1886 13.166,3.5658 3.23,2.3772 4.845,5.6992 4.846,9.966 l 0,18.4691 1.462,0 c 4.023,10e-5 6.035,1.5239 6.035,4.5716 0,3.0477 -2.012,4.5716 -6.035,4.5716 l -10.697,0 0,-2.1029 c -4.572,2.3772 -9.631,3.5658 -15.178,3.5658 -4.51,0 -8.381,-1.1886 -11.611,-3.5658 -3.231,-2.4382 -4.846,-5.364 -4.846,-8.7775 m 31.726,-1.4629 0,-4.5715 c -3.84,-0.6705 -7.223,-1.0057 -10.148,-1.0058 -3.109,1e-4 -5.883,0.6705 -8.321,2.0115 -2.377,1.341 -3.566,2.8954 -3.566,4.663 0,1.0363 0.671,1.8896 2.012,2.5601 1.341,0.6705 2.987,1.0058 4.937,1.0057 4.998,1e-4 10.027,-1.5543 15.086,-4.663"
             style="font-size:91.43135071px;font-variant:normal;font-weight:bold;font-stretch:normal;text-align:center;text-anchor:middle;fill:#000000;font-family:FreeMono;-inkscape-font-specification:FreeMono"
             id="path3037" />
          <path
             d="m -14712.17,-9632.1601 c 2.56,0 5.12,0.7924 7.68,2.3772 2.56,1.5849 3.84,3.383 3.84,5.3945 0,1.28 -0.457,2.3772 -1.371,3.2915 -0.915,0.9143 -1.982,1.3715 -3.201,1.3715 -1.036,0 -2.224,-0.5486 -3.565,-1.6458 -1.341,-1.0971 -2.53,-1.6457 -3.566,-1.6458 -1.463,10e-5 -3.261,0.6706 -5.395,2.0115 -2.072,1.2801 -5.303,3.7183 -9.691,7.3145 l 0,13.4404 12.709,0 c 4.083,10e-5 6.125,1.5239 6.125,4.5716 0,3.0477 -2.042,4.5716 -6.125,4.5716 l -27.156,0 c -4.023,0 -6.034,-1.5239 -6.034,-4.5716 0,-1.7677 0.518,-2.9563 1.554,-3.5658 1.037,-0.6705 2.53,-1.0057 4.48,-1.0058 l 5.303,0 0,-21.6692 -3.2,0 c -4.023,0 -6.034,-1.5238 -6.034,-4.5716 0,-3.0476 2.011,-4.5715 6.034,-4.5715 l 12.344,0 0,5.943 c 3.657,-2.7429 6.552,-4.602 8.686,-5.5773 2.133,-0.9752 4.327,-1.4629 6.583,-1.4629"
             style="font-size:91.43135071px;font-variant:normal;font-weight:bold;font-stretch:normal;text-align:center;text-anchor:middle;fill:#000000;font-family:FreeMono;-inkscape-font-specification:FreeMono"
             id="path3039" />
          <path
             d="m -14647.747,-9597.2333 c 0,1.9505 -1.768,3.5658 -5.303,4.8458 -3.535,1.2191 -6.857,1.9811 -9.966,2.2858 -3.048,0.3048 -5.669,0.4572 -7.863,0.4572 -7.071,0 -12.861,-1.981 -17.372,-5.9431 -4.511,-3.962 -6.766,-9.0516 -6.766,-15.269 0,-6.0344 2.255,-11.0936 6.766,-15.1776 4.571,-4.1448 10.179,-6.2173 16.823,-6.2173 6.827,0 12.465,2.0725 16.915,6.2173 4.511,4.1449 6.766,9.3565 6.766,15.6348 l 0,3.5658 -37.304,0 c 2.072,5.364 7.071,8.046 14.995,8.0459 3.23,1e-4 6.827,-0.4876 10.789,-1.4629 3.962,-1.0362 6.339,-1.5543 7.131,-1.5543 1.219,0 2.256,0.4572 3.109,1.3715 0.853,0.8533 1.28,1.92 1.28,3.2001 m -37.03,-17.6463 26.881,0 c -0.731,-2.4991 -2.316,-4.4801 -4.754,-5.943 -2.438,-1.5238 -5.334,-2.2858 -8.686,-2.2858 -3.353,0 -6.279,0.762 -8.778,2.2858 -2.438,1.5239 -3.992,3.5049 -4.663,5.943"
             style="font-size:91.43135071px;font-variant:normal;font-weight:bold;font-stretch:normal;text-align:center;text-anchor:middle;fill:#000000;font-family:FreeMono;-inkscape-font-specification:FreeMono"
             id="path3041" />
        </g>
        <path
           style="font-size:medium;font-style:normal;font-variant:normal;font-weight:normal;font-stretch:normal;text-indent:0;text-align:start;text-decoration:none;line-height:normal;letter-spacing:normal;word-spacing:normal;text-transform:none;direction:ltr;block-progression:tb;writing-mode:lr-tb;text-anchor:start;baseline-shift:baseline;color:#000000;fill:#000000;fill-opacity:1;stroke:none;stroke-width:5;marker:none;visibility:visible;display:inline;overflow:visible;enable-background:accumulate;font-family:Sans;-inkscape-font-specification:Sans"
           d="m -15159.747,-9564.438 0,4.989 2.495,0 294.357,0 2.495,0 0,-4.989 -2.495,0 -294.357,0 -2.495,0 z"
           id="path5817"
           inkscape:connector-curvature="0" />
        <path
           inkscape:connector-curvature="0"
           id="path5819"
           d="m -15154.757,-9589.6778 -4.99,0 0,0.2516 0,29.7252 0,0.252 4.99,0 0,-0.252 0,-29.7252 0,-0.2516 z"
           style="font-size:medium;font-style:normal;font-variant:normal;font-weight:normal;font-stretch:normal;text-indent:0;text-align:start;text-decoration:none;line-height:normal;letter-spacing:normal;word-spacing:normal;text-transform:none;direction:ltr;block-progression:tb;writing-mode:lr-tb;text-anchor:start;baseline-shift:baseline;color:#000000;fill:#000000;fill-opacity:1;stroke:none;stroke-width:5;marker:none;visibility:visible;display:inline;overflow:visible;enable-background:accumulate;font-family:Sans;-inkscape-font-specification:Sans" />
      </g>
      <g
         style="font-size:41.86939621px;font-style:normal;font-weight:normal;line-height:125%;letter-spacing:0px;word-spacing:0px;fill:#000000;fill-opacity:1;stroke:none;font-family:Sans"
         id="text5857">
        <path
           d="m -13587.224,-8638.3267 3.051,-14.3846 -1.615,0 c -0.459,0 -0.688,-0.1694 -0.688,-0.5084 0,-0.4784 0.319,-0.7177 0.957,-0.7177 l 7.716,0 c 1.275,0 2.302,0.329 3.08,0.9869 0.797,0.638 1.196,1.4853 1.196,2.5419 0,1.8343 -1.136,3.2996 -3.409,4.3962 1.993,0.7376 2.99,1.904 2.99,3.4989 0,1.3956 -0.618,2.6516 -1.854,3.7681 -1.216,1.0965 -2.592,1.6448 -4.127,1.6448 l -9.181,0 c -0.458,0 -0.688,-0.1695 -0.688,-0.5084 0,-0.4785 0.319,-0.7177 0.957,-0.7177 l 1.615,0 m 12.441,-11.8426 c 0,-0.7177 -0.299,-1.3158 -0.897,-1.7943 -0.578,-0.4985 -1.366,-0.7477 -2.363,-0.7477 l -4.904,0 -1.316,6.2503 4.396,0 c 1.416,0 2.612,-0.3589 3.589,-1.0766 0.997,-0.7177 1.495,-1.595 1.495,-2.6317 m -0.419,7.8352 c 0,-0.7775 -0.349,-1.4554 -1.046,-2.0335 -0.698,-0.5782 -1.974,-0.8673 -3.828,-0.8673 l -4.456,0 -1.466,6.9082 6.221,0 c 1.216,0 2.283,-0.3988 3.2,-1.1962 0.917,-0.8174 1.375,-1.7545 1.375,-2.8112"
           style="font-size:29.90554237px;font-style:italic;font-variant:normal;font-stretch:normal;fill:#000000;font-family:FreeMono;-inkscape-font-specification:FreeMono"
           id="path3044" />
        <path
           d="m -13557.39,-8639.194 c 0,0.5184 -0.787,1.0766 -2.362,1.6747 -1.555,0.5981 -3.071,0.8972 -4.546,0.8972 -1.734,0 -3.15,-0.5184 -4.246,-1.5551 -1.077,-1.0367 -1.615,-2.3825 -1.615,-4.0372 0,-2.0535 0.837,-3.8578 2.512,-5.4129 1.674,-1.575 3.618,-2.3626 5.831,-2.3626 1.635,0 2.971,0.4785 4.008,1.4355 1.056,0.937 1.585,2.1432 1.585,3.6186 0,0.4585 -0.08,1.0865 -0.24,1.884 l -12.44,0 c -0.02,0.1994 -0.03,0.4187 -0.03,0.6579 0,1.3358 0.458,2.4324 1.375,3.2896 0.918,0.8374 2.104,1.2561 3.559,1.2561 0.937,0 1.924,-0.1496 2.961,-0.4486 1.056,-0.2991 1.944,-0.6878 2.661,-1.1663 0.26,-0.1396 0.439,-0.2094 0.539,-0.2094 0.299,0 0.448,0.1595 0.448,0.4785 m -11.244,-5.0839 11.185,0 c 0.02,-0.1 0.03,-0.2193 0.03,-0.3589 0,-1.2161 -0.438,-2.203 -1.315,-2.9606 -0.858,-0.7776 -1.964,-1.1663 -3.32,-1.1663 -1.455,0 -2.781,0.4087 -3.977,1.2261 -1.177,0.7975 -2.044,1.884 -2.602,3.2597"
           style="font-size:29.90554237px;font-style:italic;font-variant:normal;font-stretch:normal;fill:#000000;font-family:FreeMono;-inkscape-font-specification:FreeMono"
           id="path3046" />
        <path
           d="m -13538.74,-8639.822 c 0,0.1994 -0.2,0.4785 -0.598,0.8374 -0.399,0.3389 -0.928,0.6878 -1.585,1.0467 -0.638,0.3588 -1.456,0.6678 -2.453,0.927 -0.977,0.2791 -1.963,0.4187 -2.96,0.4187 -1.575,0 -2.871,-0.4685 -3.888,-1.4056 -0.997,-0.9569 -1.495,-2.1731 -1.495,-3.6484 0,-2.233 0.837,-4.1868 2.512,-5.8615 1.694,-1.6747 3.668,-2.5121 5.921,-2.5121 1.894,0 3.369,0.5583 4.426,1.6747 0.06,-0.2791 0.11,-0.4784 0.15,-0.5981 0.04,-0.1196 0.119,-0.2492 0.239,-0.3888 0.119,-0.1594 0.279,-0.2392 0.478,-0.2392 0.14,0 0.25,0.05 0.329,0.1495 0.1,0.08 0.15,0.1795 0.15,0.2991 0,0.02 -0.02,0.1495 -0.06,0.3888 l -0.568,2.7214 c -0.12,0.5582 -0.379,0.8373 -0.778,0.8373 -0.199,0 -0.369,-0.1196 -0.508,-0.3588 l 0.09,-1.0766 c 0,-0.1795 -0.14,-0.4287 -0.419,-0.7477 -0.279,-0.319 -0.768,-0.638 -1.465,-0.957 -0.698,-0.3189 -1.486,-0.4784 -2.363,-0.4785 -1.276,10e-5 -2.402,0.2792 -3.379,0.8374 -0.957,0.5383 -1.675,1.2062 -2.154,2.0037 -0.458,0.7975 -0.797,1.5451 -1.016,2.2429 -0.22,0.6779 -0.329,1.266 -0.329,1.7644 0,1.2162 0.418,2.213 1.256,2.9906 0.837,0.7576 1.904,1.1364 3.2,1.1364 2.292,0 4.356,-0.7277 6.19,-2.1831 0.259,-0.2193 0.459,-0.329 0.598,-0.329 0.1,0 0.2,0.06 0.299,0.1794 0.12,0.1 0.18,0.2094 0.18,0.329"
           style="font-size:29.90554237px;font-style:italic;font-variant:normal;font-stretch:normal;fill:#000000;font-family:FreeMono;-inkscape-font-specification:FreeMono"
           id="path3048" />
        <path
           d="m -13531.276,-8648.2853 c 0,-0.4784 0.728,-0.8772 2.184,-1.1962 1.475,-0.3389 2.601,-0.5084 3.379,-0.5084 1.216,0 2.203,0.2792 2.96,0.8374 0.758,0.5582 1.137,1.276 1.137,2.1532 0,0.299 -0.02,0.5283 -0.06,0.6878 l -1.705,7.9848 1.615,0 c 0.459,0 0.688,0.1595 0.688,0.4785 0,0.4984 -0.319,0.7476 -0.957,0.7476 l -2.841,0 0.419,-2.0037 c -2.113,1.6548 -4.187,2.4822 -6.22,2.4822 -1.237,0 -2.204,-0.2691 -2.901,-0.8074 -0.698,-0.5583 -1.047,-1.3159 -1.047,-2.2729 0,-1.4554 0.698,-2.6715 2.093,-3.6484 1.416,-0.977 3.16,-1.4654 5.234,-1.4654 1.156,0 2.472,0.2093 3.947,0.628 l 0.449,-2.1233 c 0.02,-0.1 0.03,-0.2392 0.03,-0.4187 0,-0.618 -0.289,-1.1065 -0.867,-1.4653 -0.579,-0.3788 -1.356,-0.5682 -2.333,-0.5682 -0.897,0 -1.874,0.1595 -2.931,0.4784 -1.056,0.319 -1.665,0.4785 -1.824,0.4785 -0.12,0 -0.229,-0.04 -0.329,-0.1196 -0.08,-0.1 -0.12,-0.2193 -0.12,-0.3589 m 7.118,7.8353 0.568,-2.6915 c -1.156,-0.2991 -2.402,-0.4486 -3.738,-0.4486 -1.715,0 -3.15,0.3489 -4.306,1.0467 -1.157,0.6779 -1.735,1.5352 -1.735,2.5719 0,0.6778 0.249,1.2062 0.748,1.585 0.498,0.3588 1.206,0.5383 2.123,0.5383 1.077,0 2.093,-0.1894 3.05,-0.5682 0.957,-0.3988 2.054,-1.0766 3.29,-2.0336"
           style="font-size:29.90554237px;font-style:italic;font-variant:normal;font-stretch:normal;fill:#000000;font-family:FreeMono;-inkscape-font-specification:FreeMono"
           id="path3050" />
        <path
           d="m -13506.346,-8637.1006 0.419,-1.9738 c -1.954,1.6349 -3.948,2.4523 -5.981,2.4523 -0.997,0 -1.785,-0.2592 -2.363,-0.7775 -0.578,-0.5383 -0.867,-1.2561 -0.867,-2.1532 0,-0.2193 0.04,-0.5483 0.119,-0.9869 l 1.645,-7.8054 -1.615,0 c -0.458,0 -0.688,-0.1595 -0.688,-0.4785 0,-0.4984 0.319,-0.7476 0.957,-0.7476 l 2.841,0 -1.914,9.0315 c -0.04,0.1196 -0.06,0.299 -0.06,0.5383 0,0.638 0.199,1.1563 0.598,1.5551 0.418,0.3987 0.947,0.5981 1.585,0.5981 2.013,0 4.037,-0.8972 6.071,-2.6915 l 1.644,-7.8054 -2.213,0 c -0.478,0 -0.717,-0.1595 -0.717,-0.4785 0,-0.4984 0.329,-0.7476 0.987,-0.7476 l 3.439,0 -2.393,11.2445 1.017,0 c 0.459,0 0.688,0.1595 0.688,0.4785 0,0.4984 -0.319,0.7476 -0.957,0.7476 l -2.243,0"
           style="font-size:29.90554237px;font-style:italic;font-variant:normal;font-stretch:normal;fill:#000000;font-family:FreeMono;-inkscape-font-specification:FreeMono"
           id="path3052" />
        <path
           d="m -13486.53,-8647.1189 c 0,-0.319 -0.349,-0.6779 -1.047,-1.0766 -0.678,-0.3988 -1.525,-0.5981 -2.542,-0.5982 -1.156,10e-5 -2.183,0.2592 -3.08,0.7776 -0.878,0.4984 -1.316,1.0766 -1.316,1.7345 0,0.5383 0.299,0.947 0.897,1.2261 0.598,0.2792 1.286,0.4486 2.063,0.5084 0.778,0.04 1.635,0.1695 2.572,0.3888 0.937,0.1994 1.645,0.4984 2.124,0.8972 0.678,0.5383 1.016,1.2161 1.016,2.0335 0,1.2561 -0.667,2.3427 -2.003,3.2598 -1.316,0.9171 -2.891,1.3756 -4.725,1.3756 -1.914,0 -3.38,-0.5483 -4.396,-1.6448 -0.18,0.6181 -0.369,0.9769 -0.569,1.0766 -0.1,0.04 -0.199,0.06 -0.299,0.06 -0.119,0 -0.229,-0.04 -0.329,-0.1196 -0.1,-0.1 -0.149,-0.2093 -0.149,-0.329 0,-0.1196 0.02,-0.2392 0.06,-0.3588 l 0.508,-2.4822 c 0.12,-0.5383 0.389,-0.8074 0.808,-0.8074 0.139,0 0.249,0.05 0.328,0.1495 0.1,0.08 0.15,0.1794 0.15,0.299 0,0.08 -0.02,0.2094 -0.06,0.3888 -0.02,0.1595 -0.03,0.2592 -0.03,0.2991 0,0.638 0.389,1.1663 1.167,1.585 0.777,0.4186 1.764,0.628 2.96,0.628 1.436,0 2.662,-0.309 3.679,-0.9271 1.016,-0.618 1.525,-1.3557 1.525,-2.213 0,-1.2361 -1.346,-2.0037 -4.037,-2.3027 -0.559,-0.06 -0.987,-0.1097 -1.286,-0.1496 -0.299,-0.06 -0.698,-0.1495 -1.197,-0.2691 -0.478,-0.1396 -0.847,-0.2891 -1.106,-0.4486 -0.259,-0.1794 -0.499,-0.4286 -0.718,-0.7476 -0.199,-0.319 -0.299,-0.6879 -0.299,-1.1065 0,-1.0966 0.568,-2.0336 1.705,-2.8112 1.136,-0.7775 2.522,-1.1663 4.157,-1.1663 1.714,0 3,0.4586 3.857,1.3757 0.12,-0.638 0.389,-0.957 0.808,-0.957 0.139,0 0.249,0.05 0.329,0.1495 0.1,0.08 0.149,0.1795 0.149,0.2991 0,0.06 -0.02,0.1894 -0.06,0.3888 l -0.419,2.0634 c -0.12,0.5583 -0.389,0.8374 -0.808,0.8374 -0.179,0 -0.339,-0.1196 -0.478,-0.3589 l 0.09,-0.927"
           style="font-size:29.90554237px;font-style:italic;font-variant:normal;font-stretch:normal;fill:#000000;font-family:FreeMono;-inkscape-font-specification:FreeMono"
           id="path3054" />
        <path
           d="m -13467.731,-8639.194 c 0,0.5184 -0.788,1.0766 -2.363,1.6747 -1.555,0.5981 -3.07,0.8972 -4.546,0.8972 -1.734,0 -3.15,-0.5184 -4.246,-1.5551 -1.077,-1.0367 -1.615,-2.3825 -1.615,-4.0372 0,-2.0535 0.837,-3.8578 2.512,-5.4129 1.675,-1.575 3.618,-2.3626 5.832,-2.3626 1.634,0 2.97,0.4785 4.007,1.4355 1.057,0.937 1.585,2.1432 1.585,3.6186 0,0.4585 -0.08,1.0865 -0.239,1.884 l -12.441,0 c -0.02,0.1994 -0.03,0.4187 -0.03,0.6579 0,1.3358 0.459,2.4324 1.376,3.2896 0.917,0.8374 2.103,1.2561 3.558,1.2561 0.937,0 1.924,-0.1496 2.961,-0.4486 1.057,-0.2991 1.944,-0.6878 2.662,-1.1663 0.259,-0.1396 0.438,-0.2094 0.538,-0.2094 0.299,0 0.449,0.1595 0.449,0.4785 m -11.245,-5.0839 11.185,0 c 0.02,-0.1 0.03,-0.2193 0.03,-0.3589 0,-1.2161 -0.439,-2.203 -1.316,-2.9606 -0.858,-0.7776 -1.964,-1.1663 -3.32,-1.1663 -1.455,0 -2.781,0.4087 -3.977,1.2261 -1.176,0.7975 -2.044,1.884 -2.602,3.2597"
           style="font-size:29.90554237px;font-style:italic;font-variant:normal;font-stretch:normal;fill:#000000;font-family:FreeMono;-inkscape-font-specification:FreeMono"
           id="path3056" />
        <path
           d="m -13434.47,-8655.7616 -0.658,3.1101 -1.764,0 0.658,-3.1101 1.764,0 m -1.047,6.1904 -2.392,11.2445 4.785,0 c 0.478,0 0.718,0.1595 0.718,0.4785 0,0.2193 -0.09,0.3987 -0.27,0.5383 -0.179,0.1395 -0.408,0.2093 -0.687,0.2093 l -10.826,0 c -0.459,0 -0.688,-0.1595 -0.688,-0.4785 0,-0.4984 0.309,-0.7476 0.927,-0.7476 l 4.815,0 2.123,-10.0184 -3.529,0 c -0.458,0 -0.688,-0.1694 -0.688,-0.5084 0,-0.4784 0.319,-0.7177 0.957,-0.7177 l 4.755,0"
           style="font-size:29.90554237px;font-style:italic;font-variant:normal;font-stretch:normal;fill:#000000;font-family:FreeMono;-inkscape-font-specification:FreeMono"
           id="path3058" />
        <path
           d="m -13414.535,-8638.7155 c 0,0.5583 -0.817,1.0467 -2.452,1.4654 -1.615,0.4187 -2.941,0.628 -3.977,0.628 -1.177,0 -2.124,-0.2592 -2.841,-0.7775 -0.718,-0.5184 -1.077,-1.2062 -1.077,-2.0635 0,-0.2592 0.03,-0.5383 0.09,-0.8374 l 1.704,-8.0446 -2.213,0 c -0.478,0 -0.717,-0.1595 -0.717,-0.4785 0,-0.4984 0.319,-0.7476 0.957,-0.7476 l 2.243,0 0.747,-3.5588 c 0.12,-0.5382 0.379,-0.8074 0.778,-0.8074 0.339,0 0.508,0.1495 0.508,0.4486 0,0.08 -0.02,0.1994 -0.06,0.3588 l -0.747,3.5588 6.579,0 c 0.458,0 0.688,0.1595 0.688,0.4785 0,0.2193 -0.09,0.3987 -0.269,0.5383 -0.18,0.1396 -0.409,0.2093 -0.688,0.2093 l -6.58,0 -1.704,7.9848 c -0.04,0.2791 -0.06,0.4586 -0.06,0.5383 0,0.5981 0.259,1.0766 0.778,1.4355 0.518,0.3588 1.216,0.5383 2.093,0.5383 0.837,0 1.754,-0.1097 2.751,-0.329 1.017,-0.2392 1.844,-0.5283 2.482,-0.8672 0.24,-0.1197 0.419,-0.1795 0.539,-0.1795 0.299,0 0.448,0.1695 0.448,0.5084"
           style="font-size:29.90554237px;font-style:italic;font-variant:normal;font-stretch:normal;fill:#000000;font-family:FreeMono;-inkscape-font-specification:FreeMono"
           id="path3060" />
        <path
           d="m -13380.735,-8637.1006 -1.525,0 -1.047,-7.7455 -4.336,7.7455 -1.525,0 -0.12,-11.2445 -0.568,0 c -0.459,0 -0.688,-0.1595 -0.688,-0.4785 0,-0.4984 0.319,-0.7476 0.957,-0.7476 l 3.32,0 c 0.458,0 0.687,0.1595 0.687,0.4785 0,0.4984 -0.319,0.7476 -0.957,0.7476 l -1.584,0 0.119,9.5698 4.187,-7.6259 1.555,0 1.017,7.6259 4.097,-9.5698 -1.495,0 c -0.459,0 -0.688,-0.1595 -0.688,-0.4785 0,-0.4984 0.319,-0.7476 0.957,-0.7476 l 3.319,0 c 0.459,0 0.688,0.1595 0.688,0.4785 0,0.4984 -0.319,0.7476 -0.957,0.7476 l -0.568,0 -4.845,11.2445"
           style="font-size:29.90554237px;font-style:italic;font-variant:normal;font-stretch:normal;fill:#000000;font-family:FreeMono;-inkscape-font-specification:FreeMono"
           id="path3062" />
        <path
           d="m -13364.328,-8649.9899 c 1.654,0 2.99,0.4985 4.007,1.4953 1.037,0.9969 1.555,2.2828 1.555,3.8578 0,2.0735 -0.857,3.9276 -2.572,5.5624 -1.714,1.6349 -3.658,2.4523 -5.831,2.4523 -1.635,0 -2.971,-0.4984 -4.008,-1.4953 -1.017,-0.9968 -1.525,-2.2728 -1.525,-3.8279 0,-2.0734 0.857,-3.9276 2.572,-5.5624 1.715,-1.6548 3.648,-2.4822 5.802,-2.4822 m -0.27,1.2262 c -1.774,0 -3.359,0.6679 -4.755,2.0036 -1.395,1.3358 -2.093,2.851 -2.093,4.5457 0,1.2759 0.419,2.3226 1.256,3.14 0.857,0.8175 1.954,1.2262 3.29,1.2262 1.774,0 3.359,-0.6679 4.755,-2.0037 1.415,-1.3358 2.123,-2.851 2.123,-4.5456 0,-1.2959 -0.429,-2.3426 -1.286,-3.1401 -0.837,-0.8174 -1.934,-1.2261 -3.29,-1.2261"
           style="font-size:29.90554237px;font-style:italic;font-variant:normal;font-stretch:normal;fill:#000000;font-family:FreeMono;-inkscape-font-specification:FreeMono"
           id="path3064" />
        <path
           d="m -13340.386,-8647.3881 c -0.119,0 -0.379,-0.2093 -0.777,-0.628 -0.399,-0.4187 -0.858,-0.628 -1.376,-0.628 -0.678,0 -1.435,0.2392 -2.273,0.7177 -0.837,0.4785 -2.233,1.4754 -4.187,2.9906 l -1.405,6.6091 5.353,0 c 0.459,0 0.688,0.1695 0.688,0.5084 0,0.2193 -0.09,0.3987 -0.269,0.5383 -0.18,0.1196 -0.409,0.1794 -0.688,0.1794 l -9.45,0 c -0.459,0 -0.688,-0.1695 -0.688,-0.5084 0,-0.2193 0.09,-0.3888 0.269,-0.5084 0.179,-0.1395 0.409,-0.2093 0.688,-0.2093 l 2.871,0 2.123,-10.0184 -2.213,0 c -0.458,0 -0.688,-0.1694 -0.688,-0.5084 0,-0.1993 0.08,-0.3688 0.239,-0.5084 0.18,-0.1395 0.409,-0.2093 0.688,-0.2093 l 3.469,0 -0.658,3.0504 c 1.675,-1.276 2.981,-2.1532 3.918,-2.6317 0.937,-0.4785 1.794,-0.7177 2.572,-0.7178 0.738,1e-4 1.356,0.2293 1.854,0.6879 0.499,0.4386 0.748,0.7875 0.748,1.0467 0,0.1794 -0.09,0.3489 -0.269,0.5084 -0.16,0.1595 -0.339,0.2392 -0.539,0.2392"
           style="font-size:29.90554237px;font-style:italic;font-variant:normal;font-stretch:normal;fill:#000000;font-family:FreeMono;-inkscape-font-specification:FreeMono"
           id="path3066" />
        <path
           d="m -13333.489,-8642.4836 -1.137,5.383 -2.841,0 c -0.458,0 -0.687,-0.1695 -0.687,-0.5084 0,-0.4785 0.319,-0.7177 0.957,-0.7177 l 1.614,0 3.32,-15.6107 -1.615,0 c -0.459,0 -0.688,-0.1695 -0.688,-0.5084 0,-0.4785 0.309,-0.7177 0.927,-0.7177 l 2.871,0 -2.392,11.2145 6.1,-4.3961 -0.657,0 c -0.459,0 -0.688,-0.1694 -0.688,-0.5084 0,-0.4784 0.319,-0.7177 0.957,-0.7177 l 3.858,0 c 0.478,0 0.717,0.1695 0.717,0.5084 0,0.2193 -0.09,0.3987 -0.269,0.5383 -0.179,0.1196 -0.409,0.1794 -0.688,0.1794 l -1.405,0 -5.533,3.9177 4.905,6.1007 1.345,0 c 0.459,0 0.688,0.1595 0.688,0.4785 0,0.2193 -0.09,0.3987 -0.269,0.5383 -0.179,0.1395 -0.409,0.2093 -0.688,0.2093 l -3.917,0 c -0.459,0 -0.688,-0.1695 -0.688,-0.5084 0,-0.4785 0.319,-0.7177 0.957,-0.7177 l 0.837,0 -4.246,-5.3232 -1.645,1.1663"
           style="font-size:29.90554237px;font-style:italic;font-variant:normal;font-stretch:normal;fill:#000000;font-family:FreeMono;-inkscape-font-specification:FreeMono"
           id="path3068" />
        <path
           d="m -13307.214,-8647.1189 c 0,-0.319 -0.349,-0.6779 -1.047,-1.0766 -0.677,-0.3988 -1.525,-0.5981 -2.542,-0.5982 -1.156,10e-5 -2.183,0.2592 -3.08,0.7776 -0.877,0.4984 -1.316,1.0766 -1.316,1.7345 0,0.5383 0.299,0.947 0.897,1.2261 0.599,0.2792 1.286,0.4486 2.064,0.5084 0.777,0.04 1.635,0.1695 2.572,0.3888 0.937,0.1994 1.645,0.4984 2.123,0.8972 0.678,0.5383 1.017,1.2161 1.017,2.0335 0,1.2561 -0.668,2.3427 -2.004,3.2598 -1.316,0.9171 -2.891,1.3756 -4.725,1.3756 -1.914,0 -3.379,-0.5483 -4.396,-1.6448 -0.179,0.6181 -0.369,0.9769 -0.568,1.0766 -0.1,0.04 -0.2,0.06 -0.299,0.06 -0.12,0 -0.229,-0.04 -0.329,-0.1196 -0.1,-0.1 -0.15,-0.2093 -0.15,-0.329 0,-0.1196 0.02,-0.2392 0.06,-0.3588 l 0.509,-2.4822 c 0.119,-0.5383 0.388,-0.8074 0.807,-0.8074 0.14,0 0.249,0.05 0.329,0.1495 0.1,0.08 0.149,0.1794 0.149,0.299 0,0.08 -0.02,0.2094 -0.06,0.3888 -0.02,0.1595 -0.03,0.2592 -0.03,0.2991 0,0.638 0.388,1.1663 1.166,1.585 0.778,0.4186 1.764,0.628 2.961,0.628 1.435,0 2.661,-0.309 3.678,-0.9271 1.017,-0.618 1.525,-1.3557 1.525,-2.213 0,-1.2361 -1.346,-2.0037 -4.037,-2.3027 -0.558,-0.06 -0.987,-0.1097 -1.286,-0.1496 -0.299,-0.06 -0.698,-0.1495 -1.196,-0.2691 -0.479,-0.1396 -0.847,-0.2891 -1.107,-0.4486 -0.259,-0.1794 -0.498,-0.4286 -0.717,-0.7476 -0.2,-0.319 -0.299,-0.6879 -0.299,-1.1065 0,-1.0966 0.568,-2.0336 1.704,-2.8112 1.137,-0.7775 2.522,-1.1663 4.157,-1.1663 1.715,0 3.001,0.4586 3.858,1.3757 0.119,-0.638 0.389,-0.957 0.807,-0.957 0.14,0 0.249,0.05 0.329,0.1495 0.1,0.08 0.15,0.1795 0.15,0.2991 0,0.06 -0.02,0.1894 -0.06,0.3888 l -0.419,2.0634 c -0.119,0.5583 -0.388,0.8374 -0.807,0.8374 -0.18,0 -0.339,-0.1196 -0.479,-0.3589 l 0.09,-0.927"
           style="font-size:29.90554237px;font-style:italic;font-variant:normal;font-stretch:normal;fill:#000000;font-family:FreeMono;-inkscape-font-specification:FreeMono"
           id="path3070" />
        <path
           d="m -13290.598,-8653.9374 -2.632,9.7492 c -0.139,0.5582 -0.409,0.8374 -0.807,0.8374 -0.12,0 -0.23,-0.04 -0.329,-0.1197 -0.08,-0.1 -0.12,-0.2093 -0.12,-0.3289 0,-0.1396 0.01,-0.2692 0.03,-0.3888 l 1.525,-9.7492 c 0.18,-1.0965 0.688,-1.6448 1.525,-1.6448 0.28,0 0.509,0.08 0.688,0.2392 0.18,0.1595 0.269,0.3689 0.269,0.628 0,0.1197 -0.05,0.3789 -0.149,0.7776 m -4.396,14.2948 0.359,0 c 0.398,0 0.717,0.1097 0.957,0.329 0.259,0.2193 0.388,0.5084 0.388,0.8673 0,0.4785 -0.199,0.8971 -0.598,1.256 -0.398,0.3589 -0.857,0.5383 -1.375,0.5383 l -0.359,0 c -0.379,0 -0.698,-0.1097 -0.957,-0.329 -0.239,-0.2193 -0.359,-0.4984 -0.359,-0.8373 0,-0.4984 0.189,-0.9271 0.568,-1.286 0.399,-0.3588 0.857,-0.5383 1.376,-0.5383"
           style="font-size:29.90554237px;font-style:italic;font-variant:normal;font-stretch:normal;fill:#000000;font-family:FreeMono;-inkscape-font-specification:FreeMono"
           id="path3072" />
      </g>
    </g>
  </g>
</svg>
