<?xml version="1.0" encoding="UTF-8" standalone="no"?>
<!-- Created with Inkscape (http://www.inkscape.org/) -->

<!-- 
 
 SLACKWARE LINUX GRAPHICS PROJECT: 

 Slackware Linux Graphics Project aims to provide a set of visual components related to GNU/Linux Slackware in both vector and 
 raster graphics formats for its users. 
 
 LEGAL DISCLAIMER: 

 Graphics in this project are all free artwork; you can use them, redistribute them and/or modify them under the *related* terms 
 explained in Slackware Linux Propaganda Graphics FAQ section on Slackware Linux home page. 

 You should have received a copy of the Slackware Linux Propaganda Graphics FAQ text 
 along with this artwork package. If not, see "http://www.slackware.com/". 

 This artwork package is distributed in the hope that it will be useful, but WITHOUT ANY WARRANTY. 

 Slackware Linux Graphics Project does not officially represent neither Linux nor Slackware Linux in any way. 
 Linux is a registered trademark of Linus Torvalds. Slackware Linux is a registered trademark of Slackware Linux, Inc. 
 and Patrick Volkerding. 
 
 DOWNLOAD INFORMATION: 

 You can download more recent versions of the Slackware Linux Graphics from the project's blog 
 at "http://www.slackware-linux-graphics.blogspot.com/". 

 OPINIONS AND SUGGESTIONS: 
 
 Please contact with the project for your opinions and suggestions related to Slackware Linux Graphics. 
 
 CONTACT INFORMATION: 
 
 Maintainer: Ismail Demiral 
 E-Mail: slackware.linux.graphics@gmail.com 
 Blog: http://www.slackware-linux-graphics.blogspot.com/ 
 
 -->

<svg
   xmlns:dc="http://purl.org/dc/elements/1.1/"
   xmlns:cc="http://creativecommons.org/ns#"
   xmlns:rdf="http://www.w3.org/1999/02/22-rdf-syntax-ns#"
   xmlns:svg="http://www.w3.org/2000/svg"
   xmlns="http://www.w3.org/2000/svg"
   xmlns:sodipodi="http://sodipodi.sourceforge.net/DTD/sodipodi-0.dtd"
   xmlns:inkscape="http://www.inkscape.org/namespaces/inkscape"
   width="512.00018"
   height="104.43683"
   id="svg2"
   version="1.1"
   inkscape:version="0.48.3.1 r9886"
   sodipodi:docname="Slackware.Linux.slackARM.Logo_FreeMono.svg">
  <defs
     id="defs4" />
  <sodipodi:namedview
     id="base"
     pagecolor="#ffffff"
     bordercolor="#666666"
     borderopacity="1.0"
     inkscape:pageopacity="0.0"
     inkscape:pageshadow="2"
     inkscape:zoom="0.51503181"
     inkscape:cx="253.76174"
     inkscape:cy="24.882078"
     inkscape:document-units="px"
     inkscape:current-layer="layer1"
     showgrid="false"
     inkscape:window-width="1366"
     inkscape:window-height="721"
     inkscape:window-x="-2"
     inkscape:window-y="-3"
     inkscape:window-maximized="1"
     fit-margin-top="0"
     fit-margin-left="0"
     fit-margin-right="0"
     fit-margin-bottom="0" />
  <metadata
     id="metadata7">
    <rdf:RDF>
      <cc:Work
         rdf:about="">
        <dc:format>image/svg+xml</dc:format>
        <dc:type
           rdf:resource="http://purl.org/dc/dcmitype/StillImage" />
        <dc:title></dc:title>
      </cc:Work>
    </rdf:RDF>
  </metadata>
  <g
     inkscape:label="Layer 1"
     inkscape:groupmode="layer"
     id="layer1"
     transform="translate(-118.28551,-757.28676)">
    <g
       id="g25512"
       transform="matrix(0.99999836,0,0,0.99999836,15670.201,15856.658)"
       inkscape:export-filename="Slackware.Linux.slackARM.Logo_FreeMono_512x104.png"
       inkscape:export-xdpi="89.999954"
       inkscape:export-ydpi="89.999954">
      <g
         style="font-size:20.49146461px;font-style:normal;font-weight:normal;line-height:125%;letter-spacing:0px;word-spacing:0px;fill:#000000;fill-opacity:1;stroke:none;font-family:Sans"
         id="text25514">
        <path
           d="m -15234.355,-15016.573 c 0,1.512 1.107,1.844 2.471,1.844 l 2.877,0 0,15.602 -4.5,0 c -1.438,0 -2.434,0.332 -2.434,1.844 0,0.775 0.369,1.845 2.434,1.845 l 12.689,0 c 1.438,0 2.434,-0.443 2.434,-1.845 0,-1.549 -1.143,-1.844 -2.434,-1.844 l -4.5,0 0,-19.291 -6.566,0 c -1.438,0 -2.471,0.295 -2.471,1.845"
           style="font-size:36.88463974px;font-variant:normal;font-weight:bold;font-stretch:normal;text-align:center;text-anchor:middle;fill:#000000;font-family:FreeMono;-inkscape-font-specification:FreeMono"
           id="path3002"
           inkscape:connector-curvature="0" />
        <path
           d="m -15174.151,-14997.283 c 0,-1.549 -1.144,-1.844 -2.434,-1.844 l -4.5,0 0,-12.43 -6.566,0 c -1.365,0 -2.471,0.258 -2.471,1.844 0,1.476 1.106,1.844 2.471,1.844 l 2.877,0 0,8.742 -4.5,0 c -1.438,0 -2.434,0.332 -2.434,1.844 0,0.775 0.369,1.845 2.434,1.845 l 12.689,0 c 1.438,0 2.434,-0.443 2.434,-1.845 m -7.451,-21.135 -4.352,0 0,3.873 4.352,0 0,-3.873"
           style="font-size:36.88463974px;font-variant:normal;font-weight:bold;font-stretch:normal;text-align:center;text-anchor:middle;fill:#000000;font-family:FreeMono;-inkscape-font-specification:FreeMono"
           id="path3004"
           inkscape:connector-curvature="0" />
        <path
           d="m -15148.914,-14997.283 c 0,1.402 0.996,1.845 2.434,1.845 l 4.132,0 c 1.29,0 2.434,-0.332 2.434,-1.845 0,-1.549 -1.144,-1.844 -2.434,-1.844 l -0.222,0 0,-6.713 c 1.734,-1.881 2.914,-2.508 4.611,-2.508 2.287,0 3.319,0.848 3.319,2.656 l 0,6.565 c -1.438,0 -2.25,0.664 -2.25,1.844 0,1.217 0.812,1.845 2.472,1.845 l 3.282,0 c 1.365,0 2.435,-0.369 2.435,-1.845 0,-1.18 -0.812,-1.844 -2.25,-1.844 l 0,-6.713 c 0,-4.057 -2.877,-6.197 -6.566,-6.197 -2.028,0 -3.282,0.554 -5.053,2.25 l 0,-1.77 -3.467,0 c -1.438,0 -2.471,0.516 -2.471,1.844 0,1.18 0.811,1.808 2.25,1.844 l 0,8.742 -0.222,0 c -1.327,0 -2.434,0.332 -2.434,1.844"
           style="font-size:36.88463974px;font-variant:normal;font-weight:bold;font-stretch:normal;text-align:center;text-anchor:middle;fill:#000000;font-family:FreeMono;-inkscape-font-specification:FreeMono"
           id="path3006"
           inkscape:connector-curvature="0" />
        <path
           d="m -15092.067,-15007.869 0.369,0 1.291,0 0,6.713 c -1.918,2.029 -2.84,2.509 -4.684,2.509 -2.213,0 -3.246,-0.849 -3.246,-2.656 l 0,-10.254 -4.279,0 c -1.438,0 -2.434,0.332 -2.434,1.844 0,1.07 0.811,1.844 2.029,1.844 l 0.995,0 0,6.677 c 0,4.057 2.841,6.233 6.566,6.233 2.029,0 3.209,-0.516 5.053,-2.25 l 0,1.771 3.504,0 c 1.291,0 2.435,-0.332 2.435,-1.845 0,-1.18 -0.812,-1.844 -2.25,-1.844 l 0,-12.43 -4.98,0 c -1.365,0 -2.434,0.332 -2.434,1.844 0,0.701 0.406,1.844 2.065,1.844"
           style="font-size:36.88463974px;font-variant:normal;font-weight:bold;font-stretch:normal;text-align:center;text-anchor:middle;fill:#000000;font-family:FreeMono;-inkscape-font-specification:FreeMono"
           id="path3008"
           inkscape:connector-curvature="0" />
        <path
           d="m -15053.994,-15011.557 -3.393,0 c -1.402,0 -2.434,0.516 -2.434,1.844 0,1.07 0.7,1.734 1.918,1.844 l 4.721,4.021 -5.348,4.721 c -1.255,0.07 -1.992,0.738 -1.992,1.844 0,1.217 0.811,1.845 2.434,1.845 l 4.094,0 c 1.623,0 2.435,-0.628 2.435,-1.882 0,-0.885 -0.369,-1.364 -1.402,-1.807 l 2.693,-2.25 2.766,2.25 c -0.922,0.258 -1.475,0.959 -1.475,1.807 0,1.513 1.069,1.882 2.471,1.882 l 4.131,0 c 1.328,0 2.434,-0.369 2.434,-1.845 0,-1.106 -0.737,-1.77 -1.991,-1.844 l -5.607,-4.684 4.869,-4.058 c 1.254,-0.11 1.955,-0.774 1.955,-1.844 0,-1.549 -1.144,-1.844 -2.471,-1.844 l -3.357,0 c -1.402,0 -2.434,0.516 -2.434,1.881 0,0.627 0.258,1.107 0.959,1.586 l -2.25,1.844 -2.25,-1.807 c 0.627,-0.406 0.959,-1.033 0.959,-1.697 0,-1.475 -1.07,-1.807 -2.435,-1.807"
           style="font-size:36.88463974px;font-variant:normal;font-weight:bold;font-stretch:normal;text-align:center;text-anchor:middle;fill:#000000;font-family:FreeMono;-inkscape-font-specification:FreeMono"
           id="path3010"
           inkscape:connector-curvature="0" />
      </g>
      <g
         style="font-size:25.39764214px;font-style:normal;font-weight:normal;line-height:125%;letter-spacing:0px;word-spacing:0px;fill:#000000;fill-opacity:1;stroke:none;font-family:Sans"
         id="text25518">
        <path
           d="m -15489.223,-15067.578 0,-3.383 c 0,-4.206 -1.372,-6.035 -4.298,-6.035 -1.371,0 -2.194,0.64 -2.925,2.377 -3.566,-1.645 -7.315,-2.377 -11.795,-2.377 -10.972,0 -18.835,5.212 -18.835,12.526 0,7.223 5.395,10.881 18.195,12.252 2.743,0.274 11.52,0.915 11.52,4.755 0,2.103 -4.846,3.931 -10.697,3.931 -4.937,0 -8.778,-1.188 -11.429,-3.566 -0.823,-2.743 -2.286,-4.023 -4.663,-4.023 -3.84,0 -4.663,2.743 -4.663,6.126 l 0,3.018 c 0,3.2 0.731,6.034 4.663,6.034 1.189,0 1.92,-0.274 2.926,-1.097 3.657,1.737 8.32,2.651 13.532,2.651 11.794,0 20.389,-5.394 20.389,-12.892 0,-4.205 -2.377,-8.137 -6.4,-10.331 -7.772,-4.389 -23.315,-2.835 -23.315,-7.04 0,-1.646 4.388,-3.201 9.051,-3.201 12.069,0 8.961,6.309 14.172,6.309 3.749,0 4.572,-2.56 4.572,-6.034"
           style="font-size:91.43152618px;font-variant:normal;font-weight:bold;font-stretch:normal;text-align:center;text-anchor:middle;fill:#000000;font-family:FreeMono;-inkscape-font-specification:FreeMono"
           id="path3013"
           inkscape:connector-curvature="0" />
        <path
           d="m -15471.064,-15088.242 c 0,3.749 2.743,4.572 6.126,4.572 l 7.131,0 0,38.675 -11.154,0 c -3.566,0 -6.035,0.823 -6.035,4.572 0,1.92 0.915,4.571 6.035,4.571 l 31.452,0 c 3.566,0 6.035,-1.097 6.035,-4.571 0,-3.84 -2.835,-4.572 -6.035,-4.572 l -11.154,0 0,-47.818 -16.275,0 c -3.566,0 -6.126,0.731 -6.126,4.571"
           style="font-size:91.43152618px;font-variant:normal;font-weight:bold;font-stretch:normal;text-align:center;text-anchor:middle;fill:#000000;font-family:FreeMono;-inkscape-font-specification:FreeMono"
           id="path3015"
           inkscape:connector-curvature="0" />
        <path
           d="m -15422.001,-15046.732 c 0,6.766 7.406,12.343 16.458,12.343 5.394,0 10.789,-1.28 15.177,-3.565 l 0,2.102 10.698,0 c 3.383,0 6.034,-0.914 6.034,-4.571 0,-3.657 -2.468,-4.572 -6.034,-4.572 l -1.463,0 0,-18.469 c 0,-8.503 -6.766,-13.532 -18.012,-13.532 -4.572,0 -11.338,1.189 -15.726,2.743 -1.829,0.64 -2.743,1.92 -2.743,3.84 0,2.652 1.92,4.663 4.48,4.663 2.926,0 7.68,-2.103 14.263,-2.103 5.852,0 8.503,1.372 8.503,4.481 l 0,2.102 c -3.748,-0.64 -6.583,-0.914 -9.509,-0.914 -13.714,0 -22.126,7.498 -22.126,15.452 m 31.727,-1.463 c -5.029,3.109 -10.149,4.663 -15.087,4.663 -3.931,0 -6.948,-1.554 -6.948,-3.566 0,-3.474 5.668,-6.674 11.886,-6.674 3.108,0 6.491,0.366 10.149,1.006 l 0,4.571"
           style="font-size:91.43152618px;font-variant:normal;font-weight:bold;font-stretch:normal;text-align:center;text-anchor:middle;fill:#000000;font-family:FreeMono;-inkscape-font-specification:FreeMono"
           id="path3017"
           inkscape:connector-curvature="0" />
        <path
           d="m -15321.645,-15063.921 0,-7.04 c 0,-4.206 -1.371,-6.035 -4.389,-6.035 -1.92,0 -2.925,0.823 -3.474,2.743 -3.566,-1.828 -7.955,-2.743 -13.166,-2.743 -13.806,0 -23.407,9.143 -23.407,22.218 0,8.869 4.938,20.389 24.595,20.389 13.715,0 22.127,-4.571 22.127,-9.6 0,-2.56 -2.103,-4.663 -4.572,-4.663 -3.748,0 -2.834,5.12 -16.915,5.12 -10.697,0 -16.092,-3.749 -16.092,-11.246 0,-7.772 5.578,-13.075 14.264,-13.075 4.023,0 7.314,0.823 9.692,2.286 3.291,2.377 1.097,7.68 6.765,7.68 3.841,0 4.572,-2.834 4.572,-6.034"
           style="font-size:91.43152618px;font-variant:normal;font-weight:bold;font-stretch:normal;text-align:center;text-anchor:middle;fill:#000000;font-family:FreeMono;-inkscape-font-specification:FreeMono"
           id="path3019"
           inkscape:connector-curvature="0" />
        <path
           d="m -15263.987,-15040.423 c 0,-3.749 -2.652,-4.572 -6.126,-4.572 l -3.018,0 -14.629,-12.892 10.789,-8.777 2.56,0 c 3.292,0 6.035,-0.914 6.035,-4.572 0,-3.657 -2.377,-4.571 -6.035,-4.571 l -10.24,0 c -3.291,0 -6.126,0.731 -6.126,4.571 0,1.28 0.366,2.103 1.463,3.383 l -7.223,5.761 0,-30.721 -10.606,0 c -3.383,0 -6.035,0.822 -6.035,4.571 0,3.749 2.561,4.572 6.035,4.572 l 1.463,0 0,38.675 -1.463,0 c -3.566,0 -6.035,0.823 -6.035,4.572 0,3.017 2.012,4.571 6.035,4.571 l 10.606,0 0,-14.994 1.646,-1.28 9.417,8.32 c -1.097,1.189 -1.463,2.103 -1.463,3.383 0,3.017 2.012,4.571 6.035,4.571 l 10.789,0 c 3.291,0 6.126,-0.822 6.126,-4.571"
           style="font-size:91.43152618px;font-variant:normal;font-weight:bold;font-stretch:normal;text-align:center;text-anchor:middle;fill:#000000;font-family:FreeMono;-inkscape-font-specification:FreeMono"
           id="path3021"
           inkscape:connector-curvature="0" />
        <path
           d="m -15215.199,-15091.625 c 0.915,-1.828 1.097,-2.377 1.097,-3.383 0,-2.286 -2.102,-4.388 -4.571,-4.388 -2.103,0 -3.292,0.914 -4.663,4.023 l -29.35,61.99 c -0.822,1.646 -1.097,2.56 -1.097,3.474 0,2.286 2.195,4.389 4.572,4.389 2.194,0 3.383,-0.914 4.754,-4.023 l 29.258,-62.082"
           style="font-size:91.43152618px;font-variant:normal;font-weight:bold;font-stretch:normal;text-align:center;text-anchor:middle;fill:#000000;font-family:FreeMono;-inkscape-font-specification:FreeMono"
           id="path3023"
           inkscape:connector-curvature="0" />
        <path
           d="m -15174.547,-15040.423 c 0,1.92 0.914,4.571 6.034,4.571 l 12.709,0 c 3.383,0 6.035,-0.914 6.035,-4.571 0,-3.84 -2.926,-4.572 -6.218,-4.572 l -18.195,-44.161 -19.749,0 c -3.383,0 -6.126,0.64 -6.126,4.571 0,3.841 2.835,4.572 6.126,4.572 l 5.76,0 -14.172,35.018 c -3.383,0 -6.125,0.64 -6.125,4.572 0,3.017 2.011,4.571 6.034,4.571 l 12.16,0 c 3.383,0 6.035,-0.914 6.035,-4.571 0,-3.84 -2.834,-4.572 -6.035,-4.572 l -2.103,0 2.103,-5.303 21.761,0 2.103,5.303 -2.103,0 c -3.566,0 -6.034,0.823 -6.034,4.572 m 2.285,-19.018 -14.354,0 7.223,-17.555 7.131,17.555"
           style="font-size:91.43152618px;font-variant:normal;font-weight:bold;font-stretch:normal;text-align:center;text-anchor:middle;fill:#000000;font-family:FreeMono;-inkscape-font-specification:FreeMono"
           id="path3025"
           inkscape:connector-curvature="0" />
        <path
           d="m -15096.043,-15040.423 c 0,-3.657 -2.469,-4.572 -6.035,-4.572 l -1.189,0 c -3.84,-6.126 -7.223,-10.331 -11.52,-14.08 6.675,-3.657 9.875,-8.046 9.875,-13.806 0,-9.601 -8.229,-16.275 -20.115,-16.275 l -20.389,0 c -3.566,0 -6.035,0.823 -6.035,4.571 0,3.749 2.652,4.572 6.035,4.572 l 1.371,0 0,35.018 -1.371,0 c -3.383,0 -6.035,0.823 -6.035,4.572 0,1.92 0.914,4.571 6.035,4.571 l 13.714,0 c 3.566,0 6.035,-1.097 6.035,-4.571 0,-3.657 -2.469,-4.572 -6.035,-4.572 l -3.2,0 0,-11.154 8.778,0 c 3.84,1.371 12.251,11.429 16.823,20.297 l 7.223,0 c 3.566,0 6.035,-1.097 6.035,-4.571 m -38.859,-24.87 0,-14.72 10.241,0 c 5.851,0 10.057,2.926 10.057,6.857 0,4.572 -5.669,7.863 -13.349,7.863 l -6.949,0"
           style="font-size:91.43152618px;font-variant:normal;font-weight:bold;font-stretch:normal;text-align:center;text-anchor:middle;fill:#000000;font-family:FreeMono;-inkscape-font-specification:FreeMono"
           id="path3027"
           inkscape:connector-curvature="0" />
        <path
           d="m -15063.895,-15040.423 c 0,1.92 0.914,4.571 6.034,4.571 l 11.886,0 c 3.566,0 6.035,-1.097 6.035,-4.571 0,-2.926 -2.012,-4.572 -5.577,-4.572 l 0,-35.018 c 3.017,-0.274 4.754,-1.92 4.754,-4.572 0,-3.657 -2.469,-4.571 -6.035,-4.571 l -10.057,0 -12.343,27.246 -12.618,-27.246 -10.332,0 c -4.571,0 -5.668,2.651 -5.668,4.571 0,2.743 1.737,4.389 4.754,4.663 l 0,34.927 c -3.566,0 -5.577,1.646 -5.577,4.572 0,3.474 2.56,4.571 6.126,4.571 l 11.794,0 c 3.566,0 6.035,-1.097 6.035,-4.571 0,-3.749 -2.377,-4.572 -6.035,-4.572 l -3.2,0 0,-26.332 10.789,22.949 8.32,0 10.149,-23.04 0,26.423 -3.2,0 c -3.566,0 -6.034,0.823 -6.034,4.572"
           style="font-size:91.43152618px;font-variant:normal;font-weight:bold;font-stretch:normal;text-align:center;text-anchor:middle;fill:#000000;font-family:FreeMono;-inkscape-font-specification:FreeMono"
           id="path3029"
           inkscape:connector-curvature="0" />
      </g>
      <path
         inkscape:connector-curvature="0"
         id="path25522"
         d="m -15551.941,-15009.182 0,4.989 2.495,0 294.358,0 2.495,0 0,-4.989 -2.495,0 -294.358,0 -2.495,0 z"
         style="font-size:medium;font-style:normal;font-variant:normal;font-weight:normal;font-stretch:normal;text-indent:0;text-align:start;text-decoration:none;line-height:normal;letter-spacing:normal;word-spacing:normal;text-transform:none;direction:ltr;block-progression:tb;writing-mode:lr-tb;text-anchor:start;baseline-shift:baseline;color:#000000;fill:#000000;fill-opacity:1;stroke:none;stroke-width:5;marker:none;visibility:visible;display:inline;overflow:visible;enable-background:accumulate;font-family:Sans;-inkscape-font-specification:Sans" />
      <path
         style="font-size:medium;font-style:normal;font-variant:normal;font-weight:normal;font-stretch:normal;text-indent:0;text-align:start;text-decoration:none;line-height:normal;letter-spacing:normal;word-spacing:normal;text-transform:none;direction:ltr;block-progression:tb;writing-mode:lr-tb;text-anchor:start;baseline-shift:baseline;color:#000000;fill:#000000;fill-opacity:1;stroke:none;stroke-width:5;marker:none;visibility:visible;display:inline;overflow:visible;enable-background:accumulate;font-family:Sans;-inkscape-font-specification:Sans"
         d="m -15546.951,-15034.422 -4.99,0 0,0.252 0,29.725 0,0.252 4.99,0 0,-0.252 0,-29.725 0,-0.252 z"
         id="path25524"
         inkscape:connector-curvature="0" />
    </g>
  </g>
</svg>
