<?xml version="1.0" encoding="UTF-8" standalone="no"?>
<!-- Created with Inkscape (http://www.inkscape.org/) -->

<!-- 
 
 SLACKWARE LINUX GRAPHICS PROJECT: 

 Slackware Linux Graphics Project aims to provide a set of visual components related to GNU/Linux Slackware in both vector and 
 raster graphics formats for its users. 
 
 LEGAL DISCLAIMER: 

 Graphics in this project are all free artwork; you can use them, redistribute them and/or modify them under the *related* terms 
 explained in Slackware Linux Propaganda Graphics FAQ section on Slackware Linux home page. 

 You should have received a copy of the Slackware Linux Propaganda Graphics FAQ text 
 along with this artwork package. If not, see "http://www.slackware.com/". 

 This artwork package is distributed in the hope that it will be useful, but WITHOUT ANY WARRANTY. 

 Slackware Linux Graphics Project does not officially represent neither Linux nor Slackware Linux in any way. 
 Linux is a registered trademark of Linus Torvalds. Slackware Linux is a registered trademark of Slackware Linux, Inc. 
 and Patrick Volkerding. 
 
 DOWNLOAD INFORMATION: 

 You can download more recent versions of the Slackware Linux Graphics from the project's blog 
 at "http://www.slackware-linux-graphics.blogspot.com/". 

 OPINIONS AND SUGGESTIONS: 
 
 Please contact with the project for your opinions and suggestions related to Slackware Linux Graphics. 
 
 CONTACT INFORMATION: 
 
 Maintainer: Ismail Demiral 
 E-Mail: slackware.linux.graphics@gmail.com 
 Blog: http://www.slackware-linux-graphics.blogspot.com/ 
 
 -->

<svg
   xmlns:dc="http://purl.org/dc/elements/1.1/"
   xmlns:cc="http://creativecommons.org/ns#"
   xmlns:rdf="http://www.w3.org/1999/02/22-rdf-syntax-ns#"
   xmlns:svg="http://www.w3.org/2000/svg"
   xmlns="http://www.w3.org/2000/svg"
   xmlns:sodipodi="http://sodipodi.sourceforge.net/DTD/sodipodi-0.dtd"
   xmlns:inkscape="http://www.inkscape.org/namespaces/inkscape"
   width="511.99991"
   height="103.6375"
   id="svg7742"
   version="1.1"
   inkscape:version="0.48.3.1 r9886"
   sodipodi:docname="Slackware.Linux.Current.Branch.Logo.v4_FreeMono.svg">
  <defs
     id="defs7744" />
  <sodipodi:namedview
     id="base"
     pagecolor="#ffffff"
     bordercolor="#666666"
     borderopacity="1.0"
     inkscape:pageopacity="0.0"
     inkscape:pageshadow="2"
     inkscape:zoom="1.979899"
     inkscape:cx="224.21298"
     inkscape:cy="32.119266"
     inkscape:document-units="px"
     inkscape:current-layer="layer1"
     showgrid="false"
     fit-margin-top="0"
     fit-margin-left="0"
     fit-margin-right="0"
     fit-margin-bottom="0"
     inkscape:window-width="1366"
     inkscape:window-height="721"
     inkscape:window-x="-2"
     inkscape:window-y="-3"
     inkscape:window-maximized="1" />
  <metadata
     id="metadata7747">
    <rdf:RDF>
      <cc:Work
         rdf:about="">
        <dc:format>image/svg+xml</dc:format>
        <dc:type
           rdf:resource="http://purl.org/dc/dcmitype/StillImage" />
        <dc:title></dc:title>
      </cc:Work>
    </rdf:RDF>
  </metadata>
  <g
     inkscape:label="Layer 1"
     inkscape:groupmode="layer"
     id="layer1"
     transform="translate(474.87401,26.206897)">
    <g
       id="g3103"
       inkscape:export-filename="Slackware.Linux.Current.Branch.Logo.v4_FreeMono_512x104.png"
       inkscape:export-xdpi="89.999954"
       inkscape:export-ydpi="89.999954">
      <path
         id="rect6407-9"
         transform="translate(-431.73036,-111.97565)"
         d="m 141.59375,154.375 0,35.03125 327.25,0 0,-35.03125 -327.25,0 z m 290.125,6.3125 c 1.512,0 1.84375,0.999 1.84375,2.4375 l 0,3.25 6.6875,0 c 1.402,0 2.4375,0.33145 2.4375,1.84375 0,1.4753 -1.0725,1.84375 -2.4375,1.84375 l -6.6875,0 0,7.25 c 0,1.4016 0.4575,2.09375 3.1875,2.09375 4.20501,0 5.36525,-1.65625 6.65625,-1.65625 0.996,0 1.78125,0.8422 1.78125,1.875 0,2.2131 -5.66574,3.46875 -8.46875,3.46875 -4.20501,0 -6.84375,-1.95865 -6.84375,-5.09375 l 0,-7.9375 -1.28125,0 c -1.364,0 -2.4375,-0.36845 -2.4375,-1.84375 0,-1.5123 0.9995,-1.84375 2.4375,-1.84375 l 1.28125,0 0,-3.25 c 0,-1.291 0.29375,-2.4375 1.84375,-2.4375 z m -260,5.21875 c 2.10201,0 3.8745,0.35605 5.3125,1.09375 0.221,-0.7746 0.63124,-1.09375 1.40625,-1.09375 1.217,0 1.75,0.7408 1.75,2.4375 l 0,2.84375 c 0,1.291 -0.29475,2.4375 -1.84375,2.4375 -2.28701,0 -1.39075,-2.166 -2.71875,-3.125 -0.959,-0.5902 -2.28324,-0.90625 -3.90625,-0.90625 -3.504,0 -5.75,2.14604 -5.75,5.28125 0,3.02451 2.15374,4.53125 6.46875,4.53125 5.68101,0 5.33175,-2.0625 6.84375,-2.0625 0.996,0 1.84375,0.8422 1.84375,1.875 0,2.0286 -3.4045,3.875 -8.9375,3.875 -7.93002,0 -9.90625,-4.64094 -9.90625,-8.21875 0,-5.27451 3.86749,-8.96875 9.4375,-8.96875 z m 176.21875,0 c 5.49501,0 9.5625,3.72249 9.5625,8.8125 l 0,1.4375 -15.0625,0 c 0.848,2.2131 2.81649,3.25 6.0625,3.25 3.43001,0 5.78075,-1.21875 7.21875,-1.21875 0.996,0 1.78125,0.81095 1.78125,1.84375 0,2.6188 -7.75775,3.0625 -9.34375,3.0625 -5.71701,0 -9.71875,-3.54619 -9.71875,-8.5625 0,-4.86871 4.11399,-8.625 9.5,-8.625 z m 45.75,0 c 3.68901,0 6.5625,2.13019 6.5625,6.1875 l 0,6.71875 c 1.438,0 2.25,0.66335 2.25,1.84375 0,1.4753 -1.0735,1.84375 -2.4375,1.84375 l -3.28125,0 c -1.66,0 -2.46875,-0.62665 -2.46875,-1.84375 0,-1.1804 0.812,-1.84375 2.25,-1.84375 l 0,-6.5625 c 0,-1.8074 -1.0255,-2.65625 -3.3125,-2.65625 -1.697,0 -2.891,0.6189 -4.625,2.5 l 0,6.71875 0.21875,0 c 1.291,0 2.4375,0.29455 2.4375,1.84375 0,1.5122 -1.1465,1.84375 -2.4375,1.84375 l -4.125,0 c -1.439,0 -2.4375,-0.44215 -2.4375,-1.84375 0,-1.5123 1.1095,-1.84375 2.4375,-1.84375 l 0.21875,0 0,-8.75 c -1.439,-0.0369 -2.25,-0.66345 -2.25,-1.84375 0,-1.3279 1.03075,-1.84375 2.46875,-1.84375 l 3.46875,0 0,1.78125 c 1.771,-1.6967 3.0345,-2.25 5.0625,-2.25 z m -128.53125,0.0312 c 1.91801,0 4.65625,1.4283 4.65625,3.125 0,1.0328 -0.84775,1.90625 -1.84375,1.90625 -1.218,0 -1.658,-1.34375 -2.875,-1.34375 -1.181,0 -2.58974,0.873 -6.09375,3.75 l 0,5.4375 5.125,0 c 1.401,0 2.46875,0.33145 2.46875,1.84375 0,1.4753 -1.10475,1.84375 -2.46875,1.84375 l -10.9375,0 c -1.402,0 -2.4375,-0.44215 -2.4375,-1.84375 0,-1.5123 0.9985,-1.84375 2.4375,-1.84375 l 2.125,0 0,-8.75 -1.28125,0 c -1.438,0 -2.4375,-0.44215 -2.4375,-1.84375 0,-1.1435 0.8145,-1.84375 2.4375,-1.84375 l 4.96875,0 0,2.40625 c 2.95001,-2.2131 4.34925,-2.84375 6.15625,-2.84375 z m 44.25,0 c 1.91801,0 4.625,1.4283 4.625,3.125 0,1.0328 -0.84775,1.90625 -1.84375,1.90625 -1.21701,0 -1.657,-1.34375 -2.875,-1.34375 -1.18,0 -2.58974,0.873 -6.09375,3.75 l 0,5.4375 5.125,0 c 1.402,0 2.5,0.33145 2.5,1.84375 0,1.4753 -1.135,1.84375 -2.5,1.84375 l -10.9375,0 c -1.402,0 -2.4375,-0.44215 -2.4375,-1.84375 0,-1.5123 0.9985,-1.84375 2.4375,-1.84375 l 2.125,0 0,-8.75 -1.28125,0 c -1.439,0 -2.4375,-0.44215 -2.4375,-1.84375 0,-1.1435 0.8145,-1.84375 2.4375,-1.84375 l 4.96875,0 0,2.40625 c 2.95101,-2.2131 4.3805,-2.84375 6.1875,-2.84375 z m -101.96875,0.4375 4.28125,0 0,10.25 c 0,1.8074 1.00575,2.65625 3.21875,2.65625 1.84501,0 2.7695,-0.4714 4.6875,-2.5 l 0,-6.71875 -1.28125,0 -0.375,0 c -1.66001,0 -2.0625,-1.14295 -2.0625,-1.84375 0,-1.5123 1.0725,-1.84375 2.4375,-1.84375 l 4.96875,0 0,12.4375 c 1.439,0 2.25,0.66335 2.25,1.84375 0,1.5122 -1.1465,1.84375 -2.4375,1.84375 l -3.5,0 0,-1.78125 c -1.844,1.7336 -3.00325,2.25 -5.03125,2.25 -3.72601,0 -6.5625,-2.16144 -6.5625,-6.21875 l 0,-6.6875 -1,0 c -1.217,0 -2.03125,-0.77415 -2.03125,-1.84375 0,-1.5123 0.9995,-1.84375 2.4375,-1.84375 z m 140.53125,3.21875 c -2.692,0 -4.85225,1.3207 -5.40625,3.3125 l 10.84375,0 c -0.59,-2.0287 -2.7445,-3.3125 -5.4375,-3.3125 z"
         style="fill:#000000;fill-rule:evenodd;stroke:none"
         inkscape:connector-curvature="0" />
      <g
         transform="matrix(1.0000018,0,0,1.0000018,14532.151,5750.0616)"
         style="font-size:25.39759445px;font-style:normal;font-weight:normal;line-height:125%;letter-spacing:0px;word-spacing:0px;fill:#000000;fill-opacity:1;stroke:none;font-family:Sans"
         id="text6413-9">
        <path
           d="m -14937.607,-5751.0231 0,-3.3829 c 0,-4.2059 -1.371,-6.0345 -4.297,-6.0345 -1.371,0 -2.194,0.64 -2.926,2.3772 -3.566,-1.6457 -7.314,-2.3772 -11.794,-2.3772 -10.972,0 -18.835,5.2116 -18.835,12.5261 0,7.2231 5.394,10.8803 18.195,12.2518 2.743,0.2743 11.52,0.9143 11.52,4.7544 0,2.103 -4.846,3.9316 -10.698,3.9316 -4.937,0 -8.777,-1.1886 -11.428,-3.5658 -0.823,-2.743 -2.286,-4.023 -4.663,-4.023 -3.841,0 -4.663,2.7429 -4.663,6.1259 l 0,3.0172 c 0,3.2001 0.731,6.0345 4.663,6.0345 1.188,0 1.92,-0.2743 2.925,-1.0972 3.658,1.7372 8.321,2.6515 13.532,2.6515 11.795,0 20.389,-5.3944 20.389,-12.8918 0,-4.2058 -2.377,-8.1374 -6.4,-10.3317 -7.771,-4.3887 -23.315,-2.8344 -23.315,-7.0403 0,-1.6457 4.389,-3.2001 9.052,-3.2001 12.069,0 8.96,6.3088 14.172,6.3088 3.748,0 4.571,-2.5601 4.571,-6.0345"
           style="font-size:91.43135071px;font-variant:normal;font-weight:bold;font-stretch:normal;text-align:center;text-anchor:middle;fill:#000000;font-family:FreeMono;-inkscape-font-specification:FreeMono"
           id="path3035"
           inkscape:connector-curvature="0" />
        <path
           d="m -14919.448,-5771.6866 c 0,3.7487 2.743,4.5716 6.126,4.5716 l 7.132,0 0,38.6755 -11.155,0 c -3.565,0 -6.034,0.8229 -6.034,4.5715 0,1.9201 0.914,4.5716 6.034,4.5716 l 31.453,0 c 3.566,0 6.034,-1.0972 6.034,-4.5716 0,-3.8401 -2.834,-4.5715 -6.034,-4.5715 l -11.155,0 0,-47.8186 -16.275,0 c -3.565,0 -6.126,0.7314 -6.126,4.5715"
           style="font-size:91.43135071px;font-variant:normal;font-weight:bold;font-stretch:normal;text-align:center;text-anchor:middle;fill:#000000;font-family:FreeMono;-inkscape-font-specification:FreeMono"
           id="path3037"
           inkscape:connector-curvature="0" />
        <path
           d="m -14870.385,-5730.1767 c 0,6.7659 7.406,12.3432 16.458,12.3432 5.394,0 10.789,-1.28 15.178,-3.5658 l 0,2.1029 10.697,0 c 3.383,0 6.035,-0.9143 6.035,-4.5716 0,-3.6572 -2.469,-4.5715 -6.035,-4.5715 l -1.463,0 0,-18.4692 c 0,-8.5031 -6.766,-13.5318 -18.012,-13.5318 -4.571,0 -11.337,1.1886 -15.726,2.7429 -1.829,0.6401 -2.743,1.9201 -2.743,3.8402 0,2.6515 1.92,4.663 4.48,4.663 2.926,0 7.68,-2.103 14.264,-2.103 5.851,0 8.503,1.3715 8.503,4.4802 l 0,2.1029 c -3.749,-0.64 -6.583,-0.9143 -9.509,-0.9143 -13.715,0 -22.127,7.4974 -22.127,15.4519 m 31.727,-1.4629 c -5.029,3.1086 -10.149,4.663 -15.086,4.663 -3.932,0 -6.949,-1.5544 -6.949,-3.5658 0,-3.4744 5.669,-6.6745 11.886,-6.6745 3.109,0 6.492,0.3657 10.149,1.0057 l 0,4.5716"
           style="font-size:91.43135071px;font-variant:normal;font-weight:bold;font-stretch:normal;text-align:center;text-anchor:middle;fill:#000000;font-family:FreeMono;-inkscape-font-specification:FreeMono"
           id="path3039"
           inkscape:connector-curvature="0" />
        <path
           d="m -14770.029,-5747.3658 0,-7.0402 c 0,-4.2059 -1.371,-6.0345 -4.388,-6.0345 -1.92,0 -2.926,0.8229 -3.475,2.7429 -3.566,-1.8286 -7.954,-2.7429 -13.166,-2.7429 -13.806,0 -23.406,9.1432 -23.406,22.2178 0,8.8689 4.937,20.3892 24.595,20.3892 13.714,0 22.126,-4.5716 22.126,-9.6003 0,-2.5601 -2.103,-4.663 -4.571,-4.663 -3.749,0 -2.835,5.1202 -16.915,5.1202 -10.698,0 -16.092,-3.7487 -16.092,-11.2461 0,-7.7716 5.577,-13.0747 14.263,-13.0747 4.023,0 7.315,0.8229 9.692,2.2858 3.291,2.3772 1.097,7.6803 6.766,7.6803 3.84,0 4.571,-2.8344 4.571,-6.0345"
           style="font-size:91.43135071px;font-variant:normal;font-weight:bold;font-stretch:normal;text-align:center;text-anchor:middle;fill:#000000;font-family:FreeMono;-inkscape-font-specification:FreeMono"
           id="path3041"
           inkscape:connector-curvature="0" />
        <path
           d="m -14712.371,-5723.868 c 0,-3.7486 -2.652,-4.5715 -6.126,-4.5715 l -3.017,0 -14.629,-12.8918 10.789,-8.7775 2.56,0 c 3.291,0 6.034,-0.9143 6.034,-4.5715 0,-3.6573 -2.377,-4.5716 -6.034,-4.5716 l -10.241,0 c -3.291,0 -6.126,0.7315 -6.126,4.5716 0,1.28 0.366,2.1029 1.463,3.3829 l -7.223,5.7602 0,-30.7209 -10.606,0 c -3.383,0 -6.034,0.8229 -6.034,4.5715 0,3.7487 2.56,4.5716 6.034,4.5716 l 1.463,0 0,38.6755 -1.463,0 c -3.566,0 -6.034,0.8229 -6.034,4.5715 0,3.0173 2.011,4.5716 6.034,4.5716 l 10.606,0 0,-14.9947 1.646,-1.2801 9.417,8.3203 c -1.097,1.1886 -1.463,2.1029 -1.463,3.3829 0,3.0173 2.012,4.5716 6.035,4.5716 l 10.789,0 c 3.291,0 6.126,-0.8229 6.126,-4.5716"
           style="font-size:91.43135071px;font-variant:normal;font-weight:bold;font-stretch:normal;text-align:center;text-anchor:middle;fill:#000000;font-family:FreeMono;-inkscape-font-specification:FreeMono"
           id="path3043"
           inkscape:connector-curvature="0" />
        <path
           d="m -14669.434,-5750.2002 0.64,0 -3.657,13.989 -5.578,-14.4461 -8.046,0 -5.486,14.4461 -3.565,-13.989 c 3.108,0 5.851,-0.7314 5.851,-4.4801 0,-3.7487 -2.56,-4.5716 -6.034,-4.5716 l -8.412,0 c -3.474,0 -6.034,1.2801 -6.034,4.5716 0,2.6515 1.828,4.2973 4.937,4.4801 l 7.772,30.9038 8.594,0 6.217,-16.5491 6.492,16.5491 8.412,0 7.68,-30.9038 c 3.017,-0.1828 4.754,-1.8286 4.754,-4.4801 0,-3.8401 -2.834,-4.5716 -6.034,-4.5716 l -8.503,0 c -4.115,0 -6.035,1.8286 -6.035,4.5716 0,3.7487 2.743,4.4801 6.035,4.4801"
           style="font-size:91.43135071px;font-variant:normal;font-weight:bold;font-stretch:normal;text-align:center;text-anchor:middle;fill:#000000;font-family:FreeMono;-inkscape-font-specification:FreeMono"
           id="path3045"
           inkscape:connector-curvature="0" />
        <path
           d="m -14651.092,-5730.1767 c 0,6.7659 7.406,12.3432 16.457,12.3432 5.395,0 10.789,-1.28 15.178,-3.5658 l 0,2.1029 10.697,0 c 3.383,0 6.035,-0.9143 6.035,-4.5716 0,-3.6572 -2.469,-4.5715 -6.035,-4.5715 l -1.462,0 0,-18.4692 c 0,-8.5031 -6.766,-13.5318 -18.012,-13.5318 -4.572,0 -11.338,1.1886 -15.727,2.7429 -1.828,0.6401 -2.743,1.9201 -2.743,3.8402 0,2.6515 1.921,4.663 4.481,4.663 2.925,0 7.68,-2.103 14.263,-2.103 5.851,0 8.503,1.3715 8.503,4.4802 l 0,2.1029 c -3.749,-0.64 -6.583,-0.9143 -9.509,-0.9143 -13.715,0 -22.126,7.4974 -22.126,15.4519 m 31.726,-1.4629 c -5.028,3.1086 -10.148,4.663 -15.086,4.663 -3.931,0 -6.949,-1.5544 -6.949,-3.5658 0,-3.4744 5.669,-6.6745 11.887,-6.6745 3.108,0 6.491,0.3657 10.148,1.0057 l 0,4.5716"
           style="font-size:91.43135071px;font-variant:normal;font-weight:bold;font-stretch:normal;text-align:center;text-anchor:middle;fill:#000000;font-family:FreeMono;-inkscape-font-specification:FreeMono"
           id="path3047"
           inkscape:connector-curvature="0" />
        <path
           d="m -14559.422,-5760.3491 c -4.48,0 -7.955,1.5544 -15.269,7.0403 l 0,-5.9431 -12.344,0 c -4.023,0 -6.034,1.7372 -6.034,4.5716 0,3.4744 2.469,4.5715 6.034,4.5715 l 3.201,0 0,21.6693 -5.304,0 c -3.565,0 -6.034,0.8229 -6.034,4.5715 0,3.4744 2.56,4.5716 6.034,4.5716 l 27.156,0 c 3.383,0 6.126,-0.9143 6.126,-4.5716 0,-3.7486 -2.652,-4.5715 -6.126,-4.5715 l -12.709,0 0,-13.4404 c 8.686,-7.1317 12.16,-9.326 15.086,-9.326 3.017,0 4.114,3.2915 7.131,3.2915 2.469,0 4.572,-2.1029 4.572,-4.663 0,-4.2058 -6.766,-7.7717 -11.52,-7.7717"
           style="font-size:91.43135071px;font-variant:normal;font-weight:bold;font-stretch:normal;text-align:center;text-anchor:middle;fill:#000000;font-family:FreeMono;-inkscape-font-specification:FreeMono"
           id="path3049"
           inkscape:connector-curvature="0" />
        <path
           d="m -14494.999,-5725.4223 c 0,-2.5601 -1.92,-4.5716 -4.389,-4.5716 -3.565,0 -9.417,3.0173 -17.92,3.0173 -8.046,0 -12.892,-2.5601 -14.995,-8.046 l 37.304,0 0,-3.5658 c 0,-12.6175 -10.057,-21.8521 -23.681,-21.8521 -13.349,0 -23.589,9.326 -23.589,21.3949 0,12.4347 9.966,21.2121 24.138,21.2121 3.931,0 23.132,-1.0972 23.132,-7.5888 m -37.03,-17.6462 c 1.372,-4.9373 6.766,-8.2289 13.441,-8.2289 6.674,0 11.977,3.2001 13.44,8.2289 l -26.881,0"
           style="font-size:91.43135071px;font-variant:normal;font-weight:bold;font-stretch:normal;text-align:center;text-anchor:middle;fill:#000000;font-family:FreeMono;-inkscape-font-specification:FreeMono"
           id="path3051"
           inkscape:connector-curvature="0" />
      </g>
      <path
         style="font-size:medium;font-style:normal;font-variant:normal;font-weight:normal;font-stretch:normal;text-indent:0;text-align:start;text-decoration:none;line-height:normal;letter-spacing:normal;word-spacing:normal;text-transform:none;direction:ltr;block-progression:tb;writing-mode:lr-tb;text-anchor:start;baseline-shift:baseline;color:#000000;fill:#000000;fill-opacity:1;stroke:none;stroke-width:5;marker:none;visibility:visible;display:inline;overflow:visible;enable-background:accumulate;font-family:Sans;-inkscape-font-specification:Sans"
         d="m -474.87401,57.424353 0,4.989009 1.557,0 183.62833,0 1.557,0 0,-4.989009 -1.557,0 -183.62833,0 -1.557,0 z"
         id="path6417-7"
         inkscape:connector-curvature="0" />
      <path
         inkscape:connector-curvature="0"
         id="path6419-8"
         d="m -469.884,32.184508 -4.99001,0 0,0.2516 0,29.725254 0,0.252 4.99001,0 0,-0.252 0,-29.725254 0,-0.2516 z"
         style="font-size:medium;font-style:normal;font-variant:normal;font-weight:normal;font-stretch:normal;text-indent:0;text-align:start;text-decoration:none;line-height:normal;letter-spacing:normal;word-spacing:normal;text-transform:none;direction:ltr;block-progression:tb;writing-mode:lr-tb;text-anchor:start;baseline-shift:baseline;color:#000000;fill:#000000;fill-opacity:1;stroke:none;stroke-width:5;marker:none;visibility:visible;display:inline;overflow:visible;enable-background:accumulate;font-family:Sans;-inkscape-font-specification:Sans" />
    </g>
  </g>
</svg>
