<?xml version="1.0" encoding="UTF-8" standalone="no"?>
<!-- Created with Inkscape (http://www.inkscape.org/) -->

<!-- 
 
 SLACKWARE LINUX GRAPHICS PROJECT: 

 Slackware Linux Graphics Project aims to provide a set of visual components related to GNU/Linux Slackware in both vector and 
 raster graphics formats for its users. 
 
 LEGAL DISCLAIMER: 

 Graphics in this project are all free artwork; you can use them, redistribute them and/or modify them under the *related* terms 
 explained in Slackware Linux Propaganda Graphics FAQ section on Slackware Linux home page. 

 You should have received a copy of the Slackware Linux Propaganda Graphics FAQ text 
 along with this artwork package. If not, see "http://www.slackware.com/". 

 This artwork package is distributed in the hope that it will be useful, but WITHOUT ANY WARRANTY. 

 Slackware Linux Graphics Project does not officially represent neither Linux nor Slackware Linux in any way. 
 Linux is a registered trademark of Linus Torvalds. Slackware Linux is a registered trademark of Slackware Linux, Inc. 
 and Patrick Volkerding. 
 
 DOWNLOAD INFORMATION: 

 You can download more recent versions of the Slackware Linux Graphics from the project's blog 
 at "http://www.slackware-linux-graphics.blogspot.com/". 

 OPINIONS AND SUGGESTIONS: 
 
 Please contact with the project for your opinions and suggestions related to Slackware Linux Graphics. 
 
 CONTACT INFORMATION: 
 
 Maintainer: Ismail Demiral 
 E-Mail: slackware.linux.graphics@gmail.com 
 Blog: http://www.slackware-linux-graphics.blogspot.com/ 
 
 -->

<svg
   xmlns:dc="http://purl.org/dc/elements/1.1/"
   xmlns:cc="http://creativecommons.org/ns#"
   xmlns:rdf="http://www.w3.org/1999/02/22-rdf-syntax-ns#"
   xmlns:svg="http://www.w3.org/2000/svg"
   xmlns="http://www.w3.org/2000/svg"
   xmlns:sodipodi="http://sodipodi.sourceforge.net/DTD/sodipodi-0.dtd"
   xmlns:inkscape="http://www.inkscape.org/namespaces/inkscape"
   width="512"
   height="97.855293"
   id="svg4205"
   version="1.1"
   inkscape:version="0.48.3.1 r9886"
   sodipodi:docname="Slackware.Linux.Traditional.Logo_FreeMono.svg">
  <defs
     id="defs4207" />
  <sodipodi:namedview
     id="base"
     pagecolor="#ffffff"
     bordercolor="#666666"
     borderopacity="1.0"
     inkscape:pageopacity="0.0"
     inkscape:pageshadow="2"
     inkscape:zoom="0.98994949"
     inkscape:cx="342.47462"
     inkscape:cy="0.71922451"
     inkscape:document-units="px"
     inkscape:current-layer="layer1"
     showgrid="false"
     fit-margin-top="0"
     fit-margin-left="0"
     fit-margin-right="0"
     fit-margin-bottom="0"
     inkscape:window-width="1366"
     inkscape:window-height="721"
     inkscape:window-x="-2"
     inkscape:window-y="-3"
     inkscape:window-maximized="1">
    <inkscape:grid
       type="xygrid"
       id="grid3007"
       empspacing="5"
       visible="true"
       enabled="true"
       snapvisiblegridlinesonly="true"
       originx="245.82529px"
       originy="-36.483343px" />
  </sodipodi:namedview>
  <metadata
     id="metadata4210">
    <rdf:RDF>
      <cc:Work
         rdf:about="">
        <dc:format>image/svg+xml</dc:format>
        <dc:type
           rdf:resource="http://purl.org/dc/dcmitype/StillImage" />
        <dc:title></dc:title>
      </cc:Work>
    </rdf:RDF>
  </metadata>
  <g
     inkscape:label="Layer 1"
     inkscape:groupmode="layer"
     id="layer1"
     transform="translate(50.111,-873.73785)">
    <g
       id="g5799"
       transform="translate(15109.636,10521.807)"
       inkscape:export-filename="Slackware.Linux.Traditional.Logo_FreeMono_512x98.png"
       inkscape:export-xdpi="90"
       inkscape:export-ydpi="90">
      <g
         style="font-size:20.49142647px;font-style:normal;font-weight:normal;line-height:125%;letter-spacing:0px;word-spacing:0px;fill:#000000;fill-opacity:1;stroke:none;font-family:Sans"
         id="text5781">
        <path
           d="m -14842.161,-9571.8282 c 0,-0.7131 0.209,-1.1926 0.627,-1.4385 0.418,-0.2705 1.032,-0.4057 1.844,-0.4057 l 6.565,0 0,19.2906 4.5,0 c 1.623,0 2.435,0.6147 2.435,1.8442 0,1.2295 -0.812,1.8442 -2.435,1.8442 l -12.688,0 c -1.623,0 -2.434,-0.6147 -2.434,-1.8442 0,-0.7131 0.209,-1.1926 0.627,-1.4385 0.418,-0.2705 1.02,-0.4057 1.807,-0.4057 l 4.5,0 0,-15.6022 -2.877,0 c -1.648,0 -2.471,-0.6147 -2.471,-1.8442"
           style="font-size:36.88457108px;font-variant:normal;font-weight:bold;font-stretch:normal;text-align:center;text-anchor:middle;fill:#000000;font-family:FreeMono;-inkscape-font-specification:FreeMono"
           id="path3004" />
        <path
           d="m -14784.392,-9554.3818 c 1.623,0 2.434,0.6147 2.434,1.8442 0,1.2295 -0.811,1.8442 -2.434,1.8442 l -12.688,0 c -1.623,0 -2.435,-0.6147 -2.435,-1.8442 0,-0.7131 0.209,-1.1926 0.627,-1.4385 0.418,-0.2705 1.021,-0.4057 1.808,-0.4057 l 4.5,0 0,-8.7417 -2.877,0 c -1.648,10e-5 -2.472,-0.6147 -2.472,-1.8442 0,-0.7377 0.209,-1.2295 0.627,-1.4754 0.443,-0.2459 1.058,-0.3688 1.845,-0.3688 l 6.565,0 0,12.4301 4.5,0 m -5.016,-19.2906 0,3.8728 -4.353,0 0,-3.8728 4.353,0"
           style="font-size:36.88457108px;font-variant:normal;font-weight:bold;font-stretch:normal;text-align:center;text-anchor:middle;fill:#000000;font-family:FreeMono;-inkscape-font-specification:FreeMono"
           id="path3006" />
        <path
           d="m -14754.286,-9550.6934 c -1.623,0 -2.435,-0.6147 -2.435,-1.8442 0,-1.2295 0.812,-1.8442 2.435,-1.8442 l 0.221,0 0,-8.7417 c -1.5,-0.049 -2.25,-0.6639 -2.25,-1.8442 0,-1.2295 0.824,-1.8442 2.471,-1.8442 l 3.468,0 0,1.7704 c 0.885,-0.836 1.696,-1.4139 2.434,-1.7335 0.738,-0.3443 1.611,-0.5164 2.619,-0.5164 1.918,0 3.491,0.541 4.721,1.6229 1.229,1.082 1.844,2.6065 1.844,4.5737 l 0,6.713 c 1.5,0 2.25,0.6147 2.25,1.8442 0,1.2295 -0.811,1.8442 -2.434,1.8442 l -3.283,0 c -1.647,0 -2.471,-0.6147 -2.471,-1.8442 0,-1.2295 0.75,-1.8442 2.25,-1.8442 l 0,-6.5655 c 0,-1.7704 -1.107,-2.6556 -3.32,-2.6557 -0.86,10e-5 -1.635,0.1845 -2.324,0.5533 -0.664,0.3689 -1.426,1.0205 -2.286,1.9549 l 0,6.713 0.221,0 c 1.623,0 2.434,0.6147 2.434,1.8442 0,1.2295 -0.811,1.8442 -2.434,1.8442 l -4.131,0"
           style="font-size:36.88457108px;font-variant:normal;font-weight:bold;font-stretch:normal;text-align:center;text-anchor:middle;fill:#000000;font-family:FreeMono;-inkscape-font-specification:FreeMono"
           id="path3008" />
        <path
           d="m -14699.873,-9563.1235 c -0.738,10e-5 -1.267,-0.1844 -1.586,-0.5532 -0.32,-0.3935 -0.48,-0.8238 -0.48,-1.291 0,-1.2295 0.812,-1.8442 2.434,-1.8442 l 4.98,0 0,12.4301 c 1.5,0 2.25,0.6147 2.25,1.8442 0,1.2295 -0.812,1.8442 -2.435,1.8442 l -3.504,0 0,-1.7704 c -0.909,0.8606 -1.733,1.4508 -2.471,1.7704 -0.713,0.3197 -1.574,0.4795 -2.582,0.4795 -1.942,0 -3.528,-0.5409 -4.758,-1.6229 -1.205,-1.1065 -1.807,-2.6434 -1.807,-4.6106 l 0,-6.6761 -0.996,0 c -0.615,10e-5 -1.107,-0.1721 -1.475,-0.5163 -0.369,-0.3443 -0.554,-0.7869 -0.554,-1.3279 0,-0.7131 0.209,-1.1926 0.627,-1.4385 0.418,-0.2705 1.021,-0.4057 1.808,-0.4057 l 4.278,0 0,10.2539 c 0,1.7705 1.082,2.6557 3.246,2.6557 0.934,0 1.709,-0.1598 2.324,-0.4795 0.615,-0.3443 1.401,-1.0205 2.36,-2.0287 l 0,-6.713 -1.291,0 -0.368,0"
           style="font-size:36.88457108px;font-variant:normal;font-weight:bold;font-stretch:normal;text-align:center;text-anchor:middle;fill:#000000;font-family:FreeMono;-inkscape-font-specification:FreeMono"
           id="path3010" />
        <path
           d="m -14661.8,-9566.8119 c 1.622,0 2.434,0.6024 2.434,1.8073 0,0.7131 -0.32,1.2787 -0.959,1.6967 l 2.25,1.8074 2.25,-1.8443 c -0.639,-0.4426 -0.959,-0.9712 -0.959,-1.586 0,-1.2541 0.811,-1.8811 2.434,-1.8811 l 3.357,0 c 1.647,0 2.471,0.6147 2.471,1.8442 0,1.1066 -0.652,1.7213 -1.955,1.8442 l -4.869,4.0573 5.607,4.6844 c 1.328,0.074 1.992,0.6885 1.992,1.8442 0,1.2295 -0.812,1.8442 -2.435,1.8442 l -4.131,0 c -1.647,0 -2.471,-0.627 -2.471,-1.8811 0,-0.9344 0.492,-1.5368 1.475,-1.8073 l -2.766,-2.25 -2.693,2.25 c 0.935,0.3934 1.402,0.9959 1.402,1.8073 0,1.2541 -0.812,1.8811 -2.434,1.8811 l -4.095,0 c -1.623,0 -2.434,-0.6147 -2.434,-1.8442 0,-1.1557 0.664,-1.7704 1.992,-1.8442 l 5.348,-4.7212 -4.721,-4.0205 c -1.279,-0.1229 -1.918,-0.7376 -1.918,-1.8442 0,-1.2295 0.811,-1.8442 2.434,-1.8442 l 3.394,0"
           style="font-size:36.88457108px;font-variant:normal;font-weight:bold;font-stretch:normal;text-align:center;text-anchor:middle;fill:#000000;font-family:FreeMono;-inkscape-font-specification:FreeMono"
           id="path3012" />
      </g>
      <g
         style="font-size:25.39759445px;font-style:normal;font-weight:normal;line-height:125%;letter-spacing:0px;word-spacing:0px;fill:#000000;fill-opacity:1;stroke:none;font-family:Sans"
         id="text5785">
        <path
           d="m -15090.355,-9622.8341 c 0,1.9506 -0.335,3.4439 -1.005,4.4801 -0.61,1.0363 -1.799,1.5544 -3.566,1.5544 -1.097,0 -2.012,-0.3353 -2.743,-1.0058 -0.732,-0.6704 -1.341,-1.3714 -1.829,-2.1029 -0.427,-0.7924 -1.463,-1.5238 -3.109,-2.1943 -1.584,-0.6705 -3.748,-1.0058 -6.491,-1.0058 -2.316,0 -4.419,0.3353 -6.309,1.0058 -1.829,0.6095 -2.743,1.341 -2.743,2.1943 0,1.2191 1.341,2.103 4.023,2.6515 2.682,0.4877 6.035,1.0363 10.058,1.6458 4.023,0.6095 7.101,1.5239 9.234,2.7429 2.012,1.0972 3.566,2.5601 4.663,4.3887 1.158,1.8287 1.737,3.8097 1.737,5.9431 0,3.7182 -1.92,6.7964 -5.76,9.2345 -3.84,2.4382 -8.716,3.6573 -14.629,3.6573 -5.303,0 -9.813,-0.8839 -13.532,-2.6515 -0.914,0.7314 -1.889,1.0971 -2.925,1.0971 -3.109,0 -4.663,-2.0114 -4.663,-6.0344 l 0,-3.0173 c 0,-4.0839 1.554,-6.1258 4.663,-6.1259 2.316,1e-4 3.87,1.341 4.663,4.023 2.621,2.3772 6.43,3.5659 11.428,3.5658 2.926,1e-4 5.425,-0.3961 7.498,-1.1886 2.133,-0.7924 3.2,-1.7067 3.2,-2.7429 0,-2.3772 -3.84,-3.962 -11.52,-4.7544 -6.401,-0.6705 -11.033,-1.981 -13.898,-3.9316 -2.865,-1.9505 -4.297,-4.7239 -4.297,-8.3202 0,-3.6573 1.767,-6.644 5.303,-8.9603 3.535,-2.3772 8.046,-3.5658 13.532,-3.5658 4.449,0 8.381,0.7924 11.794,2.3772 0.671,-1.5848 1.646,-2.3772 2.926,-2.3772 2.865,0 4.297,2.0115 4.297,6.0344 l 0,3.383"
           style="font-size:91.43135071px;font-variant:normal;font-weight:bold;font-stretch:normal;text-align:center;text-anchor:middle;fill:#000000;font-family:FreeMono;-inkscape-font-specification:FreeMono"
           id="path3015" />
        <path
           d="m -15072.196,-9643.4976 c 0,-1.7676 0.519,-2.9562 1.555,-3.5658 1.036,-0.6704 2.56,-1.0057 4.571,-1.0058 l 16.275,0 0,47.8186 11.155,0 c 4.023,10e-5 6.034,1.5239 6.034,4.5716 0,3.0477 -2.011,4.5716 -6.034,4.5716 l -31.453,0 c -4.023,0 -6.034,-1.5239 -6.034,-4.5716 0,-1.7677 0.518,-2.9563 1.554,-3.5658 1.036,-0.6705 2.53,-1.0057 4.48,-1.0058 l 11.155,0 0,-38.6754 -7.132,0 c -4.084,0 -6.126,-1.5238 -6.126,-4.5716"
           style="font-size:91.43135071px;font-variant:normal;font-weight:bold;font-stretch:normal;text-align:center;text-anchor:middle;fill:#000000;font-family:FreeMono;-inkscape-font-specification:FreeMono"
           id="path3017" />
        <path
           d="m -15023.133,-9601.9878 c 0,-4.1448 2.042,-7.7411 6.126,-10.7889 4.084,-3.1086 9.418,-4.6629 16.001,-4.663 2.743,1e-4 5.912,0.3048 9.509,0.9144 l 0,-2.103 c 0,-2.9867 -2.835,-4.4801 -8.504,-4.4801 -2.499,0 -5.333,0.3658 -8.503,1.0972 -3.169,0.6705 -5.089,1.0058 -5.76,1.0057 -1.28,10e-5 -2.347,-0.4266 -3.2,-1.28 -0.853,-0.9143 -1.28,-2.0419 -1.28,-3.383 0,-1.9505 0.914,-3.2305 2.743,-3.8401 5.181,-1.8286 10.423,-2.7429 15.726,-2.7429 5.608,0 9.997,1.1886 13.166,3.5658 3.231,2.3772 4.846,5.6992 4.846,9.966 l 0,18.4691 1.463,0 c 4.023,10e-5 6.034,1.5239 6.035,4.5716 -0,3.0477 -2.012,4.5716 -6.035,4.5716 l -10.697,0 0,-2.1029 c -4.572,2.3772 -9.631,3.5658 -15.178,3.5658 -4.511,0 -8.381,-1.1886 -11.612,-3.5658 -3.23,-2.4382 -4.846,-5.364 -4.846,-8.7775 m 31.727,-1.4629 0,-4.5715 c -3.84,-0.6705 -7.223,-1.0057 -10.149,-1.0058 -3.109,1e-4 -5.882,0.6705 -8.32,2.0115 -2.377,1.341 -3.566,2.8954 -3.566,4.663 0,1.0363 0.671,1.8896 2.012,2.5601 1.341,0.6705 2.986,1.0058 4.937,1.0057 4.998,1e-4 10.027,-1.5543 15.086,-4.663"
           style="font-size:91.43135071px;font-variant:normal;font-weight:bold;font-stretch:normal;text-align:center;text-anchor:middle;fill:#000000;font-family:FreeMono;-inkscape-font-specification:FreeMono"
           id="path3019" />
        <path
           d="m -14922.777,-9619.1768 c 0,4.023 -1.524,6.0344 -4.571,6.0344 -1.646,0 -2.804,-0.4571 -3.475,-1.3714 -0.609,-0.9143 -1.097,-2.042 -1.463,-3.383 -0.365,-1.341 -0.975,-2.3162 -1.828,-2.9258 -2.499,-1.5238 -5.73,-2.2858 -9.692,-2.2858 -4.328,0 -7.802,1.2191 -10.423,3.6573 -2.56,2.3772 -3.84,5.5163 -3.84,9.4174 0,7.4974 5.364,11.2461 16.092,11.246 3.23,1e-4 5.912,-0.2742 8.046,-0.8228 2.133,-0.5486 3.565,-1.1277 4.297,-1.7372 0.792,-0.6096 1.554,-1.1886 2.286,-1.7372 0.792,-0.5486 1.554,-0.8229 2.285,-0.8229 1.219,0 2.286,0.4572 3.201,1.3715 0.914,0.9143 1.371,2.0115 1.371,3.2915 0,2.621 -2.042,4.8763 -6.126,6.7659 -4.023,1.8896 -9.356,2.8344 -16,2.8344 -3.78,0 -7.163,-0.4267 -10.149,-1.2801 -2.926,-0.8533 -5.273,-1.9505 -7.04,-3.2915 -1.768,-1.4019 -3.231,-3.0172 -4.389,-4.8458 -1.158,-1.8287 -1.951,-3.6268 -2.377,-5.3945 -0.427,-1.8286 -0.64,-3.6877 -0.64,-5.5773 0,-6.5221 2.163,-11.8556 6.491,-16.0005 4.389,-4.1448 10.027,-6.2173 16.915,-6.2173 5.242,0 9.631,0.9143 13.166,2.7429 0.549,-1.8286 1.707,-2.7429 3.475,-2.7429 2.925,0 4.388,2.0115 4.388,6.0344 l 0,7.0403"
           style="font-size:91.43135071px;font-variant:normal;font-weight:bold;font-stretch:normal;text-align:center;text-anchor:middle;fill:#000000;font-family:FreeMono;-inkscape-font-specification:FreeMono"
           id="path3021" />
        <path
           d="m -14871.245,-9600.2506 c 4.084,10e-5 6.126,1.5239 6.126,4.5716 0,3.0477 -2.042,4.5716 -6.126,4.5716 l -10.789,0 c -4.023,0 -6.035,-1.5239 -6.035,-4.5716 0,-1.2191 0.488,-2.3467 1.463,-3.3829 l -9.417,-8.3203 -1.646,1.28 0,14.9948 -10.606,0 c -4.023,0 -6.034,-1.5239 -6.034,-4.5716 0,-1.7677 0.518,-2.9563 1.554,-3.5658 1.036,-0.6705 2.53,-1.0057 4.48,-1.0058 l 1.463,0 0,-38.6754 -1.463,0 c -1.95,0 -3.444,-0.3047 -4.48,-0.9143 -1.036,-0.6705 -1.554,-1.8896 -1.554,-3.6573 0,-3.0476 2.011,-4.5715 6.034,-4.5716 l 10.606,0 0,30.721 7.223,-5.7602 c -0.975,-1.1581 -1.463,-2.2857 -1.463,-3.383 0,-3.0476 2.042,-4.5715 6.126,-4.5715 l 10.241,0 c 2.011,0 3.504,0.3353 4.48,1.0057 1.036,0.6706 1.554,1.8592 1.554,3.5658 0,3.0478 -2.012,4.5716 -6.034,4.5716 l -2.561,0 -10.788,8.7774 14.629,12.8918 3.017,0"
           style="font-size:91.43135071px;font-variant:normal;font-weight:bold;font-stretch:normal;text-align:center;text-anchor:middle;fill:#000000;font-family:FreeMono;-inkscape-font-specification:FreeMono"
           id="path3023" />
        <path
           d="m -14822.182,-9622.0112 c -4.023,0 -6.035,-1.4934 -6.035,-4.4802 0,-3.0476 2.012,-4.5715 6.035,-4.5715 l 8.503,0 c 4.023,0 6.034,1.5239 6.034,4.5715 0,2.804 -1.585,4.2973 -4.754,4.4802 l -7.68,30.9038 -8.412,0 -6.492,-16.5491 -6.217,16.5491 -8.595,0 -7.771,-30.9038 c -1.585,-0.1219 -2.804,-0.5486 -3.657,-1.2801 -0.854,-0.7923 -1.28,-1.859 -1.28,-3.2001 0,-3.0476 2.011,-4.5715 6.034,-4.5715 l 8.412,0 c 1.95,0 3.444,0.3353 4.48,1.0057 1.036,0.6096 1.554,1.7982 1.554,3.5658 0,2.9868 -1.95,4.4802 -5.851,4.4802 l 3.565,13.989 5.486,-14.4462 8.046,0 5.578,14.4462 3.657,-13.989 -0.64,0"
           style="font-size:91.43135071px;font-variant:normal;font-weight:bold;font-stretch:normal;text-align:center;text-anchor:middle;fill:#000000;font-family:FreeMono;-inkscape-font-specification:FreeMono"
           id="path3025" />
        <path
           d="m -14803.84,-9601.9878 c 0,-4.1448 2.042,-7.7411 6.126,-10.7889 4.084,-3.1086 9.417,-4.6629 16,-4.663 2.743,1e-4 5.913,0.3048 9.509,0.9144 l 0,-2.103 c 0,-2.9867 -2.834,-4.4801 -8.503,-4.4801 -2.499,0 -5.334,0.3658 -8.503,1.0972 -3.17,0.6705 -5.09,1.0058 -5.76,1.0057 -1.28,10e-5 -2.347,-0.4266 -3.201,-1.28 -0.853,-0.9143 -1.28,-2.0419 -1.28,-3.383 0,-1.9505 0.915,-3.2305 2.743,-3.8401 5.181,-1.8286 10.424,-2.7429 15.727,-2.7429 5.607,0 9.996,1.1886 13.166,3.5658 3.23,2.3772 4.845,5.6992 4.846,9.966 l 0,18.4691 1.462,0 c 4.023,10e-5 6.035,1.5239 6.035,4.5716 0,3.0477 -2.012,4.5716 -6.035,4.5716 l -10.697,0 0,-2.1029 c -4.572,2.3772 -9.631,3.5658 -15.178,3.5658 -4.51,0 -8.381,-1.1886 -11.611,-3.5658 -3.231,-2.4382 -4.846,-5.364 -4.846,-8.7775 m 31.726,-1.4629 0,-4.5715 c -3.84,-0.6705 -7.223,-1.0057 -10.148,-1.0058 -3.109,1e-4 -5.883,0.6705 -8.321,2.0115 -2.377,1.341 -3.566,2.8954 -3.566,4.663 0,1.0363 0.671,1.8896 2.012,2.5601 1.341,0.6705 2.987,1.0058 4.937,1.0057 4.998,1e-4 10.027,-1.5543 15.086,-4.663"
           style="font-size:91.43135071px;font-variant:normal;font-weight:bold;font-stretch:normal;text-align:center;text-anchor:middle;fill:#000000;font-family:FreeMono;-inkscape-font-specification:FreeMono"
           id="path3027" />
        <path
           d="m -14712.17,-9632.1601 c 2.56,0 5.12,0.7924 7.68,2.3772 2.56,1.5849 3.84,3.383 3.84,5.3945 0,1.28 -0.457,2.3772 -1.371,3.2915 -0.915,0.9143 -1.982,1.3715 -3.201,1.3715 -1.036,0 -2.224,-0.5486 -3.565,-1.6458 -1.341,-1.0971 -2.53,-1.6457 -3.566,-1.6458 -1.463,10e-5 -3.261,0.6706 -5.395,2.0115 -2.072,1.2801 -5.303,3.7183 -9.691,7.3145 l 0,13.4404 12.709,0 c 4.083,10e-5 6.125,1.5239 6.125,4.5716 0,3.0477 -2.042,4.5716 -6.125,4.5716 l -27.156,0 c -4.023,0 -6.034,-1.5239 -6.034,-4.5716 0,-1.7677 0.518,-2.9563 1.554,-3.5658 1.037,-0.6705 2.53,-1.0057 4.48,-1.0058 l 5.303,0 0,-21.6692 -3.2,0 c -4.023,0 -6.034,-1.5238 -6.034,-4.5716 0,-3.0476 2.011,-4.5715 6.034,-4.5715 l 12.344,0 0,5.943 c 3.657,-2.7429 6.552,-4.602 8.686,-5.5773 2.133,-0.9752 4.327,-1.4629 6.583,-1.4629"
           style="font-size:91.43135071px;font-variant:normal;font-weight:bold;font-stretch:normal;text-align:center;text-anchor:middle;fill:#000000;font-family:FreeMono;-inkscape-font-specification:FreeMono"
           id="path3029" />
        <path
           d="m -14647.747,-9597.2333 c 0,1.9505 -1.768,3.5658 -5.303,4.8458 -3.535,1.2191 -6.857,1.9811 -9.966,2.2858 -3.048,0.3048 -5.669,0.4572 -7.863,0.4572 -7.071,0 -12.861,-1.981 -17.372,-5.9431 -4.511,-3.962 -6.766,-9.0516 -6.766,-15.269 0,-6.0344 2.255,-11.0936 6.766,-15.1776 4.571,-4.1448 10.179,-6.2173 16.823,-6.2173 6.827,0 12.465,2.0725 16.915,6.2173 4.511,4.1449 6.766,9.3565 6.766,15.6348 l 0,3.5658 -37.304,0 c 2.072,5.364 7.071,8.046 14.995,8.0459 3.23,1e-4 6.827,-0.4876 10.789,-1.4629 3.962,-1.0362 6.339,-1.5543 7.131,-1.5543 1.219,0 2.256,0.4572 3.109,1.3715 0.853,0.8533 1.28,1.92 1.28,3.2001 m -37.03,-17.6463 26.881,0 c -0.731,-2.4991 -2.316,-4.4801 -4.754,-5.943 -2.438,-1.5238 -5.334,-2.2858 -8.686,-2.2858 -3.353,0 -6.279,0.762 -8.778,2.2858 -2.438,1.5239 -3.992,3.5049 -4.663,5.943"
           style="font-size:91.43135071px;font-variant:normal;font-weight:bold;font-stretch:normal;text-align:center;text-anchor:middle;fill:#000000;font-family:FreeMono;-inkscape-font-specification:FreeMono"
           id="path3031" />
      </g>
      <path
         style="font-size:medium;font-style:normal;font-variant:normal;font-weight:normal;font-stretch:normal;text-indent:0;text-align:start;text-decoration:none;line-height:normal;letter-spacing:normal;word-spacing:normal;text-transform:none;direction:ltr;block-progression:tb;writing-mode:lr-tb;text-anchor:start;baseline-shift:baseline;color:#000000;fill:#000000;fill-opacity:1;stroke:none;stroke-width:5;marker:none;visibility:visible;display:inline;overflow:visible;enable-background:accumulate;font-family:Sans;-inkscape-font-specification:Sans"
         d="m -15159.747,-9564.438 0,4.989 2.495,0 294.357,0 2.495,0 0,-4.989 -2.495,0 -294.357,0 -2.495,0 z"
         id="path5789"
         inkscape:connector-curvature="0" />
      <path
         inkscape:connector-curvature="0"
         id="path5791"
         d="m -15154.757,-9589.6778 -4.99,0 0,0.2516 0,29.7252 0,0.252 4.99,0 0,-0.252 0,-29.7252 0,-0.2516 z"
         style="font-size:medium;font-style:normal;font-variant:normal;font-weight:normal;font-stretch:normal;text-indent:0;text-align:start;text-decoration:none;line-height:normal;letter-spacing:normal;word-spacing:normal;text-transform:none;direction:ltr;block-progression:tb;writing-mode:lr-tb;text-anchor:start;baseline-shift:baseline;color:#000000;fill:#000000;fill-opacity:1;stroke:none;stroke-width:5;marker:none;visibility:visible;display:inline;overflow:visible;enable-background:accumulate;font-family:Sans;-inkscape-font-specification:Sans" />
    </g>
  </g>
</svg>
