<?xml version="1.0" encoding="UTF-8" standalone="no"?>
<!-- Created with Inkscape (http://www.inkscape.org/) -->

<!-- 
 
 SLACKWARE LINUX GRAPHICS PROJECT: 

 Slackware Linux Graphics Project aims to provide a set of visual components related to GNU/Linux Slackware in both vector and 
 raster graphics formats for its users. 
 
 LEGAL DISCLAIMER: 

 Graphics in this project are all free artwork; you can use them, redistribute them and/or modify them under the *related* terms 
 explained in Slackware Linux Propaganda Graphics FAQ section on Slackware Linux home page. 

 You should have received a copy of the Slackware Linux Propaganda Graphics FAQ text 
 along with this artwork package. If not, see "http://www.slackware.com/". 

 This artwork package is distributed in the hope that it will be useful, but WITHOUT ANY WARRANTY. 

 Slackware Linux Graphics Project does not officially represent neither Linux nor Slackware Linux in any way. 
 Linux is a registered trademark of Linus Torvalds. Slackware Linux is a registered trademark of Slackware Linux, Inc. 
 and Patrick Volkerding. 
 
 DOWNLOAD INFORMATION: 

 You can download more recent versions of the Slackware Linux Graphics from the project's blog 
 at "http://www.slackware-linux-graphics.blogspot.com/". 

 OPINIONS AND SUGGESTIONS: 
 
 Please contact with the project for your opinions and suggestions related to Slackware Linux Graphics. 
 
 CONTACT INFORMATION: 
 
 Maintainer: Ismail Demiral 
 E-Mail: slackware.linux.graphics@gmail.com 
 Blog: http://www.slackware-linux-graphics.blogspot.com/ 
 
 -->

<svg
   xmlns:dc="http://purl.org/dc/elements/1.1/"
   xmlns:cc="http://creativecommons.org/ns#"
   xmlns:rdf="http://www.w3.org/1999/02/22-rdf-syntax-ns#"
   xmlns:svg="http://www.w3.org/2000/svg"
   xmlns="http://www.w3.org/2000/svg"
   xmlns:sodipodi="http://sodipodi.sourceforge.net/DTD/sodipodi-0.dtd"
   xmlns:inkscape="http://www.inkscape.org/namespaces/inkscape"
   width="512.00031"
   height="127.9999"
   id="svg10289"
   version="1.1"
   inkscape:version="0.48.3.1 r9886"
   sodipodi:docname="Slackware.Linux.Traditional.Logo.with.Because.It.Secures_FreeMono.svg">
  <defs
     id="defs10291" />
  <sodipodi:namedview
     id="base"
     pagecolor="#ffffff"
     bordercolor="#666666"
     borderopacity="1.0"
     inkscape:pageopacity="0.0"
     inkscape:pageshadow="2"
     inkscape:zoom="1.4"
     inkscape:cx="170.95422"
     inkscape:cy="58.369475"
     inkscape:document-units="px"
     inkscape:current-layer="layer1"
     showgrid="false"
     inkscape:window-width="1366"
     inkscape:window-height="721"
     inkscape:window-x="-2"
     inkscape:window-y="-3"
     inkscape:window-maximized="1"
     fit-margin-top="0"
     fit-margin-left="0"
     fit-margin-right="0"
     fit-margin-bottom="0" />
  <metadata
     id="metadata10294">
    <rdf:RDF>
      <cc:Work
         rdf:about="">
        <dc:format>image/svg+xml</dc:format>
        <dc:type
           rdf:resource="http://purl.org/dc/dcmitype/StillImage" />
        <dc:title></dc:title>
      </cc:Work>
    </rdf:RDF>
  </metadata>
  <g
     inkscape:label="Layer 1"
     inkscape:groupmode="layer"
     id="layer1"
     transform="translate(21.286,-607.2902)">
    <g
       id="g6028"
       transform="translate(13468.546,9111.8898)"
       inkscape:export-filename="Slackware.Linux.Traditional.Logo.with.Because.It.Secures_FreeMono_512x128.png"
       inkscape:export-xdpi="90"
       inkscape:export-ydpi="90">
      <g
         style="font-size:37.38989639px;font-style:normal;font-weight:normal;line-height:125%;letter-spacing:0px;word-spacing:0px;fill:#000000;fill-opacity:1;stroke:none;font-family:Sans"
         id="text6004">
        <path
           d="m -13487.535,-8378.1487 2.724,-12.8456 -1.442,0 c -0.41,1e-4 -0.614,-0.1513 -0.614,-0.454 0,-0.4272 0.284,-0.6409 0.854,-0.6409 l 6.89,0 c 1.14,0 2.057,0.2938 2.751,0.8813 0.712,0.5697 1.068,1.3264 1.068,2.27 0,1.638 -1.014,2.9466 -3.044,3.9258 1.78,0.6587 2.67,1.7003 2.67,3.1246 0,1.2463 -0.551,2.3679 -1.655,3.365 -1.086,0.9792 -2.315,1.4688 -3.686,1.4688 l -8.198,0 c -0.41,0 -0.615,-0.1513 -0.615,-0.454 0,-0.4273 0.285,-0.641 0.855,-0.641 l 1.442,0 m 11.11,-10.5755 c 0,-0.641 -0.267,-1.1751 -0.801,-1.6024 -0.517,-0.4451 -1.22,-0.6676 -2.11,-0.6677 l -4.38,0 -1.175,5.5816 3.926,0 c 1.264,0 2.332,-0.3205 3.204,-0.9614 0.891,-0.6409 1.336,-1.4243 1.336,-2.3501 m -0.374,6.9969 c 0,-0.6943 -0.312,-1.2997 -0.935,-1.816 -0.623,-0.5163 -1.763,-0.7744 -3.418,-0.7744 l -3.979,0 -1.309,6.169 5.555,0 c 1.086,0 2.038,-0.356 2.857,-1.0682 0.819,-0.73 1.229,-1.5667 1.229,-2.5104"
           style="font-size:26.70602417px;font-style:italic;font-variant:normal;font-stretch:normal;fill:#000000;font-family:FreeMono;-inkscape-font-specification:FreeMono"
           id="path3039"
           inkscape:connector-curvature="0" />
        <path
           d="m -13460.893,-8378.9231 c 0,0.4629 -0.703,0.9614 -2.11,1.4955 -1.388,0.5341 -2.741,0.8012 -4.059,0.8012 -1.549,0 -2.813,-0.4629 -3.792,-1.3887 -0.962,-0.9258 -1.442,-2.1276 -1.442,-3.6053 0,-1.8338 0.747,-3.4451 2.243,-4.8338 1.496,-1.4065 3.231,-2.1098 5.208,-2.1098 1.46,0 2.652,0.4273 3.578,1.2819 0.944,0.8368 1.416,1.9139 1.416,3.2314 0,0.4095 -0.07,0.9703 -0.214,1.6825 l -11.11,0 c -0.02,0.178 -0.03,0.3739 -0.03,0.5875 0,1.1929 0.409,2.1721 1.228,2.9377 0.819,0.7478 1.878,1.1216 3.178,1.1216 0.837,0 1.718,-0.1335 2.644,-0.4006 0.944,-0.267 1.736,-0.6142 2.377,-1.0415 0.231,-0.1246 0.392,-0.1869 0.481,-0.1869 0.267,0 0.4,0.1424 0.4,0.4273 m -10.041,-4.5401 9.988,0 c 0.02,-0.089 0.03,-0.1958 0.03,-0.3204 0,-1.0861 -0.391,-1.9674 -1.175,-2.6439 -0.765,-0.6944 -1.753,-1.0415 -2.964,-1.0416 -1.3,1e-4 -2.484,0.365 -3.552,1.095 -1.05,0.7122 -1.825,1.6825 -2.323,2.9109"
           style="font-size:26.70602417px;font-style:italic;font-variant:normal;font-stretch:normal;fill:#000000;font-family:FreeMono;-inkscape-font-specification:FreeMono"
           id="path3041"
           inkscape:connector-curvature="0" />
        <path
           d="m -13444.239,-8379.484 c 0,0.1781 -0.178,0.4273 -0.534,0.7478 -0.356,0.3027 -0.828,0.6142 -1.415,0.9347 -0.57,0.3205 -1.3,0.5965 -2.19,0.8279 -0.873,0.2493 -1.754,0.3739 -2.644,0.3739 -1.407,0 -2.564,-0.4184 -3.472,-1.2552 -0.89,-0.8546 -1.335,-1.9406 -1.335,-3.2581 0,-1.9941 0.748,-3.7389 2.243,-5.2344 1.514,-1.4955 3.276,-2.2433 5.288,-2.2433 1.691,0 3.009,0.4985 3.952,1.4955 0.05,-0.2492 0.1,-0.4273 0.134,-0.5341 0.04,-0.1068 0.107,-0.2225 0.214,-0.3472 0.106,-0.1424 0.249,-0.2136 0.427,-0.2136 0.125,0 0.222,0.044 0.294,0.1335 0.09,0.071 0.133,0.1603 0.133,0.2671 0,0.018 -0.02,0.1335 -0.05,0.3471 l -0.508,2.4303 c -0.106,0.4985 -0.338,0.7478 -0.694,0.7478 -0.178,0 -0.329,-0.1069 -0.454,-0.3205 l 0.08,-0.9614 c 0,-0.1603 -0.124,-0.3828 -0.374,-0.6677 -0.249,-0.2848 -0.685,-0.5697 -1.308,-0.8546 -0.623,-0.2848 -1.327,-0.4273 -2.11,-0.4273 -1.14,0 -2.145,0.2493 -3.018,0.7478 -0.854,0.4807 -1.495,1.0772 -1.923,1.7893 -0.409,0.7122 -0.712,1.3798 -0.908,2.003 -0.196,0.6053 -0.293,1.1305 -0.293,1.5756 0,1.0861 0.373,1.9763 1.121,2.6706 0.748,0.6766 1.7,1.0148 2.858,1.0148 2.047,0 3.89,-0.6498 5.528,-1.9495 0.231,-0.1958 0.409,-0.2938 0.534,-0.2938 0.09,0 0.178,0.053 0.267,0.1603 0.107,0.089 0.16,0.1869 0.16,0.2937"
           style="font-size:26.70602417px;font-style:italic;font-variant:normal;font-stretch:normal;fill:#000000;font-family:FreeMono;-inkscape-font-specification:FreeMono"
           id="path3043"
           inkscape:connector-curvature="0" />
        <path
           d="m -13437.573,-8387.0418 c 0,-0.4272 0.65,-0.7833 1.95,-1.0682 1.317,-0.3027 2.323,-0.454 3.018,-0.454 1.086,0 1.967,0.2493 2.644,0.7478 0.676,0.4985 1.014,1.1394 1.014,1.9228 0,0.2671 -0.02,0.4718 -0.05,0.6142 l -1.522,7.1305 1.442,0 c 0.409,0 0.614,0.1425 0.614,0.4273 0,0.4451 -0.285,0.6677 -0.854,0.6677 l -2.538,0 0.374,-1.7893 c -1.887,1.4777 -3.739,2.2166 -5.555,2.2166 -1.103,0 -1.967,-0.2404 -2.59,-0.7211 -0.623,-0.4985 -0.935,-1.175 -0.935,-2.0296 0,-1.2997 0.623,-2.3858 1.87,-3.2582 1.264,-0.8724 2.822,-1.3086 4.673,-1.3086 1.033,0 2.208,0.187 3.525,0.5609 l 0.401,-1.8962 c 0.02,-0.089 0.03,-0.2136 0.03,-0.3739 0,-0.5519 -0.258,-0.9881 -0.775,-1.3085 -0.516,-0.3383 -1.21,-0.5074 -2.083,-0.5075 -0.801,1e-4 -1.673,0.1425 -2.617,0.4273 -0.944,0.2849 -1.487,0.4273 -1.629,0.4273 -0.107,0 -0.205,-0.036 -0.294,-0.1068 -0.07,-0.089 -0.107,-0.1958 -0.107,-0.3205 m 6.356,6.997 0.508,-2.4035 c -1.033,-0.2671 -2.146,-0.4006 -3.338,-0.4006 -1.532,0 -2.813,0.3116 -3.846,0.9347 -1.033,0.6053 -1.549,1.3709 -1.549,2.2967 0,0.6053 0.222,1.0772 0.668,1.4154 0.445,0.3205 1.077,0.4807 1.896,0.4807 0.961,0 1.869,-0.1691 2.724,-0.5074 0.854,-0.3561 1.834,-0.9614 2.937,-1.816"
           style="font-size:26.70602417px;font-style:italic;font-variant:normal;font-stretch:normal;fill:#000000;font-family:FreeMono;-inkscape-font-specification:FreeMono"
           id="path3045"
           inkscape:connector-curvature="0" />
        <path
           d="m -13415.31,-8377.0537 0.374,-1.7626 c -1.745,1.4599 -3.526,2.1899 -5.342,2.1899 -0.89,0 -1.593,-0.2315 -2.109,-0.6944 -0.517,-0.4807 -0.775,-1.1216 -0.775,-1.9228 0,-0.1958 0.04,-0.4896 0.107,-0.8813 l 1.469,-6.9703 -1.442,0 c -0.41,0 -0.615,-0.1424 -0.615,-0.4273 0,-0.4451 0.285,-0.6676 0.855,-0.6676 l 2.537,0 -1.709,8.0652 c -0.04,0.1068 -0.05,0.2671 -0.05,0.4807 0,0.5697 0.178,1.0326 0.534,1.3887 0.374,0.3561 0.845,0.5341 1.415,0.5341 1.798,0 3.605,-0.8011 5.421,-2.4035 l 1.469,-6.9703 -1.976,0 c -0.427,0 -0.641,-0.1424 -0.641,-0.4273 0,-0.4451 0.294,-0.6676 0.881,-0.6676 l 3.072,0 -2.137,10.0414 0.908,0 c 0.41,0 0.614,0.1425 0.614,0.4273 0,0.4451 -0.285,0.6677 -0.854,0.6677 l -2.003,0"
           style="font-size:26.70602417px;font-style:italic;font-variant:normal;font-stretch:normal;fill:#000000;font-family:FreeMono;-inkscape-font-specification:FreeMono"
           id="path3047"
           inkscape:connector-curvature="0" />
        <path
           d="m -13397.615,-8386.0002 c 0,-0.2849 -0.311,-0.6054 -0.934,-0.9614 -0.606,-0.3561 -1.362,-0.5342 -2.27,-0.5342 -1.033,0 -1.95,0.2315 -2.751,0.6944 -0.783,0.4451 -1.175,0.9614 -1.175,1.5489 0,0.4808 0.267,0.8457 0.801,1.095 0.534,0.2492 1.148,0.4006 1.843,0.454 0.694,0.036 1.46,0.1513 2.297,0.3472 0.836,0.178 1.468,0.4451 1.896,0.8011 0.605,0.4808 0.908,1.0861 0.908,1.8161 0,1.1216 -0.597,2.0919 -1.79,2.9109 -1.175,0.819 -2.581,1.2285 -4.219,1.2285 -1.709,0 -3.018,-0.4896 -3.926,-1.4688 -0.16,0.5519 -0.329,0.8724 -0.507,0.9614 -0.09,0.036 -0.178,0.053 -0.267,0.053 -0.107,0 -0.205,-0.036 -0.294,-0.1068 -0.09,-0.089 -0.134,-0.187 -0.134,-0.2938 0,-0.1068 0.02,-0.2136 0.05,-0.3205 l 0.454,-2.2166 c 0.106,-0.4807 0.347,-0.721 0.721,-0.721 0.124,0 0.222,0.044 0.293,0.1335 0.09,0.071 0.134,0.1602 0.134,0.2671 0,0.071 -0.02,0.1869 -0.05,0.3471 -0.02,0.1425 -0.03,0.2315 -0.03,0.2671 0,0.5697 0.347,1.0415 1.041,1.4154 0.695,0.3739 1.576,0.5608 2.644,0.5608 1.282,0 2.377,-0.2759 3.285,-0.8278 0.908,-0.552 1.362,-1.2107 1.362,-1.9763 0,-1.1038 -1.202,-1.7893 -3.605,-2.0564 -0.499,-0.053 -0.881,-0.098 -1.148,-0.1335 -0.268,-0.053 -0.624,-0.1335 -1.069,-0.2403 -0.427,-0.1247 -0.756,-0.2582 -0.988,-0.4006 -0.231,-0.1603 -0.445,-0.3828 -0.641,-0.6677 -0.178,-0.2848 -0.267,-0.6142 -0.267,-0.9881 0,-0.9792 0.508,-1.816 1.522,-2.5104 1.015,-0.6943 2.253,-1.0415 3.713,-1.0415 1.531,0 2.679,0.4095 3.445,1.2285 0.106,-0.5697 0.347,-0.8546 0.721,-0.8546 0.124,0 0.222,0.044 0.293,0.1335 0.09,0.071 0.134,0.1603 0.134,0.2671 0,0.053 -0.02,0.1691 -0.05,0.3471 l -0.374,1.8428 c -0.107,0.4985 -0.348,0.7477 -0.721,0.7477 -0.161,0 -0.303,-0.1068 -0.428,-0.3204 l 0.08,-0.8279"
           style="font-size:26.70602417px;font-style:italic;font-variant:normal;font-stretch:normal;fill:#000000;font-family:FreeMono;-inkscape-font-specification:FreeMono"
           id="path3049"
           inkscape:connector-curvature="0" />
        <path
           d="m -13380.827,-8378.9231 c 0,0.4629 -0.703,0.9614 -2.11,1.4955 -1.388,0.5341 -2.742,0.8012 -4.059,0.8012 -1.549,0 -2.813,-0.4629 -3.792,-1.3887 -0.962,-0.9258 -1.442,-2.1276 -1.442,-3.6053 0,-1.8338 0.747,-3.4451 2.243,-4.8338 1.495,-1.4065 3.231,-2.1098 5.208,-2.1098 1.459,0 2.652,0.4273 3.578,1.2819 0.944,0.8368 1.416,1.9139 1.416,3.2314 0,0.4095 -0.07,0.9703 -0.214,1.6825 l -11.11,0 c -0.02,0.178 -0.03,0.3739 -0.03,0.5875 0,1.1929 0.409,2.1721 1.228,2.9377 0.819,0.7478 1.878,1.1216 3.178,1.1216 0.837,0 1.718,-0.1335 2.644,-0.4006 0.944,-0.267 1.736,-0.6142 2.377,-1.0415 0.231,-0.1246 0.391,-0.1869 0.48,-0.1869 0.268,0 0.401,0.1424 0.401,0.4273 m -10.041,-4.5401 9.988,0 c 0.02,-0.089 0.03,-0.1958 0.03,-0.3204 0,-1.0861 -0.391,-1.9674 -1.175,-2.6439 -0.765,-0.6944 -1.753,-1.0415 -2.964,-1.0416 -1.3,1e-4 -2.484,0.365 -3.552,1.095 -1.05,0.7122 -1.825,1.6825 -2.323,2.9109"
           style="font-size:26.70602417px;font-style:italic;font-variant:normal;font-stretch:normal;fill:#000000;font-family:FreeMono;-inkscape-font-specification:FreeMono"
           id="path3051"
           inkscape:connector-curvature="0" />
        <path
           d="m -13351.124,-8393.7183 -0.588,2.7775 -1.575,0 0.587,-2.7775 1.576,0 m -0.935,5.5282 -2.136,10.0414 4.273,0 c 0.427,0 0.641,0.1425 0.641,0.4273 0,0.1959 -0.08,0.3561 -0.241,0.4807 -0.16,0.1247 -0.365,0.187 -0.614,0.187 l -9.667,0 c -0.41,0 -0.615,-0.1424 -0.615,-0.4273 0,-0.4451 0.276,-0.6677 0.828,-0.6677 l 4.3,0 1.896,-8.9465 -3.151,0 c -0.41,0 -0.615,-0.1513 -0.615,-0.454 0,-0.4273 0.285,-0.6409 0.855,-0.6409 l 4.246,0"
           style="font-size:26.70602417px;font-style:italic;font-variant:normal;font-stretch:normal;fill:#000000;font-family:FreeMono;-inkscape-font-specification:FreeMono"
           id="path3053"
           inkscape:connector-curvature="0" />
        <path
           d="m -13333.321,-8378.4958 c 0,0.4985 -0.73,0.9347 -2.19,1.3086 -1.443,0.3738 -2.626,0.5608 -3.552,0.5608 -1.051,0 -1.896,-0.2315 -2.537,-0.6944 -0.641,-0.4629 -0.962,-1.0771 -0.962,-1.8427 0,-0.2314 0.03,-0.4807 0.08,-0.7478 l 1.523,-7.1839 -1.977,0 c -0.427,0 -0.641,-0.1424 -0.641,-0.4273 0,-0.4451 0.285,-0.6676 0.855,-0.6676 l 2.003,0 0.668,-3.178 c 0.106,-0.4807 0.338,-0.7211 0.694,-0.7211 0.303,0 0.454,0.1335 0.454,0.4006 0,0.071 -0.02,0.178 -0.05,0.3205 l -0.668,3.178 5.875,0 c 0.41,0 0.614,0.1424 0.614,0.4273 0,0.1958 -0.08,0.3561 -0.24,0.4807 -0.16,0.1246 -0.365,0.1869 -0.614,0.1869 l -5.875,0 -1.523,7.1305 c -0.03,0.2493 -0.05,0.4095 -0.05,0.4807 0,0.5342 0.231,0.9615 0.694,1.2819 0.463,0.3205 1.086,0.4807 1.87,0.4807 0.747,0 1.566,-0.098 2.457,-0.2937 0.908,-0.2137 1.646,-0.4718 2.216,-0.7745 0.214,-0.1068 0.374,-0.1602 0.481,-0.1602 0.267,0 0.4,0.1513 0.401,0.454"
           style="font-size:26.70602417px;font-style:italic;font-variant:normal;font-stretch:normal;fill:#000000;font-family:FreeMono;-inkscape-font-specification:FreeMono"
           id="path3055"
           inkscape:connector-curvature="0" />
        <path
           d="m -13301.535,-8386.0002 c 0,-0.2849 -0.312,-0.6054 -0.935,-0.9614 -0.606,-0.3561 -1.362,-0.5342 -2.27,-0.5342 -1.033,0 -1.95,0.2315 -2.751,0.6944 -0.783,0.4451 -1.175,0.9614 -1.175,1.5489 0,0.4808 0.267,0.8457 0.801,1.095 0.534,0.2492 1.149,0.4006 1.843,0.454 0.694,0.036 1.46,0.1513 2.297,0.3472 0.836,0.178 1.468,0.4451 1.896,0.8011 0.605,0.4808 0.908,1.0861 0.908,1.8161 0,1.1216 -0.597,2.0919 -1.79,2.9109 -1.175,0.819 -2.581,1.2285 -4.219,1.2285 -1.709,0 -3.018,-0.4896 -3.926,-1.4688 -0.16,0.5519 -0.329,0.8724 -0.507,0.9614 -0.09,0.036 -0.178,0.053 -0.267,0.053 -0.107,0 -0.205,-0.036 -0.294,-0.1068 -0.09,-0.089 -0.134,-0.187 -0.134,-0.2938 0,-0.1068 0.02,-0.2136 0.05,-0.3205 l 0.454,-2.2166 c 0.107,-0.4807 0.347,-0.721 0.721,-0.721 0.124,0 0.222,0.044 0.294,0.1335 0.09,0.071 0.133,0.1602 0.133,0.2671 0,0.071 -0.02,0.1869 -0.05,0.3471 -0.02,0.1425 -0.03,0.2315 -0.03,0.2671 0,0.5697 0.347,1.0415 1.042,1.4154 0.694,0.3739 1.575,0.5608 2.643,0.5608 1.282,0 2.377,-0.2759 3.285,-0.8278 0.908,-0.552 1.362,-1.2107 1.362,-1.9763 0,-1.1038 -1.202,-1.7893 -3.605,-2.0564 -0.499,-0.053 -0.881,-0.098 -1.148,-0.1335 -0.267,-0.053 -0.624,-0.1335 -1.069,-0.2403 -0.427,-0.1247 -0.756,-0.2582 -0.988,-0.4006 -0.231,-0.1603 -0.445,-0.3828 -0.641,-0.6677 -0.178,-0.2848 -0.267,-0.6142 -0.267,-0.9881 0,-0.9792 0.508,-1.816 1.522,-2.5104 1.015,-0.6943 2.253,-1.0415 3.713,-1.0415 1.531,0 2.679,0.4095 3.445,1.2285 0.107,-0.5697 0.347,-0.8546 0.721,-0.8546 0.124,0 0.222,0.044 0.294,0.1335 0.09,0.071 0.133,0.1603 0.133,0.2671 0,0.053 -0.02,0.1691 -0.05,0.3471 l -0.374,1.8428 c -0.107,0.4985 -0.347,0.7477 -0.721,0.7477 -0.161,0 -0.303,-0.1068 -0.428,-0.3204 l 0.08,-0.8279"
           style="font-size:26.70602417px;font-style:italic;font-variant:normal;font-stretch:normal;fill:#000000;font-family:FreeMono;-inkscape-font-specification:FreeMono"
           id="path3057"
           inkscape:connector-curvature="0" />
        <path
           d="m -13284.748,-8378.9231 c 0,0.4629 -0.703,0.9614 -2.11,1.4955 -1.388,0.5341 -2.741,0.8012 -4.059,0.8012 -1.549,0 -2.813,-0.4629 -3.792,-1.3887 -0.962,-0.9258 -1.442,-2.1276 -1.442,-3.6053 0,-1.8338 0.747,-3.4451 2.243,-4.8338 1.496,-1.4065 3.231,-2.1098 5.208,-2.1098 1.46,0 2.652,0.4273 3.578,1.2819 0.944,0.8368 1.416,1.9139 1.416,3.2314 0,0.4095 -0.07,0.9703 -0.214,1.6825 l -11.11,0 c -0.02,0.178 -0.03,0.3739 -0.03,0.5875 0,1.1929 0.409,2.1721 1.228,2.9377 0.819,0.7478 1.878,1.1216 3.178,1.1216 0.837,0 1.718,-0.1335 2.644,-0.4006 0.944,-0.267 1.736,-0.6142 2.377,-1.0415 0.231,-0.1246 0.392,-0.1869 0.481,-0.1869 0.267,0 0.4,0.1424 0.4,0.4273 m -10.041,-4.5401 9.988,0 c 0.02,-0.089 0.03,-0.1958 0.03,-0.3204 0,-1.0861 -0.391,-1.9674 -1.175,-2.6439 -0.765,-0.6944 -1.753,-1.0415 -2.964,-1.0416 -1.3,1e-4 -2.484,0.365 -3.552,1.095 -1.05,0.7122 -1.825,1.6825 -2.323,2.9109"
           style="font-size:26.70602417px;font-style:italic;font-variant:normal;font-stretch:normal;fill:#000000;font-family:FreeMono;-inkscape-font-specification:FreeMono"
           id="path3059"
           inkscape:connector-curvature="0" />
        <path
           d="m -13268.094,-8379.484 c 0,0.1781 -0.178,0.4273 -0.534,0.7478 -0.356,0.3027 -0.828,0.6142 -1.415,0.9347 -0.57,0.3205 -1.3,0.5965 -2.19,0.8279 -0.873,0.2493 -1.754,0.3739 -2.644,0.3739 -1.407,0 -2.564,-0.4184 -3.472,-1.2552 -0.89,-0.8546 -1.335,-1.9406 -1.335,-3.2581 0,-1.9941 0.748,-3.7389 2.243,-5.2344 1.514,-1.4955 3.276,-2.2433 5.288,-2.2433 1.691,0 3.009,0.4985 3.952,1.4955 0.05,-0.2492 0.1,-0.4273 0.134,-0.5341 0.04,-0.1068 0.107,-0.2225 0.214,-0.3472 0.106,-0.1424 0.249,-0.2136 0.427,-0.2136 0.125,0 0.222,0.044 0.294,0.1335 0.09,0.071 0.133,0.1603 0.133,0.2671 0,0.018 -0.02,0.1335 -0.05,0.3471 l -0.508,2.4303 c -0.106,0.4985 -0.338,0.7478 -0.694,0.7478 -0.178,0 -0.329,-0.1069 -0.454,-0.3205 l 0.08,-0.9614 c 0,-0.1603 -0.124,-0.3828 -0.374,-0.6677 -0.249,-0.2848 -0.685,-0.5697 -1.308,-0.8546 -0.623,-0.2848 -1.327,-0.4273 -2.11,-0.4273 -1.14,0 -2.145,0.2493 -3.018,0.7478 -0.854,0.4807 -1.495,1.0772 -1.923,1.7893 -0.409,0.7122 -0.712,1.3798 -0.908,2.003 -0.196,0.6053 -0.293,1.1305 -0.293,1.5756 0,1.0861 0.373,1.9763 1.121,2.6706 0.748,0.6766 1.7,1.0148 2.858,1.0148 2.047,0 3.89,-0.6498 5.528,-1.9495 0.231,-0.1958 0.409,-0.2938 0.534,-0.2938 0.09,0 0.178,0.053 0.267,0.1603 0.107,0.089 0.16,0.1869 0.16,0.2937"
           style="font-size:26.70602417px;font-style:italic;font-variant:normal;font-stretch:normal;fill:#000000;font-family:FreeMono;-inkscape-font-specification:FreeMono"
           id="path3061"
           inkscape:connector-curvature="0" />
        <path
           d="m -13255.178,-8377.0537 0.373,-1.7626 c -1.744,1.4599 -3.525,2.1899 -5.341,2.1899 -0.89,0 -1.593,-0.2315 -2.11,-0.6944 -0.516,-0.4807 -0.774,-1.1216 -0.774,-1.9228 0,-0.1958 0.04,-0.4896 0.107,-0.8813 l 1.469,-6.9703 -1.442,0 c -0.41,0 -0.615,-0.1424 -0.615,-0.4273 0,-0.4451 0.285,-0.6676 0.855,-0.6676 l 2.537,0 -1.709,8.0652 c -0.04,0.1068 -0.05,0.2671 -0.05,0.4807 0,0.5697 0.178,1.0326 0.534,1.3887 0.374,0.3561 0.846,0.5341 1.416,0.5341 1.798,0 3.605,-0.8011 5.421,-2.4035 l 1.469,-6.9703 -1.976,0 c -0.428,0 -0.641,-0.1424 -0.641,-0.4273 0,-0.4451 0.294,-0.6676 0.881,-0.6676 l 3.071,0 -2.136,10.0414 0.908,0 c 0.409,0 0.614,0.1425 0.614,0.4273 0,0.4451 -0.285,0.6677 -0.854,0.6677 l -2.003,0"
           style="font-size:26.70602417px;font-style:italic;font-variant:normal;font-stretch:normal;fill:#000000;font-family:FreeMono;-inkscape-font-specification:FreeMono"
           id="path3063"
           inkscape:connector-curvature="0" />
        <path
           d="m -13235.079,-8386.2406 c -0.107,0 -0.339,-0.1869 -0.695,-0.5608 -0.356,-0.3739 -0.765,-0.5608 -1.228,-0.5608 -0.605,0 -1.282,0.2136 -2.03,0.6409 -0.747,0.4273 -1.994,1.3175 -3.739,2.6706 l -1.255,5.902 4.781,0 c 0.409,0 0.614,0.1514 0.614,0.454 0,0.1959 -0.08,0.3561 -0.24,0.4808 -0.161,0.1068 -0.365,0.1602 -0.615,0.1602 l -8.439,0 c -0.409,0 -0.614,-0.1513 -0.614,-0.454 0,-0.1959 0.08,-0.3472 0.24,-0.454 0.161,-0.1246 0.365,-0.187 0.615,-0.187 l 2.563,0 1.896,-8.9465 -1.976,0 c -0.409,0 -0.614,-0.1513 -0.614,-0.454 0,-0.178 0.07,-0.3293 0.214,-0.454 0.16,-0.1246 0.365,-0.1869 0.614,-0.1869 l 3.098,0 -0.588,2.724 c 1.496,-1.1395 2.662,-1.9228 3.499,-2.3501 0.836,-0.4273 1.602,-0.641 2.296,-0.641 0.659,0 1.211,0.2048 1.656,0.6143 0.445,0.3917 0.668,0.7032 0.668,0.9347 0,0.1602 -0.08,0.3115 -0.241,0.454 -0.142,0.1424 -0.302,0.2136 -0.48,0.2136"
           style="font-size:26.70602417px;font-style:italic;font-variant:normal;font-stretch:normal;fill:#000000;font-family:FreeMono;-inkscape-font-specification:FreeMono"
           id="path3065"
           inkscape:connector-curvature="0" />
        <path
           d="m -13220.695,-8378.9231 c 0,0.4629 -0.703,0.9614 -2.11,1.4955 -1.389,0.5341 -2.742,0.8012 -4.059,0.8012 -1.549,0 -2.813,-0.4629 -3.792,-1.3887 -0.962,-0.9258 -1.443,-2.1276 -1.443,-3.6053 0,-1.8338 0.748,-3.4451 2.244,-4.8338 1.495,-1.4065 3.231,-2.1098 5.207,-2.1098 1.46,0 2.653,0.4273 3.579,1.2819 0.944,0.8368 1.415,1.9139 1.415,3.2314 0,0.4095 -0.07,0.9703 -0.213,1.6825 l -11.11,0 c -0.02,0.178 -0.03,0.3739 -0.03,0.5875 0,1.1929 0.41,2.1721 1.229,2.9377 0.819,0.7478 1.878,1.1216 3.178,1.1216 0.837,0 1.718,-0.1335 2.644,-0.4006 0.943,-0.267 1.736,-0.6142 2.377,-1.0415 0.231,-0.1246 0.391,-0.1869 0.48,-0.1869 0.267,0 0.401,0.1424 0.401,0.4273 m -10.042,-4.5401 9.988,0 c 0.02,-0.089 0.03,-0.1958 0.03,-0.3204 0,-1.0861 -0.392,-1.9674 -1.175,-2.6439 -0.765,-0.6944 -1.754,-1.0415 -2.964,-1.0416 -1.3,1e-4 -2.484,0.365 -3.552,1.095 -1.051,0.7122 -1.825,1.6825 -2.324,2.9109"
           style="font-size:26.70602417px;font-style:italic;font-variant:normal;font-stretch:normal;fill:#000000;font-family:FreeMono;-inkscape-font-specification:FreeMono"
           id="path3067"
           inkscape:connector-curvature="0" />
        <path
           d="m -13205.456,-8386.0002 c 0,-0.2849 -0.312,-0.6054 -0.935,-0.9614 -0.605,-0.3561 -1.362,-0.5342 -2.27,-0.5342 -1.033,0 -1.95,0.2315 -2.751,0.6944 -0.783,0.4451 -1.175,0.9614 -1.175,1.5489 0,0.4808 0.267,0.8457 0.801,1.095 0.534,0.2492 1.149,0.4006 1.843,0.454 0.694,0.036 1.46,0.1513 2.297,0.3472 0.836,0.178 1.469,0.4451 1.896,0.8011 0.605,0.4808 0.908,1.0861 0.908,1.8161 0,1.1216 -0.597,2.0919 -1.789,2.9109 -1.176,0.819 -2.582,1.2285 -4.22,1.2285 -1.709,0 -3.018,-0.4896 -3.926,-1.4688 -0.16,0.5519 -0.329,0.8724 -0.507,0.9614 -0.09,0.036 -0.178,0.053 -0.267,0.053 -0.107,0 -0.205,-0.036 -0.294,-0.1068 -0.09,-0.089 -0.134,-0.187 -0.134,-0.2938 0,-0.1068 0.02,-0.2136 0.05,-0.3205 l 0.454,-2.2166 c 0.107,-0.4807 0.347,-0.721 0.721,-0.721 0.125,0 0.222,0.044 0.294,0.1335 0.09,0.071 0.133,0.1602 0.133,0.2671 0,0.071 -0.02,0.1869 -0.05,0.3471 -0.02,0.1425 -0.03,0.2315 -0.03,0.2671 0,0.5697 0.347,1.0415 1.042,1.4154 0.694,0.3739 1.575,0.5608 2.644,0.5608 1.281,0 2.376,-0.2759 3.284,-0.8278 0.908,-0.552 1.362,-1.2107 1.362,-1.9763 0,-1.1038 -1.201,-1.7893 -3.605,-2.0564 -0.498,-0.053 -0.881,-0.098 -1.148,-0.1335 -0.267,-0.053 -0.623,-0.1335 -1.069,-0.2403 -0.427,-0.1247 -0.756,-0.2582 -0.988,-0.4006 -0.231,-0.1603 -0.445,-0.3828 -0.641,-0.6677 -0.178,-0.2848 -0.267,-0.6142 -0.267,-0.9881 0,-0.9792 0.508,-1.816 1.523,-2.5104 1.014,-0.6943 2.252,-1.0415 3.712,-1.0415 1.531,0 2.679,0.4095 3.445,1.2285 0.107,-0.5697 0.347,-0.8546 0.721,-0.8546 0.124,0 0.222,0.044 0.294,0.1335 0.09,0.071 0.133,0.1603 0.133,0.2671 0,0.053 -0.02,0.1691 -0.05,0.3471 l -0.374,1.8428 c -0.107,0.4985 -0.347,0.7477 -0.721,0.7477 -0.16,0 -0.303,-0.1068 -0.428,-0.3204 l 0.08,-0.8279"
           style="font-size:26.70602417px;font-style:italic;font-variant:normal;font-stretch:normal;fill:#000000;font-family:FreeMono;-inkscape-font-specification:FreeMono"
           id="path3069"
           inkscape:connector-curvature="0" />
        <path
           d="m -13190.618,-8392.0892 -2.35,8.7062 c -0.125,0.4985 -0.365,0.7477 -0.721,0.7477 -0.107,0 -0.205,-0.036 -0.294,-0.1068 -0.07,-0.089 -0.107,-0.1869 -0.107,-0.2938 0,-0.1246 0,-0.2403 0.03,-0.3471 l 1.362,-8.7062 c 0.16,-0.9792 0.614,-1.4688 1.362,-1.4688 0.249,0 0.454,0.071 0.614,0.2136 0.16,0.1425 0.24,0.3294 0.24,0.5608 0,0.1069 -0.04,0.3383 -0.133,0.6944 m -3.926,12.7655 0.32,0 c 0.356,0 0.641,0.098 0.855,0.2937 0.231,0.1959 0.347,0.454 0.347,0.7745 0,0.4273 -0.178,0.8012 -0.534,1.1217 -0.356,0.3204 -0.766,0.4807 -1.228,0.4807 l -0.321,0 c -0.338,0 -0.623,-0.098 -0.854,-0.2938 -0.214,-0.1958 -0.321,-0.4451 -0.321,-0.7478 0,-0.4451 0.169,-0.8278 0.507,-1.1483 0.357,-0.3205 0.766,-0.4807 1.229,-0.4807"
           style="font-size:26.70602417px;font-style:italic;font-variant:normal;font-stretch:normal;fill:#000000;font-family:FreeMono;-inkscape-font-specification:FreeMono"
           id="path3071"
           inkscape:connector-curvature="0" />
      </g>
      <g
         transform="translate(1669.9153,1143.4696)"
         id="g5977"
         style="fill:#000000">
        <g
           style="font-size:20.49142647px;font-style:normal;font-weight:normal;line-height:125%;letter-spacing:0px;word-spacing:0px;fill:#000000;fill-opacity:1;stroke:none;font-family:Sans"
           id="text5979">
          <path
             d="m -14842.161,-9571.8282 c 0,-0.7131 0.209,-1.1926 0.627,-1.4385 0.418,-0.2705 1.032,-0.4057 1.844,-0.4057 l 6.565,0 0,19.2906 4.5,0 c 1.623,0 2.435,0.6147 2.435,1.8442 0,1.2295 -0.812,1.8442 -2.435,1.8442 l -12.688,0 c -1.623,0 -2.434,-0.6147 -2.434,-1.8442 0,-0.7131 0.209,-1.1926 0.627,-1.4385 0.418,-0.2705 1.02,-0.4057 1.807,-0.4057 l 4.5,0 0,-15.6022 -2.877,0 c -1.648,0 -2.471,-0.6147 -2.471,-1.8442"
             style="font-size:36.88457108px;font-variant:normal;font-weight:bold;font-stretch:normal;text-align:center;text-anchor:middle;fill:#000000;font-family:FreeMono;-inkscape-font-specification:FreeMono"
             id="path3074"
             inkscape:connector-curvature="0" />
          <path
             d="m -14784.392,-9554.3818 c 1.623,0 2.434,0.6147 2.434,1.8442 0,1.2295 -0.811,1.8442 -2.434,1.8442 l -12.688,0 c -1.623,0 -2.435,-0.6147 -2.435,-1.8442 0,-0.7131 0.209,-1.1926 0.627,-1.4385 0.418,-0.2705 1.021,-0.4057 1.808,-0.4057 l 4.5,0 0,-8.7417 -2.877,0 c -1.648,10e-5 -2.472,-0.6147 -2.472,-1.8442 0,-0.7377 0.209,-1.2295 0.627,-1.4754 0.443,-0.2459 1.058,-0.3688 1.845,-0.3688 l 6.565,0 0,12.4301 4.5,0 m -5.016,-19.2906 0,3.8728 -4.353,0 0,-3.8728 4.353,0"
             style="font-size:36.88457108px;font-variant:normal;font-weight:bold;font-stretch:normal;text-align:center;text-anchor:middle;fill:#000000;font-family:FreeMono;-inkscape-font-specification:FreeMono"
             id="path3076"
             inkscape:connector-curvature="0" />
          <path
             d="m -14754.286,-9550.6934 c -1.623,0 -2.435,-0.6147 -2.435,-1.8442 0,-1.2295 0.812,-1.8442 2.435,-1.8442 l 0.221,0 0,-8.7417 c -1.5,-0.049 -2.25,-0.6639 -2.25,-1.8442 0,-1.2295 0.824,-1.8442 2.471,-1.8442 l 3.468,0 0,1.7704 c 0.885,-0.836 1.696,-1.4139 2.434,-1.7335 0.738,-0.3443 1.611,-0.5164 2.619,-0.5164 1.918,0 3.491,0.541 4.721,1.6229 1.229,1.082 1.844,2.6065 1.844,4.5737 l 0,6.713 c 1.5,0 2.25,0.6147 2.25,1.8442 0,1.2295 -0.811,1.8442 -2.434,1.8442 l -3.283,0 c -1.647,0 -2.471,-0.6147 -2.471,-1.8442 0,-1.2295 0.75,-1.8442 2.25,-1.8442 l 0,-6.5655 c 0,-1.7704 -1.107,-2.6556 -3.32,-2.6557 -0.86,10e-5 -1.635,0.1845 -2.324,0.5533 -0.664,0.3689 -1.426,1.0205 -2.286,1.9549 l 0,6.713 0.221,0 c 1.623,0 2.434,0.6147 2.434,1.8442 0,1.2295 -0.811,1.8442 -2.434,1.8442 l -4.131,0"
             style="font-size:36.88457108px;font-variant:normal;font-weight:bold;font-stretch:normal;text-align:center;text-anchor:middle;fill:#000000;font-family:FreeMono;-inkscape-font-specification:FreeMono"
             id="path3078"
             inkscape:connector-curvature="0" />
          <path
             d="m -14699.873,-9563.1235 c -0.738,10e-5 -1.267,-0.1844 -1.586,-0.5532 -0.32,-0.3935 -0.48,-0.8238 -0.48,-1.291 0,-1.2295 0.812,-1.8442 2.434,-1.8442 l 4.98,0 0,12.4301 c 1.5,0 2.25,0.6147 2.25,1.8442 0,1.2295 -0.812,1.8442 -2.435,1.8442 l -3.504,0 0,-1.7704 c -0.909,0.8606 -1.733,1.4508 -2.471,1.7704 -0.713,0.3197 -1.574,0.4795 -2.582,0.4795 -1.942,0 -3.528,-0.5409 -4.758,-1.6229 -1.205,-1.1065 -1.807,-2.6434 -1.807,-4.6106 l 0,-6.6761 -0.996,0 c -0.615,10e-5 -1.107,-0.1721 -1.475,-0.5163 -0.369,-0.3443 -0.554,-0.7869 -0.554,-1.3279 0,-0.7131 0.209,-1.1926 0.627,-1.4385 0.418,-0.2705 1.021,-0.4057 1.808,-0.4057 l 4.278,0 0,10.2539 c 0,1.7705 1.082,2.6557 3.246,2.6557 0.934,0 1.709,-0.1598 2.324,-0.4795 0.615,-0.3443 1.401,-1.0205 2.36,-2.0287 l 0,-6.713 -1.291,0 -0.368,0"
             style="font-size:36.88457108px;font-variant:normal;font-weight:bold;font-stretch:normal;text-align:center;text-anchor:middle;fill:#000000;font-family:FreeMono;-inkscape-font-specification:FreeMono"
             id="path3080"
             inkscape:connector-curvature="0" />
          <path
             d="m -14661.8,-9566.8119 c 1.622,0 2.434,0.6024 2.434,1.8073 0,0.7131 -0.32,1.2787 -0.959,1.6967 l 2.25,1.8074 2.25,-1.8443 c -0.639,-0.4426 -0.959,-0.9712 -0.959,-1.586 0,-1.2541 0.811,-1.8811 2.434,-1.8811 l 3.357,0 c 1.647,0 2.471,0.6147 2.471,1.8442 0,1.1066 -0.652,1.7213 -1.955,1.8442 l -4.869,4.0573 5.607,4.6844 c 1.328,0.074 1.992,0.6885 1.992,1.8442 0,1.2295 -0.812,1.8442 -2.435,1.8442 l -4.131,0 c -1.647,0 -2.471,-0.627 -2.471,-1.8811 0,-0.9344 0.492,-1.5368 1.475,-1.8073 l -2.766,-2.25 -2.693,2.25 c 0.935,0.3934 1.402,0.9959 1.402,1.8073 0,1.2541 -0.812,1.8811 -2.434,1.8811 l -4.095,0 c -1.623,0 -2.434,-0.6147 -2.434,-1.8442 0,-1.1557 0.664,-1.7704 1.992,-1.8442 l 5.348,-4.7212 -4.721,-4.0205 c -1.279,-0.1229 -1.918,-0.7376 -1.918,-1.8442 0,-1.2295 0.811,-1.8442 2.434,-1.8442 l 3.394,0"
             style="font-size:36.88457108px;font-variant:normal;font-weight:bold;font-stretch:normal;text-align:center;text-anchor:middle;fill:#000000;font-family:FreeMono;-inkscape-font-specification:FreeMono"
             id="path3082"
             inkscape:connector-curvature="0" />
        </g>
        <g
           style="font-size:25.39759445px;font-style:normal;font-weight:normal;line-height:125%;letter-spacing:0px;word-spacing:0px;fill:#000000;fill-opacity:1;stroke:none;font-family:Sans"
           id="text5983">
          <path
             d="m -15090.355,-9622.8341 c 0,1.9506 -0.335,3.4439 -1.005,4.4801 -0.61,1.0363 -1.799,1.5544 -3.566,1.5544 -1.097,0 -2.012,-0.3353 -2.743,-1.0058 -0.732,-0.6704 -1.341,-1.3714 -1.829,-2.1029 -0.427,-0.7924 -1.463,-1.5238 -3.109,-2.1943 -1.584,-0.6705 -3.748,-1.0058 -6.491,-1.0058 -2.316,0 -4.419,0.3353 -6.309,1.0058 -1.829,0.6095 -2.743,1.341 -2.743,2.1943 0,1.2191 1.341,2.103 4.023,2.6515 2.682,0.4877 6.035,1.0363 10.058,1.6458 4.023,0.6095 7.101,1.5239 9.234,2.7429 2.012,1.0972 3.566,2.5601 4.663,4.3887 1.158,1.8287 1.737,3.8097 1.737,5.9431 0,3.7182 -1.92,6.7964 -5.76,9.2345 -3.84,2.4382 -8.716,3.6573 -14.629,3.6573 -5.303,0 -9.813,-0.8839 -13.532,-2.6515 -0.914,0.7314 -1.889,1.0971 -2.925,1.0971 -3.109,0 -4.663,-2.0114 -4.663,-6.0344 l 0,-3.0173 c 0,-4.0839 1.554,-6.1258 4.663,-6.1259 2.316,1e-4 3.87,1.341 4.663,4.023 2.621,2.3772 6.43,3.5659 11.428,3.5658 2.926,1e-4 5.425,-0.3961 7.498,-1.1886 2.133,-0.7924 3.2,-1.7067 3.2,-2.7429 0,-2.3772 -3.84,-3.962 -11.52,-4.7544 -6.401,-0.6705 -11.033,-1.981 -13.898,-3.9316 -2.865,-1.9505 -4.297,-4.7239 -4.297,-8.3202 0,-3.6573 1.767,-6.644 5.303,-8.9603 3.535,-2.3772 8.046,-3.5658 13.532,-3.5658 4.449,0 8.381,0.7924 11.794,2.3772 0.671,-1.5848 1.646,-2.3772 2.926,-2.3772 2.865,0 4.297,2.0115 4.297,6.0344 l 0,3.383"
             style="font-size:91.43135071px;font-variant:normal;font-weight:bold;font-stretch:normal;text-align:center;text-anchor:middle;fill:#000000;font-family:FreeMono;-inkscape-font-specification:FreeMono"
             id="path3085"
             inkscape:connector-curvature="0" />
          <path
             d="m -15072.196,-9643.4976 c 0,-1.7676 0.519,-2.9562 1.555,-3.5658 1.036,-0.6704 2.56,-1.0057 4.571,-1.0058 l 16.275,0 0,47.8186 11.155,0 c 4.023,10e-5 6.034,1.5239 6.034,4.5716 0,3.0477 -2.011,4.5716 -6.034,4.5716 l -31.453,0 c -4.023,0 -6.034,-1.5239 -6.034,-4.5716 0,-1.7677 0.518,-2.9563 1.554,-3.5658 1.036,-0.6705 2.53,-1.0057 4.48,-1.0058 l 11.155,0 0,-38.6754 -7.132,0 c -4.084,0 -6.126,-1.5238 -6.126,-4.5716"
             style="font-size:91.43135071px;font-variant:normal;font-weight:bold;font-stretch:normal;text-align:center;text-anchor:middle;fill:#000000;font-family:FreeMono;-inkscape-font-specification:FreeMono"
             id="path3087"
             inkscape:connector-curvature="0" />
          <path
             d="m -15023.133,-9601.9878 c 0,-4.1448 2.042,-7.7411 6.126,-10.7889 4.084,-3.1086 9.418,-4.6629 16.001,-4.663 2.743,1e-4 5.912,0.3048 9.509,0.9144 l 0,-2.103 c 0,-2.9867 -2.835,-4.4801 -8.504,-4.4801 -2.499,0 -5.333,0.3658 -8.503,1.0972 -3.169,0.6705 -5.089,1.0058 -5.76,1.0057 -1.28,10e-5 -2.347,-0.4266 -3.2,-1.28 -0.853,-0.9143 -1.28,-2.0419 -1.28,-3.383 0,-1.9505 0.914,-3.2305 2.743,-3.8401 5.181,-1.8286 10.423,-2.7429 15.726,-2.7429 5.608,0 9.997,1.1886 13.166,3.5658 3.231,2.3772 4.846,5.6992 4.846,9.966 l 0,18.4691 1.463,0 c 4.023,10e-5 6.034,1.5239 6.035,4.5716 0,3.0477 -2.012,4.5716 -6.035,4.5716 l -10.697,0 0,-2.1029 c -4.572,2.3772 -9.631,3.5658 -15.178,3.5658 -4.511,0 -8.381,-1.1886 -11.612,-3.5658 -3.23,-2.4382 -4.846,-5.364 -4.846,-8.7775 m 31.727,-1.4629 0,-4.5715 c -3.84,-0.6705 -7.223,-1.0057 -10.149,-1.0058 -3.109,1e-4 -5.882,0.6705 -8.32,2.0115 -2.377,1.341 -3.566,2.8954 -3.566,4.663 0,1.0363 0.671,1.8896 2.012,2.5601 1.341,0.6705 2.986,1.0058 4.937,1.0057 4.998,1e-4 10.027,-1.5543 15.086,-4.663"
             style="font-size:91.43135071px;font-variant:normal;font-weight:bold;font-stretch:normal;text-align:center;text-anchor:middle;fill:#000000;font-family:FreeMono;-inkscape-font-specification:FreeMono"
             id="path3089"
             inkscape:connector-curvature="0" />
          <path
             d="m -14922.777,-9619.1768 c 0,4.023 -1.524,6.0344 -4.571,6.0344 -1.646,0 -2.804,-0.4571 -3.475,-1.3714 -0.609,-0.9143 -1.097,-2.042 -1.463,-3.383 -0.365,-1.341 -0.975,-2.3162 -1.828,-2.9258 -2.499,-1.5238 -5.73,-2.2858 -9.692,-2.2858 -4.328,0 -7.802,1.2191 -10.423,3.6573 -2.56,2.3772 -3.84,5.5163 -3.84,9.4174 0,7.4974 5.364,11.2461 16.092,11.246 3.23,1e-4 5.912,-0.2742 8.046,-0.8228 2.133,-0.5486 3.565,-1.1277 4.297,-1.7372 0.792,-0.6096 1.554,-1.1886 2.286,-1.7372 0.792,-0.5486 1.554,-0.8229 2.285,-0.8229 1.219,0 2.286,0.4572 3.201,1.3715 0.914,0.9143 1.371,2.0115 1.371,3.2915 0,2.621 -2.042,4.8763 -6.126,6.7659 -4.023,1.8896 -9.356,2.8344 -16,2.8344 -3.78,0 -7.163,-0.4267 -10.149,-1.2801 -2.926,-0.8533 -5.273,-1.9505 -7.04,-3.2915 -1.768,-1.4019 -3.231,-3.0172 -4.389,-4.8458 -1.158,-1.8287 -1.951,-3.6268 -2.377,-5.3945 -0.427,-1.8286 -0.64,-3.6877 -0.64,-5.5773 0,-6.5221 2.163,-11.8556 6.491,-16.0005 4.389,-4.1448 10.027,-6.2173 16.915,-6.2173 5.242,0 9.631,0.9143 13.166,2.7429 0.549,-1.8286 1.707,-2.7429 3.475,-2.7429 2.925,0 4.388,2.0115 4.388,6.0344 l 0,7.0403"
             style="font-size:91.43135071px;font-variant:normal;font-weight:bold;font-stretch:normal;text-align:center;text-anchor:middle;fill:#000000;font-family:FreeMono;-inkscape-font-specification:FreeMono"
             id="path3091"
             inkscape:connector-curvature="0" />
          <path
             d="m -14871.245,-9600.2506 c 4.084,10e-5 6.126,1.5239 6.126,4.5716 0,3.0477 -2.042,4.5716 -6.126,4.5716 l -10.789,0 c -4.023,0 -6.035,-1.5239 -6.035,-4.5716 0,-1.2191 0.488,-2.3467 1.463,-3.3829 l -9.417,-8.3203 -1.646,1.28 0,14.9948 -10.606,0 c -4.023,0 -6.034,-1.5239 -6.034,-4.5716 0,-1.7677 0.518,-2.9563 1.554,-3.5658 1.036,-0.6705 2.53,-1.0057 4.48,-1.0058 l 1.463,0 0,-38.6754 -1.463,0 c -1.95,0 -3.444,-0.3047 -4.48,-0.9143 -1.036,-0.6705 -1.554,-1.8896 -1.554,-3.6573 0,-3.0476 2.011,-4.5715 6.034,-4.5716 l 10.606,0 0,30.721 7.223,-5.7602 c -0.975,-1.1581 -1.463,-2.2857 -1.463,-3.383 0,-3.0476 2.042,-4.5715 6.126,-4.5715 l 10.241,0 c 2.011,0 3.504,0.3353 4.48,1.0057 1.036,0.6706 1.554,1.8592 1.554,3.5658 0,3.0478 -2.012,4.5716 -6.034,4.5716 l -2.561,0 -10.788,8.7774 14.629,12.8918 3.017,0"
             style="font-size:91.43135071px;font-variant:normal;font-weight:bold;font-stretch:normal;text-align:center;text-anchor:middle;fill:#000000;font-family:FreeMono;-inkscape-font-specification:FreeMono"
             id="path3093"
             inkscape:connector-curvature="0" />
          <path
             d="m -14822.182,-9622.0112 c -4.023,0 -6.035,-1.4934 -6.035,-4.4802 0,-3.0476 2.012,-4.5715 6.035,-4.5715 l 8.503,0 c 4.023,0 6.034,1.5239 6.034,4.5715 0,2.804 -1.585,4.2973 -4.754,4.4802 l -7.68,30.9038 -8.412,0 -6.492,-16.5491 -6.217,16.5491 -8.595,0 -7.771,-30.9038 c -1.585,-0.1219 -2.804,-0.5486 -3.657,-1.2801 -0.854,-0.7923 -1.28,-1.859 -1.28,-3.2001 0,-3.0476 2.011,-4.5715 6.034,-4.5715 l 8.412,0 c 1.95,0 3.444,0.3353 4.48,1.0057 1.036,0.6096 1.554,1.7982 1.554,3.5658 0,2.9868 -1.95,4.4802 -5.851,4.4802 l 3.565,13.989 5.486,-14.4462 8.046,0 5.578,14.4462 3.657,-13.989 -0.64,0"
             style="font-size:91.43135071px;font-variant:normal;font-weight:bold;font-stretch:normal;text-align:center;text-anchor:middle;fill:#000000;font-family:FreeMono;-inkscape-font-specification:FreeMono"
             id="path3095"
             inkscape:connector-curvature="0" />
          <path
             d="m -14803.84,-9601.9878 c 0,-4.1448 2.042,-7.7411 6.126,-10.7889 4.084,-3.1086 9.417,-4.6629 16,-4.663 2.743,1e-4 5.913,0.3048 9.509,0.9144 l 0,-2.103 c 0,-2.9867 -2.834,-4.4801 -8.503,-4.4801 -2.499,0 -5.334,0.3658 -8.503,1.0972 -3.17,0.6705 -5.09,1.0058 -5.76,1.0057 -1.28,10e-5 -2.347,-0.4266 -3.201,-1.28 -0.853,-0.9143 -1.28,-2.0419 -1.28,-3.383 0,-1.9505 0.915,-3.2305 2.743,-3.8401 5.181,-1.8286 10.424,-2.7429 15.727,-2.7429 5.607,0 9.996,1.1886 13.166,3.5658 3.23,2.3772 4.845,5.6992 4.846,9.966 l 0,18.4691 1.462,0 c 4.023,10e-5 6.035,1.5239 6.035,4.5716 0,3.0477 -2.012,4.5716 -6.035,4.5716 l -10.697,0 0,-2.1029 c -4.572,2.3772 -9.631,3.5658 -15.178,3.5658 -4.51,0 -8.381,-1.1886 -11.611,-3.5658 -3.231,-2.4382 -4.846,-5.364 -4.846,-8.7775 m 31.726,-1.4629 0,-4.5715 c -3.84,-0.6705 -7.223,-1.0057 -10.148,-1.0058 -3.109,1e-4 -5.883,0.6705 -8.321,2.0115 -2.377,1.341 -3.566,2.8954 -3.566,4.663 0,1.0363 0.671,1.8896 2.012,2.5601 1.341,0.6705 2.987,1.0058 4.937,1.0057 4.998,1e-4 10.027,-1.5543 15.086,-4.663"
             style="font-size:91.43135071px;font-variant:normal;font-weight:bold;font-stretch:normal;text-align:center;text-anchor:middle;fill:#000000;font-family:FreeMono;-inkscape-font-specification:FreeMono"
             id="path3097"
             inkscape:connector-curvature="0" />
          <path
             d="m -14712.17,-9632.1601 c 2.56,0 5.12,0.7924 7.68,2.3772 2.56,1.5849 3.84,3.383 3.84,5.3945 0,1.28 -0.457,2.3772 -1.371,3.2915 -0.915,0.9143 -1.982,1.3715 -3.201,1.3715 -1.036,0 -2.224,-0.5486 -3.565,-1.6458 -1.341,-1.0971 -2.53,-1.6457 -3.566,-1.6458 -1.463,10e-5 -3.261,0.6706 -5.395,2.0115 -2.072,1.2801 -5.303,3.7183 -9.691,7.3145 l 0,13.4404 12.709,0 c 4.083,10e-5 6.125,1.5239 6.125,4.5716 0,3.0477 -2.042,4.5716 -6.125,4.5716 l -27.156,0 c -4.023,0 -6.034,-1.5239 -6.034,-4.5716 0,-1.7677 0.518,-2.9563 1.554,-3.5658 1.037,-0.6705 2.53,-1.0057 4.48,-1.0058 l 5.303,0 0,-21.6692 -3.2,0 c -4.023,0 -6.034,-1.5238 -6.034,-4.5716 0,-3.0476 2.011,-4.5715 6.034,-4.5715 l 12.344,0 0,5.943 c 3.657,-2.7429 6.552,-4.602 8.686,-5.5773 2.133,-0.9752 4.327,-1.4629 6.583,-1.4629"
             style="font-size:91.43135071px;font-variant:normal;font-weight:bold;font-stretch:normal;text-align:center;text-anchor:middle;fill:#000000;font-family:FreeMono;-inkscape-font-specification:FreeMono"
             id="path3099"
             inkscape:connector-curvature="0" />
          <path
             d="m -14647.747,-9597.2333 c 0,1.9505 -1.768,3.5658 -5.303,4.8458 -3.535,1.2191 -6.857,1.9811 -9.966,2.2858 -3.048,0.3048 -5.669,0.4572 -7.863,0.4572 -7.071,0 -12.861,-1.981 -17.372,-5.9431 -4.511,-3.962 -6.766,-9.0516 -6.766,-15.269 0,-6.0344 2.255,-11.0936 6.766,-15.1776 4.571,-4.1448 10.179,-6.2173 16.823,-6.2173 6.827,0 12.465,2.0725 16.915,6.2173 4.511,4.1449 6.766,9.3565 6.766,15.6348 l 0,3.5658 -37.304,0 c 2.072,5.364 7.071,8.046 14.995,8.0459 3.23,1e-4 6.827,-0.4876 10.789,-1.4629 3.962,-1.0362 6.339,-1.5543 7.131,-1.5543 1.219,0 2.256,0.4572 3.109,1.3715 0.853,0.8533 1.28,1.92 1.28,3.2001 m -37.03,-17.6463 26.881,0 c -0.731,-2.4991 -2.316,-4.4801 -4.754,-5.943 -2.438,-1.5238 -5.334,-2.2858 -8.686,-2.2858 -3.353,0 -6.279,0.762 -8.778,2.2858 -2.438,1.5239 -3.992,3.5049 -4.663,5.943"
             style="font-size:91.43135071px;font-variant:normal;font-weight:bold;font-stretch:normal;text-align:center;text-anchor:middle;fill:#000000;font-family:FreeMono;-inkscape-font-specification:FreeMono"
             id="path3101"
             inkscape:connector-curvature="0" />
        </g>
        <path
           inkscape:connector-curvature="0"
           id="path5987"
           d="m -15159.747,-9564.438 0,4.989 2.495,0 294.357,0 2.495,0 0,-4.989 -2.495,0 -294.357,0 -2.495,0 z"
           style="font-size:medium;font-style:normal;font-variant:normal;font-weight:normal;font-stretch:normal;text-indent:0;text-align:start;text-decoration:none;line-height:normal;letter-spacing:normal;word-spacing:normal;text-transform:none;direction:ltr;block-progression:tb;writing-mode:lr-tb;text-anchor:start;baseline-shift:baseline;color:#000000;fill:#000000;fill-opacity:1;stroke:none;stroke-width:5;marker:none;visibility:visible;display:inline;overflow:visible;enable-background:accumulate;font-family:Sans;-inkscape-font-specification:Sans" />
        <path
           style="font-size:medium;font-style:normal;font-variant:normal;font-weight:normal;font-stretch:normal;text-indent:0;text-align:start;text-decoration:none;line-height:normal;letter-spacing:normal;word-spacing:normal;text-transform:none;direction:ltr;block-progression:tb;writing-mode:lr-tb;text-anchor:start;baseline-shift:baseline;color:#000000;fill:#000000;fill-opacity:1;stroke:none;stroke-width:5;marker:none;visibility:visible;display:inline;overflow:visible;enable-background:accumulate;font-family:Sans;-inkscape-font-specification:Sans"
           d="m -15154.757,-9589.6778 -4.99,0 0,0.2516 0,29.7252 0,0.252 4.99,0 0,-0.252 0,-29.7252 0,-0.2516 z"
           id="path5989"
           inkscape:connector-curvature="0" />
      </g>
    </g>
  </g>
</svg>
