<?xml version="1.0" encoding="UTF-8" standalone="no"?>
<!-- Created with Inkscape (http://www.inkscape.org/) -->

<!-- 
 
 SLACKWARE LINUX GRAPHICS PROJECT: 

 Slackware Linux Graphics Project aims to provide a set of visual components related to GNU/Linux Slackware in both vector and 
 raster graphics formats for its users. 
 
 LEGAL DISCLAIMER: 

 Graphics in this project are all free artwork; you can use them, redistribute them and/or modify them under the *related* terms 
 explained in Slackware Linux Propaganda Graphics FAQ section on Slackware Linux home page. 

 You should have received a copy of the Slackware Linux Propaganda Graphics FAQ text 
 along with this artwork package. If not, see "http://www.slackware.com/". 

 This artwork package is distributed in the hope that it will be useful, but WITHOUT ANY WARRANTY. 

 Slackware Linux Graphics Project does not officially represent neither Linux nor Slackware Linux in any way. 
 Linux is a registered trademark of Linus Torvalds. Slackware Linux is a registered trademark of Slackware Linux, Inc. 
 and Patrick Volkerding. 
 
 DOWNLOAD INFORMATION: 

 You can download more recent versions of the Slackware Linux Graphics from the project's blog 
 at "http://www.slackware-linux-graphics.blogspot.com/". 

 OPINIONS AND SUGGESTIONS: 
 
 Please contact with the project for your opinions and suggestions related to Slackware Linux Graphics. 
 
 CONTACT INFORMATION: 
 
 Maintainer: Ismail Demiral 
 E-Mail: slackware.linux.graphics@gmail.com 
 Blog: http://www.slackware-linux-graphics.blogspot.com/ 
 
 -->

<svg
   xmlns:dc="http://purl.org/dc/elements/1.1/"
   xmlns:cc="http://creativecommons.org/ns#"
   xmlns:rdf="http://www.w3.org/1999/02/22-rdf-syntax-ns#"
   xmlns:svg="http://www.w3.org/2000/svg"
   xmlns="http://www.w3.org/2000/svg"
   xmlns:xlink="http://www.w3.org/1999/xlink"
   xmlns:sodipodi="http://sodipodi.sourceforge.net/DTD/sodipodi-0.dtd"
   xmlns:inkscape="http://www.inkscape.org/namespaces/inkscape"
   width="512"
   height="510.0239"
   id="svg6596"
   version="1.1"
   inkscape:version="0.48.3.1 r9886"
   sodipodi:docname="Slackware.Linux.Blurred.Spherical.Logo_FreeMono.svg">
  <defs
     id="defs6598">
    <linearGradient
       inkscape:collect="always"
       xlink:href="#linearGradient3946-3"
       id="linearGradient6551"
       gradientUnits="userSpaceOnUse"
       gradientTransform="matrix(1.9700353,0,0,1.9700353,381.52036,-2024.5373)"
       x1="365.77502"
       y1="-618.8158"
       x2="290.67526"
       y2="-535.4129" />
    <linearGradient
       id="linearGradient3946-3">
      <stop
         id="stop3948-7"
         offset="0"
         style="stop-color:#ffffff;stop-opacity:0.60784316;" />
      <stop
         id="stop3950-8"
         offset="1"
         style="stop-color:#ffffff;stop-opacity:0;" />
    </linearGradient>
    <linearGradient
       inkscape:collect="always"
       xlink:href="#linearGradient3946-3"
       id="linearGradient3021"
       gradientUnits="userSpaceOnUse"
       gradientTransform="matrix(1.9700353,0,0,1.9700353,381.52036,-2024.5373)"
       x1="365.77502"
       y1="-618.8158"
       x2="290.67526"
       y2="-535.4129" />
    <linearGradient
       inkscape:collect="always"
       xlink:href="#linearGradient3946-3"
       id="linearGradient3030"
       gradientUnits="userSpaceOnUse"
       gradientTransform="matrix(1.9700353,0,0,1.9700353,381.52036,-2024.5373)"
       x1="365.77502"
       y1="-618.8158"
       x2="290.67526"
       y2="-535.4129" />
    <filter
       color-interpolation-filters="sRGB"
       inkscape:collect="always"
       id="filter6171">
      <feGaussianBlur
         inkscape:collect="always"
         stdDeviation="5.7227806"
         id="feGaussianBlur6173" />
    </filter>
    <filter
       color-interpolation-filters="sRGB"
       inkscape:collect="always"
       id="filter7036">
      <feGaussianBlur
         inkscape:collect="always"
         stdDeviation="7.186725"
         id="feGaussianBlur7038" />
    </filter>
    <linearGradient
       inkscape:collect="always"
       xlink:href="#linearGradient3946-3-7"
       id="linearGradient6184"
       gradientUnits="userSpaceOnUse"
       gradientTransform="matrix(2.0173161,0,0,2.0173161,-12509.686,-6539.4)"
       x1="365.77502"
       y1="-618.8158"
       x2="290.67526"
       y2="-535.4129" />
    <linearGradient
       id="linearGradient3946-3-7">
      <stop
         id="stop3948-7-8"
         offset="0"
         style="stop-color:#ffffff;stop-opacity:0.60784316;" />
      <stop
         id="stop3950-8-6"
         offset="1"
         style="stop-color:#ffffff;stop-opacity:0;" />
    </linearGradient>
    <linearGradient
       inkscape:collect="always"
       xlink:href="#linearGradient3946-3-7"
       id="linearGradient3853"
       gradientUnits="userSpaceOnUse"
       gradientTransform="matrix(2.0173161,0,0,2.0173161,-12509.686,-6539.4)"
       x1="365.77502"
       y1="-618.8158"
       x2="290.67526"
       y2="-535.4129" />
    <linearGradient
       inkscape:collect="always"
       xlink:href="#linearGradient3946-3-7"
       id="linearGradient3862"
       gradientUnits="userSpaceOnUse"
       gradientTransform="matrix(2.0173161,0,0,2.0173161,-12509.686,-6539.4)"
       x1="365.77502"
       y1="-618.8158"
       x2="290.67526"
       y2="-535.4129" />
    <linearGradient
       inkscape:collect="always"
       xlink:href="#linearGradient3946-3-7"
       id="linearGradient3865"
       gradientUnits="userSpaceOnUse"
       gradientTransform="matrix(2.0173161,0,0,2.0173161,-901.75684,1269.7215)"
       x1="365.77502"
       y1="-618.8158"
       x2="290.67526"
       y2="-535.4129" />
    <linearGradient
       inkscape:collect="always"
       xlink:href="#linearGradient3946-3-7"
       id="linearGradient3878"
       gradientUnits="userSpaceOnUse"
       gradientTransform="matrix(2.0173161,0,0,2.0173161,-901.75684,1269.7215)"
       x1="365.77502"
       y1="-618.8158"
       x2="290.67526"
       y2="-535.4129" />
    <linearGradient
       inkscape:collect="always"
       xlink:href="#linearGradient3946-3-7"
       id="linearGradient3889"
       gradientUnits="userSpaceOnUse"
       gradientTransform="matrix(2.0173161,0,0,2.0173161,-901.75684,1269.7215)"
       x1="365.77502"
       y1="-618.8158"
       x2="290.67526"
       y2="-535.4129" />
  </defs>
  <sodipodi:namedview
     id="base"
     pagecolor="#ffffff"
     bordercolor="#666666"
     borderopacity="1.0"
     inkscape:pageopacity="0.0"
     inkscape:pageshadow="2"
     inkscape:zoom="0.35"
     inkscape:cx="521.78799"
     inkscape:cy="268.65766"
     inkscape:document-units="px"
     inkscape:current-layer="layer1"
     showgrid="false"
     inkscape:window-width="1366"
     inkscape:window-height="721"
     inkscape:window-x="-2"
     inkscape:window-y="-3"
     inkscape:window-maximized="1"
     fit-margin-top="0"
     fit-margin-left="0"
     fit-margin-right="0"
     fit-margin-bottom="0" />
  <metadata
     id="metadata6601">
    <rdf:RDF>
      <cc:Work
         rdf:about="">
        <dc:format>image/svg+xml</dc:format>
        <dc:type
           rdf:resource="http://purl.org/dc/dcmitype/StillImage" />
        <dc:title></dc:title>
      </cc:Work>
    </rdf:RDF>
  </metadata>
  <g
     inkscape:label="Layer 1"
     inkscape:groupmode="layer"
     id="layer1"
     transform="translate(805.88642,-556.79205)">
    <g
       id="g3880"
       transform="matrix(0.93100976,0,0,0.93100976,29.522591,230.54154)"
       inkscape:export-filename="Slackware.Linux.Blurred.Spherical.Logo_FreeMono_512x510.png"
       inkscape:export-xdpi="89.995781"
       inkscape:export-ydpi="89.995781">
      <path
         transform="matrix(1.3811958,0,0,1.3039261,21399.344,9690.8463)"
         style="fill:#000000;fill-opacity:1;stroke:none;filter:url(#filter6171)"
         d="m -15758.583,-6953.2397 c 0,108.4301 -82.983,196.3301 -185.347,196.3301 -102.364,0 -185.346,-87.9 -185.346,-196.3301 0,-108.4302 82.982,-196.3302 185.346,-196.3302 102.364,0 185.347,87.9 185.347,196.3302 z"
         id="path5401" />
      <g
         transform="translate(-307.08588,404.06097)"
         id="g3871">
        <path
           transform="matrix(-0.07679335,-8.6642889,8.7996467,-0.07561212,-597.597,499.1912)"
           style="fill:#3264c8;fill-opacity:1;stroke:none"
           d="m 61.454544,32.363636 c 0,16.066466 -13.22795,29.09091 -29.545454,29.09091 -16.317504,0 -29.545454,-13.024444 -29.545454,-29.09091 0,-16.066466 13.22795,-29.0909099 29.545454,-29.0909099 16.317504,0 29.545454,13.0244439 29.545454,29.0909099 z"
           id="path5389" />
        <g
           id="g5391"
           transform="matrix(1.024,0,0,1.024,14466.502,8160.6047)">
          <path
             inkscape:connector-curvature="0"
             id="path5393"
             d="m -14430.97,-7904.2287 c -52.404,0 -91.718,32.1285 -91.718,74.8125 0,24.089 13.103,46.4629 34.656,58.7188 41.416,23.2438 114.125,13.1224 114.125,50.3124 0,18.1725 -24.509,32.125 -55.781,32.125 -27.894,0 -54.524,-12.2546 -58.75,-27.4687 -1.267,-4.2262 -2.968,-20.3125 -21.563,-20.3125 -16.904,0 -21.125,11.0018 -21.125,27.9062 l 0,27.9063 c 0,19.0176 6.771,27.875 21.562,27.875 6.763,0 9.723,-1.6727 16.907,-10.125 20.708,10.988 43.085,16.4688 65.906,16.4687 57.898,0 96.781,-29.5793 96.781,-73.5312 0,-21.9759 -8.032,-39.32 -24.937,-52.8438 -40.148,-32.1185 -123.813,-15.6299 -123.813,-57.4687 0,-18.1724 21.125,-32.125 47.75,-32.125 26.202,0 46.478,11.4079 50.282,28.3125 1.69,8.0296 2.561,22.8438 21.156,22.8438 17.327,0 20.687,-13.0985 20.687,-28.3126 l 0,-37.1874 c 0,-14.7915 -2.092,-27.9063 -20.687,-27.9063 -8.453,0 -12.274,3.3721 -16.5,13.9375 -14.792,-9.2975 -33.385,-13.9375 -54.938,-13.9375 z m -141.812,208.875 0,80.7187 0,10.4063 10.406,0 264.532,0 0,-10.4063 -264.532,0 0,-80.7187 -10.406,0 z"
             style="fill:#ffffff;fill-opacity:1;stroke:#ffffff;stroke-width:5;stroke-miterlimit:4;stroke-dasharray:none;filter:url(#filter7036)" />
          <path
             style="fill:#000000;fill-opacity:1;stroke:#ffffff;stroke-width:3;stroke-miterlimit:4;stroke-dasharray:none"
             d="m -14430.97,-7904.2287 c -52.404,0 -91.718,32.1285 -91.718,74.8125 0,24.089 13.103,46.4629 34.656,58.7188 41.416,23.2438 114.125,13.1224 114.125,50.3124 0,18.1725 -24.509,32.125 -55.781,32.125 -27.894,0 -54.524,-12.2546 -58.75,-27.4687 -1.267,-4.2262 -2.968,-20.3125 -21.563,-20.3125 -16.904,0 -21.125,11.0018 -21.125,27.9062 l 0,27.9063 c 0,19.0176 6.771,27.875 21.562,27.875 6.763,0 9.723,-1.6727 16.907,-10.125 20.708,10.988 43.085,16.4688 65.906,16.4687 57.898,0 96.781,-29.5793 96.781,-73.5312 0,-21.9759 -8.032,-39.32 -24.937,-52.8438 -40.148,-32.1185 -123.813,-15.6299 -123.813,-57.4687 0,-18.1724 21.125,-32.125 47.75,-32.125 26.202,0 46.478,11.4079 50.282,28.3125 1.69,8.0296 2.561,22.8438 21.156,22.8438 17.327,0 20.687,-13.0985 20.687,-28.3126 l 0,-37.1874 c 0,-14.7915 -2.092,-27.9063 -20.687,-27.9063 -8.453,0 -12.274,3.3721 -16.5,13.9375 -14.792,-9.2975 -33.385,-13.9375 -54.938,-13.9375 z m -141.812,208.875 0,80.7187 0,10.4063 10.406,0 264.532,0 0,-10.4063 -264.532,0 0,-80.7187 -10.406,0 z"
             id="path5395"
             inkscape:connector-curvature="0" />
        </g>
        <path
           style="fill:url(#linearGradient3889);fill-opacity:1;fill-rule:nonzero;stroke:none"
           d="m -315.26184,-35.725458 c -93.987,0 -174.819,56.3338 -210.495,137.114498 9.283,3.8328 18.827,7.2093 28.622,10.2128 123.186,37.7775 251.598,-1.4849 333.488,-90.274998 -40.489,-35.5187 -93.52,-57.0523 -151.614,-57.0523 z m 176.516,82.4578 c -95.446,85.008298 -231.688,119.577198 -362.803,79.368798 -10.189,-3.1249 -20.151,-6.7046 -29.882,-10.5908 -0.02,0.044 -0.05,0.082 -0.06,0.126 59.742,46.3588 134.758,73.9473 216.232,73.9473 81.472,0 156.488,-27.5885 216.231994,-73.9473 -9.211994,-25.338798 -22.741994,-48.618398 -39.715994,-68.904098 z"
           id="path5397"
           inkscape:connector-curvature="0" />
      </g>
    </g>
    <g
       transform="translate(15284.247,8172.2978)"
       id="g3837" />
  </g>
</svg>
