<?xml version="1.0" encoding="UTF-8" standalone="no"?>
<!-- Created with Inkscape (http://www.inkscape.org/) -->

<!-- 
 
 SLACKWARE LINUX GRAPHICS PROJECT: 

 Slackware Linux Graphics Project aims to provide a set of visual components related to GNU/Linux Slackware in both vector and 
 raster graphics formats for its users. 
 
 LEGAL DISCLAIMER: 

 Graphics in this project are all free artwork; you can use them, redistribute them and/or modify them under the *related* terms 
 explained in Slackware Linux Propaganda Graphics FAQ section on Slackware Linux home page. 

 You should have received a copy of the Slackware Linux Propaganda Graphics FAQ text 
 along with this artwork package. If not, see "http://www.slackware.com/". 

 This artwork package is distributed in the hope that it will be useful, but WITHOUT ANY WARRANTY. 

 Slackware Linux Graphics Project does not officially represent neither Linux nor Slackware Linux in any way. 
 Linux is a registered trademark of Linus Torvalds. Slackware Linux is a registered trademark of Slackware Linux, Inc. 
 and Patrick Volkerding. 
 
 DOWNLOAD INFORMATION: 

 You can download more recent versions of the Slackware Linux Graphics from the project's blog 
 at "http://www.slackware-linux-graphics.blogspot.com/". 

 OPINIONS AND SUGGESTIONS: 
 
 Please contact with the project for your opinions and suggestions related to Slackware Linux Graphics. 
 
 CONTACT INFORMATION: 
 
 Maintainer: Ismail Demiral 
 E-Mail: slackware.linux.graphics@gmail.com 
 Blog: http://www.slackware-linux-graphics.blogspot.com/ 
 
 -->

<svg
   xmlns:dc="http://purl.org/dc/elements/1.1/"
   xmlns:cc="http://creativecommons.org/ns#"
   xmlns:rdf="http://www.w3.org/1999/02/22-rdf-syntax-ns#"
   xmlns:svg="http://www.w3.org/2000/svg"
   xmlns="http://www.w3.org/2000/svg"
   xmlns:sodipodi="http://sodipodi.sourceforge.net/DTD/sodipodi-0.dtd"
   xmlns:inkscape="http://www.inkscape.org/namespaces/inkscape"
   width="512"
   height="103.62051"
   id="svg5968"
   version="1.1"
   inkscape:version="0.48.3.1 r9886"
   sodipodi:docname="Slackware.Linux.Documentation.Project.Logo_FreeMono.svg">
  <defs
     id="defs5970" />
  <sodipodi:namedview
     id="base"
     pagecolor="#ffffff"
     bordercolor="#666666"
     borderopacity="1.0"
     inkscape:pageopacity="0.0"
     inkscape:pageshadow="2"
     inkscape:zoom="0.98994949"
     inkscape:cx="216.45436"
     inkscape:cy="-38.205907"
     inkscape:document-units="px"
     inkscape:current-layer="layer1"
     showgrid="false"
     inkscape:window-width="1366"
     inkscape:window-height="721"
     inkscape:window-x="-2"
     inkscape:window-y="-3"
     inkscape:window-maximized="1"
     fit-margin-top="0"
     fit-margin-left="0"
     fit-margin-right="0"
     fit-margin-bottom="0" />
  <metadata
     id="metadata5973">
    <rdf:RDF>
      <cc:Work
         rdf:about="">
        <dc:format>image/svg+xml</dc:format>
        <dc:type
           rdf:resource="http://purl.org/dc/dcmitype/StillImage" />
        <dc:title></dc:title>
      </cc:Work>
    </rdf:RDF>
  </metadata>
  <g
     inkscape:label="Layer 1"
     inkscape:groupmode="layer"
     id="layer1"
     transform="translate(-21.142987,-417.69199)">
    <g
       id="g6096"
       transform="matrix(0.9999741,0,0,0.9999741,5.4768002e-4,0.01350388)"
       inkscape:export-filename="Slackware.Linux.Documentation.Project.Logo_FreeMono_512x104.png"
       inkscape:export-xdpi="90"
       inkscape:export-ydpi="90">
      <path
         id="rect6407"
         d="m 318.15625,486.3125 0,35 215,0 0,-35 -215,0 z m 44.625,5.78125 4.28125,0 0,19.28125 0.59375,0 c 1.623,0 2.4375,0.61435 2.4375,1.84375 0,1.22951 -0.8145,1.84375 -2.4375,1.84375 l -4.28125,0 0,-1.28125 c -1.77,1.2049 -3.62049,1.8125 -5.5625,1.8125 -2.754,0 -4.98425,-0.82124 -6.65625,-2.46875 -1.648,-1.6475 -2.46875,-3.69069 -2.46875,-6.125 0,-2.4344 0.82075,-4.47084 2.46875,-6.09375 1.672,-1.6475 3.9085,-2.46865 6.6875,-2.46875 2.13901,10e-5 3.98225,0.61425 5.53125,1.84375 l 0,-4.53125 -0.59375,0 c -0.787,0 -1.3945,-0.1291 -1.8125,-0.375 -0.418,-0.2705 -0.625,-0.75555 -0.625,-1.46875 0,-0.6885 0.207,-1.16035 0.625,-1.40625 0.418,-0.2704 1.0255,-0.40625 1.8125,-0.40625 z m 40.09375,6.375 c 2.60601,0 4.83624,0.8279 6.65625,2.5 1.844,1.67211 2.75,3.70855 2.75,6.09375 0,2.40981 -0.906,4.4529 -2.75,6.125 -1.84401,1.64751 -4.09399,2.46875 -6.75,2.46875 -2.656,0 -4.90499,-0.82124 -6.75,-2.46875 -1.844,-1.6721 -2.78125,-3.71519 -2.78125,-6.125 0,-2.4343 0.93725,-4.47749 2.78125,-6.125 1.84501,-1.6475 4.11375,-2.46875 6.84375,-2.46875 z m 44.5,0 c 2.11401,0 3.8865,0.35605 5.3125,1.09375 0.221,-0.7377 0.69325,-1.09375 1.40625,-1.09375 1.18,0 1.75,0.8146 1.75,2.4375 l 0,2.84375 c 0,1.6229 -0.61475,2.4375 -1.84375,2.4375 -0.664,0 -1.13525,-0.1936 -1.40625,-0.5625 -0.246,-0.3688 -0.4145,-0.834 -0.5625,-1.375 -0.147,-0.541 -0.405,-0.9416 -0.75,-1.1875 -1.008,-0.6147 -2.30824,-0.90625 -3.90625,-0.90625 -1.746,0 -3.16175,0.48515 -4.21875,1.46875 -1.033,0.959 -1.53125,2.2387 -1.53125,3.8125 0,3.02451 2.14174,4.53125 6.46875,4.53125 1.304,0 2.39,-0.12245 3.25,-0.34375 0.861,-0.2213 1.455,-0.4416 1.75,-0.6875 0.31901,-0.2459 0.61125,-0.49745 0.90625,-0.71875 0.32,-0.2213 0.6425,-0.3125 0.9375,-0.3125 0.492,0 0.91225,0.1937 1.28125,0.5625 0.369,0.3689 0.5625,0.7962 0.5625,1.3125 0,1.0574 -0.82175,1.95645 -2.46875,2.71875 -1.62301,0.7623 -3.78875,1.15625 -6.46875,1.15625 -1.52401,0 -2.88875,-0.18695 -4.09375,-0.53125 -1.18,-0.3442 -2.13075,-0.7715 -2.84375,-1.3125 -0.713,-0.56561 -1.282,-1.23105 -1.75,-1.96875 -0.467,-0.7377 -0.79575,-1.44315 -0.96875,-2.15625 -0.172,-0.7377 -0.25,-1.48769 -0.25,-2.25 0,-2.6311 0.879,-4.79664 2.625,-6.46875 1.77001,-1.6721 4.0335,-2.5 6.8125,-2.5 z m 43.78125,0 c 1.79501,0 3.373,0.32945 4.75,0.96875 0.27,-0.6393 0.6715,-0.96875 1.1875,-0.96875 1.15601,0 1.75,0.8146 1.75,2.4375 l 0,1.375 c 0,0.78691 -0.13625,1.36325 -0.40625,1.78125 -0.246,0.418 -0.72449,0.625 -1.4375,0.625 -0.443,0 -0.83,-0.13575 -1.125,-0.40625 -0.295,-0.2705 -0.52175,-0.54865 -0.71875,-0.84375 -0.172,-0.3196 -0.586,-0.6045 -1.25,-0.875 -0.639,-0.2705 -1.51799,-0.40625 -2.625,-0.40625 -0.934,0 -1.7995,0.13575 -2.5625,0.40625 -0.737,0.2459 -1.09375,0.5308 -1.09375,0.875 0,0.4918 0.543,0.87245 1.625,1.09375 1.082,0.1967 2.43949,0.41035 4.0625,0.65625 1.623,0.2459 2.85875,0.60205 3.71875,1.09375 0.81201,0.4427 1.432,1.04354 1.875,1.78125 0.467,0.7377 0.6875,1.54565 0.6875,2.40625 0,1.5 -0.76349,2.73524 -2.3125,3.71875 -1.55,0.9836 -3.52124,1.46875 -5.90625,1.46875 -2.139,0 -3.93749,-0.3494 -5.4375,-1.0625 -0.369,0.2951 -0.7695,0.4375 -1.1875,0.4375 -1.254,0 -1.875,-0.81459 -1.875,-2.4375 l 0,-1.21875 c 0,-1.6475 0.621,-2.46875 1.875,-2.46875 0.934,0 1.55499,0.543 1.875,1.625 1.057,0.959 2.608,1.4375 4.625,1.4375 1.18001,0 2.164,-0.14915 3,-0.46875 0.861,-0.3197 1.3125,-0.7069 1.3125,-1.125 0,-0.959 -1.55824,-1.58655 -4.65625,-1.90625 -2.582,-0.2704 -4.469,-0.80685 -5.625,-1.59375 -1.156,-0.7869 -1.71875,-1.89295 -1.71875,-3.34375 0,-1.47541 0.699,-2.6906 2.125,-3.625 1.42601,-0.959 3.25575,-1.4375 5.46875,-1.4375 z m -133.3125,3.65625 c -1.648,0 -2.992,0.4785 -4,1.4375 -0.98301,0.9344 -1.46875,2.085 -1.46875,3.4375 0,1.40161 0.49199,2.5656 1.5,3.5 1.033,0.9344 2.377,1.40625 4,1.40625 1.62201,0 2.9295,-0.4652 3.9375,-1.375 1.033,-0.9344 1.5625,-2.09164 1.5625,-3.46875 0,-1.4753 -0.52325,-2.68385 -1.53125,-3.59375 -1.008,-0.9098 -2.32799,-1.34375 -4,-1.34375 z m 45,0.0312 c -1.672,0 -3.08775,0.47185 -4.21875,1.40625 -1.13101,0.9344 -1.6875,2.0984 -1.6875,3.5 0,1.37711 0.55024,2.541 1.65625,3.5 1.131,0.9344 2.5405,1.40625 4.1875,1.40625 1.64801,0 3.019,-0.47185 4.125,-1.40625 1.131,-0.959 1.6875,-2.12289 1.6875,-3.5 0,-1.377 -0.5565,-2.53435 -1.6875,-3.46875 -1.106,-0.959 -2.46449,-1.4375 -4.0625,-1.4375 z"
         style="fill:#000000;fill-rule:evenodd;stroke:none"
         inkscape:connector-curvature="0" />
      <g
         transform="matrix(1.0000018,0,0,1.0000018,15028.168,6193.9578)"
         style="font-size:25.39759445px;font-style:normal;font-weight:normal;line-height:125%;letter-spacing:0px;word-spacing:0px;fill:#000000;fill-opacity:1;stroke:none;font-family:Sans"
         id="text6413">
        <path
           d="m -14937.607,-5751.0231 c 0,1.9506 -0.335,3.444 -1.005,4.4802 -0.61,1.0362 -1.799,1.5543 -3.566,1.5543 -1.097,0 -2.012,-0.3352 -2.743,-1.0057 -0.732,-0.6705 -1.341,-1.3715 -1.829,-2.103 -0.427,-0.7923 -1.463,-1.5238 -3.108,-2.1943 -1.585,-0.6705 -3.749,-1.0057 -6.492,-1.0058 -2.316,1e-4 -4.419,0.3353 -6.309,1.0058 -1.828,0.6096 -2.743,1.341 -2.743,2.1943 0,1.2192 1.341,2.103 4.023,2.6515 2.682,0.4877 6.035,1.0363 10.058,1.6458 4.023,0.6096 7.101,1.5239 9.234,2.743 2.012,1.0971 3.566,2.56 4.663,4.3887 1.158,1.8286 1.737,3.8096 1.737,5.943 0,3.7182 -1.92,6.7964 -5.76,9.2346 -3.84,2.4381 -8.716,3.6572 -14.629,3.6572 -5.303,0 -9.813,-0.8838 -13.532,-2.6515 -0.914,0.7315 -1.889,1.0972 -2.925,1.0972 -3.109,0 -4.663,-2.0115 -4.663,-6.0345 l 0,-3.0172 c 0,-4.0839 1.554,-6.1259 4.663,-6.1259 2.316,0 3.87,1.341 4.663,4.023 2.621,2.3772 6.43,3.5658 11.428,3.5658 2.926,0 5.425,-0.3962 7.498,-1.1886 2.133,-0.7924 3.2,-1.7067 3.2,-2.743 0,-2.3772 -3.84,-3.962 -11.52,-4.7544 -6.401,-0.6705 -11.033,-1.981 -13.898,-3.9315 -2.865,-1.9506 -4.297,-4.724 -4.297,-8.3203 0,-3.6572 1.767,-6.644 5.303,-8.9603 3.535,-2.3771 8.046,-3.5658 13.532,-3.5658 4.449,0 8.381,0.7925 11.794,2.3772 0.671,-1.5847 1.646,-2.3772 2.926,-2.3772 2.865,0 4.297,2.0115 4.297,6.0345 l 0,3.3829"
           style="font-size:91.43135071px;font-variant:normal;font-weight:bold;font-stretch:normal;text-align:center;text-anchor:middle;fill:#000000;font-family:FreeMono;-inkscape-font-specification:FreeMono"
           id="path6052"
           inkscape:connector-curvature="0" />
        <path
           d="m -14919.448,-5771.6866 c 0,-1.7676 0.519,-2.9562 1.555,-3.5658 1.036,-0.6704 2.56,-1.0057 4.571,-1.0057 l 16.275,0 0,47.8186 11.155,0 c 4.023,0 6.034,1.5238 6.034,4.5715 0,3.0478 -2.011,4.5716 -6.034,4.5716 l -31.453,0 c -4.023,0 -6.034,-1.5238 -6.034,-4.5716 0,-1.7676 0.518,-2.9562 1.554,-3.5658 1.036,-0.6705 2.53,-1.0057 4.48,-1.0057 l 11.155,0 0,-38.6755 -7.132,0 c -4.084,1e-4 -6.126,-1.5238 -6.126,-4.5716"
           style="font-size:91.43135071px;font-variant:normal;font-weight:bold;font-stretch:normal;text-align:center;text-anchor:middle;fill:#000000;font-family:FreeMono;-inkscape-font-specification:FreeMono"
           id="path6054"
           inkscape:connector-curvature="0" />
        <path
           d="m -14870.385,-5730.1767 c 0,-4.1449 2.042,-7.7412 6.126,-10.7889 4.084,-3.1087 9.418,-4.663 16.001,-4.663 2.743,0 5.912,0.3048 9.509,0.9143 l 0,-2.1029 c 0,-2.9868 -2.835,-4.4801 -8.503,-4.4802 -2.5,1e-4 -5.334,0.3658 -8.504,1.0972 -3.169,0.6705 -5.089,1.0058 -5.76,1.0058 -1.28,0 -2.347,-0.4267 -3.2,-1.2801 -0.853,-0.9143 -1.28,-2.0419 -1.28,-3.3829 0,-1.9505 0.914,-3.2306 2.743,-3.8402 5.181,-1.8285 10.423,-2.7429 15.726,-2.7429 5.608,0 9.997,1.1887 13.166,3.5658 3.231,2.3773 4.846,5.6993 4.846,9.966 l 0,18.4692 1.463,0 c 4.023,0 6.035,1.5238 6.035,4.5715 0,3.0478 -2.012,4.5716 -6.035,4.5716 l -10.697,0 0,-2.1029 c -4.572,2.3772 -9.631,3.5658 -15.178,3.5658 -4.511,0 -8.381,-1.1886 -11.612,-3.5658 -3.23,-2.4382 -4.846,-5.364 -4.846,-8.7774 m 31.727,-1.4629 0,-4.5716 c -3.84,-0.6705 -7.223,-1.0057 -10.149,-1.0057 -3.109,0 -5.882,0.6705 -8.32,2.0115 -2.377,1.341 -3.566,2.8953 -3.566,4.663 0,1.0362 0.671,1.8895 2.012,2.56 1.341,0.6705 2.986,1.0058 4.937,1.0058 4.998,0 10.027,-1.5543 15.086,-4.663"
           style="font-size:91.43135071px;font-variant:normal;font-weight:bold;font-stretch:normal;text-align:center;text-anchor:middle;fill:#000000;font-family:FreeMono;-inkscape-font-specification:FreeMono"
           id="path6056"
           inkscape:connector-curvature="0" />
        <path
           d="m -14770.029,-5747.3658 c 0,4.023 -1.524,6.0345 -4.571,6.0345 -1.646,0 -2.804,-0.4572 -3.475,-1.3715 -0.609,-0.9143 -1.097,-2.042 -1.463,-3.383 -0.365,-1.3409 -0.975,-2.3162 -1.828,-2.9258 -2.499,-1.5238 -5.73,-2.2857 -9.692,-2.2858 -4.328,1e-4 -7.802,1.2192 -10.423,3.6573 -2.56,2.3772 -3.84,5.5164 -3.84,9.4174 0,7.4974 5.364,11.2461 16.092,11.2461 3.23,0 5.912,-0.2743 8.046,-0.8229 2.133,-0.5486 3.565,-1.1276 4.297,-1.7372 0.792,-0.6095 1.554,-1.1886 2.286,-1.7372 0.792,-0.5486 1.554,-0.8229 2.286,-0.8229 1.219,0 2.285,0.4572 3.2,1.3715 0.914,0.9143 1.371,2.0115 1.371,3.2915 0,2.6211 -2.042,4.8764 -6.126,6.7659 -4.023,1.8896 -9.356,2.8344 -16,2.8344 -3.779,0 -7.162,-0.4267 -10.149,-1.28 -2.926,-0.8534 -5.273,-1.9506 -7.04,-3.2916 -1.768,-1.4019 -3.231,-3.0172 -4.389,-4.8458 -1.158,-1.8286 -1.951,-3.6268 -2.377,-5.3945 -0.427,-1.8286 -0.64,-3.6877 -0.64,-5.5773 0,-6.5221 2.164,-11.8555 6.491,-16.0005 4.389,-4.1448 10.027,-6.2173 16.915,-6.2173 5.242,0 9.631,0.9144 13.166,2.7429 0.549,-1.8285 1.707,-2.7429 3.475,-2.7429 2.925,0 4.388,2.0115 4.388,6.0345 l 0,7.0402"
           style="font-size:91.43135071px;font-variant:normal;font-weight:bold;font-stretch:normal;text-align:center;text-anchor:middle;fill:#000000;font-family:FreeMono;-inkscape-font-specification:FreeMono"
           id="path6058"
           inkscape:connector-curvature="0" />
        <path
           d="m -14718.497,-5728.4395 c 4.084,0 6.126,1.5238 6.126,4.5715 0,3.0478 -2.042,4.5716 -6.126,4.5716 l -10.789,0 c -4.023,0 -6.035,-1.5238 -6.035,-4.5716 0,-1.219 0.488,-2.3467 1.463,-3.3829 l -9.417,-8.3203 -1.646,1.2801 0,14.9947 -10.606,0 c -4.023,0 -6.034,-1.5238 -6.034,-4.5716 0,-1.7676 0.518,-2.9562 1.554,-3.5658 1.036,-0.6705 2.53,-1.0057 4.48,-1.0057 l 1.463,0 0,-38.6755 -1.463,0 c -1.95,1e-4 -3.444,-0.3047 -4.48,-0.9143 -1.036,-0.6704 -1.554,-1.8895 -1.554,-3.6573 0,-3.0476 2.011,-4.5715 6.034,-4.5715 l 10.606,0 0,30.7209 7.223,-5.7602 c -0.975,-1.1581 -1.463,-2.2857 -1.463,-3.3829 0,-3.0477 2.042,-4.5715 6.126,-4.5716 l 10.241,0 c 2.011,1e-4 3.504,0.3353 4.48,1.0058 1.036,0.6705 1.554,1.8591 1.554,3.5658 0,3.0477 -2.011,4.5716 -6.034,4.5715 l -2.56,0 -10.789,8.7775 14.629,12.8918 3.017,0"
           style="font-size:91.43135071px;font-variant:normal;font-weight:bold;font-stretch:normal;text-align:center;text-anchor:middle;fill:#000000;font-family:FreeMono;-inkscape-font-specification:FreeMono"
           id="path6060"
           inkscape:connector-curvature="0" />
        <path
           d="m -14669.434,-5750.2002 c -4.023,0 -6.035,-1.4933 -6.035,-4.4801 0,-3.0477 2.012,-4.5715 6.035,-4.5716 l 8.503,0 c 4.023,1e-4 6.034,1.5239 6.034,4.5716 0,2.8039 -1.584,4.2973 -4.754,4.4801 l -7.68,30.9038 -8.412,0 -6.492,-16.5491 -6.217,16.5491 -8.594,0 -7.772,-30.9038 c -1.585,-0.1219 -2.804,-0.5485 -3.657,-1.28 -0.854,-0.7924 -1.28,-1.8591 -1.28,-3.2001 0,-3.0477 2.011,-4.5715 6.034,-4.5716 l 8.412,0 c 1.95,1e-4 3.444,0.3353 4.48,1.0058 1.036,0.6095 1.554,1.7981 1.554,3.5658 0,2.9868 -1.95,4.4801 -5.851,4.4801 l 3.565,13.989 5.486,-14.4461 8.046,0 5.578,14.4461 3.657,-13.989 -0.64,0"
           style="font-size:91.43135071px;font-variant:normal;font-weight:bold;font-stretch:normal;text-align:center;text-anchor:middle;fill:#000000;font-family:FreeMono;-inkscape-font-specification:FreeMono"
           id="path6062"
           inkscape:connector-curvature="0" />
        <path
           d="m -14651.092,-5730.1767 c 0,-4.1449 2.042,-7.7412 6.126,-10.7889 4.084,-3.1087 9.417,-4.663 16,-4.663 2.743,0 5.913,0.3048 9.509,0.9143 l 0,-2.1029 c 0,-2.9868 -2.834,-4.4801 -8.503,-4.4802 -2.499,1e-4 -5.334,0.3658 -8.503,1.0972 -3.17,0.6705 -5.09,1.0058 -5.76,1.0058 -1.28,0 -2.347,-0.4267 -3.2,-1.2801 -0.854,-0.9143 -1.281,-2.0419 -1.281,-3.3829 0,-1.9505 0.915,-3.2306 2.743,-3.8402 5.182,-1.8285 10.424,-2.7429 15.727,-2.7429 5.607,0 9.996,1.1887 13.166,3.5658 3.23,2.3773 4.846,5.6993 4.846,9.966 l 0,18.4692 1.462,0 c 4.023,0 6.035,1.5238 6.035,4.5715 0,3.0478 -2.012,4.5716 -6.035,4.5716 l -10.697,0 0,-2.1029 c -4.572,2.3772 -9.631,3.5658 -15.178,3.5658 -4.51,0 -8.381,-1.1886 -11.611,-3.5658 -3.231,-2.4382 -4.846,-5.364 -4.846,-8.7774 m 31.726,-1.4629 0,-4.5716 c -3.84,-0.6705 -7.223,-1.0057 -10.148,-1.0057 -3.109,0 -5.883,0.6705 -8.321,2.0115 -2.377,1.341 -3.566,2.8953 -3.566,4.663 0,1.0362 0.671,1.8895 2.012,2.56 1.341,0.6705 2.987,1.0058 4.937,1.0058 4.998,0 10.027,-1.5543 15.086,-4.663"
           style="font-size:91.43135071px;font-variant:normal;font-weight:bold;font-stretch:normal;text-align:center;text-anchor:middle;fill:#000000;font-family:FreeMono;-inkscape-font-specification:FreeMono"
           id="path6064"
           inkscape:connector-curvature="0" />
        <path
           d="m -14559.422,-5760.3491 c 2.56,1e-4 5.12,0.7925 7.68,2.3773 2.56,1.5848 3.84,3.3829 3.84,5.3944 0,1.2801 -0.457,2.3772 -1.371,3.2915 -0.915,0.9144 -1.981,1.3715 -3.201,1.3715 -1.036,0 -2.224,-0.5486 -3.565,-1.6458 -1.341,-1.0971 -2.53,-1.6457 -3.566,-1.6457 -1.463,0 -3.261,0.6705 -5.395,2.0115 -2.072,1.28 -5.303,3.7182 -9.691,7.3145 l 0,13.4404 12.709,0 c 4.084,0 6.125,1.5238 6.126,4.5715 0,3.0478 -2.042,4.5716 -6.126,4.5716 l -27.156,0 c -4.022,0 -6.034,-1.5238 -6.034,-4.5716 0,-1.7676 0.518,-2.9562 1.554,-3.5658 1.037,-0.6705 2.53,-1.0057 4.48,-1.0057 l 5.304,0 0,-21.6693 -3.201,0 c -4.023,1e-4 -6.034,-1.5238 -6.034,-4.5715 0,-3.0477 2.011,-4.5715 6.034,-4.5716 l 12.344,0 0,5.9431 c 3.657,-2.743 6.552,-4.6021 8.686,-5.5774 2.133,-0.9752 4.327,-1.4628 6.583,-1.4629"
           style="font-size:91.43135071px;font-variant:normal;font-weight:bold;font-stretch:normal;text-align:center;text-anchor:middle;fill:#000000;font-family:FreeMono;-inkscape-font-specification:FreeMono"
           id="path6066"
           inkscape:connector-curvature="0" />
        <path
           d="m -14494.999,-5725.4223 c 0,1.9506 -1.768,3.5658 -5.303,4.8459 -3.535,1.2191 -6.857,1.981 -9.966,2.2858 -3.048,0.3047 -5.669,0.4571 -7.863,0.4571 -7.071,0 -12.861,-1.981 -17.372,-5.943 -4.511,-3.962 -6.766,-9.0517 -6.766,-15.2691 0,-6.0344 2.255,-11.0936 6.766,-15.1776 4.572,-4.1448 10.179,-6.2173 16.823,-6.2173 6.827,0 12.465,2.0725 16.915,6.2173 4.511,4.145 6.766,9.3565 6.766,15.6348 l 0,3.5658 -37.304,0 c 2.073,5.364 7.071,8.046 14.995,8.046 3.23,0 6.827,-0.4876 10.789,-1.4629 3.962,-1.0362 6.339,-1.5543 7.131,-1.5544 1.219,1e-4 2.256,0.4572 3.109,1.3715 0.853,0.8534 1.28,1.9201 1.28,3.2001 m -37.03,-17.6462 26.881,0 c -0.731,-2.4991 -2.316,-4.4801 -4.754,-5.9431 -2.438,-1.5238 -5.334,-2.2857 -8.686,-2.2858 -3.353,1e-4 -6.279,0.762 -8.778,2.2858 -2.438,1.5239 -3.992,3.5049 -4.663,5.9431"
           style="font-size:91.43135071px;font-variant:normal;font-weight:bold;font-stretch:normal;text-align:center;text-anchor:middle;fill:#000000;font-family:FreeMono;-inkscape-font-specification:FreeMono"
           id="path6068"
           inkscape:connector-curvature="0" />
      </g>
      <path
         style="font-size:medium;font-style:normal;font-variant:normal;font-weight:normal;font-stretch:normal;text-indent:0;text-align:start;text-decoration:none;line-height:normal;letter-spacing:normal;word-spacing:normal;text-transform:none;direction:ltr;block-progression:tb;writing-mode:lr-tb;text-anchor:start;baseline-shift:baseline;color:#000000;fill:#000000;fill-opacity:1;stroke:none;stroke-width:5;marker:none;visibility:visible;display:inline;overflow:visible;enable-background:accumulate;font-family:Sans;-inkscape-font-specification:Sans"
         d="m 21.142987,501.32055 0,4.98901 2.484005,0 293.030528,0 2.484,0 0,-4.98901 -2.484,0 -293.030528,0 -2.484005,0 z"
         id="path6417"
         inkscape:connector-curvature="0" />
      <path
         inkscape:connector-curvature="0"
         id="path6419"
         d="m 26.132996,476.08071 -4.990009,0 0,0.2516 0,29.72525 0,0.252 4.990009,0 0,-0.252 0,-29.72525 0,-0.2516 z"
         style="font-size:medium;font-style:normal;font-variant:normal;font-weight:normal;font-stretch:normal;text-indent:0;text-align:start;text-decoration:none;line-height:normal;letter-spacing:normal;word-spacing:normal;text-transform:none;direction:ltr;block-progression:tb;writing-mode:lr-tb;text-anchor:start;baseline-shift:baseline;color:#000000;fill:#000000;fill-opacity:1;stroke:none;stroke-width:5;marker:none;visibility:visible;display:inline;overflow:visible;enable-background:accumulate;font-family:Sans;-inkscape-font-specification:Sans" />
    </g>
  </g>
</svg>
