<?xml version="1.0" encoding="UTF-8" standalone="no"?>
<!-- Created with Inkscape (http://www.inkscape.org/) -->

<!-- 
 
 SLACKWARE LINUX GRAPHICS PROJECT: 

 Slackware Linux Graphics Project aims to provide a set of visual components related to GNU/Linux Slackware in both vector and 
 raster graphics formats for its users. 
 
 LEGAL DISCLAIMER: 

 Graphics in this project are all free artwork; you can use them, redistribute them and/or modify them under the *related* terms 
 explained in Slackware Linux Propaganda Graphics FAQ section on Slackware Linux home page. 

 You should have received a copy of the Slackware Linux Propaganda Graphics FAQ text 
 along with this artwork package. If not, see "http://www.slackware.com/". 

 This artwork package is distributed in the hope that it will be useful, but WITHOUT ANY WARRANTY. 

 Slackware Linux Graphics Project does not officially represent neither Linux nor Slackware Linux in any way. 
 Linux is a registered trademark of Linus Torvalds. Slackware Linux is a registered trademark of Slackware Linux, Inc. 
 and Patrick Volkerding. 
 
 DOWNLOAD INFORMATION: 

 You can download more recent versions of the Slackware Linux Graphics from the project's blog 
 at "http://www.slackware-linux-graphics.blogspot.com/". 

 OPINIONS AND SUGGESTIONS: 
 
 Please contact with the project for your opinions and suggestions related to Slackware Linux Graphics. 
 
 CONTACT INFORMATION: 
 
 Maintainer: Ismail Demiral 
 E-Mail: slackware.linux.graphics@gmail.com 
 Blog: http://www.slackware-linux-graphics.blogspot.com/ 
 
 -->

<svg
   xmlns:dc="http://purl.org/dc/elements/1.1/"
   xmlns:cc="http://creativecommons.org/ns#"
   xmlns:rdf="http://www.w3.org/1999/02/22-rdf-syntax-ns#"
   xmlns:svg="http://www.w3.org/2000/svg"
   xmlns="http://www.w3.org/2000/svg"
   xmlns:sodipodi="http://sodipodi.sourceforge.net/DTD/sodipodi-0.dtd"
   xmlns:inkscape="http://www.inkscape.org/namespaces/inkscape"
   width="512"
   height="512.00006"
   id="svg4833"
   version="1.1"
   inkscape:version="0.48.3.1 r9886"
   sodipodi:docname="Slackware.Linux.Favicon.Logo_FreeMono.svg">
  <defs
     id="defs4835" />
  <sodipodi:namedview
     id="base"
     pagecolor="#ffffff"
     bordercolor="#666666"
     borderopacity="1.0"
     inkscape:pageopacity="0.0"
     inkscape:pageshadow="2"
     inkscape:zoom="0.49999998"
     inkscape:cx="145.9585"
     inkscape:cy="390.5211"
     inkscape:document-units="px"
     inkscape:current-layer="layer1"
     showgrid="false"
     fit-margin-top="0"
     fit-margin-left="0"
     fit-margin-right="0"
     fit-margin-bottom="0"
     inkscape:window-width="1366"
     inkscape:window-height="721"
     inkscape:window-x="-2"
     inkscape:window-y="-3"
     inkscape:window-maximized="1" />
  <metadata
     id="metadata4838">
    <rdf:RDF>
      <cc:Work
         rdf:about="">
        <dc:format>image/svg+xml</dc:format>
        <dc:type
           rdf:resource="http://purl.org/dc/dcmitype/StillImage" />
        <dc:title></dc:title>
      </cc:Work>
    </rdf:RDF>
  </metadata>
  <g
     inkscape:label="Layer 1"
     inkscape:groupmode="layer"
     id="layer1"
     transform="translate(199.3307,-252.73517)">
    <g
       id="g3002"
       transform="matrix(0.91643771,0,0,0.91643771,-16.65653,63.903029)"
       inkscape:export-filename="Slackware.Linux.Favicon.Logo_FreeMono_512x512.png"
       inkscape:export-xdpi="90.026154"
       inkscape:export-ydpi="90.026154">
      <path
         style="fill:none;stroke:none"
         d="m -199.3307,206.05023 558.68499,0 0,558.685 -558.68499,0 z"
         id="rect3000" />
      <g
         transform="matrix(1.9395047,0,0,1.9395047,15204.284,2277.838)"
         id="g6409">
        <path
           transform="matrix(0,1,-1,0,0,0)"
           style="fill:#000000;fill-opacity:1;stroke:none"
           d="m -867.63782,7920 87.48876,0 0,10 -87.48876,0 z"
           id="rect5834-3" />
        <g
           style="font-size:112.71884918px;font-style:normal;font-weight:normal;line-height:125%;letter-spacing:0px;word-spacing:0px;fill:#000000;fill-opacity:1;stroke:none;font-family:Sans"
           id="text6298">
          <path
             d="m -7725.2479,-1068.2046 c -8.1157,0 -11.7678,3.2463 -15.8257,13.391 -14.2026,-8.9273 -32.0573,-13.391 -52.7524,-13.391 -50.3177,0 -88.056,30.8399 -88.056,71.82446 0,23.12989 12.5794,44.63668 33.2746,56.40452 39.7672,22.31831 109.5627,12.57946 109.5627,48.28876 0,17.44886 -23.5357,30.83988 -53.564,30.83988 -26.782,0 -52.3466,-11.76786 -56.4045,-26.37621 -1.2174,-4.05788 -2.8405,-19.47782 -20.6952,-19.47782 -16.2315,0 -20.2894,10.5505 -20.2894,26.782 l 0,26.782 c 0,18.26044 6.4926,26.782 20.6952,26.782 6.4926,0 9.3331,-1.62316 16.2315,-9.73891 19.8836,10.55048 41.3904,15.82573 63.3029,15.82573 55.5929,0 92.9255,-28.40519 92.9255,-70.60709 0,-21.10095 -7.71,-37.73829 -23.9415,-50.72349 -38.5498,-30.83985 -118.8959,-15.01419 -118.8959,-55.18716 0,-17.44887 20.2894,-30.83987 45.8541,-30.83987 25.1588,0 44.6366,10.9563 48.2887,27.1878 1.6232,7.70995 2.4348,21.91253 20.2894,21.91253 16.6373,0 19.8836,-12.57944 19.8836,-27.18783 l 0,-35.7093 c 0,-14.2026 -2.0289,-26.782 -19.8836,-26.782"
             style="font-size:405.78790283px;font-variant:normal;font-weight:bold;font-stretch:normal;text-align:center;text-anchor:middle;fill:#000000;font-family:FreeMono;-inkscape-font-specification:FreeMono"
             id="path2992" />
        </g>
        <path
           style="fill:#000000;fill-opacity:1;stroke:none"
           d="m -7930,-790.14905 263.9849,0 0,10 -263.9849,0 z"
           id="rect6327" />
      </g>
    </g>
  </g>
</svg>
