<?xml version="1.0" encoding="UTF-8" standalone="no"?>
<!-- Created with Inkscape (http://www.inkscape.org/) -->

<!-- 
 
 SLACKWARE LINUX GRAPHICS PROJECT: 

 Slackware Linux Graphics Project aims to provide a set of visual components related to GNU/Linux Slackware in both vector and 
 raster graphics formats for its users. 
 
 LEGAL DISCLAIMER: 

 Graphics in this project are all free artwork; you can use them, redistribute them and/or modify them under the *related* terms 
 explained in Slackware Linux Propaganda Graphics FAQ section on Slackware Linux home page. 

 You should have received a copy of the Slackware Linux Propaganda Graphics FAQ text 
 along with this artwork package. If not, see "http://www.slackware.com/". 

 This artwork package is distributed in the hope that it will be useful, but WITHOUT ANY WARRANTY. 

 Slackware Linux Graphics Project does not officially represent neither Linux nor Slackware Linux in any way. 
 Linux is a registered trademark of Linus Torvalds. Slackware Linux is a registered trademark of Slackware Linux, Inc. 
 and Patrick Volkerding. 
 
 DOWNLOAD INFORMATION: 

 You can download more recent versions of the Slackware Linux Graphics from the project's blog 
 at "http://www.slackware-linux-graphics.blogspot.com/". 

 OPINIONS AND SUGGESTIONS: 
 
 Please contact with the project for your opinions and suggestions related to Slackware Linux Graphics. 
 
 CONTACT INFORMATION: 
 
 Maintainer: Ismail Demiral 
 E-Mail: slackware.linux.graphics@gmail.com 
 Blog: http://www.slackware-linux-graphics.blogspot.com/ 
 
 -->

<svg
   xmlns:dc="http://purl.org/dc/elements/1.1/"
   xmlns:cc="http://creativecommons.org/ns#"
   xmlns:rdf="http://www.w3.org/1999/02/22-rdf-syntax-ns#"
   xmlns:svg="http://www.w3.org/2000/svg"
   xmlns="http://www.w3.org/2000/svg"
   xmlns:sodipodi="http://sodipodi.sourceforge.net/DTD/sodipodi-0.dtd"
   xmlns:inkscape="http://www.inkscape.org/namespaces/inkscape"
   width="512.00055"
   height="150.00031"
   id="svg28831"
   version="1.1"
   inkscape:version="0.48.3.1 r9886"
   sodipodi:docname="Slackware.Linux.slack390.Logo.with.Home.Page_FreeMono.svg">
  <defs
     id="defs28833" />
  <sodipodi:namedview
     id="base"
     pagecolor="#ffffff"
     bordercolor="#666666"
     borderopacity="1.0"
     inkscape:pageopacity="0.0"
     inkscape:pageshadow="2"
     inkscape:zoom="0.7"
     inkscape:cx="189.42429"
     inkscape:cy="1.9963889"
     inkscape:document-units="px"
     inkscape:current-layer="layer1"
     showgrid="false"
     fit-margin-top="0"
     fit-margin-left="0"
     fit-margin-right="0"
     fit-margin-bottom="0"
     inkscape:window-width="1366"
     inkscape:window-height="721"
     inkscape:window-x="-2"
     inkscape:window-y="-3"
     inkscape:window-maximized="1" />
  <metadata
     id="metadata28836">
    <rdf:RDF>
      <cc:Work
         rdf:about="">
        <dc:format>image/svg+xml</dc:format>
        <dc:type
           rdf:resource="http://purl.org/dc/dcmitype/StillImage" />
        <dc:title></dc:title>
      </cc:Work>
    </rdf:RDF>
  </metadata>
  <g
     inkscape:label="Layer 1"
     inkscape:groupmode="layer"
     id="layer1"
     transform="translate(-158.28644,-457.3627)">
    <g
       transform="translate(15730.227,15850.759)"
       id="g28800"
       inkscape:export-filename="Slackware.Linux.slack390.Logo.with.Home.Page_FreeMono_512x150.png"
       inkscape:export-xdpi="89.999954"
       inkscape:export-ydpi="89.999954">
      <g
         transform="matrix(1.0000019,0,0,1.0000019,-1274.8994,-519.54804)"
         id="g26781">
        <g
           style="font-size:20.49142647px;font-style:normal;font-weight:normal;line-height:125%;letter-spacing:0px;word-spacing:0px;fill:#000000;fill-opacity:1;stroke:none;font-family:Sans"
           id="text7841-2">
          <path
             d="m -13979.429,-14790.996 c 0,1.512 1.107,1.844 2.471,1.844 l 2.877,0 0,15.602 -4.5,0 c -1.438,0 -2.434,0.332 -2.434,1.844 0,0.775 0.369,1.845 2.434,1.845 l 12.689,0 c 1.438,0 2.434,-0.443 2.434,-1.845 0,-1.549 -1.143,-1.844 -2.434,-1.844 l -4.5,0 0,-19.29 -6.566,0 c -1.438,0 -2.471,0.295 -2.471,1.844"
             style="font-size:36.88457108px;font-variant:normal;font-weight:bold;font-stretch:normal;text-align:center;text-anchor:middle;fill:#000000;font-family:FreeMono;-inkscape-font-specification:FreeMono"
             id="path28865"
             inkscape:connector-curvature="0" />
          <path
             d="m -13919.225,-14771.706 c 0,-1.549 -1.144,-1.844 -2.435,-1.844 l -4.5,0 0,-12.43 -6.565,0 c -1.365,0 -2.471,0.258 -2.471,1.844 0,1.476 1.106,1.845 2.471,1.845 l 2.877,0 0,8.741 -4.5,0 c -1.438,0 -2.434,0.332 -2.434,1.844 0,0.775 0.369,1.845 2.434,1.845 l 12.688,0 c 1.439,0 2.435,-0.443 2.435,-1.845 m -7.451,-21.134 -4.352,0 0,3.872 4.352,0 0,-3.872"
             style="font-size:36.88457108px;font-variant:normal;font-weight:bold;font-stretch:normal;text-align:center;text-anchor:middle;fill:#000000;font-family:FreeMono;-inkscape-font-specification:FreeMono"
             id="path28867"
             inkscape:connector-curvature="0" />
          <path
             d="m -13893.988,-14771.706 c 0,1.402 0.996,1.845 2.434,1.845 l 4.131,0 c 1.291,0 2.435,-0.332 2.435,-1.845 0,-1.549 -1.144,-1.844 -2.435,-1.844 l -0.221,0 0,-6.713 c 1.734,-1.881 2.914,-2.508 4.611,-2.508 2.286,0 3.319,0.848 3.319,2.656 l 0,6.565 c -1.438,0 -2.25,0.664 -2.25,1.844 0,1.218 0.812,1.845 2.471,1.845 l 3.283,0 c 1.365,0 2.435,-0.369 2.435,-1.845 0,-1.18 -0.812,-1.844 -2.25,-1.844 l 0,-6.713 c 0,-4.057 -2.877,-6.196 -6.566,-6.196 -2.028,0 -3.283,0.553 -5.053,2.25 l 0,-1.771 -3.467,0 c -1.439,0 -2.471,0.516 -2.471,1.844 0,1.181 0.811,1.808 2.25,1.845 l 0,8.741 -0.222,0 c -1.328,0 -2.434,0.332 -2.434,1.844"
             style="font-size:36.88457108px;font-variant:normal;font-weight:bold;font-stretch:normal;text-align:center;text-anchor:middle;fill:#000000;font-family:FreeMono;-inkscape-font-specification:FreeMono"
             id="path28869"
             inkscape:connector-curvature="0" />
          <path
             d="m -13837.141,-14782.291 0.369,0 1.291,0 0,6.713 c -1.918,2.028 -2.84,2.508 -4.684,2.508 -2.214,0 -3.246,-0.849 -3.246,-2.656 l 0,-10.254 -4.279,0 c -1.438,0 -2.434,0.332 -2.434,1.844 0,1.07 0.811,1.845 2.028,1.845 l 0.996,0 0,6.676 c 0,4.057 2.84,6.233 6.566,6.233 2.028,0 3.209,-0.516 5.053,-2.25 l 0,1.771 3.504,0 c 1.291,0 2.434,-0.332 2.434,-1.845 0,-1.18 -0.811,-1.844 -2.25,-1.844 l 0,-12.43 -4.979,0 c -1.365,0 -2.434,0.332 -2.434,1.844 0,0.701 0.405,1.845 2.065,1.845"
             style="font-size:36.88457108px;font-variant:normal;font-weight:bold;font-stretch:normal;text-align:center;text-anchor:middle;fill:#000000;font-family:FreeMono;-inkscape-font-specification:FreeMono"
             id="path28871"
             inkscape:connector-curvature="0" />
          <path
             d="m -13799.068,-14785.98 -3.393,0 c -1.402,0 -2.435,0.516 -2.435,1.844 0,1.07 0.701,1.734 1.918,1.845 l 4.721,4.02 -5.348,4.721 c -1.254,0.07 -1.992,0.738 -1.992,1.844 0,1.218 0.812,1.845 2.435,1.845 l 4.094,0 c 1.623,0 2.434,-0.627 2.434,-1.881 0,-0.886 -0.368,-1.365 -1.401,-1.808 l 2.692,-2.25 2.767,2.25 c -0.922,0.258 -1.476,0.959 -1.476,1.808 0,1.512 1.07,1.881 2.472,1.881 l 4.131,0 c 1.327,0 2.434,-0.369 2.434,-1.845 0,-1.106 -0.738,-1.77 -1.992,-1.844 l -5.606,-4.684 4.869,-4.057 c 1.254,-0.111 1.954,-0.775 1.954,-1.845 0,-1.549 -1.143,-1.844 -2.471,-1.844 l -3.356,0 c -1.402,0 -2.435,0.516 -2.435,1.881 0,0.627 0.258,1.107 0.959,1.586 l -2.25,1.844 -2.25,-1.807 c 0.627,-0.406 0.959,-1.033 0.959,-1.697 0,-1.475 -1.069,-1.807 -2.434,-1.807"
             style="font-size:36.88457108px;font-variant:normal;font-weight:bold;font-stretch:normal;text-align:center;text-anchor:middle;fill:#000000;font-family:FreeMono;-inkscape-font-specification:FreeMono"
             id="path28873"
             inkscape:connector-curvature="0" />
        </g>
        <g
           style="font-size:25.39759445px;font-style:normal;font-weight:normal;line-height:125%;letter-spacing:0px;word-spacing:0px;fill:#000000;fill-opacity:1;stroke:none;font-family:Sans"
           id="text7845-5">
          <path
             d="m -14224.606,-14842.002 0,-3.383 c 0,-4.206 -1.371,-6.034 -4.297,-6.034 -1.371,0 -2.194,0.64 -2.926,2.377 -3.566,-1.646 -7.314,-2.377 -11.794,-2.377 -10.972,0 -18.835,5.211 -18.835,12.526 0,7.223 5.394,10.88 18.195,12.251 2.743,0.275 11.52,0.915 11.52,4.755 0,2.103 -4.846,3.931 -10.698,3.931 -4.937,0 -8.777,-1.188 -11.428,-3.565 -0.823,-2.743 -2.286,-4.023 -4.663,-4.023 -3.841,0 -4.663,2.743 -4.663,6.125 l 0,3.018 c 0,3.2 0.731,6.034 4.663,6.034 1.188,0 1.92,-0.274 2.925,-1.097 3.658,1.737 8.321,2.652 13.532,2.652 11.795,0 20.389,-5.395 20.389,-12.892 0,-4.206 -2.377,-8.138 -6.4,-10.332 -7.771,-4.389 -23.315,-2.834 -23.315,-7.04 0,-1.646 4.389,-3.2 9.052,-3.2 12.069,0 8.96,6.308 14.172,6.308 3.748,0 4.571,-2.56 4.571,-6.034"
             style="font-size:91.43135071px;font-variant:normal;font-weight:bold;font-stretch:normal;text-align:center;text-anchor:middle;fill:#000000;font-family:FreeMono;-inkscape-font-specification:FreeMono"
             id="path28876"
             inkscape:connector-curvature="0" />
          <path
             d="m -14206.447,-14862.666 c 0,3.749 2.743,4.572 6.126,4.572 l 7.132,0 0,38.675 -11.155,0 c -3.565,0 -6.034,0.823 -6.034,4.572 0,1.92 0.914,4.572 6.034,4.572 l 31.453,0 c 3.566,0 6.034,-1.098 6.034,-4.572 0,-3.84 -2.834,-4.572 -6.034,-4.572 l -11.155,0 0,-47.818 -16.275,0 c -3.565,0 -6.126,0.731 -6.126,4.571"
             style="font-size:91.43135071px;font-variant:normal;font-weight:bold;font-stretch:normal;text-align:center;text-anchor:middle;fill:#000000;font-family:FreeMono;-inkscape-font-specification:FreeMono"
             id="path28878"
             inkscape:connector-curvature="0" />
          <path
             d="m -14157.384,-14821.156 c 0,6.766 7.406,12.344 16.458,12.344 5.394,0 10.789,-1.281 15.178,-3.566 l 0,2.103 10.697,0 c 3.383,0 6.035,-0.915 6.035,-4.572 0,-3.657 -2.469,-4.572 -6.035,-4.572 l -1.463,0 0,-18.469 c 0,-8.503 -6.766,-13.531 -18.012,-13.531 -4.571,0 -11.337,1.188 -15.726,2.742 -1.829,0.64 -2.743,1.921 -2.743,3.841 0,2.651 1.92,4.663 4.48,4.663 2.926,0 7.68,-2.103 14.263,-2.103 5.852,0 8.504,1.371 8.504,4.48 l 0,2.103 c -3.749,-0.64 -6.583,-0.915 -9.509,-0.915 -13.715,0 -22.127,7.498 -22.127,15.452 m 31.727,-1.463 c -5.029,3.109 -10.149,4.663 -15.086,4.663 -3.932,0 -6.949,-1.554 -6.949,-3.565 0,-3.475 5.669,-6.675 11.886,-6.675 3.109,0 6.492,0.366 10.149,1.006 l 0,4.571"
             style="font-size:91.43135071px;font-variant:normal;font-weight:bold;font-stretch:normal;text-align:center;text-anchor:middle;fill:#000000;font-family:FreeMono;-inkscape-font-specification:FreeMono"
             id="path28880"
             inkscape:connector-curvature="0" />
          <path
             d="m -14057.028,-14838.345 0,-7.04 c 0,-4.206 -1.371,-6.034 -4.388,-6.034 -1.92,0 -2.926,0.822 -3.475,2.742 -3.566,-1.828 -7.954,-2.742 -13.166,-2.742 -13.806,0 -23.406,9.143 -23.406,22.217 0,8.869 4.937,20.39 24.595,20.39 13.714,0 22.126,-4.572 22.126,-9.601 0,-2.56 -2.103,-4.663 -4.572,-4.663 -3.748,0 -2.834,5.12 -16.914,5.12 -10.698,0 -16.092,-3.748 -16.092,-11.246 0,-7.771 5.577,-13.074 14.263,-13.074 4.023,0 7.315,0.823 9.692,2.285 3.291,2.378 1.097,7.681 6.766,7.681 3.84,0 4.571,-2.835 4.571,-6.035"
             style="font-size:91.43135071px;font-variant:normal;font-weight:bold;font-stretch:normal;text-align:center;text-anchor:middle;fill:#000000;font-family:FreeMono;-inkscape-font-specification:FreeMono"
             id="path28882"
             inkscape:connector-curvature="0" />
          <path
             d="m -13999.37,-14814.847 c 0,-3.749 -2.652,-4.572 -6.126,-4.572 l -3.017,0 -14.629,-12.891 10.788,-8.778 2.561,0 c 3.291,0 6.034,-0.914 6.034,-4.571 0,-3.658 -2.377,-4.572 -6.034,-4.572 l -10.241,0 c -3.291,0 -6.126,0.732 -6.126,4.572 0,1.28 0.366,2.103 1.463,3.383 l -7.223,5.76 0,-30.721 -10.606,0 c -3.383,0 -6.034,0.823 -6.034,4.571 0,3.749 2.56,4.572 6.034,4.572 l 1.463,0 0,38.675 -1.463,0 c -3.566,0 -6.034,0.823 -6.034,4.572 0,3.017 2.011,4.572 6.034,4.572 l 10.606,0 0,-14.995 1.646,-1.28 9.417,8.32 c -1.097,1.189 -1.463,2.103 -1.463,3.383 0,3.017 2.012,4.572 6.035,4.572 l 10.789,0 c 3.291,0 6.126,-0.823 6.126,-4.572"
             style="font-size:91.43135071px;font-variant:normal;font-weight:bold;font-stretch:normal;text-align:center;text-anchor:middle;fill:#000000;font-family:FreeMono;-inkscape-font-specification:FreeMono"
             id="path28884"
             inkscape:connector-curvature="0" />
          <path
             d="m -13950.582,-14866.049 c 0.915,-1.828 1.098,-2.377 1.098,-3.382 0,-2.286 -2.103,-4.389 -4.572,-4.389 -2.103,0 -3.292,0.914 -4.663,4.023 l -29.349,61.99 c -0.823,1.646 -1.098,2.56 -1.098,3.475 0,2.285 2.195,4.388 4.572,4.388 2.194,0 3.383,-0.914 4.754,-4.023 l 29.258,-62.082"
             style="font-size:91.43135071px;font-variant:normal;font-weight:bold;font-stretch:normal;text-align:center;text-anchor:middle;fill:#000000;font-family:FreeMono;-inkscape-font-specification:FreeMono"
             id="path28886"
             inkscape:connector-curvature="0" />
          <path
             d="m -13917.428,-14818.047 c -11.52,0 -10.88,-3.2 -13.897,-3.2 -2.56,0 -4.572,2.011 -4.572,4.571 0,4.663 7.497,7.772 18.744,7.772 18.834,0 23.589,-10.149 23.589,-18.012 0,-5.851 -3.383,-10.423 -10.332,-13.806 5.943,-3.566 8.32,-6.949 8.32,-11.978 0,-8.777 -7.497,-15.909 -18.835,-15.909 -9.783,0 -18.834,4.846 -18.834,10.149 0,2.469 2.011,4.572 4.48,4.572 4.754,0 3.2,-5.577 13.806,-5.577 6.309,0 10.24,2.651 10.24,6.948 0,3.84 -3.84,7.223 -8.32,7.223 l -3.657,0 c -2.743,0 -4.755,1.92 -4.755,4.572 0,2.469 1.737,4.023 4.755,4.206 9.143,0.457 13.989,4.297 13.989,9.509 0,6.766 -6.035,8.96 -14.721,8.96"
             style="font-size:91.43135071px;font-variant:normal;font-weight:bold;font-stretch:normal;text-align:center;text-anchor:middle;fill:#000000;font-family:FreeMono;-inkscape-font-specification:FreeMono"
             id="path28888"
             inkscape:connector-curvature="0" />
          <path
             d="m -13858.307,-14868.609 c -11.978,0 -18.652,7.772 -18.652,18.652 0,10.332 7.771,18.744 17.463,18.744 4.572,0 8.046,-1.737 12.435,-6.4 -2.103,11.246 -10.515,19.292 -20.207,19.292 -1.554,0 -4.297,-1.189 -5.486,-1.189 -2.56,0 -4.663,2.103 -4.663,4.663 0,3.566 4.298,5.943 10.698,5.943 8.412,0 15.909,-3.84 22.035,-11.337 4.663,-5.852 7.04,-12.892 7.04,-20.938 0,-11.703 -4.114,-27.43 -20.663,-27.43 m 10.331,20.481 c -2.468,4.48 -7.04,7.772 -10.971,7.772 -4.938,0 -8.869,-4.206 -8.869,-9.509 0,-5.943 3.474,-9.6 9.234,-9.6 5.943,0 9.235,3.383 10.606,11.337"
             style="font-size:91.43135071px;font-variant:normal;font-weight:bold;font-stretch:normal;text-align:center;text-anchor:middle;fill:#000000;font-family:FreeMono;-inkscape-font-specification:FreeMono"
             id="path28890"
             inkscape:connector-curvature="0" />
          <path
             d="m -13804.856,-14868.609 c -13.623,0 -19.84,12.344 -19.84,25.51 l 0,8.686 c 0,13.074 6.126,25.509 19.84,25.509 13.623,0 19.841,-12.343 19.841,-25.509 l 0,-8.686 c 0,-13.075 -6.126,-25.51 -19.841,-25.51 m -10.697,24.87 c 0,-9.509 4.206,-15.726 10.697,-15.726 6.492,0 10.698,6.217 10.698,15.726 l 0,9.966 c 0,9.509 -4.206,15.726 -10.698,15.726 -6.491,0 -10.697,-6.217 -10.697,-15.726 l 0,-9.966"
             style="font-size:91.43135071px;font-variant:normal;font-weight:bold;font-stretch:normal;text-align:center;text-anchor:middle;fill:#000000;font-family:FreeMono;-inkscape-font-specification:FreeMono"
             id="path28892"
             inkscape:connector-curvature="0" />
        </g>
        <path
           style="font-size:medium;font-style:normal;font-variant:normal;font-weight:normal;font-stretch:normal;text-indent:0;text-align:start;text-decoration:none;line-height:normal;letter-spacing:normal;word-spacing:normal;text-transform:none;direction:ltr;block-progression:tb;writing-mode:lr-tb;text-anchor:start;baseline-shift:baseline;color:#000000;fill:#000000;fill-opacity:1;stroke:none;stroke-width:5;marker:none;visibility:visible;display:inline;overflow:visible;enable-background:accumulate;font-family:Sans;-inkscape-font-specification:Sans"
           d="m -14297.014,-14783.606 0,4.989 2.495,0 294.357,0 2.495,0 0,-4.989 -2.495,0 -294.357,0 -2.495,0 z"
           id="path7849-9"
           inkscape:connector-curvature="0" />
        <path
           inkscape:connector-curvature="0"
           id="path7851-1"
           d="m -14292.024,-14808.846 -4.99,0 0,0.252 0,29.725 0,0.252 4.99,0 0,-0.252 0,-29.725 0,-0.252 z"
           style="font-size:medium;font-style:normal;font-variant:normal;font-weight:normal;font-stretch:normal;text-indent:0;text-align:start;text-decoration:none;line-height:normal;letter-spacing:normal;word-spacing:normal;text-transform:none;direction:ltr;block-progression:tb;writing-mode:lr-tb;text-anchor:start;baseline-shift:baseline;color:#000000;fill:#000000;fill-opacity:1;stroke:none;stroke-width:5;marker:none;visibility:visible;display:inline;overflow:visible;enable-background:accumulate;font-family:Sans;-inkscape-font-specification:Sans" />
      </g>
      <g
         style="font-size:37.14611434999999773px;font-style:normal;font-variant:normal;font-weight:normal;font-stretch:normal;line-height:125%;letter-spacing:0px;word-spacing:0px;fill:#000000;fill-opacity:1;stroke:none;font-family:FreeSans;-inkscape-font-specification:FreeSans"
         id="text25607">
        <path
           d="m -15555.373,-15261.784 c 0,0.186 -0.04,0.52 -0.112,0.78 l -1.931,9.175 -1.709,0 c -0.706,0 -1.151,0.335 -1.151,0.892 0,0.446 0.26,0.631 0.854,0.631 l 4.903,0 c 0.706,0 1.189,-0.371 1.189,-0.928 0,-0.409 -0.26,-0.595 -0.892,-0.595 l -1.671,0 1.969,-9.286 c 0.07,-0.372 0.111,-0.706 0.111,-1.04 0,-2.526 -1.932,-4.161 -4.903,-4.161 -2.266,0 -4.012,0.855 -6.389,3.121 l 2.005,-9.547 -3.528,0 c -0.706,0 -1.152,0.334 -1.152,0.892 0,0.482 0.223,0.631 0.817,0.631 l 2.043,0 -4.123,19.39 -1.709,0 c -0.743,0 -1.188,0.335 -1.188,0.892 0,0.446 0.26,0.631 0.854,0.631 l 4.903,0 c 0.743,0 1.226,-0.371 1.226,-0.928 0,-0.409 -0.26,-0.595 -0.891,-0.595 l -1.672,0 2.006,-9.472 0.483,-0.483 c 2.526,-2.377 3.714,-3.009 5.757,-3.009 3.121,0 3.901,1.709 3.901,3.009"
           style="font-style:italic;fill:#000000;font-family:FreeMono;-inkscape-font-specification:FreeMono Italic"
           id="path28895"
           inkscape:connector-curvature="0" />
        <path
           d="m -15532.729,-15252.312 c 0,-0.371 -0.26,-0.631 -0.557,-0.631 -0.185,0 -0.297,0.04 -0.668,0.223 -1.598,0.854 -4.421,1.486 -6.501,1.486 -2.154,0 -3.566,-0.966 -3.566,-2.452 0,-0.149 0.04,-0.409 0.07,-0.669 l 2.118,-9.918 8.172,0 c 0.706,0 1.188,-0.371 1.188,-0.928 0,-0.446 -0.222,-0.595 -0.854,-0.595 l -8.172,0 0.929,-4.42 c 0.07,-0.297 0.07,-0.334 0.07,-0.446 0,-0.297 -0.26,-0.557 -0.632,-0.557 -0.482,0 -0.817,0.334 -0.965,1.003 l -0.929,4.42 -2.786,0 c -0.743,0 -1.189,0.335 -1.189,0.929 0,0.409 0.26,0.594 0.892,0.594 l 2.749,0 -2.118,9.993 c -0.07,0.371 -0.111,0.668 -0.111,1.04 0,2.117 1.931,3.529 4.866,3.529 1.857,0 7.986,-1.04 7.986,-2.601"
           style="font-style:italic;fill:#000000;font-family:FreeMono;-inkscape-font-specification:FreeMono Italic"
           id="path28897"
           inkscape:connector-curvature="0" />
        <path
           d="m -15510.455,-15252.312 c 0,-0.371 -0.26,-0.631 -0.558,-0.631 -0.185,0 -0.297,0.04 -0.668,0.223 -1.598,0.854 -4.421,1.486 -6.501,1.486 -2.154,0 -3.566,-0.966 -3.566,-2.452 0,-0.149 0.04,-0.409 0.07,-0.669 l 2.118,-9.918 8.172,0 c 0.706,0 1.189,-0.371 1.189,-0.928 0,-0.446 -0.223,-0.595 -0.855,-0.595 l -8.172,0 0.929,-4.42 c 0.07,-0.297 0.07,-0.334 0.07,-0.446 0,-0.297 -0.26,-0.557 -0.631,-0.557 -0.483,0 -0.818,0.334 -0.966,1.003 l -0.929,4.42 -2.786,0 c -0.743,0 -1.189,0.335 -1.189,0.929 0,0.409 0.26,0.594 0.892,0.594 l 2.749,0 -2.118,9.993 c -0.07,0.371 -0.111,0.668 -0.111,1.04 0,2.117 1.932,3.529 4.866,3.529 1.857,0 7.987,-1.04 7.987,-2.601"
           style="font-style:italic;fill:#000000;font-family:FreeMono;-inkscape-font-specification:FreeMono Italic"
           id="path28899"
           inkscape:connector-curvature="0" />
        <path
           d="m -15498.509,-15265.796 -3.529,0 c -0.743,0 -1.188,0.335 -1.188,0.929 0,0.409 0.26,0.594 0.854,0.594 l 2.006,0 -4.086,19.354 -2.006,0 c -0.743,0 -1.189,0.334 -1.189,0.928 0,0.409 0.26,0.595 0.855,0.595 l 7.169,0 c 0.743,0 1.188,-0.335 1.188,-0.929 0,-0.446 -0.222,-0.594 -0.891,-0.594 l -3.603,0 1.968,-9.324 c 1.189,2.451 3.046,3.566 5.907,3.566 5.2,0 9.918,-4.495 9.918,-9.435 0,-3.752 -2.601,-6.204 -6.612,-6.204 -2.823,0 -4.904,1.003 -7.392,3.566 l 0.631,-3.046 m 6.389,1.003 c 3.195,0 5.424,2.043 5.424,5.015 0,3.938 -3.864,7.578 -8.098,7.578 -3.158,0 -5.386,-2.08 -5.386,-5.052 0,-3.9 3.863,-7.541 8.06,-7.541"
           style="font-style:italic;fill:#000000;font-family:FreeMono;-inkscape-font-specification:FreeMono Italic"
           id="path28901"
           inkscape:connector-curvature="0" />
        <path
           d="m -15473.041,-15254.615 c -1.635,0 -3.12,1.375 -3.12,2.935 0,1.151 0.854,1.932 2.08,1.932 l 0.408,0 c 1.635,0 3.121,-1.375 3.121,-2.972 0,-1.115 -0.855,-1.895 -2.081,-1.895 l -0.408,0 m 2.377,-11.181 c -1.634,0 -3.12,1.412 -3.12,2.972 0,1.152 0.854,1.932 2.08,1.932 l 0.409,0 c 1.634,0 3.12,-1.412 3.12,-2.972 0,-1.152 -0.854,-1.932 -2.08,-1.932 l -0.409,0"
           style="font-style:italic;fill:#000000;font-family:FreeMono;-inkscape-font-specification:FreeMono Italic"
           id="path28903"
           inkscape:connector-curvature="0" />
        <path
           d="m -15439.698,-15273.819 c 0.26,-0.372 0.297,-0.52 0.297,-0.706 0,-0.334 -0.26,-0.594 -0.632,-0.594 -0.334,0 -0.594,0.148 -0.928,0.668 l -17.682,25.854 c -0.223,0.334 -0.297,0.52 -0.297,0.706 0,0.334 0.297,0.594 0.594,0.594 0.372,0 0.595,-0.148 0.966,-0.668 l 17.682,-25.854"
           style="font-style:italic;fill:#000000;font-family:FreeMono;-inkscape-font-specification:FreeMono Italic"
           id="path28905"
           inkscape:connector-curvature="0" />
        <path
           d="m -15417.425,-15273.819 c 0.26,-0.372 0.297,-0.52 0.297,-0.706 0,-0.334 -0.26,-0.594 -0.632,-0.594 -0.334,0 -0.594,0.148 -0.928,0.668 l -17.682,25.854 c -0.223,0.334 -0.297,0.52 -0.297,0.706 0,0.334 0.297,0.594 0.594,0.594 0.372,0 0.595,-0.148 0.966,-0.668 l 17.682,-25.854"
           style="font-style:italic;fill:#000000;font-family:FreeMono;-inkscape-font-specification:FreeMono Italic"
           id="path28907"
           inkscape:connector-curvature="0" />
        <path
           d="m -15401.653,-15250.306 6.018,-13.967 0.706,0 c 0.743,0 1.188,-0.371 1.188,-0.928 0,-0.446 -0.222,-0.595 -0.854,-0.595 l -4.123,0 c -0.743,0 -1.189,0.335 -1.189,0.929 0,0.409 0.26,0.594 0.855,0.594 l 1.857,0 -5.089,11.887 -1.263,-9.472 -1.932,0 -5.2,9.472 -0.149,-11.887 1.969,0 c 0.743,0 1.189,-0.371 1.189,-0.928 0,-0.446 -0.223,-0.595 -0.855,-0.595 l -4.123,0 c -0.743,0 -1.189,0.335 -1.189,0.929 0,0.409 0.26,0.594 0.855,0.594 l 0.706,0 0.148,13.967 1.895,0 5.386,-9.621 1.3,9.621 1.894,0"
           style="font-style:italic;fill:#000000;font-family:FreeMono;-inkscape-font-specification:FreeMono Italic"
           id="path28909"
           inkscape:connector-curvature="0" />
        <path
           d="m -15379.38,-15250.306 6.018,-13.967 0.706,0 c 0.743,0 1.189,-0.371 1.189,-0.928 0,-0.446 -0.223,-0.595 -0.855,-0.595 l -4.123,0 c -0.743,0 -1.189,0.335 -1.189,0.929 0,0.409 0.26,0.594 0.855,0.594 l 1.857,0 -5.089,11.887 -1.263,-9.472 -1.932,0 -5.2,9.472 -0.149,-11.887 1.969,0 c 0.743,0 1.189,-0.371 1.189,-0.928 0,-0.446 -0.223,-0.595 -0.855,-0.595 l -4.123,0 c -0.743,0 -1.188,0.335 -1.188,0.929 0,0.409 0.26,0.594 0.854,0.594 l 0.706,0 0.148,13.967 1.895,0 5.386,-9.621 1.3,9.621 1.894,0"
           style="font-style:italic;fill:#000000;font-family:FreeMono;-inkscape-font-specification:FreeMono Italic"
           id="path28911"
           inkscape:connector-curvature="0" />
        <path
           d="m -15357.106,-15250.306 6.017,-13.967 0.706,0 c 0.743,0 1.189,-0.371 1.189,-0.928 0,-0.446 -0.223,-0.595 -0.855,-0.595 l -4.123,0 c -0.743,0 -1.189,0.335 -1.189,0.929 0,0.409 0.261,0.594 0.855,0.594 l 1.857,0 -5.089,11.887 -1.263,-9.472 -1.931,0 -5.201,9.472 -0.148,-11.887 1.968,0 c 0.743,0 1.189,-0.371 1.189,-0.928 0,-0.446 -0.223,-0.595 -0.854,-0.595 l -4.124,0 c -0.743,0 -1.188,0.335 -1.188,0.929 0,0.409 0.26,0.594 0.854,0.594 l 0.706,0 0.148,13.967 1.895,0 5.386,-9.621 1.3,9.621 1.895,0"
           style="font-style:italic;fill:#000000;font-family:FreeMono;-inkscape-font-specification:FreeMono Italic"
           id="path28913"
           inkscape:connector-curvature="0" />
        <path
           d="m -15339.402,-15254.615 c -1.635,0 -3.12,1.375 -3.12,2.935 0,1.151 0.854,1.932 2.08,1.932 l 0.408,0 c 1.635,0 3.121,-1.375 3.121,-2.935 0,-1.152 -0.855,-1.932 -2.081,-1.932 l -0.408,0"
           style="font-style:italic;fill:#000000;font-family:FreeMono;-inkscape-font-specification:FreeMono Italic"
           id="path28915"
           inkscape:connector-curvature="0" />
        <path
           d="m -15310.331,-15262.75 -0.112,1.152 c 0.186,0.297 0.372,0.446 0.595,0.446 0.482,0 0.854,-0.372 1.003,-1.04 l 0.52,-2.564 c 0.04,-0.185 0.07,-0.371 0.07,-0.482 0,-0.298 -0.26,-0.558 -0.594,-0.558 -0.483,0 -0.855,0.409 -1.003,1.189 -1.078,-1.151 -2.638,-1.709 -4.792,-1.709 -4.049,0 -7.281,2.192 -7.281,4.941 0,2.711 3.195,3.083 5.721,3.38 3.008,0.334 5.014,1.114 5.014,2.86 0,2.155 -2.897,3.901 -6.463,3.901 -2.972,0 -5.126,-1.152 -5.126,-2.749 0,-0.149 0.111,-0.594 0.111,-0.854 0,-0.298 -0.26,-0.558 -0.594,-0.558 -0.52,0 -0.855,0.335 -1.003,1.003 l -0.632,3.083 c -0.04,0.112 -0.07,0.372 -0.07,0.446 0,0.297 0.297,0.557 0.594,0.557 0.743,0 0.892,-0.743 1.078,-1.411 1.263,1.374 3.046,2.043 5.46,2.043 4.569,0 8.358,-2.638 8.358,-5.758 0,-0.891 -0.52,-1.931 -1.263,-2.526 -2.786,-2.266 -9.509,-0.78 -9.509,-3.752 0,-1.634 2.6,-3.12 5.46,-3.12 2.786,0 4.458,1.449 4.458,2.08"
           style="font-style:italic;fill:#000000;font-family:FreeMono;-inkscape-font-specification:FreeMono Italic"
           id="path28917"
           inkscape:connector-curvature="0" />
        <path
           d="m -15290.027,-15272.742 -5.869,0 c -0.743,0 -1.189,0.334 -1.189,0.929 0,0.445 0.223,0.594 0.855,0.594 l 4.346,0 -4.123,19.39 -5.981,0 c -0.706,0 -1.151,0.335 -1.151,0.929 0,0.409 0.26,0.594 0.854,0.594 l 13.447,0 c 0.706,0 1.188,-0.371 1.188,-0.928 0,-0.409 -0.26,-0.595 -0.891,-0.595 l -5.943,0 4.457,-20.913"
           style="font-style:italic;fill:#000000;font-family:FreeMono;-inkscape-font-specification:FreeMono Italic"
           id="path28919"
           inkscape:connector-curvature="0" />
        <path
           d="m -15276.817,-15264.198 c 0,0.334 0.26,0.594 0.557,0.594 1.077,0 3.009,-1.189 5.906,-1.189 2.415,0 3.975,1.003 3.975,2.526 0,0.223 0,0.335 -0.04,0.52 l -0.558,2.638 c -2.08,-0.595 -3.194,-0.78 -4.903,-0.78 -5.126,0 -9.101,2.748 -9.101,6.352 0,2.377 1.858,3.826 4.904,3.826 2.6,0 5.014,-0.966 7.726,-3.083 l -0.52,2.488 3.529,0 c 0.743,0 1.188,-0.371 1.188,-0.928 0,-0.446 -0.222,-0.595 -0.854,-0.595 l -2.006,0 2.118,-9.918 c 0.07,-0.297 0.07,-0.52 0.07,-0.854 0,-2.192 -2.08,-3.715 -5.089,-3.715 -1.115,0 -6.909,0.743 -6.909,2.118 m 8.84,9.732 c -3.046,2.34 -5.163,3.232 -7.875,3.232 -2.266,0 -3.566,-0.966 -3.566,-2.638 0,-2.563 3.232,-4.494 7.504,-4.494 1.671,0 3.343,0.223 4.643,0.557 l -0.706,3.343"
           style="font-style:italic;fill:#000000;font-family:FreeMono;-inkscape-font-specification:FreeMono Italic"
           id="path28921"
           inkscape:connector-curvature="0" />
        <path
           d="m -15241.543,-15253.686 c 0,-0.297 -0.334,-0.631 -0.594,-0.631 -0.186,0 -0.446,0.148 -0.743,0.408 -2.192,1.746 -4.904,2.712 -7.69,2.712 -3.231,0 -5.534,-2.118 -5.534,-5.126 0,-2.006 1.708,-8.507 8.543,-8.507 3.603,0 5.275,2.192 5.275,2.712 l -0.111,1.337 c 0.185,0.334 0.371,0.446 0.631,0.446 0.483,0 0.817,-0.372 0.966,-1.04 l 0.706,-3.381 c 0.04,-0.222 0.07,-0.371 0.07,-0.482 0,-0.298 -0.26,-0.558 -0.594,-0.558 -0.781,0 -0.929,0.818 -1.078,1.523 -1.3,-1.374 -3.194,-2.08 -5.497,-2.08 -5.572,0 -10.475,4.866 -10.475,10.401 0,3.678 2.785,6.278 6.686,6.278 5.312,0 9.435,-3.12 9.435,-4.012"
           style="font-style:italic;fill:#000000;font-family:FreeMono;-inkscape-font-specification:FreeMono Italic"
           id="path28923"
           inkscape:connector-curvature="0" />
        <path
           d="m -15231.602,-15256.992 2.043,-1.449 5.274,6.612 -1.04,0 c -0.743,0 -1.188,0.335 -1.188,0.892 0,0.446 0.26,0.631 0.854,0.631 l 4.866,0 c 0.706,0 1.189,-0.371 1.189,-0.928 0,-0.446 -0.26,-0.595 -0.855,-0.595 l -1.671,0 -6.092,-7.577 6.872,-4.867 1.746,0 c 0.706,0 1.188,-0.371 1.188,-0.891 0,-0.483 -0.222,-0.632 -0.891,-0.632 l -4.792,0 c -0.743,0 -1.189,0.335 -1.189,0.892 0,0.446 0.26,0.631 0.855,0.631 l 0.817,0 -7.578,5.461 2.972,-13.93 -3.566,0 c -0.706,0 -1.152,0.334 -1.152,0.892 0,0.482 0.223,0.631 0.855,0.631 l 2.006,0 -4.124,19.39 -2.006,0 c -0.742,0 -1.188,0.335 -1.188,0.892 0,0.446 0.26,0.631 0.854,0.631 l 3.529,0 1.412,-6.686"
           style="font-style:italic;fill:#000000;font-family:FreeMono;-inkscape-font-specification:FreeMono Italic"
           id="path28925"
           inkscape:connector-curvature="0" />
        <path
           d="m -15208.809,-15269.807 c 0,0.371 0.26,0.594 0.594,0.594 1.04,0 1.783,-2.526 6.352,-2.526 2.489,0 4.198,1.412 4.198,3.417 0,2.675 -2.638,4.904 -5.832,4.904 -1.412,0 -2.155,0.111 -2.155,0.928 0,0.409 0.297,0.595 0.892,0.595 3.046,0 5.572,1.968 5.572,4.42 0,3.195 -3.566,6.204 -7.392,6.204 -4.235,0 -5.201,-2.304 -6.092,-2.304 -0.409,0 -0.855,0.446 -0.855,0.892 0,1.114 3.789,2.935 6.575,2.935 4.755,0 9.324,-3.864 9.324,-7.875 0,-2.118 -1.226,-3.864 -3.492,-4.867 3.12,-1.225 5.015,-3.491 5.015,-6.129 0,-2.749 -2.192,-4.643 -5.424,-4.643 -4.086,0 -7.28,2.675 -7.28,3.455"
           style="font-style:italic;fill:#000000;font-family:FreeMono;-inkscape-font-specification:FreeMono Italic"
           id="path28927"
           inkscape:connector-curvature="0" />
        <path
           d="m -15189.211,-15251.792 c -0.445,0 -0.854,0.446 -0.854,0.892 0,0.631 1.226,1.152 2.637,1.152 3.046,0 6.315,-1.412 8.953,-3.901 3.12,-2.934 5.014,-7.615 5.014,-12.407 0,-4.42 -2.154,-7.206 -5.534,-7.206 -4.161,0 -8.135,4.235 -8.135,8.692 0,3.158 2.043,5.386 4.903,5.386 2.637,0 4.977,-1.485 7.132,-4.531 -1.189,8.32 -7.392,12.444 -11.813,12.444 -1.745,0 -1.745,-0.521 -2.303,-0.521 m 7.281,-8.915 c -2.08,0 -3.64,-1.783 -3.64,-4.123 0,-3.566 3.009,-6.909 6.203,-6.909 3.863,0 4.346,3.455 4.495,6.018 -2.043,2.637 -4.198,5.014 -7.058,5.014"
           style="font-style:italic;fill:#000000;font-family:FreeMono;-inkscape-font-specification:FreeMono Italic"
           id="path28929"
           inkscape:connector-curvature="0" />
        <path
           d="m -15151.856,-15266.687 c 0,-4.16 -1.932,-6.575 -5.238,-6.575 -4.086,0 -7.8,4.049 -9.026,9.918 l -0.78,3.715 c -0.223,1.114 -0.372,2.228 -0.372,3.306 0,4.16 1.932,6.575 5.275,6.575 8.098,0 10.141,-13.559 10.141,-16.939 m -5.535,-5.052 c 2.6,0 3.9,1.894 3.9,5.646 0,1.003 -0.111,2.043 -0.297,2.935 l -0.705,3.306 c -1.152,5.275 -4.272,8.581 -7.244,8.581 -2.6,0 -3.9,-1.895 -3.9,-5.647 0,-2.6 1.634,-14.821 8.246,-14.821"
           style="font-style:italic;fill:#000000;font-family:FreeMono;-inkscape-font-specification:FreeMono Italic"
           id="path28931"
           inkscape:connector-curvature="0" />
        <path
           d="m -15138.944,-15254.615 c -1.634,0 -3.12,1.375 -3.12,2.935 0,1.151 0.854,1.932 2.08,1.932 l 0.409,0 c 1.634,0 3.12,-1.375 3.12,-2.935 0,-1.152 -0.854,-1.932 -2.08,-1.932 l -0.409,0"
           style="font-style:italic;fill:#000000;font-family:FreeMono;-inkscape-font-specification:FreeMono Italic"
           id="path28933"
           inkscape:connector-curvature="0" />
        <path
           d="m -15113.996,-15266.316 c -5.349,0 -10.401,4.829 -10.401,9.993 0,3.863 2.823,6.612 6.872,6.612 5.386,0 10.438,-4.792 10.438,-9.955 0,-3.938 -2.823,-6.65 -6.909,-6.65 m -0.334,1.523 c 3.38,0 5.683,2.192 5.683,5.424 0,4.234 -4.123,8.135 -8.544,8.135 -3.306,0 -5.646,-2.229 -5.646,-5.424 0,-4.197 4.123,-8.135 8.507,-8.135"
           style="font-style:italic;fill:#000000;font-family:FreeMono;-inkscape-font-specification:FreeMono Italic"
           id="path28935"
           inkscape:connector-curvature="0" />
        <path
           d="m -15084.257,-15263.084 c 0.52,0 1.003,-0.483 1.003,-0.929 0,-0.408 -1.151,-2.154 -3.231,-2.154 -1.932,0 -3.901,1.003 -8.061,4.16 l 0.817,-3.789 -4.309,0 c -0.668,0 -1.151,0.372 -1.151,0.892 0,0.446 0.26,0.631 0.854,0.631 l 2.749,0 -2.638,12.444 -3.566,0 c -0.705,0 -1.188,0.372 -1.188,0.892 0,0.446 0.297,0.631 0.854,0.631 l 11.738,0 c 0.706,0 1.189,-0.371 1.189,-0.891 0,-0.446 -0.297,-0.632 -0.854,-0.632 l -6.65,0 1.746,-8.209 c 4.866,-3.752 6.352,-4.606 8.024,-4.606 1.671,0 2.006,1.56 2.674,1.56"
           style="font-style:italic;fill:#000000;font-family:FreeMono;-inkscape-font-specification:FreeMono Italic"
           id="path28937"
           inkscape:connector-curvature="0" />
        <path
           d="m -15064.992,-15262.712 c -1.152,-2.489 -2.898,-3.604 -5.572,-3.604 -4.866,0 -9.51,4.606 -9.51,9.435 0,3.641 2.564,6.204 6.167,6.204 2.711,0 4.903,-1.115 7.132,-3.603 l -1.04,4.792 c -0.558,2.525 -2.972,4.569 -5.498,4.569 l -4.309,0 c -0.743,0 -1.189,0.334 -1.189,0.928 0,0.409 0.26,0.595 0.855,0.595 l 4.272,0 c 4.643,0 6.983,-4.161 7.354,-5.87 l 3.195,-15.007 2.006,0 c 0.743,0 1.189,-0.371 1.189,-0.928 0,-0.446 -0.223,-0.595 -0.855,-0.595 l -3.529,0 -0.668,3.084 m -5.832,-2.081 c 3.009,0 5.089,2.006 5.089,4.904 0,4.011 -3.678,7.689 -7.764,7.689 -2.971,0 -5.014,-2.043 -5.014,-5.015 0,-3.9 3.714,-7.578 7.689,-7.578"
           style="font-style:italic;fill:#000000;font-family:FreeMono;-inkscape-font-specification:FreeMono Italic"
           id="path28939"
           inkscape:connector-curvature="0" />
      </g>
    </g>
  </g>
</svg>
