<?xml version="1.0" encoding="UTF-8" standalone="no"?>
<!-- Created with Inkscape (http://www.inkscape.org/) -->

<!-- 
 
 SLACKWARE LINUX GRAPHICS PROJECT: 

 Slackware Linux Graphics Project aims to provide a set of visual components related to GNU/Linux Slackware in both vector and 
 raster graphics formats for its users. 
 
 LEGAL DISCLAIMER: 

 Graphics in this project are all free artwork; you can use them, redistribute them and/or modify them under the *related* terms 
 explained in Slackware Linux Propaganda Graphics FAQ section on Slackware Linux home page. 

 You should have received a copy of the Slackware Linux Propaganda Graphics FAQ text 
 along with this artwork package. If not, see "http://www.slackware.com/". 

 This artwork package is distributed in the hope that it will be useful, but WITHOUT ANY WARRANTY. 

 Slackware Linux Graphics Project does not officially represent neither Linux nor Slackware Linux in any way. 
 Linux is a registered trademark of Linus Torvalds. Slackware Linux is a registered trademark of Slackware Linux, Inc. 
 and Patrick Volkerding. 
 
 DOWNLOAD INFORMATION: 

 You can download more recent versions of the Slackware Linux Graphics from the project's blog 
 at "http://www.slackware-linux-graphics.blogspot.com/". 

 OPINIONS AND SUGGESTIONS: 
 
 Please contact with the project for your opinions and suggestions related to Slackware Linux Graphics. 
 
 CONTACT INFORMATION: 
 
 Maintainer: Ismail Demiral 
 E-Mail: slackware.linux.graphics@gmail.com 
 Blog: http://www.slackware-linux-graphics.blogspot.com/ 
 
 -->

<svg
   xmlns:dc="http://purl.org/dc/elements/1.1/"
   xmlns:cc="http://creativecommons.org/ns#"
   xmlns:rdf="http://www.w3.org/1999/02/22-rdf-syntax-ns#"
   xmlns:svg="http://www.w3.org/2000/svg"
   xmlns="http://www.w3.org/2000/svg"
   xmlns:sodipodi="http://sodipodi.sourceforge.net/DTD/sodipodi-0.dtd"
   xmlns:inkscape="http://www.inkscape.org/namespaces/inkscape"
   width="512.00012"
   height="139.99991"
   id="svg5263"
   version="1.1"
   inkscape:version="0.48.3.1 r9886"
   sodipodi:docname="Slackware.Linux.Traditional.Logo.with.Home.Page_FreeMono.svg">
  <defs
     id="defs5265" />
  <sodipodi:namedview
     id="base"
     pagecolor="#ffffff"
     bordercolor="#666666"
     borderopacity="1.0"
     inkscape:pageopacity="0.0"
     inkscape:pageshadow="2"
     inkscape:zoom="0.7"
     inkscape:cx="86.661554"
     inkscape:cy="38.031887"
     inkscape:document-units="px"
     inkscape:current-layer="layer1"
     showgrid="false"
     inkscape:window-width="1366"
     inkscape:window-height="721"
     inkscape:window-x="-2"
     inkscape:window-y="-3"
     inkscape:window-maximized="1"
     fit-margin-top="0"
     fit-margin-left="0"
     fit-margin-right="0"
     fit-margin-bottom="0" />
  <metadata
     id="metadata5268">
    <rdf:RDF>
      <cc:Work
         rdf:about="">
        <dc:format>image/svg+xml</dc:format>
        <dc:type
           rdf:resource="http://purl.org/dc/dcmitype/StillImage" />
        <dc:title></dc:title>
      </cc:Work>
    </rdf:RDF>
  </metadata>
  <g
     inkscape:label="Layer 1"
     inkscape:groupmode="layer"
     id="layer1"
     transform="translate(-156.57113,-193.07655)">
    <g
       id="g5934"
       transform="translate(13726.368,8797.6684)"
       inkscape:export-filename="Slackware.Linux.Traditional.Logo.with.Home.Page_FreeMono_512x140.png"
       inkscape:export-xdpi="90"
       inkscape:export-ydpi="90">
      <g
         transform="translate(1589.9502,1043.4773)"
         id="g5898"
         style="fill:#000000">
        <g
           style="font-size:20.49142647px;font-style:normal;font-weight:normal;line-height:125%;letter-spacing:0px;word-spacing:0px;fill:#000000;fill-opacity:1;stroke:none;font-family:Sans"
           id="text5900">
          <path
             d="m -14842.161,-9571.8282 c 0,-0.7131 0.209,-1.1926 0.627,-1.4385 0.418,-0.2705 1.032,-0.4057 1.844,-0.4057 l 6.565,0 0,19.2906 4.5,0 c 1.623,0 2.435,0.6147 2.435,1.8442 0,1.2295 -0.812,1.8442 -2.435,1.8442 l -12.688,0 c -1.623,0 -2.434,-0.6147 -2.434,-1.8442 0,-0.7131 0.209,-1.1926 0.627,-1.4385 0.418,-0.2705 1.02,-0.4057 1.807,-0.4057 l 4.5,0 0,-15.6022 -2.877,0 c -1.648,0 -2.471,-0.6147 -2.471,-1.8442"
             style="font-size:36.88457108px;font-variant:normal;font-weight:bold;font-stretch:normal;text-align:center;text-anchor:middle;fill:#000000;font-family:FreeMono;-inkscape-font-specification:FreeMono"
             id="path3014" />
          <path
             d="m -14784.392,-9554.3818 c 1.623,0 2.434,0.6147 2.434,1.8442 0,1.2295 -0.811,1.8442 -2.434,1.8442 l -12.688,0 c -1.623,0 -2.435,-0.6147 -2.435,-1.8442 0,-0.7131 0.209,-1.1926 0.627,-1.4385 0.418,-0.2705 1.021,-0.4057 1.808,-0.4057 l 4.5,0 0,-8.7417 -2.877,0 c -1.648,10e-5 -2.472,-0.6147 -2.472,-1.8442 0,-0.7377 0.209,-1.2295 0.627,-1.4754 0.443,-0.2459 1.058,-0.3688 1.845,-0.3688 l 6.565,0 0,12.4301 4.5,0 m -5.016,-19.2906 0,3.8728 -4.353,0 0,-3.8728 4.353,0"
             style="font-size:36.88457108px;font-variant:normal;font-weight:bold;font-stretch:normal;text-align:center;text-anchor:middle;fill:#000000;font-family:FreeMono;-inkscape-font-specification:FreeMono"
             id="path3016" />
          <path
             d="m -14754.286,-9550.6934 c -1.623,0 -2.435,-0.6147 -2.435,-1.8442 0,-1.2295 0.812,-1.8442 2.435,-1.8442 l 0.221,0 0,-8.7417 c -1.5,-0.049 -2.25,-0.6639 -2.25,-1.8442 0,-1.2295 0.824,-1.8442 2.471,-1.8442 l 3.468,0 0,1.7704 c 0.885,-0.836 1.696,-1.4139 2.434,-1.7335 0.738,-0.3443 1.611,-0.5164 2.619,-0.5164 1.918,0 3.491,0.541 4.721,1.6229 1.229,1.082 1.844,2.6065 1.844,4.5737 l 0,6.713 c 1.5,0 2.25,0.6147 2.25,1.8442 0,1.2295 -0.811,1.8442 -2.434,1.8442 l -3.283,0 c -1.647,0 -2.471,-0.6147 -2.471,-1.8442 0,-1.2295 0.75,-1.8442 2.25,-1.8442 l 0,-6.5655 c 0,-1.7704 -1.107,-2.6556 -3.32,-2.6557 -0.86,10e-5 -1.635,0.1845 -2.324,0.5533 -0.664,0.3689 -1.426,1.0205 -2.286,1.9549 l 0,6.713 0.221,0 c 1.623,0 2.434,0.6147 2.434,1.8442 0,1.2295 -0.811,1.8442 -2.434,1.8442 l -4.131,0"
             style="font-size:36.88457108px;font-variant:normal;font-weight:bold;font-stretch:normal;text-align:center;text-anchor:middle;fill:#000000;font-family:FreeMono;-inkscape-font-specification:FreeMono"
             id="path3018" />
          <path
             d="m -14699.873,-9563.1235 c -0.738,10e-5 -1.267,-0.1844 -1.586,-0.5532 -0.32,-0.3935 -0.48,-0.8238 -0.48,-1.291 0,-1.2295 0.812,-1.8442 2.434,-1.8442 l 4.98,0 0,12.4301 c 1.5,0 2.25,0.6147 2.25,1.8442 0,1.2295 -0.812,1.8442 -2.435,1.8442 l -3.504,0 0,-1.7704 c -0.909,0.8606 -1.733,1.4508 -2.471,1.7704 -0.713,0.3197 -1.574,0.4795 -2.582,0.4795 -1.942,0 -3.528,-0.5409 -4.758,-1.6229 -1.205,-1.1065 -1.807,-2.6434 -1.807,-4.6106 l 0,-6.6761 -0.996,0 c -0.615,10e-5 -1.107,-0.1721 -1.475,-0.5163 -0.369,-0.3443 -0.554,-0.7869 -0.554,-1.3279 0,-0.7131 0.209,-1.1926 0.627,-1.4385 0.418,-0.2705 1.021,-0.4057 1.808,-0.4057 l 4.278,0 0,10.2539 c 0,1.7705 1.082,2.6557 3.246,2.6557 0.934,0 1.709,-0.1598 2.324,-0.4795 0.615,-0.3443 1.401,-1.0205 2.36,-2.0287 l 0,-6.713 -1.291,0 -0.368,0"
             style="font-size:36.88457108px;font-variant:normal;font-weight:bold;font-stretch:normal;text-align:center;text-anchor:middle;fill:#000000;font-family:FreeMono;-inkscape-font-specification:FreeMono"
             id="path3020" />
          <path
             d="m -14661.8,-9566.8119 c 1.622,0 2.434,0.6024 2.434,1.8073 0,0.7131 -0.32,1.2787 -0.959,1.6967 l 2.25,1.8074 2.25,-1.8443 c -0.639,-0.4426 -0.959,-0.9712 -0.959,-1.586 0,-1.2541 0.811,-1.8811 2.434,-1.8811 l 3.357,0 c 1.647,0 2.471,0.6147 2.471,1.8442 0,1.1066 -0.652,1.7213 -1.955,1.8442 l -4.869,4.0573 5.607,4.6844 c 1.328,0.074 1.992,0.6885 1.992,1.8442 0,1.2295 -0.812,1.8442 -2.435,1.8442 l -4.131,0 c -1.647,0 -2.471,-0.627 -2.471,-1.8811 0,-0.9344 0.492,-1.5368 1.475,-1.8073 l -2.766,-2.25 -2.693,2.25 c 0.935,0.3934 1.402,0.9959 1.402,1.8073 0,1.2541 -0.812,1.8811 -2.434,1.8811 l -4.095,0 c -1.623,0 -2.434,-0.6147 -2.434,-1.8442 0,-1.1557 0.664,-1.7704 1.992,-1.8442 l 5.348,-4.7212 -4.721,-4.0205 c -1.279,-0.1229 -1.918,-0.7376 -1.918,-1.8442 0,-1.2295 0.811,-1.8442 2.434,-1.8442 l 3.394,0"
             style="font-size:36.88457108px;font-variant:normal;font-weight:bold;font-stretch:normal;text-align:center;text-anchor:middle;fill:#000000;font-family:FreeMono;-inkscape-font-specification:FreeMono"
             id="path3022" />
        </g>
        <g
           style="font-size:25.39759445px;font-style:normal;font-weight:normal;line-height:125%;letter-spacing:0px;word-spacing:0px;fill:#000000;fill-opacity:1;stroke:none;font-family:Sans"
           id="text5904">
          <path
             d="m -15090.355,-9622.8341 c 0,1.9506 -0.335,3.4439 -1.005,4.4801 -0.61,1.0363 -1.799,1.5544 -3.566,1.5544 -1.097,0 -2.012,-0.3353 -2.743,-1.0058 -0.732,-0.6704 -1.341,-1.3714 -1.829,-2.1029 -0.427,-0.7924 -1.463,-1.5238 -3.109,-2.1943 -1.584,-0.6705 -3.748,-1.0058 -6.491,-1.0058 -2.316,0 -4.419,0.3353 -6.309,1.0058 -1.829,0.6095 -2.743,1.341 -2.743,2.1943 0,1.2191 1.341,2.103 4.023,2.6515 2.682,0.4877 6.035,1.0363 10.058,1.6458 4.023,0.6095 7.101,1.5239 9.234,2.7429 2.012,1.0972 3.566,2.5601 4.663,4.3887 1.158,1.8287 1.737,3.8097 1.737,5.9431 0,3.7182 -1.92,6.7964 -5.76,9.2345 -3.84,2.4382 -8.716,3.6573 -14.629,3.6573 -5.303,0 -9.813,-0.8839 -13.532,-2.6515 -0.914,0.7314 -1.889,1.0971 -2.925,1.0971 -3.109,0 -4.663,-2.0114 -4.663,-6.0344 l 0,-3.0173 c 0,-4.0839 1.554,-6.1258 4.663,-6.1259 2.316,1e-4 3.87,1.341 4.663,4.023 2.621,2.3772 6.43,3.5659 11.428,3.5658 2.926,1e-4 5.425,-0.3961 7.498,-1.1886 2.133,-0.7924 3.2,-1.7067 3.2,-2.7429 0,-2.3772 -3.84,-3.962 -11.52,-4.7544 -6.401,-0.6705 -11.033,-1.981 -13.898,-3.9316 -2.865,-1.9505 -4.297,-4.7239 -4.297,-8.3202 0,-3.6573 1.767,-6.644 5.303,-8.9603 3.535,-2.3772 8.046,-3.5658 13.532,-3.5658 4.449,0 8.381,0.7924 11.794,2.3772 0.671,-1.5848 1.646,-2.3772 2.926,-2.3772 2.865,0 4.297,2.0115 4.297,6.0344 l 0,3.383"
             style="font-size:91.43135071px;font-variant:normal;font-weight:bold;font-stretch:normal;text-align:center;text-anchor:middle;fill:#000000;font-family:FreeMono;-inkscape-font-specification:FreeMono"
             id="path3025" />
          <path
             d="m -15072.196,-9643.4976 c 0,-1.7676 0.519,-2.9562 1.555,-3.5658 1.036,-0.6704 2.56,-1.0057 4.571,-1.0058 l 16.275,0 0,47.8186 11.155,0 c 4.023,10e-5 6.034,1.5239 6.034,4.5716 0,3.0477 -2.011,4.5716 -6.034,4.5716 l -31.453,0 c -4.023,0 -6.034,-1.5239 -6.034,-4.5716 0,-1.7677 0.518,-2.9563 1.554,-3.5658 1.036,-0.6705 2.53,-1.0057 4.48,-1.0058 l 11.155,0 0,-38.6754 -7.132,0 c -4.084,0 -6.126,-1.5238 -6.126,-4.5716"
             style="font-size:91.43135071px;font-variant:normal;font-weight:bold;font-stretch:normal;text-align:center;text-anchor:middle;fill:#000000;font-family:FreeMono;-inkscape-font-specification:FreeMono"
             id="path3027" />
          <path
             d="m -15023.133,-9601.9878 c 0,-4.1448 2.042,-7.7411 6.126,-10.7889 4.084,-3.1086 9.418,-4.6629 16.001,-4.663 2.743,1e-4 5.912,0.3048 9.509,0.9144 l 0,-2.103 c 0,-2.9867 -2.835,-4.4801 -8.504,-4.4801 -2.499,0 -5.333,0.3658 -8.503,1.0972 -3.169,0.6705 -5.089,1.0058 -5.76,1.0057 -1.28,10e-5 -2.347,-0.4266 -3.2,-1.28 -0.853,-0.9143 -1.28,-2.0419 -1.28,-3.383 0,-1.9505 0.914,-3.2305 2.743,-3.8401 5.181,-1.8286 10.423,-2.7429 15.726,-2.7429 5.608,0 9.997,1.1886 13.166,3.5658 3.231,2.3772 4.846,5.6992 4.846,9.966 l 0,18.4691 1.463,0 c 4.023,10e-5 6.034,1.5239 6.035,4.5716 -0,3.0477 -2.012,4.5716 -6.035,4.5716 l -10.697,0 0,-2.1029 c -4.572,2.3772 -9.631,3.5658 -15.178,3.5658 -4.511,0 -8.381,-1.1886 -11.612,-3.5658 -3.23,-2.4382 -4.846,-5.364 -4.846,-8.7775 m 31.727,-1.4629 0,-4.5715 c -3.84,-0.6705 -7.223,-1.0057 -10.149,-1.0058 -3.109,1e-4 -5.882,0.6705 -8.32,2.0115 -2.377,1.341 -3.566,2.8954 -3.566,4.663 0,1.0363 0.671,1.8896 2.012,2.5601 1.341,0.6705 2.986,1.0058 4.937,1.0057 4.998,1e-4 10.027,-1.5543 15.086,-4.663"
             style="font-size:91.43135071px;font-variant:normal;font-weight:bold;font-stretch:normal;text-align:center;text-anchor:middle;fill:#000000;font-family:FreeMono;-inkscape-font-specification:FreeMono"
             id="path3029" />
          <path
             d="m -14922.777,-9619.1768 c 0,4.023 -1.524,6.0344 -4.571,6.0344 -1.646,0 -2.804,-0.4571 -3.475,-1.3714 -0.609,-0.9143 -1.097,-2.042 -1.463,-3.383 -0.365,-1.341 -0.975,-2.3162 -1.828,-2.9258 -2.499,-1.5238 -5.73,-2.2858 -9.692,-2.2858 -4.328,0 -7.802,1.2191 -10.423,3.6573 -2.56,2.3772 -3.84,5.5163 -3.84,9.4174 0,7.4974 5.364,11.2461 16.092,11.246 3.23,1e-4 5.912,-0.2742 8.046,-0.8228 2.133,-0.5486 3.565,-1.1277 4.297,-1.7372 0.792,-0.6096 1.554,-1.1886 2.286,-1.7372 0.792,-0.5486 1.554,-0.8229 2.285,-0.8229 1.219,0 2.286,0.4572 3.201,1.3715 0.914,0.9143 1.371,2.0115 1.371,3.2915 0,2.621 -2.042,4.8763 -6.126,6.7659 -4.023,1.8896 -9.356,2.8344 -16,2.8344 -3.78,0 -7.163,-0.4267 -10.149,-1.2801 -2.926,-0.8533 -5.273,-1.9505 -7.04,-3.2915 -1.768,-1.4019 -3.231,-3.0172 -4.389,-4.8458 -1.158,-1.8287 -1.951,-3.6268 -2.377,-5.3945 -0.427,-1.8286 -0.64,-3.6877 -0.64,-5.5773 0,-6.5221 2.163,-11.8556 6.491,-16.0005 4.389,-4.1448 10.027,-6.2173 16.915,-6.2173 5.242,0 9.631,0.9143 13.166,2.7429 0.549,-1.8286 1.707,-2.7429 3.475,-2.7429 2.925,0 4.388,2.0115 4.388,6.0344 l 0,7.0403"
             style="font-size:91.43135071px;font-variant:normal;font-weight:bold;font-stretch:normal;text-align:center;text-anchor:middle;fill:#000000;font-family:FreeMono;-inkscape-font-specification:FreeMono"
             id="path3031" />
          <path
             d="m -14871.245,-9600.2506 c 4.084,10e-5 6.126,1.5239 6.126,4.5716 0,3.0477 -2.042,4.5716 -6.126,4.5716 l -10.789,0 c -4.023,0 -6.035,-1.5239 -6.035,-4.5716 0,-1.2191 0.488,-2.3467 1.463,-3.3829 l -9.417,-8.3203 -1.646,1.28 0,14.9948 -10.606,0 c -4.023,0 -6.034,-1.5239 -6.034,-4.5716 0,-1.7677 0.518,-2.9563 1.554,-3.5658 1.036,-0.6705 2.53,-1.0057 4.48,-1.0058 l 1.463,0 0,-38.6754 -1.463,0 c -1.95,0 -3.444,-0.3047 -4.48,-0.9143 -1.036,-0.6705 -1.554,-1.8896 -1.554,-3.6573 0,-3.0476 2.011,-4.5715 6.034,-4.5716 l 10.606,0 0,30.721 7.223,-5.7602 c -0.975,-1.1581 -1.463,-2.2857 -1.463,-3.383 0,-3.0476 2.042,-4.5715 6.126,-4.5715 l 10.241,0 c 2.011,0 3.504,0.3353 4.48,1.0057 1.036,0.6706 1.554,1.8592 1.554,3.5658 0,3.0478 -2.012,4.5716 -6.034,4.5716 l -2.561,0 -10.788,8.7774 14.629,12.8918 3.017,0"
             style="font-size:91.43135071px;font-variant:normal;font-weight:bold;font-stretch:normal;text-align:center;text-anchor:middle;fill:#000000;font-family:FreeMono;-inkscape-font-specification:FreeMono"
             id="path3033" />
          <path
             d="m -14822.182,-9622.0112 c -4.023,0 -6.035,-1.4934 -6.035,-4.4802 0,-3.0476 2.012,-4.5715 6.035,-4.5715 l 8.503,0 c 4.023,0 6.034,1.5239 6.034,4.5715 0,2.804 -1.585,4.2973 -4.754,4.4802 l -7.68,30.9038 -8.412,0 -6.492,-16.5491 -6.217,16.5491 -8.595,0 -7.771,-30.9038 c -1.585,-0.1219 -2.804,-0.5486 -3.657,-1.2801 -0.854,-0.7923 -1.28,-1.859 -1.28,-3.2001 0,-3.0476 2.011,-4.5715 6.034,-4.5715 l 8.412,0 c 1.95,0 3.444,0.3353 4.48,1.0057 1.036,0.6096 1.554,1.7982 1.554,3.5658 0,2.9868 -1.95,4.4802 -5.851,4.4802 l 3.565,13.989 5.486,-14.4462 8.046,0 5.578,14.4462 3.657,-13.989 -0.64,0"
             style="font-size:91.43135071px;font-variant:normal;font-weight:bold;font-stretch:normal;text-align:center;text-anchor:middle;fill:#000000;font-family:FreeMono;-inkscape-font-specification:FreeMono"
             id="path3035" />
          <path
             d="m -14803.84,-9601.9878 c 0,-4.1448 2.042,-7.7411 6.126,-10.7889 4.084,-3.1086 9.417,-4.6629 16,-4.663 2.743,1e-4 5.913,0.3048 9.509,0.9144 l 0,-2.103 c 0,-2.9867 -2.834,-4.4801 -8.503,-4.4801 -2.499,0 -5.334,0.3658 -8.503,1.0972 -3.17,0.6705 -5.09,1.0058 -5.76,1.0057 -1.28,10e-5 -2.347,-0.4266 -3.201,-1.28 -0.853,-0.9143 -1.28,-2.0419 -1.28,-3.383 0,-1.9505 0.915,-3.2305 2.743,-3.8401 5.181,-1.8286 10.424,-2.7429 15.727,-2.7429 5.607,0 9.996,1.1886 13.166,3.5658 3.23,2.3772 4.845,5.6992 4.846,9.966 l 0,18.4691 1.462,0 c 4.023,10e-5 6.035,1.5239 6.035,4.5716 0,3.0477 -2.012,4.5716 -6.035,4.5716 l -10.697,0 0,-2.1029 c -4.572,2.3772 -9.631,3.5658 -15.178,3.5658 -4.51,0 -8.381,-1.1886 -11.611,-3.5658 -3.231,-2.4382 -4.846,-5.364 -4.846,-8.7775 m 31.726,-1.4629 0,-4.5715 c -3.84,-0.6705 -7.223,-1.0057 -10.148,-1.0058 -3.109,1e-4 -5.883,0.6705 -8.321,2.0115 -2.377,1.341 -3.566,2.8954 -3.566,4.663 0,1.0363 0.671,1.8896 2.012,2.5601 1.341,0.6705 2.987,1.0058 4.937,1.0057 4.998,1e-4 10.027,-1.5543 15.086,-4.663"
             style="font-size:91.43135071px;font-variant:normal;font-weight:bold;font-stretch:normal;text-align:center;text-anchor:middle;fill:#000000;font-family:FreeMono;-inkscape-font-specification:FreeMono"
             id="path3037" />
          <path
             d="m -14712.17,-9632.1601 c 2.56,0 5.12,0.7924 7.68,2.3772 2.56,1.5849 3.84,3.383 3.84,5.3945 0,1.28 -0.457,2.3772 -1.371,3.2915 -0.915,0.9143 -1.982,1.3715 -3.201,1.3715 -1.036,0 -2.224,-0.5486 -3.565,-1.6458 -1.341,-1.0971 -2.53,-1.6457 -3.566,-1.6458 -1.463,10e-5 -3.261,0.6706 -5.395,2.0115 -2.072,1.2801 -5.303,3.7183 -9.691,7.3145 l 0,13.4404 12.709,0 c 4.083,10e-5 6.125,1.5239 6.125,4.5716 0,3.0477 -2.042,4.5716 -6.125,4.5716 l -27.156,0 c -4.023,0 -6.034,-1.5239 -6.034,-4.5716 0,-1.7677 0.518,-2.9563 1.554,-3.5658 1.037,-0.6705 2.53,-1.0057 4.48,-1.0058 l 5.303,0 0,-21.6692 -3.2,0 c -4.023,0 -6.034,-1.5238 -6.034,-4.5716 0,-3.0476 2.011,-4.5715 6.034,-4.5715 l 12.344,0 0,5.943 c 3.657,-2.7429 6.552,-4.602 8.686,-5.5773 2.133,-0.9752 4.327,-1.4629 6.583,-1.4629"
             style="font-size:91.43135071px;font-variant:normal;font-weight:bold;font-stretch:normal;text-align:center;text-anchor:middle;fill:#000000;font-family:FreeMono;-inkscape-font-specification:FreeMono"
             id="path3039" />
          <path
             d="m -14647.747,-9597.2333 c 0,1.9505 -1.768,3.5658 -5.303,4.8458 -3.535,1.2191 -6.857,1.9811 -9.966,2.2858 -3.048,0.3048 -5.669,0.4572 -7.863,0.4572 -7.071,0 -12.861,-1.981 -17.372,-5.9431 -4.511,-3.962 -6.766,-9.0516 -6.766,-15.269 0,-6.0344 2.255,-11.0936 6.766,-15.1776 4.571,-4.1448 10.179,-6.2173 16.823,-6.2173 6.827,0 12.465,2.0725 16.915,6.2173 4.511,4.1449 6.766,9.3565 6.766,15.6348 l 0,3.5658 -37.304,0 c 2.072,5.364 7.071,8.046 14.995,8.0459 3.23,1e-4 6.827,-0.4876 10.789,-1.4629 3.962,-1.0362 6.339,-1.5543 7.131,-1.5543 1.219,0 2.256,0.4572 3.109,1.3715 0.853,0.8533 1.28,1.92 1.28,3.2001 m -37.03,-17.6463 26.881,0 c -0.731,-2.4991 -2.316,-4.4801 -4.754,-5.943 -2.438,-1.5238 -5.334,-2.2858 -8.686,-2.2858 -3.353,0 -6.279,0.762 -8.778,2.2858 -2.438,1.5239 -3.992,3.5049 -4.663,5.943"
             style="font-size:91.43135071px;font-variant:normal;font-weight:bold;font-stretch:normal;text-align:center;text-anchor:middle;fill:#000000;font-family:FreeMono;-inkscape-font-specification:FreeMono"
             id="path3041" />
        </g>
        <path
           inkscape:connector-curvature="0"
           id="path5908"
           d="m -15159.747,-9564.438 0,4.989 2.495,0 294.357,0 2.495,0 0,-4.989 -2.495,0 -294.357,0 -2.495,0 z"
           style="font-size:medium;font-style:normal;font-variant:normal;font-weight:normal;font-stretch:normal;text-indent:0;text-align:start;text-decoration:none;line-height:normal;letter-spacing:normal;word-spacing:normal;text-transform:none;direction:ltr;block-progression:tb;writing-mode:lr-tb;text-anchor:start;baseline-shift:baseline;color:#000000;fill:#000000;fill-opacity:1;stroke:none;stroke-width:5;marker:none;visibility:visible;display:inline;overflow:visible;enable-background:accumulate;font-family:Sans;-inkscape-font-specification:Sans" />
        <path
           style="font-size:medium;font-style:normal;font-variant:normal;font-weight:normal;font-stretch:normal;text-indent:0;text-align:start;text-decoration:none;line-height:normal;letter-spacing:normal;word-spacing:normal;text-transform:none;direction:ltr;block-progression:tb;writing-mode:lr-tb;text-anchor:start;baseline-shift:baseline;color:#000000;fill:#000000;fill-opacity:1;stroke:none;stroke-width:5;marker:none;visibility:visible;display:inline;overflow:visible;enable-background:accumulate;font-family:Sans;-inkscape-font-specification:Sans"
           d="m -15154.757,-9589.6778 -4.99,0 0,0.2516 0,29.7252 0,0.252 4.99,0 0,-0.252 0,-29.7252 0,-0.2516 z"
           id="path5910"
           inkscape:connector-curvature="0" />
      </g>
      <g
         style="font-size:35.70677185px;font-style:normal;font-weight:normal;line-height:125%;letter-spacing:0px;word-spacing:0px;fill:#000000;fill-opacity:1;stroke:none;font-family:Sans"
         id="text4895">
        <path
           d="m -13553.872,-8482.2668 c 0,-0.7617 -0.285,-1.4282 -0.857,-1.9996 -0.571,-0.5951 -1.535,-0.8926 -2.892,-0.8926 -0.976,0 -1.845,0.2023 -2.606,0.607 -0.738,0.3809 -1.714,1.1426 -2.928,2.2852 l -0.465,0.4642 -1.928,9.1052 1.607,0 c 0.571,0 0.857,0.1905 0.857,0.5713 0,0.5951 -0.393,0.8927 -1.178,0.8927 l -4.714,0 c -0.547,0 -0.821,-0.2023 -0.821,-0.607 0,-0.5713 0.381,-0.857 1.143,-0.857 l 1.642,0 3.964,-18.6389 -1.964,0 c -0.524,0 -0.786,-0.2023 -0.786,-0.607 0,-0.5713 0.369,-0.857 1.107,-0.857 l 3.392,0 -1.928,9.1767 c 1.143,-1.095 2.178,-1.8687 3.107,-2.321 0.928,-0.4523 1.94,-0.6784 3.035,-0.6784 1.428,0 2.571,0.369 3.428,1.1069 0.857,0.7141 1.285,1.6782 1.285,2.8922 0,0.3095 -0.04,0.6428 -0.107,0.9998 l -1.893,8.9267 1.607,0 c 0.572,0 0.857,0.1905 0.857,0.5713 0,0.2619 -0.107,0.4761 -0.321,0.6428 -0.214,0.1666 -0.488,0.2499 -0.821,0.2499 l -4.714,0 c -0.547,0 -0.821,-0.2023 -0.821,-0.607 0,-0.5713 0.369,-0.857 1.107,-0.857 l 1.642,0 1.857,-8.8195 c 0.07,-0.2381 0.107,-0.488 0.107,-0.7499"
           style="font-style:italic;font-variant:normal;font-stretch:normal;fill:#000000;font-family:FreeMono;-inkscape-font-specification:FreeMono"
           id="path3044" />
        <path
           d="m -13532.104,-8473.1616 c 0,0.6666 -0.976,1.2498 -2.928,1.7497 -1.929,0.4999 -3.512,0.7498 -4.749,0.7498 -1.405,0 -2.536,-0.3094 -3.393,-0.9284 -0.857,-0.6189 -1.285,-1.4401 -1.285,-2.4637 0,-0.3095 0.04,-0.6428 0.107,-0.9998 l 2.035,-9.6051 -2.642,0 c -0.571,0 -0.857,-0.1905 -0.857,-0.5714 0,-0.5951 0.381,-0.8926 1.143,-0.8926 l 2.678,0 0.892,-4.2491 c 0.143,-0.6427 0.453,-0.9641 0.929,-0.9641 0.404,0 0.607,0.1785 0.607,0.5356 0,0.095 -0.02,0.2381 -0.07,0.4285 l -0.892,4.2491 7.855,0 c 0.548,0 0.821,0.1904 0.821,0.5713 0,0.2618 -0.107,0.4761 -0.321,0.6427 -0.214,0.1667 -0.488,0.25 -0.821,0.25 l -7.856,0 -2.035,9.5337 c -0.05,0.3332 -0.07,0.5475 -0.07,0.6427 0,0.7141 0.309,1.2854 0.928,1.7139 0.619,0.4285 1.452,0.6427 2.5,0.6427 0.999,0 2.094,-0.1309 3.285,-0.3927 1.214,-0.2857 2.201,-0.6309 2.963,-1.0355 0.286,-0.1429 0.5,-0.2143 0.643,-0.2143 0.357,0 0.536,0.2024 0.536,0.607"
           style="font-style:italic;font-variant:normal;font-stretch:normal;fill:#000000;font-family:FreeMono;-inkscape-font-specification:FreeMono"
           id="path3046" />
        <path
           d="m -13510.694,-8473.1616 c 0,0.6666 -0.976,1.2498 -2.928,1.7497 -1.928,0.4999 -3.511,0.7498 -4.749,0.7498 -1.405,0 -2.535,-0.3094 -3.392,-0.9284 -0.857,-0.6189 -1.286,-1.4401 -1.286,-2.4637 0,-0.3095 0.04,-0.6428 0.107,-0.9998 l 2.036,-9.6051 -2.643,0 c -0.571,0 -0.857,-0.1905 -0.857,-0.5714 0,-0.5951 0.381,-0.8926 1.143,-0.8926 l 2.678,0 0.893,-4.2491 c 0.142,-0.6427 0.452,-0.9641 0.928,-0.9641 0.405,0 0.607,0.1785 0.607,0.5356 0,0.095 -0.02,0.2381 -0.07,0.4285 l -0.893,4.2491 7.855,0 c 0.548,0 0.822,0.1904 0.822,0.5713 0,0.2618 -0.108,0.4761 -0.322,0.6427 -0.214,0.1667 -0.488,0.25 -0.821,0.25 l -7.856,0 -2.035,9.5337 c -0.05,0.3332 -0.07,0.5475 -0.07,0.6427 0,0.7141 0.309,1.2854 0.928,1.7139 0.619,0.4285 1.452,0.6427 2.5,0.6427 0.999,0 2.094,-0.1309 3.285,-0.3927 1.214,-0.2857 2.202,-0.6309 2.963,-1.0355 0.286,-0.1429 0.5,-0.2143 0.643,-0.2143 0.357,0 0.536,0.2024 0.536,0.607"
           style="font-style:italic;font-variant:normal;font-stretch:normal;fill:#000000;font-family:FreeMono;-inkscape-font-specification:FreeMono"
           id="path3048" />
        <path
           d="m -13499.211,-8486.1231 -0.607,2.9279 c 1.19,-1.2378 2.333,-2.1186 3.428,-2.6423 1.095,-0.5237 2.321,-0.7855 3.678,-0.7855 1.928,0 3.463,0.5475 4.606,1.6425 1.166,1.0712 1.75,2.5114 1.75,4.3205 0,2.3805 -0.964,4.4872 -2.893,6.3201 -1.928,1.833 -4.142,2.7494 -6.641,2.7494 -2.666,0 -4.559,-1.1426 -5.677,-3.4278 l -1.893,8.9624 3.464,0 c 0.571,0 0.857,0.1904 0.857,0.5713 0,0.5951 -0.381,0.8927 -1.143,0.8927 l -6.891,0 c -0.548,0 -0.822,-0.1905 -0.822,-0.5713 0,-0.5952 0.381,-0.8927 1.143,-0.8927 l 1.928,0 3.928,-18.6032 -1.928,0 c -0.548,0 -0.821,-0.1905 -0.821,-0.5714 0,-0.5951 0.38,-0.8926 1.142,-0.8926 l 3.392,0 m 6.142,0.9641 c -2.024,0 -3.821,0.7379 -5.392,2.2138 -1.571,1.4759 -2.357,3.1541 -2.357,5.0346 0,1.4283 0.477,2.5947 1.429,3.4993 0.976,0.9046 2.225,1.3569 3.749,1.3569 2.023,0 3.821,-0.738 5.392,-2.2139 1.595,-1.4758 2.392,-3.166 2.392,-5.0703 0,-1.4283 -0.488,-2.5828 -1.464,-3.4636 -0.952,-0.9045 -2.202,-1.3568 -3.749,-1.3568"
           style="font-style:italic;font-variant:normal;font-stretch:normal;fill:#000000;font-family:FreeMono;-inkscape-font-specification:FreeMono"
           id="path3050" />
        <path
           d="m -13474.73,-8475.3754 0.393,0 c 0.595,0 1.071,0.1667 1.428,0.4999 0.381,0.3333 0.572,0.7737 0.572,1.3212 0,0.7617 -0.31,1.4282 -0.929,1.9995 -0.595,0.5713 -1.285,0.857 -2.071,0.857 l -0.393,0 c -0.595,0 -1.083,-0.1785 -1.464,-0.5356 -0.357,-0.3333 -0.535,-0.7736 -0.535,-1.3211 0,-0.738 0.297,-1.3926 0.892,-1.9639 0.619,-0.5713 1.322,-0.857 2.107,-0.857 m 2.285,-10.7477 0.393,0 c 0.595,0 1.071,0.1785 1.428,0.5356 0.381,0.3333 0.572,0.7736 0.572,1.3211 0,0.738 -0.31,1.4045 -0.929,1.9996 -0.595,0.5713 -1.285,0.857 -2.071,0.857 l -0.392,0 c -0.596,0 -1.083,-0.1666 -1.464,-0.4999 -0.357,-0.3571 -0.536,-0.8094 -0.536,-1.3569 0,-0.7379 0.298,-1.3925 0.893,-1.9639 0.619,-0.5951 1.321,-0.8926 2.106,-0.8926"
           style="font-style:italic;font-variant:normal;font-stretch:normal;fill:#000000;font-family:FreeMono;-inkscape-font-specification:FreeMono"
           id="path3052" />
        <path
           d="m -13442.679,-8493.8358 -16.997,24.8519 c -0.309,0.4285 -0.618,0.6427 -0.928,0.6428 -0.143,-1e-4 -0.274,-0.06 -0.393,-0.1786 -0.119,-0.095 -0.178,-0.2261 -0.178,-0.3928 0,-0.1666 0.09,-0.3927 0.285,-0.6784 l 16.997,-24.8519 c 0.286,-0.4285 0.583,-0.6427 0.893,-0.6427 0.404,0 0.607,0.1904 0.607,0.5713 0,0.1904 -0.1,0.4166 -0.286,0.6784"
           style="font-style:italic;font-variant:normal;font-stretch:normal;fill:#000000;font-family:FreeMono;-inkscape-font-specification:FreeMono"
           id="path3054" />
        <path
           d="m -13421.269,-8493.8358 -16.996,24.8519 c -0.31,0.4285 -0.619,0.6427 -0.929,0.6428 -0.143,-1e-4 -0.274,-0.06 -0.393,-0.1786 -0.119,-0.095 -0.178,-0.2261 -0.178,-0.3928 0,-0.1666 0.09,-0.3927 0.286,-0.6784 l 16.996,-24.8519 c 0.286,-0.4285 0.583,-0.6427 0.893,-0.6427 0.404,0 0.607,0.1904 0.607,0.5713 0,0.1904 -0.1,0.4166 -0.286,0.6784"
           style="font-style:italic;font-variant:normal;font-stretch:normal;fill:#000000;font-family:FreeMono;-inkscape-font-specification:FreeMono"
           id="path3056" />
        <path
           d="m -13406.108,-8471.2334 -1.821,0 -1.249,-9.2481 -5.178,9.2481 -1.821,0 -0.143,-13.4257 -0.678,0 c -0.548,0 -0.821,-0.1905 -0.821,-0.5714 0,-0.5951 0.381,-0.8926 1.142,-0.8926 l 3.964,0 c 0.547,0 0.821,0.1904 0.821,0.5713 0,0.5951 -0.381,0.8927 -1.143,0.8927 l -1.892,0 0.143,11.4261 4.999,-9.1052 1.856,0 1.214,9.1052 4.892,-11.4261 -1.785,0 c -0.548,0 -0.821,-0.1905 -0.821,-0.5714 0,-0.5951 0.381,-0.8926 1.142,-0.8926 l 3.964,0 c 0.547,0 0.821,0.1904 0.821,0.5713 0,0.5951 -0.381,0.8927 -1.143,0.8927 l -0.678,0 -5.785,13.4257"
           style="font-style:italic;font-variant:normal;font-stretch:normal;fill:#000000;font-family:FreeMono;-inkscape-font-specification:FreeMono"
           id="path3058" />
        <path
           d="m -13384.697,-8471.2334 -1.821,0 -1.25,-9.2481 -5.178,9.2481 -1.821,0 -0.143,-13.4257 -0.678,0 c -0.548,0 -0.821,-0.1905 -0.821,-0.5714 0,-0.5951 0.381,-0.8926 1.142,-0.8926 l 3.964,0 c 0.547,0 0.821,0.1904 0.821,0.5713 0,0.5951 -0.381,0.8927 -1.143,0.8927 l -1.892,0 0.143,11.4261 4.999,-9.1052 1.857,0 1.214,9.1052 4.891,-11.4261 -1.785,0 c -0.547,0 -0.821,-0.1905 -0.821,-0.5714 0,-0.5951 0.381,-0.8926 1.142,-0.8926 l 3.964,0 c 0.547,0 0.821,0.1904 0.821,0.5713 0,0.5951 -0.381,0.8927 -1.143,0.8927 l -0.678,0 -5.784,13.4257"
           style="font-style:italic;font-variant:normal;font-stretch:normal;fill:#000000;font-family:FreeMono;-inkscape-font-specification:FreeMono"
           id="path3060" />
        <path
           d="m -13363.287,-8471.2334 -1.821,0 -1.25,-9.2481 -5.178,9.2481 -1.821,0 -0.142,-13.4257 -0.679,0 c -0.547,0 -0.821,-0.1905 -0.821,-0.5714 0,-0.5951 0.381,-0.8926 1.142,-0.8926 l 3.964,0 c 0.547,0 0.821,0.1904 0.821,0.5713 0,0.5951 -0.381,0.8927 -1.142,0.8927 l -1.893,0 0.143,11.4261 4.999,-9.1052 1.857,0 1.214,9.1052 4.891,-11.4261 -1.785,0 c -0.547,0 -0.821,-0.1905 -0.821,-0.5714 0,-0.5951 0.381,-0.8926 1.143,-0.8926 l 3.963,0 c 0.547,0 0.821,0.1904 0.821,0.5713 0,0.5951 -0.381,0.8927 -1.142,0.8927 l -0.679,0 -5.784,13.4257"
           style="font-style:italic;font-variant:normal;font-stretch:normal;fill:#000000;font-family:FreeMono;-inkscape-font-specification:FreeMono"
           id="path3062" />
        <path
           d="m -13346.269,-8475.3754 0.393,0 c 0.595,0 1.071,0.1786 1.428,0.5356 0.381,0.3333 0.571,0.7737 0.571,1.3212 0,0.7379 -0.309,1.3925 -0.928,1.9638 -0.595,0.5713 -1.286,0.857 -2.071,0.857 l -0.393,0 c -0.595,0 -1.083,-0.1785 -1.464,-0.5356 -0.357,-0.3333 -0.536,-0.7736 -0.536,-1.3211 0,-0.738 0.298,-1.3926 0.893,-1.9639 0.619,-0.5713 1.321,-0.857 2.107,-0.857"
           style="font-style:italic;font-variant:normal;font-stretch:normal;fill:#000000;font-family:FreeMono;-inkscape-font-specification:FreeMono"
           id="path3064" />
        <path
           d="m -13318.325,-8483.1952 c 0,-0.3808 -0.416,-0.8093 -1.249,-1.2854 -0.81,-0.4761 -1.821,-0.7141 -3.035,-0.7141 -1.381,0 -2.607,0.3094 -3.678,0.9283 -1.048,0.5952 -1.571,1.2855 -1.571,2.071 0,0.6428 0.357,1.1307 1.071,1.464 0.714,0.3333 1.535,0.5356 2.464,0.607 0.928,0.048 1.952,0.2024 3.07,0.4642 1.119,0.2381 1.964,0.5951 2.536,1.0712 0.809,0.6427 1.214,1.4521 1.214,2.4281 0,1.4997 -0.798,2.797 -2.393,3.892 -1.571,1.095 -3.451,1.6425 -5.641,1.6425 -2.286,0 -4.035,-0.6546 -5.249,-1.9639 -0.215,0.738 -0.441,1.1665 -0.679,1.2855 -0.119,0.048 -0.238,0.071 -0.357,0.071 -0.143,0 -0.274,-0.048 -0.393,-0.1428 -0.119,-0.119 -0.178,-0.25 -0.178,-0.3928 0,-0.1428 0.02,-0.2857 0.07,-0.4285 l 0.607,-2.9636 c 0.143,-0.6428 0.464,-0.9641 0.964,-0.9641 0.167,0 0.298,0.06 0.393,0.1785 0.119,0.095 0.179,0.2143 0.179,0.3571 0,0.095 -0.02,0.2499 -0.07,0.4642 -0.02,0.1904 -0.03,0.3094 -0.03,0.357 0,0.7618 0.464,1.3926 1.392,1.8925 0.928,0.4999 2.107,0.7498 3.535,0.7498 1.714,0 3.178,-0.3689 4.392,-1.1069 1.214,-0.7379 1.821,-1.6187 1.821,-2.6423 0,-1.4759 -1.607,-2.3923 -4.82,-2.7494 -0.667,-0.071 -1.179,-0.1309 -1.536,-0.1785 -0.357,-0.071 -0.833,-0.1786 -1.428,-0.3214 -0.571,-0.1666 -1.012,-0.3452 -1.321,-0.5356 -0.31,-0.2142 -0.595,-0.5118 -0.857,-0.8927 -0.238,-0.3808 -0.357,-0.8212 -0.357,-1.3211 0,-1.3093 0.678,-2.4281 2.035,-3.3565 1.357,-0.9283 3.011,-1.3925 4.963,-1.3925 2.048,0 3.583,0.5475 4.607,1.6425 0.142,-0.7617 0.464,-1.1426 0.964,-1.1426 0.166,0 0.297,0.06 0.392,0.1785 0.119,0.095 0.179,0.2143 0.179,0.3571 0,0.071 -0.02,0.2261 -0.07,0.4642 l -0.499,2.4637 c -0.143,0.6666 -0.465,0.9998 -0.964,0.9998 -0.215,0 -0.405,-0.1428 -0.572,-0.4285 l 0.107,-1.1069"
           style="font-style:italic;font-variant:normal;font-stretch:normal;fill:#000000;font-family:FreeMono;-inkscape-font-specification:FreeMono"
           id="path3066" />
        <path
           d="m -13298.807,-8492.8003 -4.285,20.1029 5.713,0 c 0.572,0 0.857,0.1905 0.857,0.5713 0,0.2619 -0.107,0.4761 -0.321,0.6428 -0.214,0.1666 -0.488,0.2499 -0.821,0.2499 l -12.926,0 c -0.548,0 -0.822,-0.1904 -0.822,-0.5713 0,-0.5951 0.369,-0.8927 1.107,-0.8927 l 5.749,0 3.964,-18.6389 -4.178,0 c -0.548,0 -0.821,-0.1904 -0.821,-0.5713 0,-0.5951 0.381,-0.8927 1.142,-0.8927 l 5.642,0"
           style="font-style:italic;font-variant:normal;font-stretch:normal;fill:#000000;font-family:FreeMono;-inkscape-font-specification:FreeMono"
           id="path3068" />
        <path
           d="m -13286.109,-8484.5877 c 0,-0.5713 0.868,-1.0474 2.606,-1.4283 1.762,-0.4047 3.107,-0.607 4.035,-0.607 1.452,0 2.63,0.3333 3.535,0.9998 0.905,0.6665 1.357,1.5235 1.357,2.5709 0,0.357 -0.02,0.6308 -0.07,0.8212 l -2.036,9.5337 1.928,0 c 0.548,0 0.822,0.1905 0.822,0.5713 0,0.5951 -0.381,0.8927 -1.143,0.8927 l -3.392,0 0.5,-2.3924 c -2.524,1.9758 -4.999,2.9637 -7.427,2.9637 -1.476,0 -2.631,-0.3214 -3.464,-0.9641 -0.833,-0.6665 -1.25,-1.5711 -1.25,-2.7137 0,-1.7377 0.834,-3.1898 2.5,-4.3562 1.69,-1.1664 3.773,-1.7496 6.249,-1.7496 1.38,0 2.951,0.2499 4.713,0.7498 l 0.536,-2.5352 c 0.02,-0.119 0.04,-0.2856 0.04,-0.4999 0,-0.7379 -0.345,-1.3211 -1.035,-1.7496 -0.691,-0.4523 -1.619,-0.6784 -2.785,-0.6784 -1.072,0 -2.238,0.1904 -3.5,0.5713 -1.261,0.3809 -1.987,0.5713 -2.178,0.5713 -0.143,0 -0.274,-0.048 -0.393,-0.1428 -0.09,-0.1191 -0.142,-0.2619 -0.142,-0.4285 m 8.498,9.3551 0.678,-3.2136 c -1.38,-0.357 -2.868,-0.5356 -4.463,-0.5356 -2.047,0 -3.761,0.4166 -5.142,1.2498 -1.381,0.8093 -2.071,1.8329 -2.071,3.0708 0,0.8093 0.298,1.4401 0.893,1.8924 0.595,0.4285 1.44,0.6427 2.535,0.6427 1.285,0 2.499,-0.2261 3.642,-0.6784 1.143,-0.4761 2.452,-1.2854 3.928,-2.4281"
           style="font-style:italic;font-variant:normal;font-stretch:normal;fill:#000000;font-family:FreeMono;-inkscape-font-specification:FreeMono"
           id="path3070" />
        <path
           d="m -13252.202,-8474.4827 c 0,0.238 -0.238,0.5713 -0.714,0.9998 -0.476,0.4047 -1.107,0.8212 -1.892,1.2497 -0.762,0.4285 -1.738,0.7975 -2.928,1.1069 -1.167,0.3333 -2.345,0.4999 -3.535,0.4999 -1.881,0 -3.428,-0.5594 -4.642,-1.6782 -1.191,-1.1426 -1.786,-2.5947 -1.786,-4.3562 0,-2.6661 1,-4.999 3,-6.9986 2.023,-1.9995 4.38,-2.9993 7.07,-2.9993 2.261,0 4.023,0.6665 5.284,1.9996 0.07,-0.3333 0.131,-0.5713 0.179,-0.7142 0.05,-0.1428 0.143,-0.2975 0.285,-0.4642 0.143,-0.1904 0.334,-0.2856 0.572,-0.2856 0.166,0 0.297,0.06 0.393,0.1785 0.119,0.095 0.178,0.2143 0.178,0.3571 0,0.024 -0.02,0.1785 -0.07,0.4642 l -0.679,3.2493 c -0.143,0.6665 -0.452,0.9998 -0.928,0.9998 -0.238,0 -0.441,-0.1428 -0.607,-0.4285 l 0.107,-1.2855 c 0,-0.2142 -0.167,-0.5117 -0.5,-0.8926 -0.333,-0.3809 -0.916,-0.7618 -1.75,-1.1426 -0.833,-0.3809 -1.773,-0.5713 -2.82,-0.5713 -1.524,0 -2.869,0.3332 -4.035,0.9997 -1.143,0.6428 -2,1.4402 -2.571,2.3924 -0.548,0.9522 -0.952,1.8449 -1.214,2.678 -0.262,0.8094 -0.393,1.5116 -0.393,2.1067 0,1.4521 0.5,2.6423 1.5,3.5707 1,0.9046 2.273,1.3568 3.82,1.3568 2.738,0 5.202,-0.8688 7.392,-2.6066 0.309,-0.2618 0.547,-0.3927 0.714,-0.3927 0.119,0 0.238,0.071 0.357,0.2142 0.143,0.119 0.214,0.25 0.214,0.3928"
           style="font-style:italic;font-variant:normal;font-stretch:normal;fill:#000000;font-family:FreeMono;-inkscape-font-specification:FreeMono"
           id="path3072" />
        <path
           d="m -13242.646,-8477.6606 -1.357,6.4272 -3.392,0 c -0.548,0 -0.822,-0.2023 -0.822,-0.607 0,-0.5713 0.381,-0.857 1.143,-0.857 l 1.928,0 3.964,-18.6389 -1.929,0 c -0.547,0 -0.821,-0.2023 -0.821,-0.607 0,-0.5713 0.369,-0.857 1.107,-0.857 l 3.428,0 -2.857,13.3901 7.285,-5.2489 -0.786,0 c -0.548,0 -0.821,-0.2024 -0.821,-0.6071 0,-0.5713 0.381,-0.8569 1.142,-0.8569 l 4.607,0 c 0.571,0 0.856,0.2023 0.856,0.607 0,0.2619 -0.107,0.4761 -0.321,0.6427 -0.214,0.1429 -0.488,0.2143 -0.821,0.2143 l -1.678,0 -6.606,4.6775 5.856,7.2842 1.607,0 c 0.547,0 0.821,0.1905 0.821,0.5713 0,0.2619 -0.107,0.4761 -0.322,0.6428 -0.214,0.1666 -0.488,0.2499 -0.821,0.2499 l -4.677,0 c -0.548,0 -0.822,-0.2023 -0.822,-0.607 0,-0.5713 0.381,-0.857 1.143,-0.857 l 1,0 -5.071,-6.3558 -1.963,1.3926"
           style="font-style:italic;font-variant:normal;font-stretch:normal;fill:#000000;font-family:FreeMono;-inkscape-font-specification:FreeMono"
           id="path3074" />
        <path
           d="m -13213.417,-8471.2334 -1.821,0 -1.249,-9.2481 -5.178,9.2481 -1.821,0 -0.143,-13.4257 -0.678,0 c -0.548,0 -0.821,-0.1905 -0.821,-0.5714 0,-0.5951 0.381,-0.8926 1.142,-0.8926 l 3.964,0 c 0.547,0 0.821,0.1904 0.821,0.5713 0,0.5951 -0.381,0.8927 -1.143,0.8927 l -1.892,0 0.143,11.4261 4.999,-9.1052 1.856,0 1.214,9.1052 4.892,-11.4261 -1.785,0 c -0.548,0 -0.821,-0.1905 -0.821,-0.5714 0,-0.5951 0.381,-0.8926 1.142,-0.8926 l 3.964,0 c 0.547,0 0.821,0.1904 0.821,0.5713 0,0.5951 -0.381,0.8927 -1.143,0.8927 l -0.678,0 -5.785,13.4257"
           style="font-style:italic;font-variant:normal;font-stretch:normal;fill:#000000;font-family:FreeMono;-inkscape-font-specification:FreeMono"
           id="path3076" />
        <path
           d="m -13200.469,-8484.5877 c 0,-0.5713 0.869,-1.0474 2.607,-1.4283 1.761,-0.4047 3.106,-0.607 4.035,-0.607 1.452,0 2.63,0.3333 3.535,0.9998 0.904,0.6665 1.356,1.5235 1.356,2.5709 0,0.357 -0.02,0.6308 -0.07,0.8212 l -2.035,9.5337 1.928,0 c 0.547,0 0.821,0.1905 0.821,0.5713 0,0.5951 -0.381,0.8927 -1.143,0.8927 l -3.392,0 0.5,-2.3924 c -2.523,1.9758 -4.999,2.9637 -7.427,2.9637 -1.476,0 -2.63,-0.3214 -3.463,-0.9641 -0.833,-0.6665 -1.25,-1.5711 -1.25,-2.7137 0,-1.7377 0.833,-3.1898 2.499,-4.3562 1.691,-1.1664 3.773,-1.7496 6.249,-1.7496 1.381,0 2.952,0.2499 4.713,0.7498 l 0.536,-2.5352 c 0.02,-0.119 0.04,-0.2856 0.04,-0.4999 0,-0.7379 -0.345,-1.3211 -1.036,-1.7496 -0.69,-0.4523 -1.619,-0.6784 -2.785,-0.6784 -1.071,0 -2.238,0.1904 -3.499,0.5713 -1.262,0.3809 -1.988,0.5713 -2.178,0.5713 -0.143,0 -0.274,-0.048 -0.393,-0.1428 -0.1,-0.1191 -0.143,-0.2619 -0.143,-0.4285 m 8.498,9.3551 0.679,-3.2136 c -1.381,-0.357 -2.869,-0.5356 -4.464,-0.5356 -2.047,0 -3.761,0.4166 -5.141,1.2498 -1.381,0.8093 -2.071,1.8329 -2.071,3.0708 0,0.8093 0.297,1.4401 0.892,1.8924 0.595,0.4285 1.44,0.6427 2.535,0.6427 1.286,0 2.5,-0.2261 3.643,-0.6784 1.142,-0.4761 2.451,-1.2854 3.927,-2.4281"
           style="font-style:italic;font-variant:normal;font-stretch:normal;fill:#000000;font-family:FreeMono;-inkscape-font-specification:FreeMono"
           id="path3078" />
        <path
           d="m -13165.24,-8483.5165 c -0.143,0 -0.453,-0.25 -0.929,-0.7499 -0.476,-0.4999 -1.023,-0.7498 -1.642,-0.7498 -0.81,0 -1.714,0.2857 -2.714,0.857 -1,0.5713 -2.666,1.7615 -4.999,3.5706 l -1.678,7.8912 6.391,0 c 0.548,0 0.822,0.2024 0.822,0.607 0,0.2619 -0.107,0.4761 -0.322,0.6428 -0.214,0.1428 -0.488,0.2142 -0.821,0.2142 l -11.283,0 c -0.548,0 -0.821,-0.2023 -0.821,-0.607 0,-0.2619 0.107,-0.4642 0.321,-0.607 0.214,-0.1667 0.488,-0.25 0.821,-0.25 l 3.428,0 2.535,-11.9617 -2.642,0 c -0.548,0 -0.821,-0.2024 -0.821,-0.6071 0,-0.238 0.09,-0.4403 0.285,-0.607 0.214,-0.1666 0.488,-0.2499 0.822,-0.2499 l 4.141,0 -0.785,3.6421 c 2,-1.5235 3.559,-2.5709 4.678,-3.1422 1.118,-0.5713 2.142,-0.857 3.07,-0.857 0.881,0 1.619,0.2738 2.214,0.8213 0.595,0.5237 0.893,0.9403 0.893,1.2497 0,0.2143 -0.107,0.4166 -0.322,0.607 -0.19,0.1905 -0.404,0.2857 -0.642,0.2857"
           style="font-style:italic;font-variant:normal;font-stretch:normal;fill:#000000;font-family:FreeMono;-inkscape-font-specification:FreeMono"
           id="path3080" />
        <path
           d="m -13146.008,-8473.7329 c 0,0.6189 -0.941,1.2855 -2.821,1.9996 -1.857,0.7141 -3.666,1.0712 -5.428,1.0712 -2.071,0 -3.761,-0.6189 -5.07,-1.8567 -1.285,-1.2379 -1.928,-2.8447 -1.928,-4.8205 0,-2.4518 1,-4.6061 2.999,-6.4629 2,-1.8805 4.321,-2.8208 6.963,-2.8208 1.952,0 3.547,0.5713 4.785,1.7139 1.261,1.1188 1.892,2.559 1.892,4.3205 0,0.5475 -0.09,1.2974 -0.285,2.2496 l -14.854,0 c -0.02,0.238 -0.04,0.4999 -0.04,0.7855 0,1.5949 0.547,2.9042 1.642,3.9277 1.095,0.9998 2.512,1.4997 4.25,1.4997 1.118,0 2.297,-0.1785 3.535,-0.5356 1.261,-0.357 2.32,-0.8212 3.177,-1.3925 0.31,-0.1667 0.524,-0.25 0.643,-0.25 0.357,0 0.536,0.1905 0.536,0.5713 m -13.426,-6.0701 13.354,0 c 0.02,-0.119 0.04,-0.2619 0.04,-0.4285 0,-1.4521 -0.524,-2.6304 -1.571,-3.535 -1.024,-0.9283 -2.345,-1.3925 -3.964,-1.3925 -1.737,0 -3.32,0.488 -4.749,1.4639 -1.404,0.9522 -2.439,2.2496 -3.106,3.8921"
           style="font-style:italic;font-variant:normal;font-stretch:normal;fill:#000000;font-family:FreeMono;-inkscape-font-specification:FreeMono"
           id="path3082" />
        <path
           d="m -13132.168,-8475.3754 0.393,0 c 0.595,0 1.071,0.1786 1.428,0.5356 0.381,0.3333 0.571,0.7737 0.571,1.3212 0,0.7379 -0.309,1.3925 -0.928,1.9638 -0.595,0.5713 -1.285,0.857 -2.071,0.857 l -0.393,0 c -0.595,0 -1.083,-0.1785 -1.464,-0.5356 -0.357,-0.3333 -0.535,-0.7736 -0.535,-1.3211 0,-0.738 0.297,-1.3926 0.892,-1.9639 0.619,-0.5713 1.321,-0.857 2.107,-0.857"
           style="font-style:italic;font-variant:normal;font-stretch:normal;fill:#000000;font-family:FreeMono;-inkscape-font-specification:FreeMono"
           id="path3084" />
        <path
           d="m -13102.331,-8474.4827 c 0,0.238 -0.238,0.5713 -0.714,0.9998 -0.476,0.4047 -1.107,0.8212 -1.893,1.2497 -0.761,0.4285 -1.737,0.7975 -2.928,1.1069 -1.166,0.3333 -2.344,0.4999 -3.535,0.4999 -1.88,0 -3.427,-0.5594 -4.641,-1.6782 -1.191,-1.1426 -1.786,-2.5947 -1.786,-4.3562 0,-2.6661 1,-4.999 3,-6.9986 2.023,-1.9995 4.38,-2.9993 7.069,-2.9993 2.262,0 4.023,0.6665 5.285,1.9996 0.07,-0.3333 0.131,-0.5713 0.179,-0.7142 0.05,-0.1428 0.142,-0.2975 0.285,-0.4642 0.143,-0.1904 0.334,-0.2856 0.572,-0.2856 0.166,0 0.297,0.06 0.392,0.1785 0.119,0.095 0.179,0.2143 0.179,0.3571 0,0.024 -0.02,0.1785 -0.07,0.4642 l -0.678,3.2493 c -0.143,0.6665 -0.452,0.9998 -0.928,0.9998 -0.238,0 -0.441,-0.1428 -0.607,-0.4285 l 0.107,-1.2855 c 0,-0.2142 -0.167,-0.5117 -0.5,-0.8926 -0.333,-0.3809 -0.917,-0.7618 -1.75,-1.1426 -0.833,-0.3809 -1.773,-0.5713 -2.821,-0.5713 -1.523,0 -2.868,0.3332 -4.034,0.9997 -1.143,0.6428 -2,1.4402 -2.571,2.3924 -0.548,0.9522 -0.953,1.8449 -1.214,2.678 -0.262,0.8094 -0.393,1.5116 -0.393,2.1067 0,1.4521 0.5,2.6423 1.5,3.5707 0.999,0.9046 2.273,1.3568 3.82,1.3568 2.738,0 5.201,-0.8688 7.391,-2.6066 0.31,-0.2618 0.548,-0.3927 0.715,-0.3927 0.119,0 0.238,0.071 0.357,0.2142 0.142,0.119 0.214,0.25 0.214,0.3928"
           style="font-style:italic;font-variant:normal;font-stretch:normal;fill:#000000;font-family:FreeMono;-inkscape-font-specification:FreeMono"
           id="path3086" />
        <path
           d="m -13086.777,-8486.623 c 1.976,0 3.571,0.5951 4.785,1.7853 1.238,1.1903 1.857,2.7256 1.857,4.6062 0,2.4757 -1.024,4.6895 -3.071,6.6415 -2.047,1.9519 -4.368,2.9279 -6.963,2.9279 -1.952,0 -3.547,-0.5951 -4.785,-1.7853 -1.214,-1.1903 -1.821,-2.7137 -1.821,-4.5705 0,-2.4757 1.024,-4.6895 3.071,-6.6415 2.047,-1.9757 4.356,-2.9636 6.927,-2.9636 m -0.321,1.464 c -2.119,0 -4.011,0.7974 -5.678,2.3923 -1.666,1.5949 -2.499,3.4041 -2.499,5.4274 0,1.5235 0.5,2.7733 1.5,3.7493 1.023,0.9759 2.332,1.4639 3.927,1.4639 2.119,0 4.011,-0.7974 5.678,-2.3923 1.69,-1.5949 2.535,-3.4041 2.535,-5.4275 0,-1.5472 -0.512,-2.797 -1.535,-3.7492 -1,-0.9759 -2.31,-1.4639 -3.928,-1.4639"
           style="font-style:italic;font-variant:normal;font-stretch:normal;fill:#000000;font-family:FreeMono;-inkscape-font-specification:FreeMono"
           id="path3088" />
        <path
           d="m -13072.151,-8486.1231 -0.393,1.8567 c 1.428,-1.5711 2.845,-2.3566 4.249,-2.3566 1.524,0 2.5,0.8451 2.928,2.5352 1.667,-1.6901 3.19,-2.5352 4.571,-2.5352 0.88,0 1.595,0.2857 2.142,0.8569 0.571,0.5714 0.857,1.3093 0.857,2.2139 0,0.238 -0.04,0.4999 -0.107,0.7855 l -2.107,10.0693 1.214,0 c 0.548,0 0.822,0.1905 0.822,0.5713 0,0.2619 -0.108,0.4761 -0.322,0.6428 -0.214,0.1666 -0.488,0.2499 -0.821,0.2499 l -2.642,0 2.428,-11.3905 c 0.02,-0.119 0.03,-0.2856 0.03,-0.4999 0,-0.5712 -0.178,-1.0473 -0.535,-1.4282 -0.357,-0.4047 -0.798,-0.607 -1.321,-0.607 -1.214,0 -2.666,0.976 -4.357,2.9279 l -1.999,9.5337 1.214,0 c 0.547,0 0.821,0.1905 0.821,0.5713 0,0.5951 -0.381,0.8927 -1.143,0.8927 l -2.642,0 2.393,-11.2833 c 0.05,-0.2857 0.07,-0.4761 0.07,-0.5713 0,-0.5713 -0.179,-1.0593 -0.536,-1.464 -0.357,-0.4047 -0.785,-0.607 -1.285,-0.607 -1.214,0 -2.666,0.976 -4.356,2.9279 l -2.036,9.5337 1.214,0 c 0.548,0 0.822,0.1905 0.822,0.5713 0,0.2619 -0.107,0.4761 -0.322,0.6428 -0.214,0.1666 -0.488,0.2499 -0.821,0.2499 l -3.892,0 c -0.524,0 -0.786,-0.1904 -0.786,-0.5713 0,-0.5951 0.381,-0.8927 1.143,-0.8927 l 1.214,0 2.535,-11.9617 -1.214,0 c -0.547,0 -0.821,-0.1905 -0.821,-0.5714 0,-0.5951 0.381,-0.8926 1.143,-0.8926 l 2.642,0"
           style="font-style:italic;font-variant:normal;font-stretch:normal;fill:#000000;font-family:FreeMono;-inkscape-font-specification:FreeMono"
           id="path3090" />
      </g>
    </g>
  </g>
</svg>
