<?xml version="1.0" encoding="UTF-8" standalone="no"?>
<!-- Created with Inkscape (http://www.inkscape.org/) -->

<!-- 
 
 SLACKWARE LINUX GRAPHICS PROJECT: 

 Slackware Linux Graphics Project aims to provide a set of visual components related to GNU/Linux Slackware in both vector and 
 raster graphics formats for its users. 
 
 LEGAL DISCLAIMER: 

 Graphics in this project are all free artwork; you can use them, redistribute them and/or modify them under the *related* terms 
 explained in Slackware Linux Propaganda Graphics FAQ section on Slackware Linux home page. 

 You should have received a copy of the Slackware Linux Propaganda Graphics FAQ text 
 along with this artwork package. If not, see "http://www.slackware.com/". 

 This artwork package is distributed in the hope that it will be useful, but WITHOUT ANY WARRANTY. 

 Slackware Linux Graphics Project does not officially represent neither Linux nor Slackware Linux in any way. 
 Linux is a registered trademark of Linus Torvalds. Slackware Linux is a registered trademark of Slackware Linux, Inc. 
 and Patrick Volkerding. 
 
 DOWNLOAD INFORMATION: 

 You can download more recent versions of the Slackware Linux Graphics from the project's blog 
 at "http://www.slackware-linux-graphics.blogspot.com/". 

 OPINIONS AND SUGGESTIONS: 
 
 Please contact with the project for your opinions and suggestions related to Slackware Linux Graphics. 
 
 CONTACT INFORMATION: 
 
 Maintainer: Ismail Demiral 
 E-Mail: slackware.linux.graphics@gmail.com 
 Blog: http://www.slackware-linux-graphics.blogspot.com/ 
 
 -->

<svg
   xmlns:dc="http://purl.org/dc/elements/1.1/"
   xmlns:cc="http://creativecommons.org/ns#"
   xmlns:rdf="http://www.w3.org/1999/02/22-rdf-syntax-ns#"
   xmlns:svg="http://www.w3.org/2000/svg"
   xmlns="http://www.w3.org/2000/svg"
   xmlns:sodipodi="http://sodipodi.sourceforge.net/DTD/sodipodi-0.dtd"
   xmlns:inkscape="http://www.inkscape.org/namespaces/inkscape"
   width="512.05365"
   height="402.69321"
   id="svg6422"
   version="1.1"
   inkscape:version="0.48.4 r9939"
   sodipodi:docname="Slackware.Linux.Superman.Logo_FreeMono.svg">
  <defs
     id="defs6424">
    <filter
       inkscape:collect="always"
       id="filter7036"
       color-interpolation-filters="sRGB">
      <feGaussianBlur
         inkscape:collect="always"
         stdDeviation="7.186725"
         id="feGaussianBlur7038" />
    </filter>
  </defs>
  <sodipodi:namedview
     id="base"
     pagecolor="#ffffff"
     bordercolor="#666666"
     borderopacity="1.0"
     inkscape:pageopacity="0.0"
     inkscape:pageshadow="2"
     inkscape:zoom="0.35"
     inkscape:cx="101.67588"
     inkscape:cy="118.07781"
     inkscape:document-units="px"
     inkscape:current-layer="layer1"
     showgrid="false"
     inkscape:window-width="1366"
     inkscape:window-height="721"
     inkscape:window-x="-2"
     inkscape:window-y="-3"
     inkscape:window-maximized="1"
     fit-margin-top="0"
     fit-margin-left="0"
     fit-margin-right="0"
     fit-margin-bottom="0" />
  <metadata
     id="metadata6427">
    <rdf:RDF>
      <cc:Work
         rdf:about="">
        <dc:format>image/svg+xml</dc:format>
        <dc:type
           rdf:resource="http://purl.org/dc/dcmitype/StillImage" />
        <dc:title></dc:title>
      </cc:Work>
    </rdf:RDF>
  </metadata>
  <g
     inkscape:label="Layer 1"
     inkscape:groupmode="layer"
     id="layer1"
     transform="translate(182.83914,-169.80334)">
    <g
       id="g28875"
       transform="matrix(0.56820418,0,0,0.56820418,16862.345,2163.6311)"
       inkscape:export-filename="Slackware.Linux.Superman.Logo_Free.Mono_512x403.png"
       inkscape:export-xdpi="89.988663"
       inkscape:export-ydpi="89.988663">
      <path
         transform="matrix(2.4834417,0,0,2.4834417,-30345.094,-4154.7712)"
         style="fill-rule:evenodd;stroke:#000000;stroke-width:0.5"
         d="m 502.235,324.726 -0.929,9.696 -177.779,210.613 -182.729,-205.086 -0.9,-9.235 60.532,-60.417 0,0 235.38,0 z"
         id="polygon28813"
         inkscape:connector-curvature="0" />
      <path
         transform="matrix(2.4834417,0,0,2.4834417,-30345.094,-4154.7712)"
         style="fill:#5569b9;fill-opacity:1;fill-rule:evenodd;stroke:#000000;stroke-width:0.75"
         d="m 200.429,260.398 235.381,0 65.496,64.125 L 323.53,535.137 140.798,330.051 200.429,260.398 z"
         id="polygon28815"
         inkscape:connector-curvature="0" />
      <g
         transform="matrix(1.3254932,0,0,1.3254932,-10413.871,7005.9046)"
         id="g28864">
        <path
           style="fill:#ffffff;fill-opacity:1;stroke:#ffffff;stroke-width:5;stroke-miterlimit:4;stroke-dasharray:none;filter:url(#filter7036)"
           d="m -14430.97,-7904.2287 c -52.404,0 -91.718,32.1285 -91.718,74.8125 0,24.089 13.103,46.4629 34.656,58.7188 41.416,23.2438 114.125,13.1224 114.125,50.3124 0,18.1725 -24.509,32.125 -55.781,32.125 -27.894,0 -54.524,-12.2546 -58.75,-27.4687 -1.267,-4.2262 -2.968,-20.3125 -21.563,-20.3125 -16.904,0 -21.125,11.0018 -21.125,27.9062 l 0,27.9063 c 0,19.0176 6.771,27.875 21.562,27.875 6.763,0 9.723,-1.6727 16.907,-10.125 20.708,10.988 43.085,16.4688 65.906,16.4687 57.898,0 96.781,-29.5793 96.781,-73.5312 0,-21.9759 -8.032,-39.32 -24.937,-52.8438 -40.148,-32.1185 -123.813,-15.6299 -123.813,-57.4687 0,-18.1724 21.125,-32.125 47.75,-32.125 26.202,0 46.478,11.4079 50.282,28.3125 1.69,8.0296 2.561,22.8438 21.156,22.8438 17.327,0 20.687,-13.0985 20.687,-28.3126 l 0,-37.1874 c 0,-14.7915 -2.092,-27.9063 -20.687,-27.9063 -8.453,0 -12.274,3.3721 -16.5,13.9375 -14.792,-9.2975 -33.385,-13.9375 -54.938,-13.9375 z m -141.812,208.875 0,80.7187 0,10.4063 10.406,0 264.532,0 0,-10.4063 -264.532,0 0,-80.7187 -10.406,0 z"
           id="path28866"
           inkscape:connector-curvature="0" />
        <path
           inkscape:connector-curvature="0"
           id="path28868"
           d="m -14430.97,-7904.2287 c -52.404,0 -91.718,32.1285 -91.718,74.8125 0,24.089 13.103,46.4629 34.656,58.7188 41.416,23.2438 114.125,13.1224 114.125,50.3124 0,18.1725 -24.509,32.125 -55.781,32.125 -27.894,0 -54.524,-12.2546 -58.75,-27.4687 -1.267,-4.2262 -2.968,-20.3125 -21.563,-20.3125 -16.904,0 -21.125,11.0018 -21.125,27.9062 l 0,27.9063 c 0,19.0176 6.771,27.875 21.562,27.875 6.763,0 9.723,-1.6727 16.907,-10.125 20.708,10.988 43.085,16.4688 65.906,16.4687 57.898,0 96.781,-29.5793 96.781,-73.5312 0,-21.9759 -8.032,-39.32 -24.937,-52.8438 -40.148,-32.1185 -123.813,-15.6299 -123.813,-57.4687 0,-18.1724 21.125,-32.125 47.75,-32.125 26.202,0 46.478,11.4079 50.282,28.3125 1.69,8.0296 2.561,22.8438 21.156,22.8438 17.327,0 20.687,-13.0985 20.687,-28.3126 l 0,-37.1874 c 0,-14.7915 -2.092,-27.9063 -20.687,-27.9063 -8.453,0 -12.274,3.3721 -16.5,13.9375 -14.792,-9.2975 -33.385,-13.9375 -54.938,-13.9375 z m -141.812,208.875 0,80.7187 0,10.4063 10.406,0 264.532,0 0,-10.4063 -264.532,0 0,-80.7187 -10.406,0 z"
           style="fill:#000000;fill-opacity:1;stroke:#ffffff;stroke-width:3;stroke-miterlimit:4;stroke-dasharray:none" />
      </g>
    </g>
  </g>
</svg>
