<?xml version="1.0" encoding="UTF-8" standalone="no"?>
<!-- Created with Inkscape (http://www.inkscape.org/) -->

<!-- 
 
 SLACKWARE LINUX GRAPHICS PROJECT: 

 Slackware Linux Graphics Project aims to provide a set of visual components related to GNU/Linux Slackware in both vector and 
 raster graphics formats for its users. 
 
 LEGAL DISCLAIMER: 

 Graphics in this project are all free artwork; you can use them, redistribute them and/or modify them under the *related* terms 
 explained in Slackware Linux Propaganda Graphics FAQ section on Slackware Linux home page. 

 You should have received a copy of the Slackware Linux Propaganda Graphics FAQ text 
 along with this artwork package. If not, see "http://www.slackware.com/". 

 This artwork package is distributed in the hope that it will be useful, but WITHOUT ANY WARRANTY. 

 Slackware Linux Graphics Project does not officially represent neither Linux nor Slackware Linux in any way. 
 Linux is a registered trademark of Linus Torvalds. Slackware Linux is a registered trademark of Slackware Linux, Inc. 
 and Patrick Volkerding. 
 
 DOWNLOAD INFORMATION: 

 You can download more recent versions of the Slackware Linux Graphics from the project's blog 
 at "http://www.slackware-linux-graphics.blogspot.com/". 

 OPINIONS AND SUGGESTIONS: 
 
 Please contact with the project for your opinions and suggestions related to Slackware Linux Graphics. 
 
 CONTACT INFORMATION: 
 
 Maintainer: Ismail Demiral 
 E-Mail: slackware.linux.graphics@gmail.com 
 Blog: http://www.slackware-linux-graphics.blogspot.com/ 
 
 -->

<svg
   xmlns:dc="http://purl.org/dc/elements/1.1/"
   xmlns:cc="http://creativecommons.org/ns#"
   xmlns:rdf="http://www.w3.org/1999/02/22-rdf-syntax-ns#"
   xmlns:svg="http://www.w3.org/2000/svg"
   xmlns="http://www.w3.org/2000/svg"
   xmlns:sodipodi="http://sodipodi.sourceforge.net/DTD/sodipodi-0.dtd"
   xmlns:inkscape="http://www.inkscape.org/namespaces/inkscape"
   width="511.99997"
   height="104.4382"
   id="svg28587"
   version="1.1"
   inkscape:version="0.48.3.1 r9886"
   sodipodi:docname="Slackware.Linux.slack390.Logo_FreeMono.svg">
  <defs
     id="defs28589" />
  <sodipodi:namedview
     id="base"
     pagecolor="#ffffff"
     bordercolor="#666666"
     borderopacity="1.0"
     inkscape:pageopacity="0.0"
     inkscape:pageshadow="2"
     inkscape:zoom="0.98994949"
     inkscape:cx="361.25652"
     inkscape:cy="-5.1536218"
     inkscape:document-units="px"
     inkscape:current-layer="layer1"
     showgrid="false"
     inkscape:window-width="1366"
     inkscape:window-height="721"
     inkscape:window-x="-2"
     inkscape:window-y="-3"
     inkscape:window-maximized="1"
     fit-margin-top="0"
     fit-margin-left="0"
     fit-margin-right="0"
     fit-margin-bottom="0" />
  <metadata
     id="metadata28592">
    <rdf:RDF>
      <cc:Work
         rdf:about="">
        <dc:format>image/svg+xml</dc:format>
        <dc:type
           rdf:resource="http://purl.org/dc/dcmitype/StillImage" />
        <dc:title></dc:title>
      </cc:Work>
    </rdf:RDF>
  </metadata>
  <g
     inkscape:label="Layer 1"
     inkscape:groupmode="layer"
     id="layer1"
     transform="translate(-44.078836,28.09926)">
    <g
       transform="matrix(1.0000019,0,0,1.0000019,14341.12,14845.749)"
       id="g25620"
       inkscape:export-filename="Slackware.Linux.slack390.Logo_FreeMono_512x104.png"
       inkscape:export-xdpi="89.999954"
       inkscape:export-ydpi="89.999954">
      <g
         style="font-size:20.49142647px;font-style:normal;font-weight:normal;line-height:125%;letter-spacing:0px;word-spacing:0px;fill:#000000;fill-opacity:1;stroke:none;font-family:Sans"
         id="text25622">
        <path
           d="m -13979.429,-14790.996 c 0,1.512 1.107,1.844 2.471,1.844 l 2.877,0 0,15.602 -4.5,0 c -1.438,0 -2.434,0.332 -2.434,1.844 0,0.775 0.369,1.845 2.434,1.845 l 12.689,0 c 1.438,0 2.434,-0.443 2.434,-1.845 0,-1.549 -1.143,-1.844 -2.434,-1.844 l -4.5,0 0,-19.29 -6.566,0 c -1.438,0 -2.471,0.295 -2.471,1.844"
           style="font-size:36.88457108px;font-variant:normal;font-weight:bold;font-stretch:normal;text-align:center;text-anchor:middle;fill:#000000;font-family:FreeMono;-inkscape-font-specification:FreeMono"
           id="path3031"
           inkscape:connector-curvature="0" />
        <path
           d="m -13919.225,-14771.706 c 0,-1.549 -1.144,-1.844 -2.435,-1.844 l -4.5,0 0,-12.43 -6.565,0 c -1.365,0 -2.471,0.258 -2.471,1.844 0,1.476 1.106,1.845 2.471,1.845 l 2.877,0 0,8.741 -4.5,0 c -1.438,0 -2.434,0.332 -2.434,1.844 0,0.775 0.369,1.845 2.434,1.845 l 12.688,0 c 1.439,0 2.435,-0.443 2.435,-1.845 m -7.451,-21.134 -4.352,0 0,3.872 4.352,0 0,-3.872"
           style="font-size:36.88457108px;font-variant:normal;font-weight:bold;font-stretch:normal;text-align:center;text-anchor:middle;fill:#000000;font-family:FreeMono;-inkscape-font-specification:FreeMono"
           id="path3033"
           inkscape:connector-curvature="0" />
        <path
           d="m -13893.988,-14771.706 c 0,1.402 0.996,1.845 2.434,1.845 l 4.131,0 c 1.291,0 2.435,-0.332 2.435,-1.845 0,-1.549 -1.144,-1.844 -2.435,-1.844 l -0.221,0 0,-6.713 c 1.734,-1.881 2.914,-2.508 4.611,-2.508 2.286,0 3.319,0.848 3.319,2.656 l 0,6.565 c -1.438,0 -2.25,0.664 -2.25,1.844 0,1.218 0.812,1.845 2.471,1.845 l 3.283,0 c 1.365,0 2.435,-0.369 2.435,-1.845 0,-1.18 -0.812,-1.844 -2.25,-1.844 l 0,-6.713 c 0,-4.057 -2.877,-6.196 -6.566,-6.196 -2.028,0 -3.283,0.553 -5.053,2.25 l 0,-1.771 -3.467,0 c -1.439,0 -2.471,0.516 -2.471,1.844 0,1.181 0.811,1.808 2.25,1.845 l 0,8.741 -0.222,0 c -1.328,0 -2.434,0.332 -2.434,1.844"
           style="font-size:36.88457108px;font-variant:normal;font-weight:bold;font-stretch:normal;text-align:center;text-anchor:middle;fill:#000000;font-family:FreeMono;-inkscape-font-specification:FreeMono"
           id="path3035"
           inkscape:connector-curvature="0" />
        <path
           d="m -13837.141,-14782.291 0.369,0 1.291,0 0,6.713 c -1.918,2.028 -2.84,2.508 -4.684,2.508 -2.214,0 -3.246,-0.849 -3.246,-2.656 l 0,-10.254 -4.279,0 c -1.438,0 -2.434,0.332 -2.434,1.844 0,1.07 0.811,1.845 2.028,1.845 l 0.996,0 0,6.676 c 0,4.057 2.84,6.233 6.566,6.233 2.028,0 3.209,-0.516 5.053,-2.25 l 0,1.771 3.504,0 c 1.291,0 2.434,-0.332 2.434,-1.845 0,-1.18 -0.811,-1.844 -2.25,-1.844 l 0,-12.43 -4.979,0 c -1.365,0 -2.434,0.332 -2.434,1.844 0,0.701 0.405,1.845 2.065,1.845"
           style="font-size:36.88457108px;font-variant:normal;font-weight:bold;font-stretch:normal;text-align:center;text-anchor:middle;fill:#000000;font-family:FreeMono;-inkscape-font-specification:FreeMono"
           id="path3037"
           inkscape:connector-curvature="0" />
        <path
           d="m -13799.068,-14785.98 -3.393,0 c -1.402,0 -2.435,0.516 -2.435,1.844 0,1.07 0.701,1.734 1.918,1.845 l 4.721,4.02 -5.348,4.721 c -1.254,0.07 -1.992,0.738 -1.992,1.844 0,1.218 0.812,1.845 2.435,1.845 l 4.094,0 c 1.623,0 2.434,-0.627 2.434,-1.881 0,-0.886 -0.368,-1.365 -1.401,-1.808 l 2.692,-2.25 2.767,2.25 c -0.922,0.258 -1.476,0.959 -1.476,1.808 0,1.512 1.07,1.881 2.472,1.881 l 4.131,0 c 1.327,0 2.434,-0.369 2.434,-1.845 0,-1.106 -0.738,-1.77 -1.992,-1.844 l -5.606,-4.684 4.869,-4.057 c 1.254,-0.111 1.954,-0.775 1.954,-1.845 0,-1.549 -1.143,-1.844 -2.471,-1.844 l -3.356,0 c -1.402,0 -2.435,0.516 -2.435,1.881 0,0.627 0.258,1.107 0.959,1.586 l -2.25,1.844 -2.25,-1.807 c 0.627,-0.406 0.959,-1.033 0.959,-1.697 0,-1.475 -1.069,-1.807 -2.434,-1.807"
           style="font-size:36.88457108px;font-variant:normal;font-weight:bold;font-stretch:normal;text-align:center;text-anchor:middle;fill:#000000;font-family:FreeMono;-inkscape-font-specification:FreeMono"
           id="path3039"
           inkscape:connector-curvature="0" />
      </g>
      <g
         style="font-size:25.39759445px;font-style:normal;font-weight:normal;line-height:125%;letter-spacing:0px;word-spacing:0px;fill:#000000;fill-opacity:1;stroke:none;font-family:Sans"
         id="text25626">
        <path
           d="m -14224.606,-14842.002 0,-3.383 c 0,-4.206 -1.371,-6.034 -4.297,-6.034 -1.371,0 -2.194,0.64 -2.926,2.377 -3.566,-1.646 -7.314,-2.377 -11.794,-2.377 -10.972,0 -18.835,5.211 -18.835,12.526 0,7.223 5.394,10.88 18.195,12.251 2.743,0.275 11.52,0.915 11.52,4.755 0,2.103 -4.846,3.931 -10.698,3.931 -4.937,0 -8.777,-1.188 -11.428,-3.565 -0.823,-2.743 -2.286,-4.023 -4.663,-4.023 -3.841,0 -4.663,2.743 -4.663,6.125 l 0,3.018 c 0,3.2 0.731,6.034 4.663,6.034 1.188,0 1.92,-0.274 2.925,-1.097 3.658,1.737 8.321,2.652 13.532,2.652 11.795,0 20.389,-5.395 20.389,-12.892 0,-4.206 -2.377,-8.138 -6.4,-10.332 -7.771,-4.389 -23.315,-2.834 -23.315,-7.04 0,-1.646 4.389,-3.2 9.052,-3.2 12.069,0 8.96,6.308 14.172,6.308 3.748,0 4.571,-2.56 4.571,-6.034"
           style="font-size:91.43135071px;font-variant:normal;font-weight:bold;font-stretch:normal;text-align:center;text-anchor:middle;fill:#000000;font-family:FreeMono;-inkscape-font-specification:FreeMono"
           id="path3042"
           inkscape:connector-curvature="0" />
        <path
           d="m -14206.447,-14862.666 c 0,3.749 2.743,4.572 6.126,4.572 l 7.132,0 0,38.675 -11.155,0 c -3.565,0 -6.034,0.823 -6.034,4.572 0,1.92 0.914,4.572 6.034,4.572 l 31.453,0 c 3.566,0 6.034,-1.098 6.034,-4.572 0,-3.84 -2.834,-4.572 -6.034,-4.572 l -11.155,0 0,-47.818 -16.275,0 c -3.565,0 -6.126,0.731 -6.126,4.571"
           style="font-size:91.43135071px;font-variant:normal;font-weight:bold;font-stretch:normal;text-align:center;text-anchor:middle;fill:#000000;font-family:FreeMono;-inkscape-font-specification:FreeMono"
           id="path3044"
           inkscape:connector-curvature="0" />
        <path
           d="m -14157.384,-14821.156 c 0,6.766 7.406,12.344 16.458,12.344 5.394,0 10.789,-1.281 15.178,-3.566 l 0,2.103 10.697,0 c 3.383,0 6.035,-0.915 6.035,-4.572 0,-3.657 -2.469,-4.572 -6.035,-4.572 l -1.463,0 0,-18.469 c 0,-8.503 -6.766,-13.531 -18.012,-13.531 -4.571,0 -11.337,1.188 -15.726,2.742 -1.829,0.64 -2.743,1.921 -2.743,3.841 0,2.651 1.92,4.663 4.48,4.663 2.926,0 7.68,-2.103 14.263,-2.103 5.852,0 8.504,1.371 8.504,4.48 l 0,2.103 c -3.749,-0.64 -6.583,-0.915 -9.509,-0.915 -13.715,0 -22.127,7.498 -22.127,15.452 m 31.727,-1.463 c -5.029,3.109 -10.149,4.663 -15.086,4.663 -3.932,0 -6.949,-1.554 -6.949,-3.565 0,-3.475 5.669,-6.675 11.886,-6.675 3.109,0 6.492,0.366 10.149,1.006 l 0,4.571"
           style="font-size:91.43135071px;font-variant:normal;font-weight:bold;font-stretch:normal;text-align:center;text-anchor:middle;fill:#000000;font-family:FreeMono;-inkscape-font-specification:FreeMono"
           id="path3046"
           inkscape:connector-curvature="0" />
        <path
           d="m -14057.028,-14838.345 0,-7.04 c 0,-4.206 -1.371,-6.034 -4.388,-6.034 -1.92,0 -2.926,0.822 -3.475,2.742 -3.566,-1.828 -7.954,-2.742 -13.166,-2.742 -13.806,0 -23.406,9.143 -23.406,22.217 0,8.869 4.937,20.39 24.595,20.39 13.714,0 22.126,-4.572 22.126,-9.601 0,-2.56 -2.103,-4.663 -4.572,-4.663 -3.748,0 -2.834,5.12 -16.914,5.12 -10.698,0 -16.092,-3.748 -16.092,-11.246 0,-7.771 5.577,-13.074 14.263,-13.074 4.023,0 7.315,0.823 9.692,2.285 3.291,2.378 1.097,7.681 6.766,7.681 3.84,0 4.571,-2.835 4.571,-6.035"
           style="font-size:91.43135071px;font-variant:normal;font-weight:bold;font-stretch:normal;text-align:center;text-anchor:middle;fill:#000000;font-family:FreeMono;-inkscape-font-specification:FreeMono"
           id="path3048"
           inkscape:connector-curvature="0" />
        <path
           d="m -13999.37,-14814.847 c 0,-3.749 -2.652,-4.572 -6.126,-4.572 l -3.017,0 -14.629,-12.891 10.788,-8.778 2.561,0 c 3.291,0 6.034,-0.914 6.034,-4.571 0,-3.658 -2.377,-4.572 -6.034,-4.572 l -10.241,0 c -3.291,0 -6.126,0.732 -6.126,4.572 0,1.28 0.366,2.103 1.463,3.383 l -7.223,5.76 0,-30.721 -10.606,0 c -3.383,0 -6.034,0.823 -6.034,4.571 0,3.749 2.56,4.572 6.034,4.572 l 1.463,0 0,38.675 -1.463,0 c -3.566,0 -6.034,0.823 -6.034,4.572 0,3.017 2.011,4.572 6.034,4.572 l 10.606,0 0,-14.995 1.646,-1.28 9.417,8.32 c -1.097,1.189 -1.463,2.103 -1.463,3.383 0,3.017 2.012,4.572 6.035,4.572 l 10.789,0 c 3.291,0 6.126,-0.823 6.126,-4.572"
           style="font-size:91.43135071px;font-variant:normal;font-weight:bold;font-stretch:normal;text-align:center;text-anchor:middle;fill:#000000;font-family:FreeMono;-inkscape-font-specification:FreeMono"
           id="path3050"
           inkscape:connector-curvature="0" />
        <path
           d="m -13950.582,-14866.049 c 0.915,-1.828 1.098,-2.377 1.098,-3.382 0,-2.286 -2.103,-4.389 -4.572,-4.389 -2.103,0 -3.292,0.914 -4.663,4.023 l -29.349,61.99 c -0.823,1.646 -1.098,2.56 -1.098,3.475 0,2.285 2.195,4.388 4.572,4.388 2.194,0 3.383,-0.914 4.754,-4.023 l 29.258,-62.082"
           style="font-size:91.43135071px;font-variant:normal;font-weight:bold;font-stretch:normal;text-align:center;text-anchor:middle;fill:#000000;font-family:FreeMono;-inkscape-font-specification:FreeMono"
           id="path3052"
           inkscape:connector-curvature="0" />
        <path
           d="m -13917.428,-14818.047 c -11.52,0 -10.88,-3.2 -13.897,-3.2 -2.56,0 -4.572,2.011 -4.572,4.571 0,4.663 7.497,7.772 18.744,7.772 18.834,0 23.589,-10.149 23.589,-18.012 0,-5.851 -3.383,-10.423 -10.332,-13.806 5.943,-3.566 8.32,-6.949 8.32,-11.978 0,-8.777 -7.497,-15.909 -18.835,-15.909 -9.783,0 -18.834,4.846 -18.834,10.149 0,2.469 2.011,4.572 4.48,4.572 4.754,0 3.2,-5.577 13.806,-5.577 6.309,0 10.24,2.651 10.24,6.948 0,3.84 -3.84,7.223 -8.32,7.223 l -3.657,0 c -2.743,0 -4.755,1.92 -4.755,4.572 0,2.469 1.737,4.023 4.755,4.206 9.143,0.457 13.989,4.297 13.989,9.509 0,6.766 -6.035,8.96 -14.721,8.96"
           style="font-size:91.43135071px;font-variant:normal;font-weight:bold;font-stretch:normal;text-align:center;text-anchor:middle;fill:#000000;font-family:FreeMono;-inkscape-font-specification:FreeMono"
           id="path3054"
           inkscape:connector-curvature="0" />
        <path
           d="m -13858.307,-14868.609 c -11.978,0 -18.652,7.772 -18.652,18.652 0,10.332 7.771,18.744 17.463,18.744 4.572,0 8.046,-1.737 12.435,-6.4 -2.103,11.246 -10.515,19.292 -20.207,19.292 -1.554,0 -4.297,-1.189 -5.486,-1.189 -2.56,0 -4.663,2.103 -4.663,4.663 0,3.566 4.298,5.943 10.698,5.943 8.412,0 15.909,-3.84 22.035,-11.337 4.663,-5.852 7.04,-12.892 7.04,-20.938 0,-11.703 -4.114,-27.43 -20.663,-27.43 m 10.331,20.481 c -2.468,4.48 -7.04,7.772 -10.971,7.772 -4.938,0 -8.869,-4.206 -8.869,-9.509 0,-5.943 3.474,-9.6 9.234,-9.6 5.943,0 9.235,3.383 10.606,11.337"
           style="font-size:91.43135071px;font-variant:normal;font-weight:bold;font-stretch:normal;text-align:center;text-anchor:middle;fill:#000000;font-family:FreeMono;-inkscape-font-specification:FreeMono"
           id="path3056"
           inkscape:connector-curvature="0" />
        <path
           d="m -13804.856,-14868.609 c -13.623,0 -19.84,12.344 -19.84,25.51 l 0,8.686 c 0,13.074 6.126,25.509 19.84,25.509 13.623,0 19.841,-12.343 19.841,-25.509 l 0,-8.686 c 0,-13.075 -6.126,-25.51 -19.841,-25.51 m -10.697,24.87 c 0,-9.509 4.206,-15.726 10.697,-15.726 6.492,0 10.698,6.217 10.698,15.726 l 0,9.966 c 0,9.509 -4.206,15.726 -10.698,15.726 -6.491,0 -10.697,-6.217 -10.697,-15.726 l 0,-9.966"
           style="font-size:91.43135071px;font-variant:normal;font-weight:bold;font-stretch:normal;text-align:center;text-anchor:middle;fill:#000000;font-family:FreeMono;-inkscape-font-specification:FreeMono"
           id="path3058"
           inkscape:connector-curvature="0" />
      </g>
      <path
         style="font-size:medium;font-style:normal;font-variant:normal;font-weight:normal;font-stretch:normal;text-indent:0;text-align:start;text-decoration:none;line-height:normal;letter-spacing:normal;word-spacing:normal;text-transform:none;direction:ltr;block-progression:tb;writing-mode:lr-tb;text-anchor:start;baseline-shift:baseline;color:#000000;fill:#000000;fill-opacity:1;stroke:none;stroke-width:5;marker:none;visibility:visible;display:inline;overflow:visible;enable-background:accumulate;font-family:Sans;-inkscape-font-specification:Sans"
         d="m -14297.014,-14783.606 0,4.989 2.495,0 294.357,0 2.495,0 0,-4.989 -2.495,0 -294.357,0 -2.495,0 z"
         id="path25630"
         inkscape:connector-curvature="0" />
      <path
         inkscape:connector-curvature="0"
         id="path25632"
         d="m -14292.024,-14808.846 -4.99,0 0,0.252 0,29.725 0,0.252 4.99,0 0,-0.252 0,-29.725 0,-0.252 z"
         style="font-size:medium;font-style:normal;font-variant:normal;font-weight:normal;font-stretch:normal;text-indent:0;text-align:start;text-decoration:none;line-height:normal;letter-spacing:normal;word-spacing:normal;text-transform:none;direction:ltr;block-progression:tb;writing-mode:lr-tb;text-anchor:start;baseline-shift:baseline;color:#000000;fill:#000000;fill-opacity:1;stroke:none;stroke-width:5;marker:none;visibility:visible;display:inline;overflow:visible;enable-background:accumulate;font-family:Sans;-inkscape-font-specification:Sans" />
    </g>
  </g>
</svg>
