<?xml version="1.0" encoding="UTF-8" standalone="no"?>

 <!-- Created with Inkscape (http://www.inkscape.org/) -->

 <!-- 
 
 SLACKWARE LINUX GRAPHICS PROJECT: 

 Slackware Linux Graphics Project aims to provide a set of visual components related to GNU/Linux Slackware in both vector and 
 raster graphics formats for its users. 
 
 LEGAL DISCLAIMER: 

 Graphics in this project are all free artwork; you can use them, redistribute them and/or modify them under the *related* terms 
 explained in Slackware Linux Propaganda Graphics FAQ section on Slackware Linux home page. 

 You should have received a copy of the Slackware Linux Propaganda Graphics FAQ text 
 along with this artwork package. If not, see "http://www.slackware.com/". 

 This artwork package is distributed in the hope that it will be useful, but WITHOUT ANY WARRANTY. 

 Slackware Linux Graphics Project does not officially represent neither Linux nor Slackware Linux in any way. 
 Linux is a registered trademark of Linus Torvalds. Slackware Linux is a registered trademark of Slackware Linux, Inc. 
 and Patrick Volkerding. 
 
 DOWNLOAD INFORMATION: 

 You can download more recent versions of the Slackware Linux Graphics from the project's blog 
 at "http://www.slackware-linux-graphics.blogspot.com/". 

 OPINIONS AND SUGGESTIONS: 
 
 Please contact with the project for your opinions and suggestions related to Slackware Linux Graphics. 
 
 CONTACT INFORMATION: 
 
 Maintainer: Ismail Demiral 
 E-Mail: slackware.linux.graphics@gmail.com 
 Blog: http://www.slackware-linux-graphics.blogspot.com/ 
 
 --> 

<svg
   xmlns:dc="http://purl.org/dc/elements/1.1/"
   xmlns:cc="http://creativecommons.org/ns#"
   xmlns:rdf="http://www.w3.org/1999/02/22-rdf-syntax-ns#"
   xmlns:svg="http://www.w3.org/2000/svg"
   xmlns="http://www.w3.org/2000/svg"
   xmlns:sodipodi="http://sodipodi.sourceforge.net/DTD/sodipodi-0.dtd"
   xmlns:inkscape="http://www.inkscape.org/namespaces/inkscape"
   width="512.01074"
   height="559.28229"
   id="svg6422"
   version="1.1"
   inkscape:version="0.48.3.1 r9886"
   sodipodi:docname="Slackware.Linux.XFCE.Menu.Icon_FreeMono.svg">
  <defs
     id="defs6424" />
  <sodipodi:namedview
     id="base"
     pagecolor="#ffffff"
     bordercolor="#666666"
     borderopacity="1.0"
     inkscape:pageopacity="0.0"
     inkscape:pageshadow="2"
     inkscape:zoom="0.35"
     inkscape:cx="631.10039"
     inkscape:cy="212.26239"
     inkscape:document-units="px"
     inkscape:current-layer="layer1"
     showgrid="false"
     inkscape:window-width="1366"
     inkscape:window-height="721"
     inkscape:window-x="-2"
     inkscape:window-y="-3"
     inkscape:window-maximized="1"
     fit-margin-top="0"
     fit-margin-left="0"
     fit-margin-right="0"
     fit-margin-bottom="0" />
  <metadata
     id="metadata6427">
    <rdf:RDF>
      <cc:Work
         rdf:about="">
        <dc:format>image/svg+xml</dc:format>
        <dc:type
           rdf:resource="http://purl.org/dc/dcmitype/StillImage" />
        <dc:title></dc:title>
      </cc:Work>
    </rdf:RDF>
  </metadata>
  <g
     inkscape:label="Layer 1"
     inkscape:groupmode="layer"
     id="layer1"
     transform="translate(712.26365,-107.39886)">
    <g
       id="g6042"
       transform="matrix(0.85099462,0,0,0.85099462,8545.0784,9015.1459)"
       inkscape:export-filename="Slackware.Linux.XFCE.Logo_FreeMono_512x559.png"
       inkscape:export-xdpi="90"
       inkscape:export-ydpi="90">
      <g
         style="font-size:298.78616333px;font-style:normal;font-weight:normal;line-height:125%;letter-spacing:0px;word-spacing:0px;fill:#000000;fill-opacity:1;stroke:none;font-family:Sans"
         id="text6580">
        <path
           d="m -10351.895,-10467.454 c -21.512,0 -31.193,8.605 -41.949,35.496 -37.647,-23.664 -84.975,-35.496 -139.832,-35.496 -133.378,0 -233.412,81.748 -233.412,190.387 0,61.31 33.345,118.319 88.202,149.512 105.411,59.16 290.42,33.345 290.42,128.0002 0,46.252 -62.387,81.7479 -141.983,81.7479 -70.992,0 -138.757,-31.1934 -149.513,-69.916 -3.227,-10.7563 -7.529,-51.6301 -54.857,-51.6301 -43.025,0 -53.781,27.966 -53.781,70.9914 l 0,70.9916 c 0,48.4034 17.21,70.9916 54.857,70.9916 17.21,0 24.739,-4.3025 43.025,-25.8151 52.706,27.9664 109.714,41.9496 167.798,41.9496 147.361,0 246.32,-75.2942 246.32,-187.1597 0,-55.9324 -20.437,-100.0334 -63.463,-134.4534 -102.184,-81.748 -315.159,-39.799 -315.159,-146.286 0,-46.252 53.781,-81.748 121.546,-81.748 66.689,0 118.319,29.042 128,72.067 4.302,20.437 6.454,58.084 53.781,58.084 44.101,0 52.706,-33.344 52.706,-72.067 l 0,-94.655 c 0,-37.647 -5.378,-70.992 -52.706,-70.992"
           style="font-size:1075.63024902px;font-variant:normal;font-weight:bold;font-stretch:normal;text-align:center;text-anchor:middle;fill:#000000;font-family:FreeMono;-inkscape-font-specification:FreeMono"
           id="path3002"
           inkscape:connector-curvature="0" />
      </g>
      <g
         style="fill:#000000"
         transform="matrix(2.6010055,0,0,2.6010055,12982.823,16836.876)"
         id="g6973">
        <path
           inkscape:connector-curvature="0"
           style="fill:#000000;fill-opacity:1;fill-rule:evenodd;stroke:#000000;stroke-width:1pt;stroke-linecap:round;stroke-linejoin:round;stroke-opacity:1"
           d="m -9173.0938,-10348.875 c -0.9147,0.501 7.3288,5.852 22.7188,12.187 15.391,6.336 36.6357,22.408 34.9688,25 -4.999,7.041 -7.9413,15.451 -5.9063,29.876 0.367,2.538 -7.5115,6.95 -6.9375,10.781 0.48,2.915 8.8067,-2.896 9.7188,-1.75 0.5576,2.057 -4.4666,12.473 -2.4376,13.219 1.4841,0.44 14.5546,-12.371 15.3126,-12.157 21.5136,6.504 49.4892,1.581 50.0312,1.375 -0.051,-0.113 20.1513,9.492 21.9062,8.344 4.4274,-4.794 -8.3868,-11.551 -6.25,-14.25 0.937,-1.413 15.5896,5.303 16.3126,3.469 1.0516,-3.175 -6.8173,-9.838 -8,-11.813 -1.0291,-1.821 -1.2328,-4.753 1.4062,-6.594 2.64,-1.84 29.632,-12.166 28.5,-20.156 -1.957,-14.518 -34.229,-15.465 -34.75,-16.687 -0.245,-0.574 1.417,-20.76 -8,-17.031 -5.798,2.155 -1.0625,15.024 -0.6875,16.687 0.346,1.531 -2.574,1.361 -3.125,0.687 -1.23,-1.502 -5.3037,-14.894 -10.0937,-12.5 -6.7184,3.704 -0.3788,15.25 -1.7188,15.626 -2.489,1.387 -2.3487,4.794 -4.3438,7.562 -3.2896,4.715 -27.9169,-2.206 -35.875,-2.688 -5.8256,-0.343 -11.4115,4.421 -11.9374,3.813 -7.0944,-7.104 -21.7648,-19.453 -37.8438,-23.563 -9.017,-2.443 -22.4307,-9.527 -22.9688,-9.437 z m 140.6876,27.156 c 1.539,0 2.7812,1.402 2.7812,3.157 0,1.752 -1.242,3.187 -2.7812,3.187 -1.5394,0 -2.7813,-1.435 -2.7813,-3.187 0,-1.755 1.242,-3.157 2.7813,-3.157 z m -6.25,1.938 c 1.1837,5.111 3.0477,6.725 8.5937,6.562 -7.059,6.473 -11.3648,-4.603 -8.5937,-6.562 z m 14.9687,13.343 c 0.4393,-0.03 0.7757,0.03 0.9687,0.219 2.7812,1.008 -11.9645,6.312 -12.0624,5.563 -0.1479,-0.517 8.0183,-5.532 11.0937,-5.782 z m 1.7813,3.407 c 0.1522,-0.01 0.2938,0 0.4062,0.06 2.625,2.608 -8.3105,8.391 -8.1875,8.188 -0.8813,-0.533 5.498,-8.073 7.7813,-8.25 z"
           id="path14-8" />
        <path
           d="m -9000.7971,-10334.329 c -0.891,-0.737 -7.878,10.287 -6.333,11.431 0.929,0.695 6.731,-11.038 6.333,-11.431 z"
           id="path13-1"
           style="fill:#000000;fill-opacity:1;fill-rule:evenodd;stroke:none"
           inkscape:connector-curvature="0" />
        <path
           d="m -9008.8292,-10335.874 c -0.441,-0.512 -2.781,11.368 -1.699,11.894 0.929,0.695 2.547,-11.276 1.699,-11.894 z"
           id="path18-3"
           style="fill:#000000;fill-opacity:1;fill-rule:evenodd;stroke:none"
           inkscape:connector-curvature="0" />
      </g>
    </g>
  </g>
</svg>
