<?xml version="1.0" encoding="UTF-8" standalone="no"?>
<!-- Created with Inkscape (http://www.inkscape.org/) -->

<!-- 
 
 SLACKWARE LINUX GRAPHICS PROJECT: 

 Slackware Linux Graphics Project aims to provide a set of visual components related to GNU/Linux Slackware in both vector and 
 raster graphics formats for its users. 
 
 LEGAL DISCLAIMER: 

 Graphics in this project are all free artwork; you can use them, redistribute them and/or modify them under the *related* terms 
 explained in Slackware Linux Propaganda Graphics FAQ section on Slackware Linux home page. 

 You should have received a copy of the Slackware Linux Propaganda Graphics FAQ text 
 along with this artwork package. If not, see "http://www.slackware.com/". 

 This artwork package is distributed in the hope that it will be useful, but WITHOUT ANY WARRANTY. 

 Slackware Linux Graphics Project does not officially represent neither Linux nor Slackware Linux in any way. 
 Linux is a registered trademark of Linus Torvalds. Slackware Linux is a registered trademark of Slackware Linux, Inc. 
 and Patrick Volkerding. 
 
 DOWNLOAD INFORMATION: 

 You can download more recent versions of the Slackware Linux Graphics from the project's blog 
 at "http://www.slackware-linux-graphics.blogspot.com/". 

 OPINIONS AND SUGGESTIONS: 
 
 Please contact with the project for your opinions and suggestions related to Slackware Linux Graphics. 
 
 CONTACT INFORMATION: 
 
 Maintainer: Ismail Demiral 
 E-Mail: slackware.linux.graphics@gmail.com 
 Blog: http://www.slackware-linux-graphics.blogspot.com/ 
 
 -->

<svg
   xmlns:dc="http://purl.org/dc/elements/1.1/"
   xmlns:cc="http://creativecommons.org/ns#"
   xmlns:rdf="http://www.w3.org/1999/02/22-rdf-syntax-ns#"
   xmlns:svg="http://www.w3.org/2000/svg"
   xmlns="http://www.w3.org/2000/svg"
   xmlns:sodipodi="http://sodipodi.sourceforge.net/DTD/sodipodi-0.dtd"
   xmlns:inkscape="http://www.inkscape.org/namespaces/inkscape"
   width="511.99954"
   height="135.04446"
   id="svg6313"
   version="1.1"
   inkscape:version="0.48.3.1 r9886"
   sodipodi:docname="Slackware.Linux.Current.Branch.Logo_FreeMono.svg">
  <defs
     id="defs6315" />
  <sodipodi:namedview
     id="base"
     pagecolor="#ffffff"
     bordercolor="#666666"
     borderopacity="1.0"
     inkscape:pageopacity="0.0"
     inkscape:pageshadow="2"
     inkscape:zoom="1.1855466"
     inkscape:cx="269.98501"
     inkscape:cy="75.152051"
     inkscape:document-units="px"
     inkscape:current-layer="layer1"
     showgrid="false"
     inkscape:window-width="1366"
     inkscape:window-height="721"
     inkscape:window-x="-2"
     inkscape:window-y="-3"
     inkscape:window-maximized="1"
     fit-margin-top="0"
     fit-margin-left="0"
     fit-margin-right="0"
     fit-margin-bottom="0" />
  <metadata
     id="metadata6318">
    <rdf:RDF>
      <cc:Work
         rdf:about="">
        <dc:format>image/svg+xml</dc:format>
        <dc:type
           rdf:resource="http://purl.org/dc/dcmitype/StillImage" />
        <dc:title></dc:title>
      </cc:Work>
    </rdf:RDF>
  </metadata>
  <g
     inkscape:label="Layer 1"
     inkscape:groupmode="layer"
     id="layer1"
     transform="translate(-135.42799,-261.98333)">
    <g
       id="g6512"
       inkscape:export-filename="Slackware.Linux.Current.Branch.Logo_FreeMono_512x135.png"
       inkscape:export-xdpi="89.970367"
       inkscape:export-ydpi="89.970367">
      <g
         transform="matrix(0.99999217,0,0,0.99999217,16297.3,9668.168)"
         style="font-size:20.49146271px;font-style:normal;font-weight:normal;line-height:125%;letter-spacing:0px;word-spacing:0px;fill:#000000;fill-opacity:1;stroke:none;font-family:Sans"
         id="text6220" />
      <g
         transform="matrix(0.99999397,0,0,0.99999397,15142.335,6038.2066)"
         id="text6243"
         style="font-size:25.39759445px;font-style:normal;font-weight:normal;line-height:125%;letter-spacing:0px;word-spacing:0px;fill:#000000;fill-opacity:1;stroke:none;font-family:Sans" />
      <path
         style="font-size:medium;font-style:normal;font-variant:normal;font-weight:normal;font-stretch:normal;text-indent:0;text-align:start;text-decoration:none;line-height:normal;letter-spacing:normal;word-spacing:normal;text-transform:none;direction:ltr;block-progression:tb;writing-mode:lr-tb;text-anchor:start;baseline-shift:baseline;color:#000000;fill:#000000;fill-opacity:1;stroke:none;stroke-width:5;marker:none;visibility:visible;display:inline;overflow:visible;enable-background:accumulate;font-family:Sans;-inkscape-font-specification:Sans"
         d="M 93.6875 0 C 91.67651 0 90.12975 0.32961 89.09375 1 C 88.05776 1.6096 87.5625 2.79491 87.5625 4.5625 C 87.5625 7.61028 89.60352 9.15635 93.6875 9.15625 L 100.8125 9.15625 L 100.8125 47.8125 L 89.65625 47.8125 C 87.70626 47.8125 86.22349 48.142 85.1875 48.8125 C 84.1515 49.42209 83.625 50.60742 83.625 52.375 C 83.625 55.42279 85.63328 56.96875 89.65625 56.96875 L 121.09375 56.96875 C 125.11673 56.96875 127.125 55.42279 127.125 52.375 C 127.125 49.32732 125.11673 47.8125 121.09375 47.8125 L 109.9375 47.8125 L 109.9375 0 L 93.6875 0 z M 251.46875 0 C 247.44577 0 245.4375 1.51492 245.4375 4.5625 C 245.4375 6.33029 245.96401 7.54836 247 8.21875 C 248.036 8.82835 249.51876 9.15635 251.46875 9.15625 L 252.9375 9.15625 L 252.9375 47.8125 L 251.46875 47.8125 C 249.51876 47.8125 248.036 48.142 247 48.8125 C 245.96401 49.42209 245.4375 50.60742 245.4375 52.375 C 245.4375 55.42279 247.44577 56.96875 251.46875 56.96875 L 262.0625 56.96875 L 262.0625 41.96875 L 263.71875 40.6875 L 273.125 49 C 272.15 50.03619 271.6875 51.15601 271.6875 52.375 C 271.6875 55.42279 273.69577 56.96875 277.71875 56.96875 L 288.5 56.96875 C 292.58398 56.96875 294.625 55.42279 294.625 52.375 C 294.625 49.32732 292.58398 47.8125 288.5 47.8125 L 285.46875 47.8125 L 270.84375 34.9375 L 281.65625 26.15625 L 284.1875 26.15625 C 288.21047 26.15635 290.25 24.61018 290.25 21.5625 C 290.25 19.85581 289.7235 18.6705 288.6875 18 C 287.71151 17.32951 286.19849 17.0001 284.1875 17 L 273.96875 17 C 269.88477 17.0001 267.84375 18.51482 267.84375 21.5625 C 267.84375 22.65969 268.3375 23.81066 269.3125 24.96875 L 262.0625 30.71875 L 262.0625 0 L 251.46875 0 z M 50.375 15.8125 C 44.88903 15.8125 40.37873 16.99792 36.84375 19.375 C 33.30777 21.69129 31.53125 24.68657 31.53125 28.34375 C 31.53125 31.94003 32.97876 34.70566 35.84375 36.65625 C 38.70873 38.60674 43.31779 39.92325 49.71875 40.59375 C 57.39871 41.38614 61.25 42.96656 61.25 45.34375 C 61.25 46.38004 60.19549 47.30136 58.0625 48.09375 C 55.98951 48.88615 53.48848 49.28125 50.5625 49.28125 C 45.56453 49.28125 41.74598 48.09593 39.125 45.71875 C 38.332 43.03676 36.78474 41.6875 34.46875 41.6875 C 31.35977 41.6875 29.8125 43.72863 29.8125 47.8125 L 29.8125 50.84375 C 29.8125 54.86673 31.35977 56.875 34.46875 56.875 C 35.50475 56.875 36.461 56.51275 37.375 55.78125 C 41.09397 57.54894 45.60328 58.4375 50.90625 58.4375 C 56.81921 58.4375 61.72252 57.21934 65.5625 54.78125 C 69.40247 52.34307 71.3125 49.24942 71.3125 45.53125 C 71.3125 43.39786 70.7205 41.42234 69.5625 39.59375 C 68.46551 37.76506 66.91824 36.28459 64.90625 35.1875 C 62.77326 33.96841 59.71047 33.07834 55.6875 32.46875 C 51.66452 31.85925 48.30698 31.30019 45.625 30.8125 C 42.94301 30.264 41.59375 29.37544 41.59375 28.15625 C 41.59375 27.30296 42.51577 26.57835 44.34375 25.96875 C 46.23374 25.29826 48.34026 24.96885 50.65625 24.96875 C 53.39923 24.96885 55.54001 25.29826 57.125 25.96875 C 58.76999 26.63925 59.823 27.36396 60.25 28.15625 C 60.738 28.88775 61.3305 29.5795 62.0625 30.25 C 62.79349 30.92049 63.71551 31.28125 64.8125 31.28125 C 66.57949 31.28125 67.765 30.75495 68.375 29.71875 C 69.045 28.68256 69.375 27.20059 69.375 25.25 L 69.375 21.84375 C 69.375 17.82077 67.95873 15.8125 65.09375 15.8125 C 63.81376 15.8125 62.82724 16.60281 62.15625 18.1875 C 58.74327 16.60281 54.82397 15.8125 50.375 15.8125 z M 159.46875 15.8125 C 154.16578 15.8125 148.93096 16.73401 143.75 18.5625 C 141.92101 19.1721 141 20.45576 141 22.40625 C 141 23.74724 141.42826 24.86695 142.28125 25.78125 C 143.13425 26.63464 144.18876 27.0625 145.46875 27.0625 C 146.13975 27.0625 148.08102 26.733 151.25 26.0625 C 154.41998 25.33111 157.25001 24.96885 159.75 24.96875 C 165.41796 24.96885 168.25 26.45072 168.25 29.4375 L 168.25 31.53125 C 164.65302 30.92175 161.49299 30.625 158.75 30.625 C 152.16704 30.625 146.83398 32.17257 142.75 35.28125 C 138.66603 38.32893 136.625 41.94888 136.625 46.09375 C 136.625 49.50713 138.23877 52.40556 141.46875 54.84375 C 144.69973 57.22094 148.55153 58.4375 153.0625 58.4375 C 158.60947 58.4375 163.67803 57.22094 168.25 54.84375 L 168.25 56.96875 L 178.9375 56.96875 C 182.96048 56.96875 184.96875 55.42279 184.96875 52.375 C 184.96875 49.32732 182.96048 47.8125 178.9375 47.8125 L 177.46875 47.8125 L 177.46875 29.34375 C 177.46875 25.07708 175.85598 21.75229 172.625 19.375 C 169.45602 16.99792 165.07672 15.8125 159.46875 15.8125 z M 215.9375 15.8125 C 209.04954 15.8125 203.42023 17.88647 199.03125 22.03125 C 194.70428 26.17622 192.53125 31.50919 192.53125 38.03125 C 192.53125 39.92084 192.7605 41.79641 193.1875 43.625 C 193.61349 45.39269 194.40451 47.17141 195.5625 49 C 196.7205 50.82858 198.16951 52.44185 199.9375 53.84375 C 201.70449 55.18474 204.04277 56.30285 206.96875 57.15625 C 209.95574 58.00954 213.34603 58.4375 217.125 58.4375 C 223.76896 58.4375 229.10202 57.48333 233.125 55.59375 C 237.20897 53.70426 239.25 51.43358 239.25 48.8125 C 239.25 47.5325 238.78899 46.44554 237.875 45.53125 C 236.96 44.61695 235.90649 44.15625 234.6875 44.15625 C 233.9555 44.15625 233.19825 44.42015 232.40625 44.96875 C 231.67426 45.51735 230.917 46.10925 230.125 46.71875 C 229.39301 47.32835 227.94549 47.92015 225.8125 48.46875 C 223.67851 49.01735 221.01123 49.28125 217.78125 49.28125 C 207.05331 49.28125 201.6875 45.52861 201.6875 38.03125 C 201.6875 34.13028 202.94002 31.00218 205.5 28.625 C 208.12099 26.18691 211.60953 24.96885 215.9375 24.96875 C 219.89948 24.96885 223.12602 25.72621 225.625 27.25 C 226.478 27.85959 227.10375 28.84661 227.46875 30.1875 C 227.83475 31.52849 228.29726 32.6482 228.90625 33.5625 C 229.57725 34.47679 230.76026 34.9375 232.40625 34.9375 C 235.45323 34.9375 236.96875 32.92922 236.96875 28.90625 L 236.96875 21.84375 C 236.96875 17.82077 235.51873 15.8125 232.59375 15.8125 C 230.82576 15.8125 229.64275 16.73401 229.09375 18.5625 C 225.55877 16.73401 221.17947 15.8125 215.9375 15.8125 z M 378.75 15.8125 C 373.44703 15.8125 368.21322 16.73401 363.03125 18.5625 C 361.20326 19.1721 360.28125 20.45576 360.28125 22.40625 C 360.28125 23.74724 360.70851 24.86695 361.5625 25.78125 C 362.4155 26.63464 363.50126 27.0625 364.78125 27.0625 C 365.45125 27.0625 367.36127 26.733 370.53125 26.0625 C 373.70023 25.33111 376.53226 24.96885 379.03125 24.96875 C 384.70021 24.96885 387.53125 26.45072 387.53125 29.4375 L 387.53125 31.53125 C 383.93527 30.92175 380.77424 30.625 378.03125 30.625 C 371.44829 30.625 366.11522 32.17257 362.03125 35.28125 C 357.94727 38.32893 355.90625 41.94888 355.90625 46.09375 C 355.90625 49.50713 357.51902 52.40556 360.75 54.84375 C 363.97998 57.22094 367.86502 58.4375 372.375 58.4375 C 377.92196 58.4375 382.95927 57.22094 387.53125 54.84375 L 387.53125 56.96875 L 398.25 56.96875 C 402.27298 56.96875 404.28125 55.42279 404.28125 52.375 C 404.28125 49.32732 402.27298 47.8125 398.25 47.8125 L 396.78125 47.8125 L 396.78125 29.34375 C 396.78125 25.07708 395.16748 21.75229 391.9375 19.375 C 388.76752 16.99792 384.35696 15.8125 378.75 15.8125 z M 488.3125 15.8125 C 481.66854 15.8125 476.07197 17.88647 471.5 22.03125 C 466.98903 26.11522 464.71875 31.18438 464.71875 37.21875 C 464.71875 43.43611 466.98903 48.50678 471.5 52.46875 C 476.01097 56.43073 481.80405 58.4375 488.875 58.4375 C 491.06899 58.4375 493.67077 58.27345 496.71875 57.96875 C 499.82773 57.66395 503.15252 56.90659 506.6875 55.6875 C 510.22248 54.4074 512 52.79434 512 50.84375 C 512 49.56376 511.57175 48.4784 510.71875 47.625 C 509.86576 46.71071 508.81274 46.2501 507.59375 46.25 C 506.80176 46.2501 504.43073 46.77631 500.46875 47.8125 C 496.50678 48.7878 492.91748 49.28125 489.6875 49.28125 C 481.76355 49.28125 476.76049 46.61397 474.6875 41.25 L 512 41.25 L 512 37.65625 C 512 31.37799 509.72972 26.17622 505.21875 22.03125 C 500.76877 17.88647 495.13946 15.8125 488.3125 15.8125 z M 447.5625 15.90625 C 445.30652 15.90635 443.13299 16.3998 441 17.375 C 438.86602 18.35029 435.96947 20.19452 432.3125 22.9375 L 432.3125 17 L 419.96875 17 C 415.94577 17.0001 413.9375 18.51482 413.9375 21.5625 C 413.9375 24.61018 415.94577 26.15635 419.96875 26.15625 L 423.15625 26.15625 L 423.15625 47.8125 L 417.84375 47.8125 C 415.89376 47.8125 414.41199 48.142 413.375 48.8125 C 412.33901 49.42209 411.8125 50.60742 411.8125 52.375 C 411.8125 55.42279 413.82178 56.96875 417.84375 56.96875 L 445 56.96875 C 449.08397 56.96875 451.125 55.42279 451.125 52.375 C 451.124 49.32732 449.08397 47.8125 445 47.8125 L 432.3125 47.8125 L 432.3125 34.375 C 436.70047 30.77873 439.92801 28.34249 442 27.0625 C 444.13398 25.72151 445.91201 25.0625 447.375 25.0625 C 448.411 25.0625 449.62776 25.59041 450.96875 26.6875 C 452.30974 27.78469 453.49526 28.34375 454.53125 28.34375 C 455.75124 28.34375 456.80376 27.88314 457.71875 26.96875 C 458.63275 26.05445 459.09375 24.96759 459.09375 23.6875 C 459.09375 21.67601 457.80998 19.86604 455.25 18.28125 C 452.69001 16.69646 450.12249 15.90635 447.5625 15.90625 z M 303.28125 17 C 299.25828 17.0001 297.25 18.51482 297.25 21.5625 C 297.25 22.90349 297.67726 23.98886 298.53125 24.78125 C 299.38425 25.51275 300.60251 25.9406 302.1875 26.0625 L 309.9375 56.96875 L 318.53125 56.96875 L 324.75 40.40625 L 331.25 56.96875 L 339.65625 56.96875 L 347.34375 26.0625 C 350.51373 25.8797 352.09375 24.36638 352.09375 21.5625 C 352.09375 18.51482 350.08547 17.0001 346.0625 17 L 337.5625 17 C 333.53952 17.0001 331.53125 18.51482 331.53125 21.5625 C 331.53125 24.54928 333.53952 26.0625 337.5625 26.0625 L 338.1875 26.0625 L 334.53125 40.03125 L 328.96875 25.59375 L 320.90625 25.59375 L 315.4375 40.03125 L 311.875 26.0625 C 315.77598 26.0625 317.71875 24.54928 317.71875 21.5625 C 317.71875 19.79481 317.19224 18.6095 316.15625 18 C 315.12025 17.32951 313.63749 17.0001 311.6875 17 L 303.28125 17 z M 488.40625 24.96875 C 491.75823 24.96885 494.65577 25.72621 497.09375 27.25 C 499.53174 28.71299 501.11275 30.68842 501.84375 33.1875 L 474.96875 33.1875 C 475.63974 30.74932 477.18701 28.77389 479.625 27.25 C 482.12398 25.72621 485.05327 24.96885 488.40625 24.96875 z M 158.1875 39.03125 C 161.11348 39.03125 164.50377 39.36075 168.34375 40.03125 L 168.34375 44.625 C 163.28478 47.73368 158.24797 49.28125 153.25 49.28125 C 151.29901 49.28125 149.65349 48.95175 148.3125 48.28125 C 146.97151 47.61075 146.3125 46.75494 146.3125 45.71875 C 146.3125 43.95106 147.49801 42.4035 149.875 41.0625 C 152.31298 39.72151 155.07852 39.03125 158.1875 39.03125 z M 377.46875 39.03125 C 380.39373 39.03125 383.78503 39.36075 387.625 40.03125 L 387.625 44.625 C 382.56604 47.73368 377.52922 49.28125 372.53125 49.28125 C 370.58126 49.28125 368.93474 48.95175 367.59375 48.28125 C 366.25275 47.61075 365.59375 46.75494 365.59375 45.71875 C 365.59375 43.95106 366.77926 42.4035 369.15625 41.0625 C 371.59423 39.72151 374.35976 39.03125 377.46875 39.03125 z M 0 58.40625 L 0 58.65625 L 0 83.625 L 0 88.375 L 0 88.625 L 5 88.625 L 295.5 88.625 L 297 88.625 L 297 103.625 L 512 103.625 L 512 68.625 L 297 68.625 L 297 83.625 L 295.5 83.625 L 5 83.625 L 5 58.65625 L 5 58.40625 L 0 58.40625 z M 310.5625 74.40625 L 317.125 74.40625 L 317.125 93.6875 L 321.625 93.6875 C 323.24799 93.6875 324.0625 94.30186 324.0625 95.53125 C 324.0625 96.76075 323.24799 97.375 321.625 97.375 L 308.9375 97.375 C 307.31451 97.375 306.5 96.76075 306.5 95.53125 C 306.5 94.81816 306.70701 94.33965 307.125 94.09375 C 307.543 93.82335 308.15051 93.6875 308.9375 93.6875 L 313.4375 93.6875 L 313.4375 78.09375 L 310.5625 78.09375 C 308.9145 78.09385 308.09375 77.47949 308.09375 76.25 C 308.09375 75.53691 308.30076 75.0584 308.71875 74.8125 C 309.13675 74.5421 309.75049 74.40625 310.5625 74.40625 z M 356.5 74.40625 L 360.84375 74.40625 L 360.84375 78.28125 L 356.5 78.28125 L 356.5 74.40625 z M 404.9375 80.78125 C 406.85548 80.78125 408.42726 81.32436 409.65625 82.40625 C 410.88625 83.48824 411.5 85.00166 411.5 86.96875 L 411.5 93.6875 C 412.99999 93.6875 413.75 94.30186 413.75 95.53125 C 413.75 96.76075 412.93549 97.375 411.3125 97.375 L 408.03125 97.375 C 406.38427 97.375 405.5625 96.76075 405.5625 95.53125 C 405.5625 94.30186 406.31251 93.6875 407.8125 93.6875 L 407.8125 87.125 C 407.8125 85.35451 406.68173 84.46875 404.46875 84.46875 C 403.60875 84.46875 402.84524 84.66245 402.15625 85.03125 C 401.49326 85.40015 400.73499 86.03435 399.875 86.96875 L 399.875 93.6875 L 400.09375 93.6875 C 401.71673 93.6875 402.53125 94.30186 402.53125 95.53125 C 402.53125 96.76075 401.71673 97.375 400.09375 97.375 L 395.96875 97.375 C 394.34576 97.375 393.53125 96.76075 393.53125 95.53125 C 393.53125 94.30186 394.34576 93.6875 395.96875 93.6875 L 396.1875 93.6875 L 396.1875 84.9375 C 394.68751 84.8885 393.9375 84.27414 393.9375 83.09375 C 393.9375 81.86436 394.75926 81.25 396.40625 81.25 L 399.875 81.25 L 399.875 83.03125 C 400.75999 82.19515 401.5745 81.60095 402.3125 81.28125 C 403.05049 80.93705 403.9295 80.78125 404.9375 80.78125 z M 354.78125 81.25 L 361.34375 81.25 L 361.34375 93.6875 L 365.84375 93.6875 C 367.46674 93.6875 368.28125 94.30186 368.28125 95.53125 C 368.28125 96.76075 367.46674 97.375 365.84375 97.375 L 353.15625 97.375 C 351.53327 97.375 350.71875 96.76075 350.71875 95.53125 C 350.71875 94.81816 350.92575 94.33965 351.34375 94.09375 C 351.76175 93.82335 352.36926 93.6875 353.15625 93.6875 L 357.65625 93.6875 L 357.65625 84.9375 L 354.78125 84.9375 C 353.13325 84.9375 352.3125 84.32324 352.3125 83.09375 C 352.3125 82.35615 352.5195 81.8709 352.9375 81.625 C 353.38049 81.3791 353.99425 81.25 354.78125 81.25 z M 439.8125 81.25 L 444.09375 81.25 L 444.09375 91.5 C 444.09375 93.27049 445.17976 94.15625 447.34375 94.15625 C 448.27874 94.15625 449.0725 94.0072 449.6875 93.6875 C 450.30249 93.34331 451.07226 92.66444 452.03125 91.65625 L 452.03125 84.9375 L 450.75 84.9375 L 450.375 84.9375 C 449.63701 84.9375 449.10024 84.77515 448.78125 84.40625 C 448.46124 84.01285 448.3125 83.56104 448.3125 83.09375 C 448.3125 81.86436 449.12701 81.25 450.75 81.25 L 455.71875 81.25 L 455.71875 93.6875 C 457.21874 93.6875 457.96875 94.30186 457.96875 95.53125 C 457.96875 96.76075 457.15324 97.375 455.53125 97.375 L 452.03125 97.375 L 452.03125 95.59375 C 451.12226 96.45445 450.30049 97.0553 449.5625 97.375 C 448.8495 97.69459 447.97674 97.84375 446.96875 97.84375 C 445.02676 97.84375 443.44875 97.30065 442.21875 96.21875 C 441.01376 95.11215 440.40625 93.59218 440.40625 91.625 L 440.40625 84.9375 L 439.40625 84.9375 C 438.79125 84.9375 438.3055 84.7818 437.9375 84.4375 C 437.5685 84.0932 437.375 83.63474 437.375 83.09375 C 437.375 82.38075 437.61325 81.90225 438.03125 81.65625 C 438.44925 81.38585 439.0255 81.25 439.8125 81.25 z M 485.0625 81.25 L 488.4375 81.25 C 490.06049 81.25 490.875 81.85761 490.875 83.0625 C 490.875 83.77559 490.54525 84.3319 489.90625 84.75 L 492.15625 86.5625 L 494.40625 84.71875 C 493.76725 84.27615 493.46875 83.73979 493.46875 83.125 C 493.46875 81.87101 494.28326 81.25 495.90625 81.25 L 499.25 81.25 C 500.89699 81.25 501.71875 81.86436 501.71875 83.09375 C 501.71875 84.20034 501.08424 84.8145 499.78125 84.9375 L 494.90625 89 L 500.5 93.6875 C 501.82799 93.7615 502.5 94.37556 502.5 95.53125 C 502.5 96.76075 501.68549 97.375 500.0625 97.375 L 495.9375 97.375 C 494.29051 97.375 493.46875 96.754 493.46875 95.5 C 493.46875 94.56561 493.95451 93.958 494.9375 93.6875 L 492.15625 91.4375 L 489.46875 93.6875 C 490.40374 94.081 490.875 94.68851 490.875 95.5 C 490.875 96.754 490.06049 97.375 488.4375 97.375 L 484.34375 97.375 C 482.72176 97.375 481.90625 96.76075 481.90625 95.53125 C 481.90625 94.37556 482.57826 93.7613 483.90625 93.6875 L 489.25 88.96875 L 484.53125 84.9375 C 483.25226 84.8145 482.625 84.20034 482.625 83.09375 C 482.625 81.86436 483.43951 81.25 485.0625 81.25 z M 503.40625 113.65625 C 502.91425 113.65625 502.5855 113.99236 502.4375 114.65625 L 501.53125 119.03125 L 498.75 119.03125 C 497.96301 119.03125 497.5625 119.35406 497.5625 119.96875 C 497.5625 120.36215 497.87775 120.5625 498.46875 120.5625 L 501.1875 120.5625 L 499.09375 130.46875 C 499.02275 130.83765 498.96875 131.1803 498.96875 131.5 C 498.96875 132.55729 499.42751 133.42321 500.3125 134.0625 C 501.19749 134.7018 502.36151 135 503.8125 135 C 505.09049 135 506.72776 134.73515 508.71875 134.21875 C 510.73573 133.70235 511.75 133.126 511.75 132.4375 C 511.75 132.01951 511.55649 131.8125 511.1875 131.8125 C 511.0395 131.8125 510.82625 131.88365 510.53125 132.03125 C 509.74426 132.44924 508.72275 132.79865 507.46875 133.09375 C 506.23976 133.36425 505.09549 133.5 504.0625 133.5 C 502.98051 133.5 502.139 133.28635 501.5 132.84375 C 500.86101 132.40115 500.53125 131.8001 500.53125 131.0625 C 500.53125 130.96411 500.54375 130.75055 500.59375 130.40625 L 502.71875 120.5625 L 510.8125 120.5625 C 511.1565 120.5625 511.43525 120.45345 511.65625 120.28125 C 511.87825 120.10915 512 119.8955 512 119.625 C 512 119.23161 511.72124 119.03125 511.15625 119.03125 L 503.03125 119.03125 L 503.96875 114.65625 C 504.01875 114.45955 504.03125 114.31675 504.03125 114.21875 C 504.03125 113.84985 503.82424 113.65625 503.40625 113.65625 z M 242.375 118.46875 C 239.59602 118.46875 237.15248 119.52827 235.0625 121.59375 C 232.99651 123.65933 231.96875 126.05842 231.96875 128.8125 C 231.96875 130.63209 232.58251 132.13221 233.8125 133.3125 C 235.06649 134.46819 236.65077 135.03125 238.59375 135.03125 C 239.82274 135.03125 241.04501 134.87554 242.25 134.53125 C 243.47999 134.21155 244.49425 133.81759 245.28125 133.375 C 246.09224 132.9324 246.72676 132.51184 247.21875 132.09375 C 247.71075 131.65115 247.96875 131.3084 247.96875 131.0625 C 247.96875 130.91491 247.898 130.77925 247.75 130.65625 C 247.627 130.50895 247.498 130.4375 247.375 130.4375 C 247.203 130.4375 246.97524 130.57335 246.65625 130.84375 C 244.39326 132.63883 241.82797 133.53125 239 133.53125 C 237.40201 133.53125 236.09549 133.05939 235.0625 132.125 C 234.02951 131.166 233.5 129.93748 233.5 128.4375 C 233.5 127.8228 233.63625 127.11725 233.90625 126.28125 C 234.17724 125.42056 234.59125 124.4836 235.15625 123.5 C 235.74724 122.51641 236.63251 121.69525 237.8125 121.03125 C 239.01749 120.34276 240.42602 120 242 120 C 243.082 120 244.04526 120.20035 244.90625 120.59375 C 245.76724 120.98724 246.37475 121.38785 246.71875 121.78125 C 247.06374 122.17474 247.21875 122.4662 247.21875 122.6875 L 247.125 124.03125 C 247.297 124.32635 247.504 124.46875 247.75 124.46875 C 248.24199 124.46875 248.57175 124.1261 248.71875 123.4375 L 249.40625 120.0625 C 249.45625 119.7675 249.46875 119.61875 249.46875 119.59375 C 249.46875 119.44626 249.40425 119.31675 249.28125 119.21875 C 249.18325 119.09535 249.047 119.03125 248.875 119.03125 C 248.629 119.03125 248.4605 119.14705 248.3125 119.34375 C 248.16551 119.51595 248.05 119.665 248 119.8125 C 247.951 119.9601 247.8825 120.2183 247.8125 120.5625 C 246.50951 119.18551 244.71098 118.46875 242.375 118.46875 z M 418.5625 118.53125 C 415.83352 118.53125 413.40873 119.49492 411.34375 121.4375 C 409.27776 123.35549 408.25 125.59222 408.25 128.125 C 408.25 130.16588 408.92201 131.81506 410.25 133.09375 C 411.60299 134.37244 413.36101 135 415.5 135 C 417.31898 135 419.17577 134.64395 421.09375 133.90625 C 423.03674 133.16856 424 132.48314 424 131.84375 C 424 131.45035 423.83775 131.25 423.46875 131.25 C 423.34575 131.25 423.10125 131.3278 422.78125 131.5 C 421.89625 132.0901 420.80299 132.5686 419.5 132.9375 C 418.22201 133.3063 416.99874 133.5 415.84375 133.5 C 414.04877 133.5 412.60074 132.97029 411.46875 131.9375 C 410.33776 130.88011 409.78125 129.52249 409.78125 127.875 C 409.78125 127.5799 409.7925 127.30839 409.8125 127.0625 L 425.15625 127.0625 C 425.35125 126.0789 425.4375 125.3156 425.4375 124.75 C 425.4375 122.93042 424.80299 121.43704 423.5 120.28125 C 422.22101 119.10096 420.57949 118.53125 418.5625 118.53125 z M 463.9375 118.53125 C 462.8065 118.53125 461.78499 118.7449 460.875 119.1875 C 459.99001 119.60549 458.85924 120.41346 457.53125 121.59375 L 458.09375 119.03125 L 455.34375 119.03125 C 454.55676 119.03125 454.15625 119.35406 454.15625 119.96875 C 454.15625 120.36215 454.435 120.5625 455 120.5625 L 456.25 120.5625 L 453.625 132.90625 L 451.9375 132.90625 C 451.15051 132.90625 450.75 133.19781 450.75 133.8125 C 450.75 134.2059 451.06626 134.40625 451.65625 134.40625 L 456.46875 134.40625 C 457.25575 134.40625 457.65625 134.11479 457.65625 133.5 C 457.65625 133.1066 457.3775 132.90625 456.8125 132.90625 L 455.15625 132.90625 L 457.15625 123.5625 C 458.60624 122.11171 459.72026 121.16134 460.53125 120.71875 C 461.34225 120.25155 462.35026 120.03135 463.53125 120.03125 C 464.85924 120.03135 465.7715 120.36071 466.3125 121 C 466.87749 121.6394 467.1875 122.3248 467.1875 123.0625 C 467.1875 123.38219 467.14375 123.60915 467.09375 123.78125 L 465.1875 132.90625 L 463.9375 132.90625 C 463.1515 132.90625 462.75 133.19781 462.75 133.8125 C 462.75 134.2059 463.02875 134.40625 463.59375 134.40625 L 467.625 134.40625 C 467.96899 134.40625 468.24775 134.32835 468.46875 134.15625 C 468.69075 133.98405 468.8125 133.77049 468.8125 133.5 C 468.8125 133.1066 468.5025 132.90625 467.9375 132.90625 L 466.6875 132.90625 L 468.6875 123.53125 C 468.7375 123.33456 468.75 123.04965 468.75 122.65625 C 468.75 121.40216 468.32349 120.39395 467.4375 119.65625 C 466.55251 118.89396 465.38848 118.53125 463.9375 118.53125 z M 335.59375 118.65625 C 334.63476 118.65625 333.56224 118.97241 332.40625 119.5625 C 331.25125 120.1527 329.65874 121.23881 327.59375 122.8125 L 328.375 119.03125 L 324.125 119.03125 C 323.781 119.03125 323.471 119.10905 323.25 119.28125 C 323.055 119.45335 322.96875 119.6916 322.96875 119.9375 C 322.96875 120.3555 323.24751 120.5625 323.8125 120.5625 L 326.53125 120.5625 L 323.9375 132.90625 L 320.375 132.90625 C 320.031 132.90625 319.75224 132.98415 319.53125 133.15625 C 319.30925 133.30375 319.21875 133.51076 319.21875 133.78125 C 319.21875 134.19925 319.49751 134.40625 320.0625 134.40625 L 331.71875 134.40625 C 332.06275 134.40625 332.34151 134.3351 332.5625 134.1875 C 332.7835 134.0154 332.875 133.80174 332.875 133.53125 C 332.875 133.11325 332.59624 132.90625 332.03125 132.90625 L 325.4375 132.90625 L 327.1875 124.75 C 329.59748 122.88122 331.31075 121.6527 332.34375 121.0625 C 333.37574 120.47241 334.28901 120.1875 335.125 120.1875 C 335.764 120.1875 336.35175 120.45236 336.84375 120.96875 C 337.33475 121.48515 337.63325 121.71885 337.78125 121.71875 C 338.02725 121.71885 338.27175 121.6342 338.46875 121.4375 C 338.68975 121.2408 338.78125 121.03379 338.78125 120.8125 C 338.78125 120.4929 338.49 120.07224 337.875 119.53125 C 337.26101 118.96565 336.50274 118.65625 335.59375 118.65625 z M 379.8125 118.65625 C 378.85351 118.65625 377.81224 118.97241 376.65625 119.5625 C 375.50126 120.1527 373.87848 121.23881 371.8125 122.8125 L 372.625 119.03125 L 368.34375 119.03125 C 367.99976 119.03125 367.721 119.10905 367.5 119.28125 C 367.305 119.45335 367.1875 119.6916 367.1875 119.9375 C 367.1875 120.3555 367.4975 120.5625 368.0625 120.5625 L 370.78125 120.5625 L 368.15625 132.90625 L 364.625 132.90625 C 364.28101 132.90625 364.00225 132.98415 363.78125 133.15625 C 363.55925 133.30375 363.4375 133.51076 363.4375 133.78125 C 363.4375 134.19925 363.71525 134.40625 364.28125 134.40625 L 375.9375 134.40625 C 376.2825 134.40625 376.55925 134.3351 376.78125 134.1875 C 377.00225 134.0154 377.125 133.80174 377.125 133.53125 C 377.125 133.11325 376.84725 132.90625 376.28125 132.90625 L 369.65625 132.90625 L 371.40625 124.75 C 373.81523 122.88122 375.53051 121.6527 376.5625 121.0625 C 377.59549 120.47241 378.539 120.1875 379.375 120.1875 C 380.01399 120.1875 380.57151 120.45236 381.0625 120.96875 C 381.5545 121.48515 381.88425 121.71885 382.03125 121.71875 C 382.27725 121.71885 382.4915 121.6342 382.6875 121.4375 C 382.9095 121.2408 383.03125 121.03379 383.03125 120.8125 C 383.03125 120.4929 382.70874 120.07224 382.09375 119.53125 C 381.47875 118.96565 380.7225 118.65625 379.8125 118.65625 z M 277.59375 119.03125 C 276.80676 119.03125 276.40625 119.35406 276.40625 119.96875 C 276.40625 120.36215 276.684 120.5625 277.25 120.5625 L 279.25 120.5625 L 277.21875 130.1875 C 277.12075 130.7285 277.0625 131.13575 277.0625 131.40625 C 277.0625 132.51284 277.44326 133.39861 278.15625 134.0625 C 278.86924 134.7018 279.83351 135 281.0625 135 C 283.57048 135 286.02752 133.98503 288.4375 131.96875 L 287.90625 134.40625 L 287.9375 134.40625 L 290.6875 134.40625 C 291.4745 134.40625 291.875 134.11479 291.875 133.5 C 291.875 133.1066 291.59625 132.90625 291.03125 132.90625 L 289.78125 132.90625 L 292.71875 119.03125 L 288.46875 119.03125 C 287.65676 119.03125 287.25 119.35406 287.25 119.96875 C 287.25 120.36215 287.56626 120.5625 288.15625 120.5625 L 290.875 120.5625 L 288.84375 130.1875 C 286.33577 132.40058 283.82773 133.5 281.34375 133.5 C 280.55675 133.5 279.92325 133.2418 279.40625 132.75 C 278.91425 132.25831 278.65625 131.63064 278.65625 130.84375 C 278.65625 130.54875 278.7 130.3351 278.75 130.1875 L 281.09375 119.03125 L 277.59375 119.03125 z M 418.25 120.03125 C 419.92199 120.03135 421.28676 120.50986 422.34375 121.46875 C 423.42574 122.40324 423.96875 123.62511 423.96875 125.125 C 423.96875 125.2972 423.9575 125.4396 423.9375 125.5625 L 410.15625 125.5625 C 410.84424 123.86591 411.89276 122.51484 413.34375 121.53125 C 414.81874 120.52316 416.45502 120.03135 418.25 120.03125 z "
         transform="translate(135.42799,261.98333)"
         id="path6249"
         inkscape:export-filename="Slackware.Linux.Current.Branch.Logo_512x135.png"
         inkscape:export-xdpi="89.979172"
         inkscape:export-ydpi="89.979172" />
    </g>
  </g>
</svg>
