<?xml version="1.0" encoding="UTF-8" standalone="no"?>
<!-- Created with Inkscape (http://www.inkscape.org/) -->

<!-- 
 
 SLACKWARE LINUX GRAPHICS PROJECT: 

 Slackware Linux Graphics Project aims to provide a set of visual components related to GNU/Linux Slackware in both vector and 
 raster graphics formats for its users. 
 
 LEGAL DISCLAIMER: 

 Graphics in this project are all free artwork; you can use them, redistribute them and/or modify them under the *related* terms 
 explained in Slackware Linux Propaganda Graphics FAQ section on Slackware Linux home page. 

 You should have received a copy of the Slackware Linux Propaganda Graphics FAQ text 
 along with this artwork package. If not, see "http://www.slackware.com/". 

 This artwork package is distributed in the hope that it will be useful, but WITHOUT ANY WARRANTY. 

 Slackware Linux Graphics Project does not officially represent neither Linux nor Slackware Linux in any way. 
 Linux is a registered trademark of Linus Torvalds. Slackware Linux is a registered trademark of Slackware Linux, Inc. 
 and Patrick Volkerding. 
 
 DOWNLOAD INFORMATION: 

 You can download more recent versions of the Slackware Linux Graphics from the project's blog 
 at "http://www.slackware-linux-graphics.blogspot.com/". 

 OPINIONS AND SUGGESTIONS: 
 
 Please contact with the project for your opinions and suggestions related to Slackware Linux Graphics. 
 
 CONTACT INFORMATION: 
 
 Maintainer: Ismail Demiral 
 E-Mail: slackware.linux.graphics@gmail.com 
 Blog: http://www.slackware-linux-graphics.blogspot.com/ 
 
 -->

<svg
   xmlns:dc="http://purl.org/dc/elements/1.1/"
   xmlns:cc="http://creativecommons.org/ns#"
   xmlns:rdf="http://www.w3.org/1999/02/22-rdf-syntax-ns#"
   xmlns:svg="http://www.w3.org/2000/svg"
   xmlns="http://www.w3.org/2000/svg"
   xmlns:sodipodi="http://sodipodi.sourceforge.net/DTD/sodipodi-0.dtd"
   xmlns:inkscape="http://www.inkscape.org/namespaces/inkscape"
   width="512"
   height="75"
   id="svg28587"
   version="1.1"
   inkscape:version="0.48.3.1 r9886"
   sodipodi:docname="Slackware.Linux.ARMedslack.Logo_FreeSans.svg">
  <defs
     id="defs28589" />
  <sodipodi:namedview
     id="base"
     pagecolor="#ffffff"
     bordercolor="#666666"
     borderopacity="1.0"
     inkscape:pageopacity="0.0"
     inkscape:pageshadow="2"
     inkscape:zoom="0.98994949"
     inkscape:cx="299.2059"
     inkscape:cy="101.22173"
     inkscape:document-units="px"
     inkscape:current-layer="layer1"
     showgrid="false"
     inkscape:window-width="1366"
     inkscape:window-height="721"
     inkscape:window-x="-2"
     inkscape:window-y="-3"
     inkscape:window-maximized="1"
     fit-margin-top="0"
     fit-margin-left="0"
     fit-margin-right="0"
     fit-margin-bottom="0" />
  <metadata
     id="metadata28592">
    <rdf:RDF>
      <cc:Work
         rdf:about="">
        <dc:format>image/svg+xml</dc:format>
        <dc:type
           rdf:resource="http://purl.org/dc/dcmitype/StillImage" />
        <dc:title></dc:title>
      </cc:Work>
    </rdf:RDF>
  </metadata>
  <g
     inkscape:label="Layer 1"
     inkscape:groupmode="layer"
     id="layer1"
     transform="translate(-106.12946,-107.71429)">
    <g
       id="g28720"
       transform="translate(-40.714286,-124.28571)"
       inkscape:export-filename="Slackware.Linux.ARMedslack.Logo_FreeSans_512x75.png"
       inkscape:export-xdpi="89.999954"
       inkscape:export-ydpi="89.999954">
      <path
         inkscape:connector-curvature="0"
         id="rect25568"
         d="m 149.357,234.505 507,0 0,70 -507,0 z"
         style="fill:none;stroke:#000000;stroke-width:5;stroke-linecap:round;stroke-linejoin:round;stroke-miterlimit:4" />
      <path
         id="path25570"
         d="m 149.34375,234.5 0,70 181.53125,0 0,-70 -181.53125,0 z m 26.46875,13.5625 9.46875,0 14.34375,41.5625 -8.75,0 -2.75,-8.375 -15.5625,0 -2.78125,8.375 -8.71875,0 14.75,-41.5625 z m 44.78125,0 22.28125,0 c 8.948,0 11.15625,6.633 11.15625,11.25 0,5.072 -2.326,8.426 -7,10.25 5.301,2.28 5.522,2.84075 5.75,15.09375 0,1.824 0.53375,2.6965 1.84375,3.4375 l 0,1.53125 -9.1875,0 c -1.083,-1.994 -1.3125,-3.249 -1.3125,-7.125 0,-3.077 0.125,-2.608 0.125,-4.375 0,-3.477 -1.6085,-4.96875 -5.3125,-4.96875 l -9.8125,0 0,16.46875 -8.53125,0 0,-41.5625 z m 57,0 12.75,0 7.53125,33.0625 7.28125,-33.0625 12.90625,0 0,41.5625 -8.5625,0 0,-32.375 -7.34375,32.375 -8.5625,0 -7.46875,-32.375 0,32.375 -8.53125,0 0,-41.5625 z m -48.46875,7.125 0,10.84375 10.34375,0 c 3.534,0 6.03125,-0.68625 6.03125,-5.53125 0,-4.616 -2.44025,-5.3125 -6.03125,-5.3125 l -10.34375,0 z m -48.75,2.6875 -5.40625,16.25 10.8125,0 -5.40625,-16.25 z"
         style="fill:#000000;stroke:none"
         inkscape:connector-curvature="0" />
      <path
         inkscape:connector-curvature="0"
         id="path28677"
         d="m 354.892,258.335 c -8.834,0 -14.248,6.383 -14.248,16.698 0,9.86 5.357,15.901 14.077,15.901 6.896,0 12.481,-3.932 14.248,-9.973 l -7.865,0 c -0.969,2.45 -3.192,3.875 -6.098,3.875 -5.357,0 -6.212,-3.932 -6.383,-8.093 l 20.631,0 c 0.06,-0.684 0.06,-0.969 0.06,-1.368 0,-13.621 -8.264,-17.04 -14.419,-17.04 m 6.098,13.108 -12.253,0 c 0.513,-4.673 2.507,-7.01 6.041,-7.01 3.704,0 5.87,2.508 6.212,7.01"
         style="font-size:56.99198914px;font-style:normal;font-variant:normal;font-weight:normal;font-stretch:normal;line-height:125%;letter-spacing:0px;word-spacing:0px;fill:#000000;fill-opacity:1;stroke:none;font-family:FreeSans;-inkscape-font-specification:FreeSans" />
      <path
         inkscape:connector-curvature="0"
         id="path28679"
         d="m 402.67,290.934 c 3.818,0 6.497,-1.425 8.492,-4.445 l 0,3.134 7.979,0 0,-41.547 -7.979,0 0,14.761 c -1.995,-3.077 -4.674,-4.502 -8.492,-4.502 -7.352,0 -12.937,7.067 -12.937,16.356 0,9.005 5.186,16.243 12.937,16.243 m 1.767,-25.931 c 4.046,0 6.725,3.932 6.725,9.802 0,5.586 -2.736,9.461 -6.725,9.461 -3.99,0 -6.725,-3.932 -6.725,-9.575 0,-5.699 2.735,-9.688 6.725,-9.688"
         style="font-size:56.99198914px;font-style:normal;font-variant:normal;font-weight:normal;font-stretch:normal;line-height:125%;letter-spacing:0px;word-spacing:0px;fill:#000000;fill-opacity:1;stroke:none;font-family:FreeSans;-inkscape-font-specification:FreeSans" />
      <path
         inkscape:connector-curvature="0"
         id="path28681"
         d="m 448.174,280.676 -7.808,0 c 0.228,6.725 5.187,10.258 14.533,10.258 10.772,0 13.451,-6.155 13.451,-10.429 0,-3.99 -1.995,-6.554 -6.042,-7.751 l -10.087,-2.907 c -2.223,-0.684 -2.793,-1.14 -2.793,-2.394 0,-1.709 1.824,-2.849 4.617,-2.849 3.818,0 5.699,1.368 5.756,4.16 l 7.694,0 c -0.114,-6.497 -5.13,-10.429 -13.393,-10.429 -7.808,0 -12.653,3.932 -12.653,10.258 0,6.041 4.959,7.01 6.725,7.58 l 9.518,2.964 c 1.995,0.627 2.679,1.254 2.679,2.507 0,1.881 -2.223,3.021 -5.927,3.021 -5.016,0 -5.814,-1.881 -6.27,-3.989"
         style="font-size:56.99198914px;font-style:normal;font-variant:normal;font-weight:normal;font-stretch:normal;line-height:125%;letter-spacing:0px;word-spacing:0px;fill:#000000;fill-opacity:1;stroke:none;font-family:FreeSans;-inkscape-font-specification:FreeSans" />
      <path
         inkscape:connector-curvature="0"
         id="path28683"
         d="m 497.871,248.076 -7.979,0 0,41.547 7.979,0 0,-41.547"
         style="font-size:56.99198914px;font-style:normal;font-variant:normal;font-weight:normal;font-stretch:normal;line-height:125%;letter-spacing:0px;word-spacing:0px;fill:#000000;fill-opacity:1;stroke:none;font-family:FreeSans;-inkscape-font-specification:FreeSans" />
      <path
         inkscape:connector-curvature="0"
         id="path28685"
         d="m 528.981,290.934 c 3.42,0 6.554,-1.482 9.347,-4.388 0,1.596 0.171,2.165 0.912,3.077 l 8.662,0 0,-0.969 c -1.424,-1.31 -1.823,-2.165 -1.823,-3.761 l 0,-17.098 c 0,-6.269 -4.275,-9.46 -12.596,-9.46 -8.32,0 -12.652,3.533 -13.165,10.657 l 7.694,0 c 0.399,-3.191 1.71,-4.217 5.642,-4.217 3.078,0 4.617,1.026 4.617,3.077 0,3.021 -3.762,3.192 -6.383,3.591 l -3.192,0.57 c -6.098,1.026 -9.062,4.16 -9.062,9.688 0,5.529 3.762,9.233 9.347,9.233 m 9.29,-13.678 c 0,4.616 -2.28,7.238 -6.326,7.238 -2.679,0 -4.332,-1.425 -4.332,-3.704 0,-2.394 1.254,-3.534 4.56,-4.218 l 2.735,-0.513 c 2.109,-0.399 2.451,-0.513 3.363,-0.969 l 0,2.166"
         style="font-size:56.99198914px;font-style:normal;font-variant:normal;font-weight:normal;font-stretch:normal;line-height:125%;letter-spacing:0px;word-spacing:0px;fill:#000000;fill-opacity:1;stroke:none;font-family:FreeSans;-inkscape-font-specification:FreeSans" />
      <path
         inkscape:connector-curvature="0"
         id="path28687"
         d="m 582.197,264.775 c 3.249,0 4.788,1.539 5.699,5.585 l 7.637,0 c -0.57,-7.523 -5.585,-12.025 -13.279,-12.025 -9.175,0 -14.533,6.041 -14.533,16.527 0,10.145 5.301,16.072 14.419,16.072 7.466,0 12.653,-4.616 13.393,-11.968 l -7.637,0 c -1.025,3.989 -2.621,5.528 -5.699,5.528 -4.046,0 -6.497,-3.647 -6.497,-9.632 0,-4.274 0.969,-10.087 6.497,-10.087"
         style="font-size:56.99198914px;font-style:normal;font-variant:normal;font-weight:normal;font-stretch:normal;line-height:125%;letter-spacing:0px;word-spacing:0px;fill:#000000;fill-opacity:1;stroke:none;font-family:FreeSans;-inkscape-font-specification:FreeSans" />
      <path
         inkscape:connector-curvature="0"
         id="path28689"
         d="m 624.767,270.816 0,-22.74 -7.979,0 0,41.547 7.979,0 0,-10.087 3.191,-3.477 7.352,13.564 9.347,0 -11.227,-19.149 10.486,-11.626 -9.062,0 -10.087,11.968"
         style="font-size:56.99198914px;font-style:normal;font-variant:normal;font-weight:normal;font-stretch:normal;line-height:125%;letter-spacing:0px;word-spacing:0px;fill:#000000;fill-opacity:1;stroke:none;font-family:FreeSans;-inkscape-font-specification:FreeSans" />
    </g>
  </g>
</svg>
