<?xml version="1.0" encoding="UTF-8" standalone="no"?>
<!-- Created with Inkscape (http://www.inkscape.org/) -->

<!-- 
 
 SLACKWARE LINUX GRAPHICS PROJECT: 

 Slackware Linux Graphics Project aims to provide a set of visual components related to GNU/Linux Slackware in both vector and 
 raster graphics formats for its users. 
 
 LEGAL DISCLAIMER: 

 Graphics in this project are all free artwork; you can use them, redistribute them and/or modify them under the *related* terms 
 explained in Slackware Linux Propaganda Graphics FAQ section on Slackware Linux home page. 

 You should have received a copy of the Slackware Linux Propaganda Graphics FAQ text 
 along with this artwork package. If not, see "http://www.slackware.com/". 

 This artwork package is distributed in the hope that it will be useful, but WITHOUT ANY WARRANTY. 

 Slackware Linux Graphics Project does not officially represent neither Linux nor Slackware Linux in any way. 
 Linux is a registered trademark of Linus Torvalds. Slackware Linux is a registered trademark of Slackware Linux, Inc. 
 and Patrick Volkerding. 
 
 DOWNLOAD INFORMATION: 

 You can download more recent versions of the Slackware Linux Graphics from the project's blog 
 at "http://www.slackware-linux-graphics.blogspot.com/". 

 OPINIONS AND SUGGESTIONS: 
 
 Please contact with the project for your opinions and suggestions related to Slackware Linux Graphics. 
 
 CONTACT INFORMATION: 
 
 Maintainer: Ismail Demiral 
 E-Mail: slackware.linux.graphics@gmail.com 
 Blog: http://www.slackware-linux-graphics.blogspot.com/ 
 
 -->

<svg
   xmlns:dc="http://purl.org/dc/elements/1.1/"
   xmlns:cc="http://creativecommons.org/ns#"
   xmlns:rdf="http://www.w3.org/1999/02/22-rdf-syntax-ns#"
   xmlns:svg="http://www.w3.org/2000/svg"
   xmlns="http://www.w3.org/2000/svg"
   xmlns:sodipodi="http://sodipodi.sourceforge.net/DTD/sodipodi-0.dtd"
   xmlns:inkscape="http://www.inkscape.org/namespaces/inkscape"
   width="511.99991"
   height="103.62575"
   id="svg2"
   version="1.1"
   inkscape:version="0.48.3.1 r9886"
   sodipodi:docname="Slackware.Linux.Traditional.Logo.v2_FreeMono.svg">
  <defs
     id="defs4" />
  <sodipodi:namedview
     id="base"
     pagecolor="#ffffff"
     bordercolor="#666666"
     borderopacity="1.0"
     inkscape:pageopacity="0.0"
     inkscape:pageshadow="2"
     inkscape:zoom="0.98994949"
     inkscape:cx="308.56336"
     inkscape:cy="7.7127138"
     inkscape:document-units="px"
     inkscape:current-layer="layer1"
     showgrid="false"
     inkscape:window-width="1366"
     inkscape:window-height="721"
     inkscape:window-x="-2"
     inkscape:window-y="-3"
     inkscape:window-maximized="1"
     fit-margin-top="0"
     fit-margin-left="0"
     fit-margin-right="0"
     fit-margin-bottom="0" />
  <metadata
     id="metadata7">
    <rdf:RDF>
      <cc:Work
         rdf:about="">
        <dc:format>image/svg+xml</dc:format>
        <dc:type
           rdf:resource="http://purl.org/dc/dcmitype/StillImage" />
        <dc:title></dc:title>
      </cc:Work>
    </rdf:RDF>
  </metadata>
  <g
     inkscape:label="Layer 1"
     inkscape:groupmode="layer"
     id="layer1"
     transform="translate(16.000013,-71.975003)">
    <g
       id="g3107"
       inkscape:export-filename="Slackware.Linux.Traditional.Logo.v2_FreeMono_512x104.png"
       inkscape:export-xdpi="90.325043"
       inkscape:export-ydpi="90.325043">
      <path
         inkscape:connector-curvature="0"
         id="rect5827"
         d="m 280.99991,140.60075 0,35 215,0 0,-35 -215,0 z m 13.5625,5.78125 6.5625,0 0,19.28125 4.5,0 c 1.623,0 2.4375,0.61435 2.4375,1.84375 0,1.22951 -0.8145,1.84375 -2.4375,1.84375 l -12.6875,0 c -1.623,0 -2.4375,-0.61424 -2.4375,-1.84375 0,-0.7131 0.207,-1.1916 0.625,-1.4375 0.418,-0.2704 1.0255,-0.40625 1.8125,-0.40625 l 4.5,0 0,-15.59375 -2.875,0 c -1.64801,1e-4 -2.46875,-0.61425 -2.46875,-1.84375 0,-0.7131 0.207,-1.1916 0.625,-1.4375 0.418,-0.2704 1.03174,-0.40625 1.84375,-0.40625 z m 45.9375,0 4.34375,0 0,3.875 -4.34375,0 0,-3.875 z m 48.4375,6.375 c 1.918,0 3.48975,0.5431 4.71875,1.625 1.23001,1.082 1.84375,2.5954 1.84375,4.5625 l 0,6.71875 c 1.5,0 2.25,0.61435 2.25,1.84375 0,1.22951 -0.8145,1.84375 -2.4375,1.84375 l -3.28125,0 c -1.647,0 -2.46875,-0.61424 -2.46875,-1.84375 0,-1.2294 0.75,-1.84375 2.25,-1.84375 l 0,-6.5625 c 0,-1.7705 -1.13075,-2.65625 -3.34375,-2.65625 -0.86001,0 -1.6235,0.1937 -2.3125,0.5625 -0.663,0.3689 -1.42125,1.0031 -2.28125,1.9375 l 0,6.71875 0.21875,0 c 1.623,0 2.4375,0.61435 2.4375,1.84375 0,1.22951 -0.8145,1.84375 -2.4375,1.84375 l -4.125,0 c -1.623,0 -2.4375,-0.61424 -2.4375,-1.84375 0,-1.2294 0.8145,-1.84375 2.4375,-1.84375 l 0.21875,0 0,-8.75 c -1.5,-0.049 -2.25,-0.66335 -2.25,-1.84375 0,-1.2294 0.82175,-1.84375 2.46875,-1.84375 l 3.46875,0 0,1.78125 c 0.885,-0.8361 1.6995,-1.4303 2.4375,-1.75 0.738,-0.3442 1.61699,-0.5 2.625,-0.5 z m -50.15625,0.46875 6.5625,0 0,12.4375 4.5,0 c 1.623,0 2.4375,0.61435 2.4375,1.84375 0,1.22951 -0.8145,1.84375 -2.4375,1.84375 l -12.6875,0 c -1.623,0 -2.4375,-0.61424 -2.4375,-1.84375 0,-0.7131 0.207,-1.1916 0.625,-1.4375 0.418,-0.2704 1.0255,-0.40625 1.8125,-0.40625 l 4.5,0 0,-8.75 -2.875,0 c -1.64801,0 -2.46875,-0.61425 -2.46875,-1.84375 0,-0.7376 0.207,-1.22285 0.625,-1.46875 0.443,-0.2459 1.05674,-0.375 1.84375,-0.375 z m 85.03125,0 4.28125,0 0,10.25 c 0,1.7705 1.086,2.65625 3.25,2.65625 0.935,0 1.72875,-0.14905 2.34375,-0.46875 0.615,-0.3442 1.38475,-1.02305 2.34375,-2.03125 l 0,-6.71875 -1.28125,0 -0.375,0 c -0.738,0 -1.27475,-0.16234 -1.59375,-0.53125 -0.32001,-0.3934 -0.46875,-0.8452 -0.46875,-1.3125 0,-1.2294 0.8145,-1.84375 2.4375,-1.84375 l 4.96875,0 0,12.4375 c 1.5,0 2.25,0.61435 2.25,1.84375 0,1.22951 -0.8155,1.84375 -2.4375,1.84375 l -3.5,0 0,-1.78125 c -0.909,0.86071 -1.73075,1.46155 -2.46875,1.78125 -0.713,0.3196 -1.58575,0.46875 -2.59375,0.46875 -1.942,0 -3.51999,-0.5431 -4.75,-1.625 -1.205,-1.10661 -1.8125,-2.62655 -1.8125,-4.59375 l 0,-6.6875 -1,0 c -0.615,0 -1.10075,-0.15569 -1.46875,-0.5 -0.369,-0.3443 -0.5625,-0.80275 -0.5625,-1.34375 0,-0.713 0.23825,-1.1915 0.65625,-1.4375 0.418,-0.2704 0.99425,-0.40625 1.78125,-0.40625 z m 45.25,0 3.375,0 c 1.623,0 2.4375,0.6076 2.4375,1.8125 0,0.7131 -0.2985,1.26939 -0.9375,1.6875 l 2.25,1.8125 2.25,-1.84375 c -0.639,-0.44261 -0.96875,-0.97895 -0.96875,-1.59375 0,-1.254 0.8145,-1.875 2.4375,-1.875 l 3.34375,0 c 1.647,0 2.46875,0.61435 2.46875,1.84375 0,1.1066 -0.6345,1.72075 -1.9375,1.84375 l -4.875,4.0625 5.59375,4.6875 c 1.328,0.074 2,0.68805 2,1.84375 0,1.22951 -0.8145,1.84375 -2.4375,1.84375 l -4.125,0 c -1.647,0 -2.46875,-0.62099 -2.46875,-1.875 0,-0.9344 0.48575,-1.542 1.46875,-1.8125 l -2.75,-2.25 -2.71875,2.25 c 0.935,0.3935 1.40625,1.001 1.40625,1.8125 0,1.25401 -0.8145,1.875 -2.4375,1.875 l -4.09375,0 c -1.622,0 -2.4375,-0.61424 -2.4375,-1.84375 0,-1.1557 0.672,-1.76995 2,-1.84375 l 5.34375,-4.71875 -4.71875,-4.03125 c -1.279,-0.123 -1.90625,-0.73715 -1.90625,-1.84375 0,-1.2294 0.8145,-1.84375 2.4375,-1.84375 z"
         style="fill:#000000;fill-rule:evenodd;stroke:none" />
      <g
         transform="matrix(1.0000018,0,0,1.0000018,14991.025,5848.2435)"
         style="font-size:25.39759445px;font-style:normal;font-weight:normal;line-height:125%;letter-spacing:0px;word-spacing:0px;fill:#000000;fill-opacity:1;stroke:none;font-family:Sans"
         id="text6361">
        <path
           d="m -14937.607,-5751.0231 c 0,1.9506 -0.335,3.444 -1.005,4.4802 -0.61,1.0362 -1.799,1.5543 -3.566,1.5543 -1.097,0 -2.012,-0.3352 -2.743,-1.0057 -0.732,-0.6705 -1.341,-1.3715 -1.829,-2.103 -0.427,-0.7923 -1.463,-1.5238 -3.108,-2.1943 -1.585,-0.6705 -3.749,-1.0057 -6.492,-1.0058 -2.316,1e-4 -4.419,0.3353 -6.309,1.0058 -1.828,0.6096 -2.743,1.341 -2.743,2.1943 0,1.2192 1.341,2.103 4.023,2.6515 2.682,0.4877 6.035,1.0363 10.058,1.6458 4.023,0.6096 7.101,1.5239 9.234,2.743 2.012,1.0971 3.566,2.56 4.663,4.3887 1.158,1.8286 1.737,3.8096 1.737,5.943 0,3.7182 -1.92,6.7964 -5.76,9.2346 -3.84,2.4381 -8.716,3.6572 -14.629,3.6572 -5.303,0 -9.813,-0.8838 -13.532,-2.6515 -0.914,0.7315 -1.889,1.0972 -2.925,1.0972 -3.109,0 -4.663,-2.0115 -4.663,-6.0345 l 0,-3.0172 c 0,-4.0839 1.554,-6.1259 4.663,-6.1259 2.316,0 3.87,1.341 4.663,4.023 2.621,2.3772 6.43,3.5658 11.428,3.5658 2.926,0 5.425,-0.3962 7.498,-1.1886 2.133,-0.7924 3.2,-1.7067 3.2,-2.743 0,-2.3772 -3.84,-3.962 -11.52,-4.7544 -6.401,-0.6705 -11.033,-1.981 -13.898,-3.9315 -2.865,-1.9506 -4.297,-4.724 -4.297,-8.3203 0,-3.6572 1.767,-6.644 5.303,-8.9603 3.535,-2.3771 8.046,-3.5658 13.532,-3.5658 4.449,0 8.381,0.7925 11.794,2.3772 0.671,-1.5847 1.646,-2.3772 2.926,-2.3772 2.865,0 4.297,2.0115 4.297,6.0345 l 0,3.3829"
           style="font-size:91.43135071px;font-variant:normal;font-weight:bold;font-stretch:normal;text-align:center;text-anchor:middle;fill:#000000;font-family:FreeMono;-inkscape-font-specification:FreeMono"
           id="path3038"
           inkscape:connector-curvature="0" />
        <path
           d="m -14919.448,-5771.6866 c 0,-1.7676 0.519,-2.9562 1.555,-3.5658 1.036,-0.6704 2.56,-1.0057 4.571,-1.0057 l 16.275,0 0,47.8186 11.155,0 c 4.023,0 6.034,1.5238 6.034,4.5715 0,3.0478 -2.011,4.5716 -6.034,4.5716 l -31.453,0 c -4.023,0 -6.034,-1.5238 -6.034,-4.5716 0,-1.7676 0.518,-2.9562 1.554,-3.5658 1.036,-0.6705 2.53,-1.0057 4.48,-1.0057 l 11.155,0 0,-38.6755 -7.132,0 c -4.084,1e-4 -6.126,-1.5238 -6.126,-4.5716"
           style="font-size:91.43135071px;font-variant:normal;font-weight:bold;font-stretch:normal;text-align:center;text-anchor:middle;fill:#000000;font-family:FreeMono;-inkscape-font-specification:FreeMono"
           id="path3040"
           inkscape:connector-curvature="0" />
        <path
           d="m -14870.385,-5730.1767 c 0,-4.1449 2.042,-7.7412 6.126,-10.7889 4.084,-3.1087 9.418,-4.663 16.001,-4.663 2.743,0 5.912,0.3048 9.509,0.9143 l 0,-2.1029 c 0,-2.9868 -2.835,-4.4801 -8.503,-4.4802 -2.5,1e-4 -5.334,0.3658 -8.504,1.0972 -3.169,0.6705 -5.089,1.0058 -5.76,1.0058 -1.28,0 -2.347,-0.4267 -3.2,-1.2801 -0.853,-0.9143 -1.28,-2.0419 -1.28,-3.3829 0,-1.9505 0.914,-3.2306 2.743,-3.8402 5.181,-1.8285 10.423,-2.7429 15.726,-2.7429 5.608,0 9.997,1.1887 13.166,3.5658 3.231,2.3773 4.846,5.6993 4.846,9.966 l 0,18.4692 1.463,0 c 4.023,0 6.035,1.5238 6.035,4.5715 0,3.0478 -2.012,4.5716 -6.035,4.5716 l -10.697,0 0,-2.1029 c -4.572,2.3772 -9.631,3.5658 -15.178,3.5658 -4.511,0 -8.381,-1.1886 -11.612,-3.5658 -3.23,-2.4382 -4.846,-5.364 -4.846,-8.7774 m 31.727,-1.4629 0,-4.5716 c -3.84,-0.6705 -7.223,-1.0057 -10.149,-1.0057 -3.109,0 -5.882,0.6705 -8.32,2.0115 -2.377,1.341 -3.566,2.8953 -3.566,4.663 0,1.0362 0.671,1.8895 2.012,2.56 1.341,0.6705 2.986,1.0058 4.937,1.0058 4.998,0 10.027,-1.5543 15.086,-4.663"
           style="font-size:91.43135071px;font-variant:normal;font-weight:bold;font-stretch:normal;text-align:center;text-anchor:middle;fill:#000000;font-family:FreeMono;-inkscape-font-specification:FreeMono"
           id="path3042"
           inkscape:connector-curvature="0" />
        <path
           d="m -14770.029,-5747.3658 c 0,4.023 -1.524,6.0345 -4.571,6.0345 -1.646,0 -2.804,-0.4572 -3.475,-1.3715 -0.609,-0.9143 -1.097,-2.042 -1.463,-3.383 -0.365,-1.3409 -0.975,-2.3162 -1.828,-2.9258 -2.499,-1.5238 -5.73,-2.2857 -9.692,-2.2858 -4.328,1e-4 -7.802,1.2192 -10.423,3.6573 -2.56,2.3772 -3.84,5.5164 -3.84,9.4174 0,7.4974 5.364,11.2461 16.092,11.2461 3.23,0 5.912,-0.2743 8.046,-0.8229 2.133,-0.5486 3.565,-1.1276 4.297,-1.7372 0.792,-0.6095 1.554,-1.1886 2.286,-1.7372 0.792,-0.5486 1.554,-0.8229 2.286,-0.8229 1.219,0 2.285,0.4572 3.2,1.3715 0.914,0.9143 1.371,2.0115 1.371,3.2915 0,2.6211 -2.042,4.8764 -6.126,6.7659 -4.023,1.8896 -9.356,2.8344 -16,2.8344 -3.779,0 -7.162,-0.4267 -10.149,-1.28 -2.926,-0.8534 -5.273,-1.9506 -7.04,-3.2916 -1.768,-1.4019 -3.231,-3.0172 -4.389,-4.8458 -1.158,-1.8286 -1.951,-3.6268 -2.377,-5.3945 -0.427,-1.8286 -0.64,-3.6877 -0.64,-5.5773 0,-6.5221 2.164,-11.8555 6.491,-16.0005 4.389,-4.1448 10.027,-6.2173 16.915,-6.2173 5.242,0 9.631,0.9144 13.166,2.7429 0.549,-1.8285 1.707,-2.7429 3.475,-2.7429 2.925,0 4.388,2.0115 4.388,6.0345 l 0,7.0402"
           style="font-size:91.43135071px;font-variant:normal;font-weight:bold;font-stretch:normal;text-align:center;text-anchor:middle;fill:#000000;font-family:FreeMono;-inkscape-font-specification:FreeMono"
           id="path3044"
           inkscape:connector-curvature="0" />
        <path
           d="m -14718.497,-5728.4395 c 4.084,0 6.126,1.5238 6.126,4.5715 0,3.0478 -2.042,4.5716 -6.126,4.5716 l -10.789,0 c -4.023,0 -6.035,-1.5238 -6.035,-4.5716 0,-1.219 0.488,-2.3467 1.463,-3.3829 l -9.417,-8.3203 -1.646,1.2801 0,14.9947 -10.606,0 c -4.023,0 -6.034,-1.5238 -6.034,-4.5716 0,-1.7676 0.518,-2.9562 1.554,-3.5658 1.036,-0.6705 2.53,-1.0057 4.48,-1.0057 l 1.463,0 0,-38.6755 -1.463,0 c -1.95,1e-4 -3.444,-0.3047 -4.48,-0.9143 -1.036,-0.6704 -1.554,-1.8895 -1.554,-3.6573 0,-3.0476 2.011,-4.5715 6.034,-4.5715 l 10.606,0 0,30.7209 7.223,-5.7602 c -0.975,-1.1581 -1.463,-2.2857 -1.463,-3.3829 0,-3.0477 2.042,-4.5715 6.126,-4.5716 l 10.241,0 c 2.011,1e-4 3.504,0.3353 4.48,1.0058 1.036,0.6705 1.554,1.8591 1.554,3.5658 0,3.0477 -2.011,4.5716 -6.034,4.5715 l -2.56,0 -10.789,8.7775 14.629,12.8918 3.017,0"
           style="font-size:91.43135071px;font-variant:normal;font-weight:bold;font-stretch:normal;text-align:center;text-anchor:middle;fill:#000000;font-family:FreeMono;-inkscape-font-specification:FreeMono"
           id="path3046"
           inkscape:connector-curvature="0" />
        <path
           d="m -14669.434,-5750.2002 c -4.023,0 -6.035,-1.4933 -6.035,-4.4801 0,-3.0477 2.012,-4.5715 6.035,-4.5716 l 8.503,0 c 4.023,1e-4 6.034,1.5239 6.034,4.5716 0,2.8039 -1.584,4.2973 -4.754,4.4801 l -7.68,30.9038 -8.412,0 -6.492,-16.5491 -6.217,16.5491 -8.594,0 -7.772,-30.9038 c -1.585,-0.1219 -2.804,-0.5485 -3.657,-1.28 -0.854,-0.7924 -1.28,-1.8591 -1.28,-3.2001 0,-3.0477 2.011,-4.5715 6.034,-4.5716 l 8.412,0 c 1.95,1e-4 3.444,0.3353 4.48,1.0058 1.036,0.6095 1.554,1.7981 1.554,3.5658 0,2.9868 -1.95,4.4801 -5.851,4.4801 l 3.565,13.989 5.486,-14.4461 8.046,0 5.578,14.4461 3.657,-13.989 -0.64,0"
           style="font-size:91.43135071px;font-variant:normal;font-weight:bold;font-stretch:normal;text-align:center;text-anchor:middle;fill:#000000;font-family:FreeMono;-inkscape-font-specification:FreeMono"
           id="path3048"
           inkscape:connector-curvature="0" />
        <path
           d="m -14651.092,-5730.1767 c 0,-4.1449 2.042,-7.7412 6.126,-10.7889 4.084,-3.1087 9.417,-4.663 16,-4.663 2.743,0 5.913,0.3048 9.509,0.9143 l 0,-2.1029 c 0,-2.9868 -2.834,-4.4801 -8.503,-4.4802 -2.499,1e-4 -5.334,0.3658 -8.503,1.0972 -3.17,0.6705 -5.09,1.0058 -5.76,1.0058 -1.28,0 -2.347,-0.4267 -3.2,-1.2801 -0.854,-0.9143 -1.281,-2.0419 -1.281,-3.3829 0,-1.9505 0.915,-3.2306 2.743,-3.8402 5.182,-1.8285 10.424,-2.7429 15.727,-2.7429 5.607,0 9.996,1.1887 13.166,3.5658 3.23,2.3773 4.846,5.6993 4.846,9.966 l 0,18.4692 1.462,0 c 4.023,0 6.035,1.5238 6.035,4.5715 0,3.0478 -2.012,4.5716 -6.035,4.5716 l -10.697,0 0,-2.1029 c -4.572,2.3772 -9.631,3.5658 -15.178,3.5658 -4.51,0 -8.381,-1.1886 -11.611,-3.5658 -3.231,-2.4382 -4.846,-5.364 -4.846,-8.7774 m 31.726,-1.4629 0,-4.5716 c -3.84,-0.6705 -7.223,-1.0057 -10.148,-1.0057 -3.109,0 -5.883,0.6705 -8.321,2.0115 -2.377,1.341 -3.566,2.8953 -3.566,4.663 0,1.0362 0.671,1.8895 2.012,2.56 1.341,0.6705 2.987,1.0058 4.937,1.0058 4.998,0 10.027,-1.5543 15.086,-4.663"
           style="font-size:91.43135071px;font-variant:normal;font-weight:bold;font-stretch:normal;text-align:center;text-anchor:middle;fill:#000000;font-family:FreeMono;-inkscape-font-specification:FreeMono"
           id="path3050"
           inkscape:connector-curvature="0" />
        <path
           d="m -14559.422,-5760.3491 c 2.56,1e-4 5.12,0.7925 7.68,2.3773 2.56,1.5848 3.84,3.3829 3.84,5.3944 0,1.2801 -0.457,2.3772 -1.371,3.2915 -0.915,0.9144 -1.981,1.3715 -3.201,1.3715 -1.036,0 -2.224,-0.5486 -3.565,-1.6458 -1.341,-1.0971 -2.53,-1.6457 -3.566,-1.6457 -1.463,0 -3.261,0.6705 -5.395,2.0115 -2.072,1.28 -5.303,3.7182 -9.691,7.3145 l 0,13.4404 12.709,0 c 4.084,0 6.125,1.5238 6.126,4.5715 0,3.0478 -2.042,4.5716 -6.126,4.5716 l -27.156,0 c -4.022,0 -6.034,-1.5238 -6.034,-4.5716 0,-1.7676 0.518,-2.9562 1.554,-3.5658 1.037,-0.6705 2.53,-1.0057 4.48,-1.0057 l 5.304,0 0,-21.6693 -3.201,0 c -4.023,1e-4 -6.034,-1.5238 -6.034,-4.5715 0,-3.0477 2.011,-4.5715 6.034,-4.5716 l 12.344,0 0,5.9431 c 3.657,-2.743 6.552,-4.6021 8.686,-5.5774 2.133,-0.9752 4.327,-1.4628 6.583,-1.4629"
           style="font-size:91.43135071px;font-variant:normal;font-weight:bold;font-stretch:normal;text-align:center;text-anchor:middle;fill:#000000;font-family:FreeMono;-inkscape-font-specification:FreeMono"
           id="path3052"
           inkscape:connector-curvature="0" />
        <path
           d="m -14494.999,-5725.4223 c 0,1.9506 -1.768,3.5658 -5.303,4.8459 -3.535,1.2191 -6.857,1.981 -9.966,2.2858 -3.048,0.3047 -5.669,0.4571 -7.863,0.4571 -7.071,0 -12.861,-1.981 -17.372,-5.943 -4.511,-3.962 -6.766,-9.0517 -6.766,-15.2691 0,-6.0344 2.255,-11.0936 6.766,-15.1776 4.572,-4.1448 10.179,-6.2173 16.823,-6.2173 6.827,0 12.465,2.0725 16.915,6.2173 4.511,4.145 6.766,9.3565 6.766,15.6348 l 0,3.5658 -37.304,0 c 2.073,5.364 7.071,8.046 14.995,8.046 3.23,0 6.827,-0.4876 10.789,-1.4629 3.962,-1.0362 6.339,-1.5543 7.131,-1.5544 1.219,1e-4 2.256,0.4572 3.109,1.3715 0.853,0.8534 1.28,1.9201 1.28,3.2001 m -37.03,-17.6462 26.881,0 c -0.731,-2.4991 -2.316,-4.4801 -4.754,-5.9431 -2.438,-1.5238 -5.334,-2.2857 -8.686,-2.2858 -3.353,1e-4 -6.279,0.762 -8.778,2.2858 -2.438,1.5239 -3.992,3.5049 -4.663,5.9431"
           style="font-size:91.43135071px;font-variant:normal;font-weight:bold;font-stretch:normal;text-align:center;text-anchor:middle;fill:#000000;font-family:FreeMono;-inkscape-font-specification:FreeMono"
           id="path3054"
           inkscape:connector-curvature="0" />
      </g>
      <path
         inkscape:connector-curvature="0"
         id="path6366"
         d="m -16.000013,155.60625 0,4.98901 2.484005,0 293.030528,0 2.484,0 0,-4.98901 -2.484,0 -293.030528,0 -2.484005,0 z"
         style="font-size:medium;font-style:normal;font-variant:normal;font-weight:normal;font-stretch:normal;text-indent:0;text-align:start;text-decoration:none;line-height:normal;letter-spacing:normal;word-spacing:normal;text-transform:none;direction:ltr;block-progression:tb;writing-mode:lr-tb;text-anchor:start;baseline-shift:baseline;color:#000000;fill:#000000;fill-opacity:1;stroke:none;stroke-width:5;marker:none;visibility:visible;display:inline;overflow:visible;enable-background:accumulate;font-family:Sans;-inkscape-font-specification:Sans" />
      <path
         style="font-size:medium;font-style:normal;font-variant:normal;font-weight:normal;font-stretch:normal;text-indent:0;text-align:start;text-decoration:none;line-height:normal;letter-spacing:normal;word-spacing:normal;text-transform:none;direction:ltr;block-progression:tb;writing-mode:lr-tb;text-anchor:start;baseline-shift:baseline;color:#000000;fill:#000000;fill-opacity:1;stroke:none;stroke-width:5;marker:none;visibility:visible;display:inline;overflow:visible;enable-background:accumulate;font-family:Sans;-inkscape-font-specification:Sans"
         d="m -11.010004,130.36641 -4.990009,0 0,0.2516 0,29.72525 0,0.252 4.990009,0 0,-0.252 0,-29.72525 0,-0.2516 z"
         id="path6368"
         inkscape:connector-curvature="0" />
    </g>
  </g>
</svg>
